<?xml version="1.0" standalone="no"?>
<!DOCTYPE svg PUBLIC "-//W3C//DTD SVG 1.1//EN" "http://www.w3.org/Graphics/SVG/1.1/DTD/svg11.dtd" >
<svg xmlns="http://www.w3.org/2000/svg" xmlns:xlink="http://www.w3.org/1999/xlink" version="1.1">
<metadata>
Created by FontForge 20201107 at Wed Aug 31 14:42:29 2022
 By 
Copyright (c) 2022 by www.fontiran.com All rights reserved.
</metadata>
<defs>
<font id="AnjomanMax-SemiBold" horiz-adv-x="600" >
  <font-face 
    font-family="Anjoman Max SemiBold"
    font-weight="600"
    font-stretch="normal"
    units-per-em="1000"
    panose-1="0 0 0 0 0 0 0 0 0 0"
    ascent="800"
    descent="-200"
    x-height="538"
    cap-height="710"
    bbox="-219 -657 1576 1070"
    underline-thickness="67"
    underline-position="-401"
    unicode-range="U+0020-FEFC"
  />
<missing-glyph horiz-adv-x="785" 
d="M644 -500h-498v1570h498v-1570zM523 -392v52h-160l110 74h50v52h-261v-52h110l-110 -74v-52h261zM523 -178v177h-261v-177h261zM523 93v178h-157v-88h53v36h52v-74h-157v126h-52v-178h261zM523 305v157h-52v-103h-209v-54h261zM419 395v110h104v52h-261v-52h104v-58h-104
v-52h157zM523 599v53h-104v110h-157v-163h261zM523 803v52h-104v58h104v52h-259v-52h102v-58h-104v-52h261zM314 -53h157v-73h-157v73zM314 709h52v-57h-52v57z" />
    <glyph glyph-name="uniFDF2" unicode="&#x627;&#xfedf;&#xfee0;&#xfeea;" horiz-adv-x="1452" arabic-form="isolated" 
d="M582 504.5q-25 21.5 -25 58.5q0 20 2.5 44.5t7.5 59.5l59 -12l-10 -61q-2 -16 7 -24.5t26 -8.5q22 0 43 12v67h56v-55q0 -14 9 -19t27 -5q22 0 38 11q0 44 -9 90l62 18q10 -56 10 -108q0 -42 -27 -65.5t-70 -23.5q-23 0 -38 7t-26 20q-30 -27 -76 -27q-41 0 -66 21.5z
M90 272q21 48 67 83.5t124 66.5l-8 70l103 31l27 -264q4 -41 10 -64t23 -37t50 -14h37q62 0 101 4.5t64 17.5l-10 233l104 20l2 -197q1 -36 26.5 -57t72.5 -21h31q99 0 150 27l-27 477l115 19l9 -507q1 -34 -13.5 -64t-45.5 -51q-34 -22 -85 -33.5t-103 -11.5
q-77 0 -119.5 18t-54.5 59q-30 -43 -83 -60t-134 -17h-44q-50 0 -86 24.5t-48 70.5l-3 -7q-11 -27 -45 -36t-95 -9q-60 0 -96.5 28t-36.5 84q0 69 21 117zM216 173q43 0 100 19l-16 126q-71 -22 -104.5 -58t-37.5 -75q26 -12 58 -12zM752 883l-4 -179h-53l-8 168zM1379 696
l4 -696l-96 -12l-22 688z" />
    <glyph glyph-name="uniFDFC" unicode="&#x631;&#xfef3;&#xfe8e;&#x644;&#x621;" horiz-adv-x="1646" arabic-form="isolated" 
d="M150.5 -180.5q-59.5 50.5 -59.5 152.5q0 19 5.5 57.5t10.5 72t8 52.5q7 42 22 139l89 -19q-39 -234 -39 -281q0 -44 46 -61.5t112 -17.5q127 0 194 41l-28 721l114 20l13 -767q1 -54 -48.5 -90t-118.5 -53t-126 -17q-135 0 -194.5 50.5zM839 696l3 -464q0 -42 24 -65
t68 -23h39h3q105 0 161.5 5.5t90.5 21.5l-22 219l110 19q10 -160 10 -249q0 -35 -14 -65t-44 -50q-38 -23 -104 -34t-188 -11h-28q-71 0 -114 21t-65.5 71t-26.5 139l-17 445zM806 -109h345v-120h-345v120zM1399 -75.5q57 49.5 79 101.5l-39 297l114 23q12 -115 17.5 -179.5
t5.5 -110.5q0 -101 -65.5 -186.5t-209.5 -156.5l-71 111q112 51 169 100.5z" />
    <glyph glyph-name="uni06440622" unicode="&#xfedf;&#xfe82;" horiz-adv-x="519" arabic-form="isolated" 
d="M225 137.5q89 22.5 124 47.5l-29 506l115 19l11 -521q2 -107 -116 -161.5t-273 -66.5l-19 144q98 10 187 32.5zM194 505q40 -135 40 -316l-92 -20q0 64 -9.5 140t-33.5 150zM74 594q-30 4 -37 4q-17 0 -26 -9t-17 -38l-77 20q19 71 44.5 97.5t72.5 26.5q20 0 55 -5
q70 -9 116 -9h57l-20 -96h-50q-57 0 -118 9z" />
    <glyph glyph-name="uni06440622.fina" unicode="&#xfee0;&#xfe82;" horiz-adv-x="597" arabic-form="final" 
d="M450 17q-38 17 -55 56q-52 -50 -144.5 -77t-193.5 -35l-19 144q98 10 187 32.5t124 47.5l-29 506l115 19l11 -489q1 -32 11.5 -48.5t34.5 -22.5t71 -6h34q3 0 5.5 -10.5t2.5 -24.5v-73q0 -15 -2.5 -25.5t-5.5 -10.5h-41q-68 0 -106 17zM194 505q40 -135 40 -316l-92 -20
q0 64 -9.5 140t-33.5 150zM74 588q-30 4 -37 4q-17 0 -26 -9t-17 -38l-77 20q19 71 44.5 97.5t72.5 26.5q20 0 55 -5q70 -9 116 -9h57l-20 -96h-50q-57 0 -118 9z" />
    <glyph glyph-name="uni06440623" unicode="&#xfedf;&#xfe84;" horiz-adv-x="519" arabic-form="isolated" 
d="M225 137.5q89 22.5 124 47.5l-29 506l115 19l11 -521q2 -107 -116 -161.5t-273 -66.5l-19 144q98 10 187 32.5zM194 505q40 -135 40 -316l-92 -20q0 64 -9.5 140t-33.5 150zM-41 591l75 21q-23 46 -23 81q0 36 26.5 56.5t73.5 20.5q28 0 51 -7v-62q-36 7 -67 7
q-20 0 -31 -5q0 -15 8.5 -36t19.5 -39l120 34v-65l-253 -71v65z" />
    <glyph glyph-name="uni06440623.fina" unicode="&#xfee0;&#xfe84;" horiz-adv-x="597" arabic-form="final" 
d="M450 17q-38 17 -55 56q-52 -50 -144.5 -77t-193.5 -35l-19 144q98 10 187 32.5t124 47.5l-29 506l115 19l11 -489q1 -32 11.5 -48.5t34.5 -22.5t71 -6h34q3 0 5.5 -10.5t2.5 -24.5v-73q0 -15 -2.5 -25.5t-5.5 -10.5h-41q-68 0 -106 17zM194 505q40 -135 40 -316l-92 -20
q0 64 -9.5 140t-33.5 150zM-41 594l75 21q-23 46 -23 81q0 36 26.5 56.5t73.5 20.5q28 0 51 -7v-62q-36 7 -67 7q-20 0 -31 -5q0 -15 8.5 -36t19.5 -39l120 34v-65l-253 -71v65z" />
    <glyph glyph-name="uni06440625" unicode="&#xfedf;&#xfe88;" horiz-adv-x="519" arabic-form="isolated" 
d="M225 137.5q89 22.5 124 47.5l-29 506l115 19l11 -521q2 -107 -116 -161.5t-273 -66.5l-19 144q98 10 187 32.5zM105 690q79 -118 104 -245t25 -256l-92 -20q0 107 -25 227t-97 221zM95 -235l75 21q-23 46 -23 81q0 36 26.5 56.5t73.5 20.5q28 0 51 -7v-62q-36 7 -67 7
q-20 0 -31 -5q0 -15 8.5 -36t19.5 -39l120 34v-65l-253 -71v65z" />
    <glyph glyph-name="uni06440625.fina" unicode="&#xfee0;&#xfe88;" horiz-adv-x="597" arabic-form="final" 
d="M450 17q-38 17 -55 56q-52 -50 -144.5 -77t-193.5 -35l-19 144q98 10 187 32.5t124 47.5l-29 506l115 19l11 -489q1 -32 11.5 -48.5t34.5 -22.5t71 -6h34q3 0 5.5 -10.5t2.5 -24.5v-73q0 -15 -2.5 -25.5t-5.5 -10.5h-41q-68 0 -106 17zM105 690q79 -118 104 -245t25 -256
l-92 -20q0 107 -25 227t-97 221zM95 -243l75 21q-23 46 -23 81q0 36 26.5 56.5t73.5 20.5q28 0 51 -7v-62q-36 7 -67 7q-20 0 -31 -5q0 -15 8.5 -36t19.5 -39l120 34v-65l-253 -71v65z" />
    <glyph glyph-name="uni06440627" unicode="&#xfedf;&#xfe8e;" horiz-adv-x="519" arabic-form="isolated" 
d="M225 137.5q89 22.5 124 47.5l-29 506l115 19l11 -521q2 -107 -116 -161.5t-273 -66.5l-19 144q98 10 187 32.5zM105 690q79 -118 104 -245t25 -256l-92 -20q0 107 -25 227t-97 221z" />
    <glyph glyph-name="uni06440627.fina" unicode="&#xfee0;&#xfe8e;" horiz-adv-x="597" arabic-form="final" 
d="M450 17q-38 17 -55 56q-52 -50 -144.5 -77t-193.5 -35l-19 144q98 10 187 32.5t124 47.5l-29 506l115 19l11 -489q1 -32 11.5 -48.5t34.5 -22.5t71 -6h34q3 0 5.5 -10.5t2.5 -24.5v-73q0 -15 -2.5 -25.5t-5.5 -10.5h-41q-68 0 -106 17zM105 690q79 -118 104 -245t25 -256
l-92 -20q0 107 -25 227t-97 221z" />
    <glyph glyph-name="uni06440671" unicode="&#xfedf;&#xfb51;" horiz-adv-x="519" 
d="M225 137.5q89 22.5 124 47.5l-29 506l115 19l11 -521q2 -107 -116 -161.5t-273 -66.5l-19 144q98 10 187 32.5zM194 505q40 -135 40 -316l-92 -20q0 64 -9.5 140t-33.5 150zM6 549q-25 11 -25 38v30q-11 -6 -25.5 -24.5t-24.5 -39.5l-45 26q6 19 25 45.5t46.5 45
t59.5 16.5v-56q0 -8 5 -11.5t10 -3.5q31 41 61.5 70t63.5 29q40 0 58 -22t18 -69q0 -31 -11 -42q-17 -19 -55.5 -31t-83.5 -12q-52 0 -77 11zM185 615q0 20 -6.5 29.5t-23.5 9.5q-30 0 -79 -54q60 1 109 15z" />
    <glyph glyph-name="uni06440671.fina" unicode="&#xfee0;&#xfb51;" horiz-adv-x="597" 
d="M450 17q-38 17 -55 56q-52 -50 -144.5 -77t-193.5 -35l-19 144q98 10 187 32.5t124 47.5l-29 506l115 19l11 -489q1 -32 11.5 -48.5t34.5 -22.5t71 -6h34q3 0 5.5 -10.5t2.5 -24.5v-73q0 -15 -2.5 -25.5t-5.5 -10.5h-41q-68 0 -106 17zM194 505q40 -135 40 -316l-92 -20
q0 64 -9.5 140t-33.5 150zM6 545q-25 11 -25 38v30q-11 -6 -25.5 -24.5t-24.5 -39.5l-45 26q6 19 25 45.5t46.5 45t59.5 16.5v-56q0 -8 5 -11.5t10 -3.5q31 41 61.5 70t63.5 29q40 0 58 -22t18 -69q0 -31 -11 -42q-17 -19 -55.5 -31t-83.5 -12q-52 0 -77 11zM185 611
q0 20 -6.5 29.5t-23.5 9.5q-30 0 -79 -54q60 1 109 15z" />
    <glyph glyph-name="uni066E.init" unicode="&#x66e;" horiz-adv-x="345" 
d="M-6 11q-3 11 -3 25v73q0 14 3 24.5t6 10.5q59 0 103 5.5t75 21.5l-22 219l110 19q10 -160 10 -249q0 -34 -14.5 -64.5t-44.5 -50.5q-74 -45 -217 -45q-3 0 -6 11z" />
    <glyph glyph-name="uni066E.medi" unicode="&#x66e;" horiz-adv-x="371" 
d="M-6 11q-3 11 -3 25v73q0 14 3 24.5t6 10.5q46 0 81 6t64 21l-22 185l111 11l10 -201q41 -22 127 -22q4 0 6.5 -10.5t2.5 -24.5v-73q0 -15 -2.5 -25.5t-6.5 -10.5q-84 0 -124 16.5t-53 53.5q-19 -38 -64 -54t-130 -16q-3 0 -6 11z" />
    <glyph glyph-name="uni066E.fina" unicode="&#x66e;" horiz-adv-x="910" 
d="M228 11.5q-74 16.5 -116.5 60t-42.5 122.5q0 21 7.5 71t24.5 144l88 -18q-23 -135 -23 -171q0 -33 21.5 -50t72 -24t145.5 -7q183 0 287 30l-16 166l106 11l10 -182q17 -11 45.5 -15.5t72.5 -4.5q4 0 6.5 -10.5t2.5 -24.5v-73q0 -15 -2.5 -25.5t-6.5 -10.5
q-79 0 -126.5 18t-59.5 50q-25 -31 -74 -44q-46 -12 -108.5 -20.5t-129.5 -8.5q-110 0 -184 16.5z" />
    <glyph glyph-name="uni066F.fina" unicode="&#x66f;" horiz-adv-x="818" 
d="M824.5 133.5q2.5 -10.5 2.5 -24.5v-73q0 -15 -2.5 -25.5t-6.5 -10.5h-117q-4 -68 -16 -105.5t-37 -61.5q-47 -47 -139 -67.5t-186 -20.5q-134 0 -194 51t-60 152q0 23 7.5 75t18.5 119q10 52 21 127l88 -19q-38 -228 -38 -281q0 -43 45.5 -61t111.5 -18q83 0 149.5 10.5
t127.5 36.5q3 21 5 72q-43 -9 -107 -9q-56 0 -81.5 8.5t-46.5 38.5q-16 21 -21 35t-5 39q0 66 19.5 126.5t60.5 99t103 38.5q77 0 122 -69t52 -172h117q4 0 6.5 -10.5zM519 119q54 0 87 8q0 70 -23.5 105t-64.5 35q-36 0 -58.5 -37t-22.5 -102q43 -9 82 -9z" />
    <glyph glyph-name="uni0695.fina" unicode="&#x695;" horiz-adv-x="402" 
d="M309 11.5q-26 11.5 -44 33.5q-3 -97 -69 -180t-207 -152l-70 111q112 51 169 100.5t78 101.5l-38 297l114 23l11 -105l3 -30q4 -37 31 -52t79 -15h36q4 0 6.5 -10.5t2.5 -24.5v-73q0 -15 -2.5 -25.5t-6.5 -10.5h-36q-31 0 -57 11.5zM-4.5 -483.5q-20.5 42.5 -49.5 88.5
l55 27q40 -66 60 -127q20 57 65 127l50 -36q-53 -80 -85 -170l-56 -7q-19 55 -39.5 97.5z" />
    <glyph glyph-name="uni06A1.init" unicode="&#x6a1;" horiz-adv-x="476" 
d="M-6 11q-3 11 -3 25v73q0 14 3 24.5t6 10.5q154 0 216.5 2.5t88.5 10.5q2 15 4 57q-43 -9 -107 -9q-56 0 -81.5 8.5t-47.5 38.5q-15 21 -20 35.5t-5 38.5q0 66 19.5 127t60.5 99.5t103 38.5q57 0 97 -40t59.5 -104.5t19.5 -138.5q0 -90 -6.5 -143t-23.5 -84.5t-49 -48.5
q-28 -14 -62 -21t-92.5 -9t-173.5 -2q-3 0 -6 11zM223 324q54 0 87 8q0 70 -23.5 105t-64.5 35q-36 0 -59 -37t-23 -101q32 -10 83 -10z" />
    <glyph glyph-name="uni06A1.medi" unicode="&#x6a1;" horiz-adv-x="475" 
d="M-6 11q-3 11 -3 25v73q0 14 3 24.5t6 10.5h49q19 0 59 5q-21 13 -37 37t-16 51q0 33 31 86.5t76.5 94t88.5 40.5t82.5 -31.5t63.5 -83.5t24 -111q0 -29 -11.5 -48t-43.5 -36q52 -4 72 -4h37q3 0 5.5 -10.5t2.5 -24.5v-73q0 -15 -2.5 -25.5t-5.5 -10.5h-76q-51 0 -90 11.5
t-76 44.5q-32 -31 -73 -43.5t-100 -12.5h-60q-3 0 -6 11zM179.5 200.5q25.5 -21.5 63.5 -36.5l75 55q0 44 -21 80.5t-51 36.5q-18 0 -40 -15.5t-37 -38t-15 -40.5q0 -20 25.5 -41.5z" />
    <glyph glyph-name="uni06A1.fina" unicode="&#x6a1;" horiz-adv-x="967" 
d="M228 11.5q-74 16.5 -116.5 60t-42.5 122.5q0 21 7.5 71t24.5 144l88 -18q-23 -135 -23 -171q0 -33 21.5 -50t72 -24t145.5 -7q138 0 196 7q-22 16 -38 40.5t-16 50.5q0 33 30 87t75 94t91 40q47 0 86 -31t62 -83.5t23 -111.5q0 -30 -11.5 -48.5t-44.5 -36.5q39 -3 72 -3
h37q4 0 6.5 -10.5t2.5 -24.5v-73q0 -15 -2.5 -25.5t-6.5 -10.5h-75q-52 0 -90.5 11t-74.5 44q-22 -20 -46 -28q-96 -32 -269 -32q-110 0 -184 16.5zM672 200q25 -22 63 -36l76 55q0 44 -21 80.5t-52 36.5q-18 0 -39.5 -15.5t-36.5 -38t-15 -40.5q0 -20 25 -42z" />
    <glyph glyph-name="uni06AA.init" unicode="&#x6aa;" horiz-adv-x="871" 
d="M-6 11q-3 11 -3 25v73q0 14 3 24.5t6 10.5h416q225 0 286 52q-11 40 -59 58.5t-137 18.5q-198 0 -272.5 3.5t-104 19.5t-29.5 56q0 72 50 138.5t129 108.5t160 44l15 -128q-88 -3 -153.5 -33.5t-91.5 -71.5q22 -5 74.5 -6.5t157.5 -1.5q121 0 199 -19.5t119.5 -69
t41.5 -137.5q0 -44 -46.5 -84.5t-138.5 -66t-220 -25.5h-396q-3 0 -6 11z" />
    <glyph glyph-name="uni06AA.medi" unicode="&#x6aa;" horiz-adv-x="931" 
d="M750 88q-49 -40 -139 -64t-215 -24h-396q-3 0 -6 11t-3 25v73q0 14 3 24.5t6 10.5h416q225 0 286 52q-11 40 -59 58.5t-137 18.5q-198 0 -272.5 3.5t-104 19.5t-29.5 56q0 72 50 138.5t129 108.5t160 44l15 -128q-88 -3 -153.5 -33.5t-91.5 -71.5q22 -5 74.5 -6.5
t157.5 -1.5q119 0 197 -19t120 -67t43 -133q10 -20 31 -29.5t58 -9.5h41q4 0 6.5 -10.5t2.5 -24.5v-73q0 -15 -2.5 -25.5t-6.5 -10.5h-27q-127 0 -154 88z" />
    <glyph glyph-name="uni06AA.fina" unicode="&#x6aa;" horiz-adv-x="1068" 
d="M887 87q-49 -42 -139.5 -67t-214.5 -25q-162 0 -381 14l-83 144q152 -9 244 -11.5t240 -2.5q112 0 184.5 15t101.5 41q-11 41 -58.5 59.5t-137.5 18.5q-198 0 -272.5 3.5t-104 19.5t-29.5 56q0 72 50 138.5t128.5 108.5t160.5 44l15 -128q-88 -3 -153.5 -33.5
t-91.5 -71.5q22 -5 74 -6.5t158 -1.5q119 0 196.5 -19t120 -67t43.5 -133q10 -20 31 -29.5t58 -9.5h41q3 0 6 -10.5t3 -24.5v-73q0 -14 -3 -25t-6 -11h-27q-127 0 -154 87z" />
    <glyph glyph-name="uni06B5.init" unicode="&#x6b5;" horiz-adv-x="349" 
d="M-6 11q-3 11 -3 25v73q0 14 3 24.5t6 10.5q60 0 104 6t76 22l-26 519l114 19l8 -550q1 -88 -77 -124t-199 -36q-3 0 -6 11zM141.5 867.5q-20.5 42.5 -49.5 88.5l55 27q40 -66 60 -127q20 57 65 127l50 -36q-53 -80 -85 -170l-56 -7q-19 55 -39.5 97.5z" />
    <glyph glyph-name="uni06B5.medi" unicode="&#x6b5;" horiz-adv-x="380" 
d="M-6 11q-3 11 -3 25v73q0 14 3 24.5t6 10.5q57 0 90 5t55 19l-23 523l115 19l4 -488q1 -36 26.5 -57t71.5 -21h41q4 0 6.5 -10.5t2.5 -24.5v-73q0 -15 -2.5 -25.5t-6.5 -10.5q-84 0 -128 18.5t-55 58.5q-27 -42 -77.5 -59.5t-119.5 -17.5q-3 0 -6 11zM150.5 867.5
q-20.5 42.5 -49.5 88.5l55 27q40 -66 60 -127q20 57 65 127l50 -36q-53 -80 -85 -170l-56 -7q-19 55 -39.5 97.5z" />
    <glyph glyph-name="uni06B5.fina" unicode="&#x6b5;" horiz-adv-x="746" 
d="M603 49l2 -120q1 -53 -48 -89.5t-117 -53.5t-122 -17q-131 0 -190 51t-59 152q0 23 7.5 75t18.5 119q10 52 21 127l88 -19q-39 -234 -39 -281q0 -43 45.5 -61t107.5 -18q121 0 188 41l-28 736l114 19l8 -510q9 -35 31 -45.5t62 -10.5h53q3 0 5.5 -10.5t2.5 -24.5v-73
q0 -15 -2.5 -25.5t-5.5 -10.5h-31q-70 0 -112 49zM128.5 484.5q-20.5 42.5 -49.5 88.5l55 27q40 -66 60 -127q20 57 65 127l50 -36q-53 -80 -85 -170l-56 -7q-19 55 -39.5 97.5z" />
    <glyph glyph-name="uni06C2.fina" unicode="&#x6c2;" horiz-adv-x="523" 
d="M394.5 22q-35.5 22 -48.5 63l-8 -13q-15 -25 -47 -33t-89 -8q-59 0 -96 28.5t-37 84.5q0 69 21 117t67 83.5t124 66.5l-8 70l103 30l27 -264q4 -39 10 -59.5t22.5 -32t50.5 -11.5h37q3 0 5.5 -10.5t2.5 -24.5v-73q0 -15 -2.5 -25.5t-5.5 -10.5h-44q-49 0 -84.5 22z
M216 161q40 0 100 20l-16 125q-71 -22 -104 -58t-38 -75q26 -12 58 -12zM191 666l75 21q-23 46 -23 81q0 36 26.5 56.5t73.5 20.5q28 0 51 -7v-62q-36 7 -67 7q-20 0 -31 -5q0 -15 8.5 -36t19.5 -39l120 34v-65l-253 -71v65z" />
    <glyph glyph-name="uni06C3.fina" unicode="&#x6c3;" horiz-adv-x="523" 
d="M394.5 22q-35.5 22 -48.5 63l-8 -13q-15 -25 -47 -33t-89 -8q-59 0 -96 28.5t-37 84.5q0 69 21 117t67 83.5t124 66.5l-8 70l103 30l27 -264q4 -39 10 -59.5t22.5 -32t50.5 -11.5h37q3 0 5.5 -10.5t2.5 -24.5v-73q0 -15 -2.5 -25.5t-5.5 -10.5h-44q-49 0 -84.5 22z
M216 161q40 0 100 20l-16 125q-71 -22 -104 -58t-38 -75q26 -12 58 -12zM161 688l72 89l92 -73l59 73l95 -76l-72 -89l-92 73l-59 -73z" />
    <glyph glyph-name="uni06CE.init" unicode="&#x6ce;" horiz-adv-x="345" 
d="M-6 11q-3 11 -3 25v73q0 14 3 24.5t6 10.5q59 0 103 5.5t75 21.5l-22 219l110 19q10 -160 10 -249q0 -34 -14.5 -64.5t-44.5 -50.5q-74 -45 -217 -45q-3 0 -6 11zM-59 -187l72 89l92 -73l59 73l95 -76l-72 -89l-92 73l-59 -73zM131.5 597.5q-20.5 42.5 -49.5 88.5l55 27
q40 -66 60 -127q20 57 65 127l50 -36q-53 -80 -85 -170l-56 -7q-19 55 -39.5 97.5z" />
    <glyph glyph-name="uni06CE.medi" unicode="&#x6ce;" horiz-adv-x="371" 
d="M-6 11q-3 11 -3 25v73q0 14 3 24.5t6 10.5q46 0 81 6t64 21l-22 185l111 11l10 -201q41 -22 127 -22q4 0 6.5 -10.5t2.5 -24.5v-73q0 -15 -2.5 -25.5t-6.5 -10.5q-84 0 -124 16.5t-53 53.5q-19 -38 -64 -54t-130 -16q-3 0 -6 11zM2 -187l72 89l92 -73l59 73l95 -76
l-72 -89l-92 73l-59 -73zM105.5 557.5q-20.5 42.5 -49.5 88.5l55 27q40 -66 60 -127q20 57 65 127l50 -36q-53 -80 -85 -170l-56 -7q-19 55 -39.5 97.5z" />
    <glyph glyph-name="uni06CE.fina" unicode="&#x6ce;" horiz-adv-x="715" 
d="M129 -206.5q-60 50.5 -60 151.5q0 23 7.5 75t18.5 119q10 52 21 127l88 -18q-38 -228 -38 -282q0 -43 45.5 -61t111.5 -18q94 0 156.5 12.5t100.5 43.5q1 4 1 10q0 21 -17 31t-50 13t-98 3l26 144h273q3 0 5.5 -10.5t2.5 -24.5v-73q0 -15 -2.5 -25.5t-5.5 -10.5h-40
q1 -8 1 -24q0 -79 -48 -131.5t-128 -77t-177 -24.5q-134 0 -194 50.5zM161.5 456.5q-20.5 42.5 -49.5 88.5l55 27q40 -66 60 -127q20 57 65 127l50 -36q-53 -80 -85 -170l-56 -7q-19 55 -39.5 97.5z" />
    <glyph glyph-name="uni06D5.fina" unicode="&#x6d5;" horiz-adv-x="523" 
d="M394.5 22q-35.5 22 -48.5 63l-8 -13q-15 -25 -47 -33t-89 -8q-59 0 -96 28.5t-37 84.5q0 69 21 117t67 83.5t124 66.5l-8 70l103 30l27 -264q4 -39 10 -59.5t22.5 -32t50.5 -11.5h37q3 0 5.5 -10.5t2.5 -24.5v-73q0 -15 -2.5 -25.5t-5.5 -10.5h-44q-49 0 -84.5 22z
M216 161q40 0 100 20l-16 125q-71 -22 -104 -58t-38 -75q26 -12 58 -12z" />
    <glyph glyph-name="uni0671.fina" unicode="&#x671;" horiz-adv-x="310" arabic-form="final" 
d="M169 21q-43 21 -66 71t-29 139l-15 265l115 19l2 -283q1 -43 24.5 -65.5t67.5 -22.5h42q3 0 6 -10.5t3 -24.5v-73q0 -14 -3 -25t-6 -11h-27q-71 0 -114 21zM35 565q-25 11 -25 38v30q-11 -6 -25.5 -24.5t-24.5 -39.5l-45 26q6 19 25 45.5t46.5 45t59.5 16.5v-56
q0 -8 5 -11.5t10 -3.5q31 41 61.5 70t63.5 29q40 0 58 -22t18 -69q0 -31 -11 -42q-17 -19 -55.5 -31t-83.5 -12q-52 0 -77 11zM214 631q0 20 -6.5 29.5t-23.5 9.5q-30 0 -79 -54q60 1 109 15z" />
    <glyph glyph-name="uni067E.fina" unicode="&#x67e;" horiz-adv-x="910" arabic-form="final" 
d="M228 11.5q-74 16.5 -116.5 60t-42.5 122.5q0 21 7.5 71t24.5 144l88 -18q-23 -135 -23 -171q0 -33 21.5 -50t72 -24t145.5 -7q183 0 287 30l-16 166l106 11l10 -182q17 -11 45.5 -15.5t72.5 -4.5q4 0 6.5 -10.5t2.5 -24.5v-73q0 -15 -2.5 -25.5t-6.5 -10.5
q-79 0 -126.5 18t-59.5 50q-25 -31 -74 -44q-46 -12 -108.5 -20.5t-129.5 -8.5q-110 0 -184 16.5zM266 -182l66 81l84 -67l55 67l87 -69l-66 -81l-84 67l-55 -67zM409 -241l87 -68l-66 -81l-87 69z" />
    <glyph glyph-name="uni067E.init" unicode="&#x67e;" horiz-adv-x="345" arabic-form="initial" 
d="M-6 11q-3 11 -3 25v73q0 14 3 24.5t6 10.5q59 0 103 5.5t75 21.5l-22 219l110 19q10 -160 10 -249q0 -34 -14.5 -64.5t-44.5 -50.5q-74 -45 -217 -45q-3 0 -6 11zM-46 -179l66 81l84 -67l55 67l87 -69l-66 -81l-84 67l-55 -67zM97 -238l87 -68l-66 -81l-87 69z" />
    <glyph glyph-name="uni067E.medi" unicode="&#x67e;" horiz-adv-x="371" arabic-form="medial" 
d="M-6 11q-3 11 -3 25v73q0 14 3 24.5t6 10.5q46 0 81 6t64 21l-22 185l111 11l10 -201q41 -22 127 -22q4 0 6.5 -10.5t2.5 -24.5v-73q0 -15 -2.5 -25.5t-6.5 -10.5q-84 0 -124 16.5t-53 53.5q-19 -38 -64 -54t-130 -16q-3 0 -6 11zM15 -179l66 81l84 -67l55 67l87 -69
l-66 -81l-84 67l-55 -67zM158 -238l87 -68l-66 -81l-87 69z" />
    <glyph glyph-name="uni0679.fina" unicode="&#x679;" horiz-adv-x="910" arabic-form="final" 
d="M228 11.5q-74 16.5 -116.5 60t-42.5 122.5q0 21 7.5 71t24.5 144l88 -18q-23 -135 -23 -171q0 -33 21.5 -50t72 -24t145.5 -7q183 0 287 30l-16 166l106 11l10 -182q17 -11 45.5 -15.5t72.5 -4.5q4 0 6.5 -10.5t2.5 -24.5v-73q0 -15 -2.5 -25.5t-6.5 -10.5
q-79 0 -126.5 18t-59.5 50q-25 -31 -74 -44q-46 -12 -108.5 -20.5t-129.5 -8.5q-110 0 -184 16.5zM311 456l38 1l7 10q4 6 5.5 18t1.5 39q0 37 -3 133l56 13v-125v-8q39 39 73 39q41 0 62.5 -25.5t21.5 -73.5q0 -39 -38 -61t-105 -22h-107zM448 459q45 0 75 16q-1 39 -38 39
q-29 0 -73 -55h36z" />
    <glyph glyph-name="uni0679.init" unicode="&#x679;" horiz-adv-x="345" arabic-form="initial" 
d="M-6 11q-3 11 -3 25v73q0 14 3 24.5t6 10.5q59 0 103 5.5t75 21.5l-22 219l110 19q10 -160 10 -249q0 -34 -14.5 -64.5t-44.5 -50.5q-74 -45 -217 -45q-3 0 -6 11zM66 562l38 1l7 10q4 6 5.5 18t1.5 39q0 37 -3 133l56 13v-125v-8q39 39 73 39q41 0 62.5 -25.5t21.5 -73.5
q0 -39 -38 -61t-105 -22h-107zM203 565q45 0 75 16q-1 39 -38 39q-29 0 -73 -55h36z" />
    <glyph glyph-name="uni0679.medi" unicode="&#x679;" horiz-adv-x="371" arabic-form="medial" 
d="M-6 11q-3 11 -3 25v73q0 14 3 24.5t6 10.5q46 0 81 6t64 21l-22 185l111 11l10 -201q41 -22 127 -22q4 0 6.5 -10.5t2.5 -24.5v-73q0 -15 -2.5 -25.5t-6.5 -10.5q-84 0 -124 16.5t-53 53.5q-19 -38 -64 -54t-130 -16q-3 0 -6 11zM40 522l38 1l7 10q4 6 5.5 18t1.5 39
q0 37 -3 133l56 13v-125v-8q39 39 73 39q41 0 62.5 -25.5t21.5 -73.5q0 -39 -38 -61t-105 -22h-107zM177 525q45 0 75 16q-1 39 -38 39q-29 0 -73 -55h36z" />
    <glyph glyph-name="uni06A4.fina" unicode="&#x6a4;" horiz-adv-x="967" arabic-form="final" 
d="M228 11.5q-74 16.5 -116.5 60t-42.5 122.5q0 21 7.5 71t24.5 144l88 -18q-23 -135 -23 -171q0 -33 21.5 -50t72 -24t145.5 -7q138 0 196 7q-22 16 -38 40.5t-16 50.5q0 33 30 87t75 94t91 40q47 0 86 -31t62 -83.5t23 -111.5q0 -30 -11.5 -48.5t-44.5 -36.5q39 -3 72 -3
h37q4 0 6.5 -10.5t2.5 -24.5v-73q0 -15 -2.5 -25.5t-6.5 -10.5h-75q-52 0 -90.5 11t-74.5 44q-22 -20 -46 -28q-96 -32 -269 -32q-110 0 -184 16.5zM672 200q25 -22 63 -36l76 55q0 44 -21 80.5t-52 36.5q-18 0 -39.5 -15.5t-36.5 -38t-15 -40.5q0 -20 25 -42zM590 597
l66 81l84 -67l55 67l87 -69l-66 -81l-84 67l-55 -67zM714 825l87 -68l-66 -81l-86 68z" />
    <glyph glyph-name="uni06A4.init" unicode="&#x6a4;" horiz-adv-x="476" arabic-form="initial" 
d="M-6 11q-3 11 -3 25v73q0 14 3 24.5t6 10.5q154 0 216.5 2.5t88.5 10.5q2 15 4 57q-43 -9 -107 -9q-56 0 -81.5 8.5t-47.5 38.5q-15 21 -20 35.5t-5 38.5q0 66 19.5 127t60.5 99.5t103 38.5q57 0 97 -40t59.5 -104.5t19.5 -138.5q0 -90 -6.5 -143t-23.5 -84.5t-49 -48.5
q-28 -14 -62 -21t-92.5 -9t-173.5 -2q-3 0 -6 11zM223 324q54 0 87 8q0 70 -23.5 105t-64.5 35q-36 0 -59 -37t-23 -101q32 -10 83 -10zM71 737l66 81l84 -67l55 67l87 -69l-66 -81l-84 67l-55 -67zM195 965l87 -68l-66 -81l-86 68z" />
    <glyph glyph-name="uni06A4.medi" unicode="&#x6a4;" horiz-adv-x="475" arabic-form="medial" 
d="M-6 11q-3 11 -3 25v73q0 14 3 24.5t6 10.5h49q19 0 59 5q-21 13 -37 37t-16 51q0 33 31 86.5t76.5 94t88.5 40.5t82.5 -31.5t63.5 -83.5t24 -111q0 -29 -11.5 -48t-43.5 -36q52 -4 72 -4h37q3 0 5.5 -10.5t2.5 -24.5v-73q0 -15 -2.5 -25.5t-5.5 -10.5h-76q-51 0 -90 11.5
t-76 44.5q-32 -31 -73 -43.5t-100 -12.5h-60q-3 0 -6 11zM179.5 200.5q25.5 -21.5 63.5 -36.5l75 55q0 44 -21 80.5t-51 36.5q-18 0 -40 -15.5t-37 -38t-15 -40.5q0 -20 25.5 -41.5zM98 597l66 81l84 -67l55 67l87 -69l-66 -81l-84 67l-55 -67zM222 825l87 -68l-66 -81
l-86 68z" />
    <glyph glyph-name="uni0686.fina" unicode="&#x686;" horiz-adv-x="746" arabic-form="final" 
d="M553 18q-43 18 -67.5 55.5t-44.5 107.5q-240 -85 -272 -226q0 -90 59 -131t160 -41q92 0 229 30l-8 -143q-114 -30 -225 -30q-146 0 -234 64.5t-88 202.5q0 118 77.5 218t239.5 167q-21 7 -94 36q-27 12 -50.5 20.5t-32.5 8.5q-26 0 -38.5 -15.5t-17.5 -44.5l-85 16
q12 82 44 129t92 47q33 0 70 -13t98 -41q72 -33 124.5 -51t107.5 -21l-13 -141l-59 -15q15 -37 40 -50t76 -13h105q4 0 6.5 -10.5t2.5 -24.5v-73q0 -15 -2.5 -25.5t-6.5 -10.5h-74q-76 0 -119 18zM314 42l64 -50l-49 -60l-63 51zM372 -61l64 -51l-49 -60l-63 51zM420 42
l63 -50l-48 -60l-64 51z" />
    <glyph glyph-name="uni0686.init" unicode="&#x686;" horiz-adv-x="720" arabic-form="initial" 
d="M-6 11q-3 11 -3 25v73q0 14 3 24.5t6 10.5h33q61 0 122.5 12t133.5 37q40 15 68 27q7 3 30.5 13t43.5 16q-44 14 -118 45q-85 35 -102 35q-26 0 -38.5 -15t-18.5 -45l-84 16q13 83 44.5 130t91.5 47q30 0 64.5 -12t93.5 -38q85 -37 148.5 -57t134.5 -20l-28 -142
q-59 -4 -108 -24.5t-118 -60.5l-46 -26q-72 -39 -147.5 -60.5t-169.5 -21.5h-30q-3 0 -6 11zM188 -179l66 81l84 -67l55 67l87 -69l-66 -81l-84 67l-55 -67zM331 -238l87 -68l-66 -81l-87 69z" />
    <glyph glyph-name="uni0686.medi" unicode="&#x686;" horiz-adv-x="731" arabic-form="medial" 
d="M-6 11q-3 11 -3 25v73q0 14 3 24.5t6 10.5h33q61 0 122.5 12t133.5 37q18 6 41.5 16.5t37.5 15.5q42 20 67 28q-34 9 -75 24.5t-51 19.5q-32 12 -59.5 22t-38.5 10q-26 0 -38.5 -15t-18.5 -45l-84 16q13 83 44.5 130t91.5 47q30 0 63.5 -11t94.5 -36q81 -34 146 -53.5
t137 -19.5l-28 -135q-42 -3 -80.5 -17.5t-80.5 -39.5q23 -7 92 -7l121 1h60q4 0 6.5 -10.5t2.5 -24.5v-73q0 -15 -2.5 -25.5t-6.5 -10.5h-145q-69 0 -129 23t-75 79q-30 -17 -35 -20q-72 -39 -147.5 -60.5t-169.5 -21.5h-30q-3 0 -6 11zM188 -179l66 81l84 -67l55 67l87 -69
l-66 -81l-84 67l-55 -67zM331 -238l87 -68l-66 -81l-87 69z" />
    <glyph glyph-name="uni0688.fina" unicode="&#x688;" horiz-adv-x="599" arabic-form="final" 
d="M96 18q-37 33 -37 115q0 18 4 78l88 -7v-24q0 -24 6 -34.5t22 -13.5t54 -3q44 0 88 9.5t72 25.5l-78 301l107 57l58 -290q9 -45 19.5 -62t30 -21.5t69.5 -4.5q4 0 6.5 -10.5t2.5 -24.5v-73q0 -15 -2.5 -25.5t-6.5 -10.5h-25q-108 0 -131 80q-9 -23 -17.5 -34t-23.5 -18
q-31 -17 -85 -30t-102 -13q-82 0 -119 33zM198 674l38 1l7 10q4 6 5.5 18t1.5 39q0 37 -3 133l56 13v-125v-8q39 39 73 39q41 0 62.5 -25.5t21.5 -73.5q0 -39 -38 -61t-105 -22h-107zM335 677q45 0 75 16q-1 39 -38 39q-29 0 -73 -55h36z" />
    <glyph glyph-name="uni0698.fina" unicode="&#x698;" horiz-adv-x="402" arabic-form="final" 
d="M309 11.5q-26 11.5 -44 33.5q-3 -97 -69 -180t-207 -152l-70 111q112 51 169 100.5t78 101.5l-38 297l114 23l11 -105l3 -30q4 -37 31 -52t79 -15h36q4 0 6.5 -10.5t2.5 -24.5v-73q0 -15 -2.5 -25.5t-6.5 -10.5h-36q-31 0 -57 11.5zM25 519l66 81l84 -67l55 67l87 -69
l-66 -81l-84 67l-55 -67zM149 747l87 -68l-66 -81l-86 68z" />
    <glyph glyph-name="uni0691.fina" unicode="&#x691;" horiz-adv-x="402" arabic-form="final" 
d="M309 11.5q-26 11.5 -44 33.5q-3 -97 -69 -180t-207 -152l-70 111q112 51 169 100.5t78 101.5l-38 297l114 23l11 -105l3 -30q4 -37 31 -52t79 -15h36q4 0 6.5 -10.5t2.5 -24.5v-73q0 -15 -2.5 -25.5t-6.5 -10.5h-36q-31 0 -57 11.5zM40 508l38 1l7 10q4 6 5.5 18t1.5 39
q0 37 -3 133l56 13v-125v-8q39 39 73 39q41 0 62.5 -25.5t21.5 -73.5q0 -39 -38 -61t-105 -22h-107zM177 511q45 0 75 16q-1 39 -38 39q-29 0 -73 -55h36z" />
    <glyph glyph-name="uni06A9.fina" unicode="&#x6a9;" horiz-adv-x="901" arabic-form="final" 
d="M737 57q-40 -33 -120.5 -47.5t-204.5 -14.5q-110 0 -184 16.5t-116.5 60t-42.5 122.5q0 21 7.5 71t24.5 144l88 -18q-23 -135 -23 -171q0 -33 21.5 -50t72 -24t145.5 -7q175 0 260 27q-16 103 -66 174.5t-154 132.5l13 102q163 77 358 135l15 -119q-115 -32 -227 -78
q153 -136 169 -329q9 -21 28.5 -30.5t53.5 -9.5h46q3 0 5.5 -10.5t2.5 -24.5v-73q0 -15 -2.5 -25.5t-5.5 -10.5h-33q-97 0 -131 57z" />
    <glyph glyph-name="uni06A9.init" unicode="&#x6a9;" horiz-adv-x="436" arabic-form="initial" 
d="M-6 11q-3 11 -3 25v73q0 14 3 24.5t6 10.5q77 0 138 6t96 17q-16 102 -66 173.5t-154 132.5l13 102q163 77 358 135l15 -119q-117 -32 -226 -78q171 -152 171 -375q0 -77 -87 -107.5t-258 -30.5q-3 0 -6 11z" />
    <glyph glyph-name="uni06A9.medi" unicode="&#x6a9;" horiz-adv-x="470" arabic-form="medial" 
d="M306 57q-39 -31 -115 -44t-191 -13q-3 0 -6 11t-3 25v73q0 14 3 24.5t6 10.5q77 0 138 6t96 17q-16 102 -66 173.5t-154 132.5l13 102q163 77 358 135l15 -119q-117 -32 -226 -78q153 -136 169 -330q9 -20 28.5 -29.5t52.5 -9.5h46q4 0 6.5 -10.5t2.5 -24.5v-73
q0 -15 -2.5 -25.5t-6.5 -10.5h-33q-97 0 -131 57z" />
    <glyph glyph-name="uni06AF.fina" unicode="&#x6af;" horiz-adv-x="901" arabic-form="final" 
d="M737 57q-40 -33 -120.5 -47.5t-204.5 -14.5q-110 0 -184 16.5t-116.5 60t-42.5 122.5q0 21 7.5 71t24.5 144l88 -18q-23 -135 -23 -171q0 -33 21.5 -50t72 -24t145.5 -7q175 0 260 27q-16 103 -66 174.5t-154 132.5l13 102q163 77 358 135l15 -119q-115 -32 -227 -78
q153 -136 169 -329q9 -21 28.5 -30.5t53.5 -9.5h46q3 0 5.5 -10.5t2.5 -24.5v-73q0 -15 -2.5 -25.5t-5.5 -10.5h-33q-97 0 -131 57zM468 678l169 76l7 -52l-180 -78z" />
    <glyph glyph-name="uni06AF.init" unicode="&#x6af;" horiz-adv-x="436" arabic-form="initial" 
d="M-6 11q-3 11 -3 25v73q0 14 3 24.5t6 10.5q77 0 138 6t96 17q-16 102 -66 173.5t-154 132.5l13 102q163 77 358 135l15 -119q-117 -32 -226 -78q171 -152 171 -375q0 -77 -87 -107.5t-258 -30.5q-3 0 -6 11zM37 678l169 76l7 -52l-180 -78z" />
    <glyph glyph-name="uni06AF.medi" unicode="&#x6af;" horiz-adv-x="470" arabic-form="medial" 
d="M306 57q-39 -31 -115 -44t-191 -13q-3 0 -6 11t-3 25v73q0 14 3 24.5t6 10.5q77 0 138 6t96 17q-16 102 -66 173.5t-154 132.5l13 102q163 77 358 135l15 -119q-117 -32 -226 -78q153 -136 169 -330q9 -20 28.5 -29.5t52.5 -9.5h46q4 0 6.5 -10.5t2.5 -24.5v-73
q0 -15 -2.5 -25.5t-6.5 -10.5h-33q-97 0 -131 57zM37 678l169 76l7 -52l-180 -78z" />
    <glyph glyph-name="uni06BA.fina" unicode="&#x6ba;" horiz-adv-x="789" arabic-form="final" 
d="M636 58q5 -85 5 -129q0 -54 -50.5 -90t-124.5 -53t-143 -17q-133 0 -193.5 50.5t-60.5 149.5q0 32 9.5 94.5t34.5 208.5l3 21l88 -19q-39 -234 -39 -281q0 -44 45.5 -61.5t112.5 -17.5q151 0 219 41l-40 375l110 23l15 -132q4 -37 19.5 -53t42 -20t82.5 -4h18
q3 0 5.5 -10.5t2.5 -24.5v-73q0 -15 -2.5 -25.5t-5.5 -10.5h-16q-97 0 -137 58z" />
    <glyph glyph-name="uni06C0.fina" unicode="&#x6c0;" horiz-adv-x="523" arabic-form="final" 
d="M394.5 22q-35.5 22 -48.5 63l-8 -13q-15 -25 -47 -33t-89 -8q-59 0 -96 28.5t-37 84.5q0 69 21 117t67 83.5t124 66.5l-8 70l103 30l27 -264q4 -39 10 -59.5t22.5 -32t50.5 -11.5h37q3 0 5.5 -10.5t2.5 -24.5v-73q0 -15 -2.5 -25.5t-5.5 -10.5h-44q-49 0 -84.5 22z
M216 161q40 0 100 20l-16 125q-71 -22 -104 -58t-38 -75q26 -12 58 -12zM358 728q0 12 -12.5 17t-40.5 10q-37 6 -56 15t-19 33q0 32 15.5 74.5t42.5 73.5t58 31q24 0 43.5 -14.5t40.5 -47.5l-37 -36q-23 26 -47 26q-22 0 -37 -23.5t-23 -56.5q47 -5 73 -12.5t40 -26
t14 -55.5q0 -58 -55.5 -92t-152.5 -34l7 82q111 0 146 36z" />
    <glyph glyph-name="uni06C1.fina" unicode="&#x6c1;" horiz-adv-x="534" arabic-form="final" 
d="M154 269.5q83 83.5 242 103.5l13 -138q4 -40 10 -58t20 -25.5t44 -7.5h51q4 0 6.5 -10.5t2.5 -24.5v-73q0 -15 -2.5 -25.5t-6.5 -10.5h-51q-80 0 -121 43t-43 121l-4 54q-56 -19 -95.5 -71t-43.5 -131l-107 38q2 132 85 215.5z" />
    <glyph glyph-name="uni06C1.init" unicode="&#x6c1;" horiz-adv-x="346" arabic-form="initial" 
d="M63.5 -310q-21.5 25 -21.5 69q0 48 23 105.5t59 100.5l51 -53q-22 -26 -36 -48.5t-22 -46.5q3 1 8 1q31 0 54 -22.5t23 -55.5q0 -31 -22.5 -53t-54.5 -22q-40 0 -61.5 25zM-9 109q0 14 3 24.5t6 10.5q59 0 103 5.5t75 21.5l-22 219l110 19q10 -160 10 -249
q0 -34 -14.5 -64.5t-44.5 -50.5q-74 -45 -217 -45q-3 0 -6 11t-3 25v73z" />
    <glyph glyph-name="uni06C1.medi" unicode="&#x6c1;" horiz-adv-x="503" arabic-form="medial" 
d="M131 33q-24 -18 -60 -25.5t-71 -7.5q-3 0 -6 11t-3 25v73q0 14 3 24.5t6 10.5q57 1 82.5 12.5t35.5 40.5t14 95l103 11q-16 -123 -16 -219q0 -51 13 -81.5t42 -46.5q-7 6 -7 25q5 75 54.5 119t130.5 44h51q3 0 5.5 -10.5t2.5 -24.5v-73q0 -15 -2.5 -25.5t-5.5 -10.5
q-59 0 -89.5 -4.5t-43.5 -15t-13 -31.5q0 -19 11 -27t34 -8v-140q-271 0 -271 259z" />
    <glyph glyph-name="uni06BE.fina" unicode="&#x6be;" horiz-adv-x="610" arabic-form="final" 
d="M245.5 -166.5q-53.5 59.5 -77.5 166.5h-98l40 144h78q14 69 45 130t73.5 98t87.5 37h76l4 -265h136q4 0 6.5 -10.5t2.5 -24.5v-73q0 -15 -2.5 -25.5t-6.5 -10.5q-93 0 -122 5q13 -10 20 -30t7 -43v-59q0 -38 -31 -65q-22 -20 -38 -27t-38 -7q-109 0 -162.5 59.5zM312 -83
q40 -31 110 -27v42q0 42 -21.5 63.5t-73.5 21.5h-63q8 -69 48 -100zM326 124q38 0 58 -7l-3 191q-40 -12 -70 -69.5t-40 -114.5h55z" />
    <glyph glyph-name="uni06BE.init" unicode="&#x6be;" horiz-adv-x="639" arabic-form="initial" 
d="M203.5 12q-72.5 -12 -203.5 -12q-3 0 -6 11t-3 25v73q0 14 3 24.5t6 10.5h85q10 0 16 -1q-26 32 -26 69t21 82.5t55 86.5l-44 22l49 107l284 -128q69 -31 105 -80t36 -115q0 -55 -33 -123q-15 -34 -42 -53q-16 -11 -26 -15.5t-20 -4.5q-9 0 -18 4l-144 56
q-22 -27 -94.5 -39zM206.5 214q20.5 -13 59.5 -22l49 114l-80 37q-49 -58 -49 -95q0 -21 20.5 -34zM462 113q20 32 20 66q0 29 -19 52t-62 41l-48 -114z" />
    <glyph glyph-name="uni06BE.medi" unicode="&#x6be;" horiz-adv-x="672" arabic-form="medial" 
d="M590 9.5q-32 9.5 -54 31.5q-13 -18 -30 -30q-16 -11 -26 -15.5t-20 -4.5q-9 0 -18 4l-144 56q-22 -27 -94.5 -39t-203.5 -12q-3 0 -6 11t-3 25v73q0 14 3 24.5t6 10.5h85q10 0 16 -1q-26 32 -26 69t21 82.5t55 86.5l-44 22l49 107l284 -128q69 -31 105 -80t36 -115
q0 -8 -2 -24q24 -19 93 -19q4 0 6.5 -10.5t2.5 -24.5v-73q0 -15 -2.5 -25.5t-6.5 -10.5q-50 0 -82 9.5zM206.5 214q20.5 -13 59.5 -22l49 114l-80 37q-49 -58 -49 -95q0 -21 20.5 -34zM462 113q20 32 20 66q0 29 -19 52t-62 41l-48 -114z" />
    <glyph glyph-name="uni06D2.fina" unicode="&#x6d2;" horiz-adv-x="726" arabic-form="final" 
d="M141.5 -261.5q-72.5 39.5 -72.5 118.5q0 73 47.5 139t139.5 107t220 41h250q3 0 5.5 -10.5t2.5 -24.5v-73q0 -15 -2.5 -25.5t-5.5 -10.5h-250q-107 0 -172 -11t-97 -34.5t-39 -61.5q32 -32 78 -41t132 -9q63 0 134.5 3.5t153.5 9.5l-31 -144q-173 -13 -282 -13
q-139 0 -211.5 39.5z" />
    <glyph glyph-name="uni06D3.fina" unicode="&#x6d3;" horiz-adv-x="726" arabic-form="final" 
d="M141.5 -261.5q-72.5 39.5 -72.5 118.5q0 73 47.5 139t139.5 107t220 41h250q3 0 5.5 -10.5t2.5 -24.5v-73q0 -15 -2.5 -25.5t-5.5 -10.5h-250q-107 0 -172 -11t-97 -34.5t-39 -61.5q32 -32 78 -41t132 -9q63 0 134.5 3.5t153.5 9.5l-31 -144q-173 -13 -282 -13
q-139 0 -211.5 39.5zM247 275l75 21q-23 46 -23 81q0 36 26.5 56.5t73.5 20.5q28 0 51 -7v-62q-36 7 -67 7q-20 0 -31 -5q0 -15 8.5 -36t19.5 -39l120 34v-65l-253 -71v65z" />
    <glyph glyph-name="uni06C7.fina" unicode="&#x6c7;" horiz-adv-x="488" arabic-form="final" 
d="M301 7q-35 -7 -89 -7q-56 0 -81.5 8.5t-47.5 38.5q-15 21 -20 35.5t-5 38.5q0 66 19.5 127t60.5 99.5t103 38.5q77 0 122 -69.5t52 -172.5h73q4 0 6.5 -10.5t2.5 -24.5v-73q0 -15 -2.5 -25.5t-6.5 -10.5h-85q-25 -91 -97 -164.5t-194 -122.5l-71 111q205 72 260 183z
M233 119q54 0 87 8q0 70 -23.5 105t-64.5 35q-36 0 -59 -37t-23 -101q32 -10 83 -10zM119 529l92 24q-8 2 -11.5 10t-3.5 18q0 15 9 42.5t29.5 49.5t51.5 22q38 0 62 -33t24 -79q0 -32 -15 -44.5t-51 -22.5l-187 -52v65zM282 574q23 0 38 5q0 59 -35 59q-15 0 -24 -15.5
t-11 -43.5q13 -5 32 -5z" />
    <glyph glyph-name="uni06C6.fina" unicode="&#x6c6;" horiz-adv-x="488" arabic-form="final" 
d="M301 7q-35 -7 -89 -7q-56 0 -81.5 8.5t-47.5 38.5q-15 21 -20 35.5t-5 38.5q0 66 19.5 127t60.5 99.5t103 38.5q77 0 122 -69.5t52 -172.5h73q4 0 6.5 -10.5t2.5 -24.5v-73q0 -15 -2.5 -25.5t-6.5 -10.5h-85q-25 -91 -97 -164.5t-194 -122.5l-71 111q205 72 260 183z
M233 119q54 0 87 8q0 70 -23.5 105t-64.5 35q-36 0 -59 -37t-23 -101q32 -10 83 -10zM175.5 577.5q-20.5 42.5 -49.5 88.5l55 27q40 -66 60 -127q20 57 65 127l50 -36q-53 -80 -85 -170l-56 -7q-19 55 -39.5 97.5z" />
    <glyph glyph-name="uni06CC.fina" unicode="&#x6cc;" horiz-adv-x="715" arabic-form="final" 
d="M129 -206.5q-60 50.5 -60 151.5q0 23 7.5 75t18.5 119q10 52 21 127l88 -18q-38 -228 -38 -282q0 -43 45.5 -61t111.5 -18q94 0 156.5 12.5t100.5 43.5q1 4 1 10q0 21 -17 31t-50 13t-98 3l26 144h273q3 0 5.5 -10.5t2.5 -24.5v-73q0 -15 -2.5 -25.5t-5.5 -10.5h-40
q1 -8 1 -24q0 -79 -48 -131.5t-128 -77t-177 -24.5q-134 0 -194 50.5z" />
    <glyph glyph-name="uni06CC.init" unicode="&#x6cc;" horiz-adv-x="345" arabic-form="initial" 
d="M-6 11q-3 11 -3 25v73q0 14 3 24.5t6 10.5q59 0 103 5.5t75 21.5l-22 219l110 19q10 -160 10 -249q0 -34 -14.5 -64.5t-44.5 -50.5q-74 -45 -217 -45q-3 0 -6 11zM-59 -187l72 89l92 -73l59 73l95 -76l-72 -89l-92 73l-59 -73z" />
    <glyph glyph-name="uni06CC.medi" unicode="&#x6cc;" horiz-adv-x="371" arabic-form="medial" 
d="M-6 11q-3 11 -3 25v73q0 14 3 24.5t6 10.5q46 0 81 6t64 21l-22 185l111 11l10 -201q41 -22 127 -22q4 0 6.5 -10.5t2.5 -24.5v-73q0 -15 -2.5 -25.5t-6.5 -10.5q-84 0 -124 16.5t-53 53.5q-19 -38 -64 -54t-130 -16q-3 0 -6 11zM2 -187l72 89l92 -73l59 73l95 -76
l-72 -89l-92 73l-59 -73z" />
    <glyph glyph-name="uni06260631.fina" unicode="&#xfc64;" horiz-adv-x="752" arabic-form="final" 
d="M259 134q3 -43 3 -78q0 -102 -65.5 -187t-210.5 -156l-70 111q112 51 169 100.5t78 101.5l-38 297l114 23l5 -45q3 -25 17 -38t42.5 -18t80.5 -5q83 0 134 23l-4 92l103 12l1 -129q1 -40 13.5 -59.5t40 -27t80.5 -7.5q4 0 6.5 -10.5t2.5 -24.5v-73q0 -15 -2.5 -25.5
t-6.5 -10.5q-102 0 -152 31t-68 111q-59 -46 -148 -46q-85 0 -125 38zM434 519l75 21q-23 46 -23 81q0 36 26.5 56.5t73.5 20.5q28 0 51 -7v-62q-36 7 -67 7q-20 0 -31 -5q0 -15 8.5 -36t19.5 -39l120 34v-65l-253 -71v65z" />
    <glyph glyph-name="uni06260649.fina" unicode="&#xfc68;" horiz-adv-x="961" arabic-form="final" 
d="M129 -206q-60 51 -60 152q0 22 7.5 73t18.5 117l21 131l88 -19q-38 -228 -38 -282q0 -43 45.5 -61t111.5 -18q92 0 154.5 12.5t100.5 43.5q5 17 5 30q0 37 -35 42q-74 7 -110 14t-56.5 25.5t-20.5 54.5q0 72 40 141.5t99.5 114t114.5 44.5q53 0 86 -18.5t51 -45t40 -71.5
q22 -44 39.5 -69.5t49 -43t80.5 -17.5q3 0 5.5 -10.5t2.5 -24.5v-73q0 -15 -2.5 -25.5t-5.5 -10.5q-73 0 -118.5 25t-69 59t-49.5 89q-17 38 -29.5 59t-31.5 34.5t-47 13.5q-30 0 -62.5 -16.5t-57.5 -44t-35 -57.5q80 -8 122.5 -20.5t67.5 -49t25 -110.5q0 -82 -48 -135.5
t-128 -78.5t-177 -25q-134 0 -194 51zM486 580l75 21q-23 46 -23 81q0 36 26.5 56.5t73.5 20.5q28 0 51 -7v-62q-36 7 -67 7q-20 0 -31 -5q0 -15 8.5 -36t19.5 -39l120 34v-65l-253 -71v65z" />
    <glyph glyph-name="uni06280631.fina" unicode="&#xfc6a;" horiz-adv-x="752" arabic-form="final" 
d="M259 134q3 -43 3 -78q0 -102 -65.5 -187t-210.5 -156l-70 111q112 51 169 100.5t78 101.5l-38 297l114 23l5 -45q3 -25 17 -38t42.5 -18t80.5 -5q83 0 134 23l-4 92l103 12l1 -129q1 -40 13.5 -59.5t40 -27t80.5 -7.5q4 0 6.5 -10.5t2.5 -24.5v-73q0 -15 -2.5 -25.5
t-6.5 -10.5q-102 0 -152 31t-68 111q-59 -46 -148 -46q-85 0 -125 38zM346 -174l76 93l100 -79l-76 -93z" />
    <glyph glyph-name="uni06280632.fina" unicode="&#xfc6b;" horiz-adv-x="755" arabic-form="final" 
d="M83 529l76 93l100 -79l-76 -93zM88 -75.5q57 49.5 78 101.5l-38 297l114 23l5 -45q3 -25 17 -38t42.5 -18t80.5 -5q83 0 134 23l-4 92l103 12l1 -129q1 -40 13.5 -59.5t40 -27t80.5 -7.5q4 0 6.5 -10.5t2.5 -24.5v-73q0 -15 -2.5 -25.5t-6.5 -10.5q-102 0 -152 31
t-68 111q-59 -46 -148 -46q-85 0 -125 38q3 -43 3 -78q0 -102 -65.5 -187t-210.5 -156l-70 111q112 51 169 100.5zM425 -76l100 -79l-76 -93l-100 79z" />
    <glyph glyph-name="uni06280646.fina" unicode="&#xfc6d;" horiz-adv-x="1126" arabic-form="final" 
d="M974 31q-50 31 -68 111q-59 -46 -148 -46t-127 41q10 -140 10 -208q0 -54 -50.5 -90t-124.5 -53t-143 -17q-133 0 -193.5 50.5t-60.5 149.5q0 32 9.5 94.5t34.5 208.5l3 21l88 -19q-39 -234 -39 -281q0 -44 45.5 -61.5t112.5 -17.5q151 0 219 41l-40 375l110 23l1 -9v2
l5 -45q3 -25 17 -38t42.5 -18t80.5 -5q83 0 134 23l-4 92l103 12l1 -129q1 -40 13.5 -59.5t40 -27t80.5 -7.5q4 0 6.5 -10.5t2.5 -24.5v-73q0 -15 -2.5 -25.5t-6.5 -10.5q-102 0 -152 31zM330 556l100 -79l-76 -93l-100 79zM800 -69l99 -79l-76 -93l-100 79z" />
    <glyph glyph-name="uni06280649.fina" unicode="&#xfc6e;" horiz-adv-x="961" arabic-form="final" 
d="M129 -206q-60 51 -60 152q0 22 7.5 73t18.5 117l21 131l88 -19q-38 -228 -38 -282q0 -43 45.5 -61t111.5 -18q92 0 154.5 12.5t100.5 43.5q5 17 5 30q0 37 -35 42q-74 7 -110 14t-56.5 25.5t-20.5 54.5q0 72 40 141.5t99.5 114t114.5 44.5q53 0 86 -18.5t51 -45t40 -71.5
q22 -44 39.5 -69.5t49 -43t80.5 -17.5q3 0 5.5 -10.5t2.5 -24.5v-73q0 -15 -2.5 -25.5t-5.5 -10.5q-73 0 -118.5 25t-69 59t-49.5 89q-17 38 -29.5 59t-31.5 34.5t-47 13.5q-30 0 -62.5 -16.5t-57.5 -44t-35 -57.5q80 -8 122.5 -20.5t67.5 -49t25 -110.5q0 -82 -48 -135.5
t-128 -78.5t-177 -25q-134 0 -194 51zM778 -181l76 93l100 -79l-76 -93z" />
    <glyph glyph-name="uni062A0631.fina" unicode="&#xfc70;" horiz-adv-x="752" arabic-form="final" 
d="M259 134q3 -43 3 -78q0 -102 -65.5 -187t-210.5 -156l-70 111q112 51 169 100.5t78 101.5l-38 297l114 23l5 -45q3 -25 17 -38t42.5 -18t80.5 -5q83 0 134 23l-4 92l103 12l1 -129q1 -40 13.5 -59.5t40 -27t80.5 -7.5q4 0 6.5 -10.5t2.5 -24.5v-73q0 -15 -2.5 -25.5
t-6.5 -10.5q-102 0 -152 31t-68 111q-59 -46 -148 -46q-85 0 -125 38zM404 540l72 89l92 -73l59 73l95 -76l-72 -89l-92 73l-59 -73z" />
    <glyph glyph-name="uni062B0631.fina" unicode="&#xfc76;" horiz-adv-x="752" arabic-form="final" 
d="M259 134q3 -43 3 -78q0 -102 -65.5 -187t-210.5 -156l-70 111q112 51 169 100.5t78 101.5l-38 297l114 23l5 -45q3 -25 17 -38t42.5 -18t80.5 -5q83 0 134 23l-4 92l103 12l1 -129q1 -40 13.5 -59.5t40 -27t80.5 -7.5q4 0 6.5 -10.5t2.5 -24.5v-73q0 -15 -2.5 -25.5
t-6.5 -10.5q-102 0 -152 31t-68 111q-59 -46 -148 -46q-85 0 -125 38zM417 533l66 81l84 -67l55 67l87 -69l-66 -81l-84 67l-55 -67zM541 761l87 -68l-66 -81l-86 68z" />
    <glyph glyph-name="uni062B0649.fina" unicode="&#xfc7a;" horiz-adv-x="961" arabic-form="final" 
d="M129 -206q-60 51 -60 152q0 22 7.5 73t18.5 117l21 131l88 -19q-38 -228 -38 -282q0 -43 45.5 -61t111.5 -18q92 0 154.5 12.5t100.5 43.5q5 17 5 30q0 37 -35 42q-74 7 -110 14t-56.5 25.5t-20.5 54.5q0 72 40 141.5t99.5 114t114.5 44.5q53 0 86 -18.5t51 -45t40 -71.5
q22 -44 39.5 -69.5t49 -43t80.5 -17.5q3 0 5.5 -10.5t2.5 -24.5v-73q0 -15 -2.5 -25.5t-5.5 -10.5q-73 0 -118.5 25t-69 59t-49.5 89q-17 38 -29.5 59t-31.5 34.5t-47 13.5q-30 0 -62.5 -16.5t-57.5 -44t-35 -57.5q80 -8 122.5 -20.5t67.5 -49t25 -110.5q0 -82 -48 -135.5
t-128 -78.5t-177 -25q-134 0 -194 51zM469 595l66 81l84 -67l55 67l87 -69l-66 -81l-84 67l-55 -67zM593 823l87 -68l-66 -81l-86 68z" />
    <glyph glyph-name="uni06460631.fina" unicode="&#xfc8a;" horiz-adv-x="752" arabic-form="final" 
d="M259 134q3 -43 3 -78q0 -102 -65.5 -187t-210.5 -156l-70 111q112 51 169 100.5t78 101.5l-38 297l114 23l5 -45q3 -25 17 -38t42.5 -18t80.5 -5q83 0 134 23l-4 92l103 12l1 -129q1 -40 13.5 -59.5t40 -27t80.5 -7.5q4 0 6.5 -10.5t2.5 -24.5v-73q0 -15 -2.5 -25.5
t-6.5 -10.5q-102 0 -152 31t-68 111q-59 -46 -148 -46q-85 0 -125 38zM475 543l76 93l100 -79l-76 -93z" />
    <glyph glyph-name="uni064A0631.fina" unicode="&#xfc91;" horiz-adv-x="752" arabic-form="final" 
d="M259 134q3 -43 3 -78q0 -102 -65.5 -187t-210.5 -156l-70 111q112 51 169 100.5t78 101.5l-38 297l114 23l5 -45q3 -25 17 -38t42.5 -18t80.5 -5q83 0 134 23l-4 92l103 12l1 -129q1 -40 13.5 -59.5t40 -27t80.5 -7.5q4 0 6.5 -10.5t2.5 -24.5v-73q0 -15 -2.5 -25.5
t-6.5 -10.5q-102 0 -152 31t-68 111q-59 -46 -148 -46q-85 0 -125 38zM275 -180l72 89l92 -73l59 73l95 -76l-72 -89l-92 73l-59 -73z" />
    <glyph glyph-name="uni064A0649.fina" unicode="&#xfc95;" horiz-adv-x="961" arabic-form="final" 
d="M129 -206q-60 51 -60 152q0 22 7.5 73t18.5 117l21 131l88 -19q-38 -228 -38 -282q0 -43 45.5 -61t111.5 -18q92 0 154.5 12.5t100.5 43.5q5 17 5 30q0 37 -35 42q-74 7 -110 14t-56.5 25.5t-20.5 54.5q0 72 40 141.5t99.5 114t114.5 44.5q53 0 86 -18.5t51 -45t40 -71.5
q22 -44 39.5 -69.5t49 -43t80.5 -17.5q3 0 5.5 -10.5t2.5 -24.5v-73q0 -15 -2.5 -25.5t-5.5 -10.5q-73 0 -118.5 25t-69 59t-49.5 89q-17 38 -29.5 59t-31.5 34.5t-47 13.5q-30 0 -62.5 -16.5t-57.5 -44t-35 -57.5q80 -8 122.5 -20.5t67.5 -49t25 -110.5q0 -82 -48 -135.5
t-128 -78.5t-177 -25q-134 0 -194 51zM707 -187l72 89l92 -73l59 73l95 -76l-72 -89l-92 73l-59 -73z" />
    <glyph glyph-name="uni06330649" unicode="&#xfcfb;" horiz-adv-x="1416" arabic-form="isolated" 
d="M129 -206q-60 51 -60 152q0 22 7.5 73t18.5 117l21 131l88 -19q-38 -228 -38 -282q0 -43 45.5 -61t111.5 -18q92 0 154.5 12.5t100.5 43.5q5 20 5 30q0 37 -35 42q-74 7 -110 14t-56.5 25.5t-20.5 54.5q0 72 40 141.5t99.5 114t114.5 44.5q54 0 88 -19.5t52 -48t37 -74.5
q17 -42 31.5 -66t40 -40.5t66.5 -16.5q48 0 82 14l-8 188l100 4l4 -195q17 -11 53 -11q56 0 89 15l-23 231l110 19q10 -188 10 -254q0 -52 -23 -87t-60 -51.5t-79 -16.5q-47 0 -79.5 13.5t-47.5 45.5q-18 -34 -53 -46.5t-75 -12.5q-63 0 -102.5 24t-60 56.5t-43.5 86.5
q-15 39 -27.5 61.5t-32 37t-48.5 14.5q-30 0 -62.5 -16.5t-57.5 -44t-35 -57.5q80 -8 122.5 -20.5t67.5 -49t25 -110.5q0 -82 -48 -135.5t-128 -78.5t-177 -25q-134 0 -194 51z" />
    <glyph glyph-name="uni06340649" unicode="&#xfcfd;" horiz-adv-x="1416" arabic-form="isolated" 
d="M129 -206q-60 51 -60 152q0 22 7.5 73t18.5 117l21 131l88 -19q-38 -228 -38 -282q0 -43 45.5 -61t111.5 -18q92 0 154.5 12.5t100.5 43.5q5 20 5 30q0 37 -35 42q-74 7 -110 14t-56.5 25.5t-20.5 54.5q0 72 40 141.5t99.5 114t114.5 44.5q54 0 88 -19.5t52 -48t37 -74.5
q17 -42 31.5 -66t40 -40.5t66.5 -16.5q48 0 82 14l-8 188l100 4l4 -195q17 -11 53 -11q56 0 89 15l-23 231l110 19q10 -188 10 -254q0 -52 -23 -87t-60 -51.5t-79 -16.5q-47 0 -79.5 13.5t-47.5 45.5q-18 -34 -53 -46.5t-75 -12.5q-63 0 -102.5 24t-60 56.5t-43.5 86.5
q-15 39 -27.5 61.5t-32 37t-48.5 14.5q-30 0 -62.5 -16.5t-57.5 -44t-35 -57.5q80 -8 122.5 -20.5t67.5 -49t25 -110.5q0 -82 -48 -135.5t-128 -78.5t-177 -25q-134 0 -194 51zM887 518l66 81l84 -67l55 67l87 -69l-66 -81l-84 67l-55 -67zM1011 746l87 -68l-66 -81l-86 68z
" />
    <glyph glyph-name="uni06350649" unicode="&#xfd05;" horiz-adv-x="1385" arabic-form="isolated" 
d="M129 -207q-60 51 -60 152q0 22 7.5 73t18.5 117l21 131l88 -19q-38 -228 -38 -281q0 -43 45.5 -61t111.5 -18q92 0 154.5 12.5t100.5 43.5q5 18 5 29q0 18 -9 29.5t-26 13.5q-74 7 -110 14t-56.5 25.5t-20.5 54.5q0 71 40 141t99.5 114.5t114.5 44.5q54 0 88 -19.5
t51 -47t37 -73.5l18 -41q69 92 149 159t155 67q101 0 152 -63.5t51 -187.5q0 -31 -7.5 -59.5t-23.5 -46.5q-42 -45 -131.5 -71t-217.5 -26q-65 0 -106 24t-62.5 58t-43.5 87q-16 39 -28.5 60.5t-31.5 36t-48 14.5q-30 0 -62.5 -16.5t-57.5 -44t-35 -57.5q81 -9 123 -21.5
t67 -48.5t25 -110q0 -82 -48 -136t-128 -79t-177 -25q-134 0 -194 51zM929 144q82 0 150.5 8t135.5 30q2 69 -23.5 109.5t-75.5 40.5t-115.5 -47t-132.5 -127q25 -14 61 -14z" />
    <glyph glyph-name="uni06360649" unicode="&#xfd07;" horiz-adv-x="1385" arabic-form="isolated" 
d="M129 -207q-60 51 -60 152q0 22 7.5 73t18.5 117l21 131l88 -19q-38 -228 -38 -281q0 -43 45.5 -61t111.5 -18q92 0 154.5 12.5t100.5 43.5q5 18 5 29q0 18 -9 29.5t-26 13.5q-74 7 -110 14t-56.5 25.5t-20.5 54.5q0 71 40 141t99.5 114.5t114.5 44.5q54 0 88 -19.5
t51 -47t37 -73.5l18 -41q69 92 149 159t155 67q101 0 152 -63.5t51 -187.5q0 -31 -7.5 -59.5t-23.5 -46.5q-42 -45 -131.5 -71t-217.5 -26q-65 0 -106 24t-62.5 58t-43.5 87q-16 39 -28.5 60.5t-31.5 36t-48 14.5q-30 0 -62.5 -16.5t-57.5 -44t-35 -57.5q81 -9 123 -21.5
t67 -48.5t25 -110q0 -82 -48 -136t-128 -79t-177 -25q-134 0 -194 51zM929 144q82 0 150.5 8t135.5 30q2 69 -23.5 109.5t-75.5 40.5t-115.5 -47t-132.5 -127q25 -14 61 -14zM857 599l76 93l100 -79l-76 -93z" />
    <glyph glyph-name="uni06330649.fina" unicode="&#xfd17;" horiz-adv-x="1476" arabic-form="final" 
d="M1369 16.5q-33 16.5 -48 47.5q-22 -32 -58.5 -48t-77.5 -16q-47 0 -79.5 13.5t-47.5 45.5q-18 -34 -53 -46.5t-75 -12.5q-63 0 -102.5 24t-60 56.5t-43.5 86.5q-15 39 -27.5 61.5t-32 37t-48.5 14.5q-30 0 -62.5 -16.5t-57.5 -44t-35 -57.5q80 -8 122.5 -20.5t67.5 -49
t25 -110.5q0 -82 -48 -135.5t-128 -78.5t-177 -25q-134 0 -194 51t-60 152q0 22 7.5 73t18.5 117l21 131l88 -19q-38 -228 -38 -282q0 -43 45.5 -61t111.5 -18q92 0 154.5 12.5t100.5 43.5q5 20 5 30q0 37 -35 42q-74 7 -110 14t-56.5 25.5t-20.5 54.5q0 72 40 141.5
t99.5 114t114.5 44.5q54 0 88 -19.5t52 -48t37 -74.5q17 -42 31.5 -66t40 -40.5t66.5 -16.5q48 0 82 14l-8 188l100 4l4 -195q17 -11 53 -11q56 0 89 15l-23 231l110 19l13 -195q2 -38 21 -54t72 -16h33q3 0 5.5 -10.5t2.5 -24.5v-73q0 -15 -2.5 -25.5t-5.5 -10.5h-33
q-41 0 -74 16.5z" />
    <glyph glyph-name="uni06340649.fina" unicode="&#xfd19;" horiz-adv-x="1476" arabic-form="final" 
d="M1369 16.5q-33 16.5 -48 47.5q-22 -32 -58.5 -48t-77.5 -16q-47 0 -79.5 13.5t-47.5 45.5q-18 -34 -53 -46.5t-75 -12.5q-63 0 -102.5 24t-60 56.5t-43.5 86.5q-15 39 -27.5 61.5t-32 37t-48.5 14.5q-30 0 -62.5 -16.5t-57.5 -44t-35 -57.5q80 -8 122.5 -20.5t67.5 -49
t25 -110.5q0 -82 -48 -135.5t-128 -78.5t-177 -25q-134 0 -194 51t-60 152q0 22 7.5 73t18.5 117l21 131l88 -19q-38 -228 -38 -282q0 -43 45.5 -61t111.5 -18q92 0 154.5 12.5t100.5 43.5q5 20 5 30q0 37 -35 42q-74 7 -110 14t-56.5 25.5t-20.5 54.5q0 72 40 141.5
t99.5 114t114.5 44.5q54 0 88 -19.5t52 -48t37 -74.5q17 -42 31.5 -66t40 -40.5t66.5 -16.5q48 0 82 14l-8 188l100 4l4 -195q17 -11 53 -11q56 0 89 15l-23 231l110 19l13 -195q2 -38 21 -54t72 -16h33q3 0 5.5 -10.5t2.5 -24.5v-73q0 -15 -2.5 -25.5t-5.5 -10.5h-33
q-41 0 -74 16.5zM887 518l66 81l84 -67l55 67l87 -69l-66 -81l-84 67l-55 -67zM1011 746l87 -68l-66 -81l-86 68z" />
    <glyph glyph-name="uni06350649.fina" unicode="&#xfd21;" horiz-adv-x="1414" arabic-form="final" 
d="M1314 16q-37 16 -60 54q-48 -33 -129.5 -51.5t-188.5 -18.5q-65 0 -106 24t-62.5 58t-43.5 87q-16 39 -28.5 60.5t-31.5 36t-48 14.5q-30 0 -62.5 -16.5t-57.5 -44t-35 -57.5q81 -9 123 -21.5t67 -48.5t25 -110q0 -82 -48 -136t-128 -79t-177 -25q-134 0 -194 51t-60 152
q0 22 7.5 73t18.5 117l21 131l88 -19q-38 -228 -38 -281q0 -43 45.5 -61t111.5 -18q92 0 154.5 12.5t100.5 43.5q5 18 5 29q0 18 -9 29.5t-26 13.5q-74 7 -110 14t-56.5 25.5t-20.5 54.5q0 71 40 141t99.5 114.5t114.5 44.5q54 0 88 -19.5t51 -47t37 -73.5l18 -41
q69 92 149 159t155 67q101 0 152 -63.5t51 -187.5q0 -10 -2 -32q11 -14 33.5 -20.5t66.5 -6.5q4 0 6.5 -10.5t2.5 -24.5v-73q0 -15 -2.5 -25.5t-6.5 -10.5q-63 0 -100 16zM929 144q82 0 150.5 8t135.5 30q2 69 -23.5 109.5t-75.5 40.5t-115.5 -47t-132.5 -127q25 -14 61 -14
z" />
    <glyph glyph-name="uni06360649.fina" unicode="&#xfd23;" horiz-adv-x="1414" arabic-form="final" 
d="M1314 16q-37 16 -60 54q-48 -33 -129.5 -51.5t-188.5 -18.5q-65 0 -106 24t-62.5 58t-43.5 87q-16 39 -28.5 60.5t-31.5 36t-48 14.5q-30 0 -62.5 -16.5t-57.5 -44t-35 -57.5q81 -9 123 -21.5t67 -48.5t25 -110q0 -82 -48 -136t-128 -79t-177 -25q-134 0 -194 51t-60 152
q0 22 7.5 73t18.5 117l21 131l88 -19q-38 -228 -38 -281q0 -43 45.5 -61t111.5 -18q92 0 154.5 12.5t100.5 43.5q5 18 5 29q0 18 -9 29.5t-26 13.5q-74 7 -110 14t-56.5 25.5t-20.5 54.5q0 71 40 141t99.5 114.5t114.5 44.5q54 0 88 -19.5t51 -47t37 -73.5l18 -41
q69 92 149 159t155 67q101 0 152 -63.5t51 -187.5q0 -10 -2 -32q11 -14 33.5 -20.5t66.5 -6.5q4 0 6.5 -10.5t2.5 -24.5v-73q0 -15 -2.5 -25.5t-6.5 -10.5q-63 0 -100 16zM929 144q82 0 150.5 8t135.5 30q2 69 -23.5 109.5t-75.5 40.5t-115.5 -47t-132.5 -127q25 -14 61 -14
zM857 599l76 93l100 -79l-76 -93z" />
    <glyph glyph-name="uni0622.fina" unicode="&#x622;" horiz-adv-x="310" arabic-form="final" 
d="M169 21q-43 21 -66 71t-29 139l-15 265l115 19l2 -283q1 -43 24.5 -65.5t67.5 -22.5h42q3 0 6 -10.5t3 -24.5v-73q0 -14 -3 -25t-6 -11h-27q-71 0 -114 21zM104 609q-30 4 -37 4q-17 0 -26 -9t-17 -38l-77 20q19 71 44.5 97.5t72.5 26.5q20 0 55 -5q70 -9 116 -9h57
l-20 -96h-50q-57 0 -118 9z" />
    <glyph glyph-name="uni0623.fina" unicode="&#x623;" horiz-adv-x="310" arabic-form="final" 
d="M169 21q-43 21 -66 71t-29 139l-15 265l115 19l2 -283q1 -43 24.5 -65.5t67.5 -22.5h42q3 0 6 -10.5t3 -24.5v-73q0 -14 -3 -25t-6 -11h-27q-71 0 -114 21zM-11 607l75 21q-23 46 -23 81q0 36 26.5 56.5t73.5 20.5q28 0 51 -7v-62q-36 7 -67 7q-20 0 -31 -5
q0 -15 8.5 -36t19.5 -39l120 34v-65l-253 -71v65z" />
    <glyph glyph-name="uni0624.fina" unicode="&#x624;" horiz-adv-x="488" arabic-form="final" 
d="M301 7q-35 -7 -89 -7q-56 0 -81.5 8.5t-47.5 38.5q-15 21 -20 35.5t-5 38.5q0 66 19.5 127t60.5 99.5t103 38.5q77 0 122 -69.5t52 -172.5h73q4 0 6.5 -10.5t2.5 -24.5v-73q0 -15 -2.5 -25.5t-6.5 -10.5h-85q-25 -91 -97 -164.5t-194 -122.5l-71 111q205 72 260 183z
M233 119q54 0 87 8q0 70 -23.5 105t-64.5 35q-36 0 -59 -37t-23 -101q32 -10 83 -10zM112 539l75 21q-23 46 -23 81q0 36 26.5 56.5t73.5 20.5q28 0 51 -7v-62q-36 7 -67 7q-20 0 -31 -5q0 -15 8.5 -36t19.5 -39l120 34v-65l-253 -71v65z" />
    <glyph glyph-name="uni0625.fina" unicode="&#x625;" horiz-adv-x="310" arabic-form="final" 
d="M168.5 20.5q-43.5 20.5 -66 71t-26.5 139.5l-17 460l114 19l3 -478q0 -42 24 -65t68 -23h42q3 0 6 -10.5t3 -24.5v-73q0 -14 -3 -25t-6 -11h-28q-70 0 -113.5 20.5zM9 -254l75 21q-23 46 -23 81q0 36 26.5 56.5t73.5 20.5q28 0 51 -7v-62q-36 7 -67 7q-20 0 -31 -5
q0 -15 8.5 -36t19.5 -39l120 34v-65l-253 -71v65z" />
    <glyph glyph-name="uni0626.fina" unicode="&#x626;" horiz-adv-x="715" arabic-form="final" 
d="M129 -206.5q-60 50.5 -60 151.5q0 23 7.5 75t18.5 119q10 52 21 127l88 -18q-38 -228 -38 -282q0 -43 45.5 -61t111.5 -18q94 0 156.5 12.5t100.5 43.5q1 4 1 10q0 21 -17 31t-50 13t-98 3l26 144h273q3 0 5.5 -10.5t2.5 -24.5v-73q0 -15 -2.5 -25.5t-5.5 -10.5h-40
q1 -8 1 -24q0 -79 -48 -131.5t-128 -77t-177 -24.5q-134 0 -194 50.5zM98 418l75 21q-23 46 -23 81q0 36 26.5 56.5t73.5 20.5q28 0 51 -7v-62q-36 7 -67 7q-20 0 -31 -5q0 -15 8.5 -36t19.5 -39l120 34v-65l-253 -71v65z" />
    <glyph glyph-name="uni0626.init" unicode="&#x626;" horiz-adv-x="345" arabic-form="initial" 
d="M-6 11q-3 11 -3 25v73q0 14 3 24.5t6 10.5q59 0 103 5.5t75 21.5l-22 219l110 19q10 -160 10 -249q0 -34 -14.5 -64.5t-44.5 -50.5q-74 -45 -217 -45q-3 0 -6 11zM68 559l75 21q-23 46 -23 81q0 36 26.5 56.5t73.5 20.5q28 0 51 -7v-62q-36 7 -67 7q-20 0 -31 -5
q0 -15 8.5 -36t19.5 -39l120 34v-65l-253 -71v65z" />
    <glyph glyph-name="uni0626.medi" unicode="&#x626;" horiz-adv-x="371" arabic-form="medial" 
d="M-6 11q-3 11 -3 25v73q0 14 3 24.5t6 10.5q46 0 81 6t64 21l-22 185l111 11l10 -201q41 -22 127 -22q4 0 6.5 -10.5t2.5 -24.5v-73q0 -15 -2.5 -25.5t-6.5 -10.5q-84 0 -124 16.5t-53 53.5q-19 -38 -64 -54t-130 -16q-3 0 -6 11zM42 519l75 21q-23 46 -23 81
q0 36 26.5 56.5t73.5 20.5q28 0 51 -7v-62q-36 7 -67 7q-20 0 -31 -5q0 -15 8.5 -36t19.5 -39l120 34v-65l-253 -71v65z" />
    <glyph glyph-name="uni0627.fina" unicode="&#x627;" horiz-adv-x="310" arabic-form="final" 
d="M168.5 20.5q-43.5 20.5 -66 71t-26.5 139.5l-17 460l114 19l3 -478q0 -42 24 -65t68 -23h42q3 0 6 -10.5t3 -24.5v-73q0 -14 -3 -25t-6 -11h-28q-70 0 -113.5 20.5z" />
    <glyph glyph-name="uni0628.fina" unicode="&#x628;" horiz-adv-x="910" arabic-form="final" 
d="M228 11.5q-74 16.5 -116.5 60t-42.5 122.5q0 21 7.5 71t24.5 144l88 -18q-23 -135 -23 -171q0 -33 21.5 -50t72 -24t145.5 -7q183 0 287 30l-16 166l106 11l10 -182q17 -11 45.5 -15.5t72.5 -4.5q4 0 6.5 -10.5t2.5 -24.5v-73q0 -15 -2.5 -25.5t-6.5 -10.5
q-79 0 -126.5 18t-59.5 50q-25 -31 -74 -44q-46 -12 -108.5 -20.5t-129.5 -8.5q-110 0 -184 16.5zM324 -184l76 93l100 -79l-76 -93z" />
    <glyph glyph-name="uni0628.init" unicode="&#x628;" horiz-adv-x="345" arabic-form="initial" 
d="M-6 11q-3 11 -3 25v73q0 14 3 24.5t6 10.5q59 0 103 5.5t75 21.5l-22 219l110 19q10 -160 10 -249q0 -34 -14.5 -64.5t-44.5 -50.5q-74 -45 -217 -45q-3 0 -6 11zM12 -181l76 93l100 -79l-76 -93z" />
    <glyph glyph-name="uni0628.medi" unicode="&#x628;" horiz-adv-x="371" arabic-form="medial" 
d="M-6 11q-3 11 -3 25v73q0 14 3 24.5t6 10.5q46 0 81 6t64 21l-22 185l111 11l10 -201q41 -22 127 -22q4 0 6.5 -10.5t2.5 -24.5v-73q0 -15 -2.5 -25.5t-6.5 -10.5q-84 0 -124 16.5t-53 53.5q-19 -38 -64 -54t-130 -16q-3 0 -6 11zM73 -181l76 93l100 -79l-76 -93z" />
    <glyph glyph-name="uni0629.fina" unicode="&#x629;" horiz-adv-x="523" arabic-form="final" 
d="M394.5 22q-35.5 22 -48.5 63l-8 -13q-15 -25 -47 -33t-89 -8q-59 0 -96 28.5t-37 84.5q0 69 21 117t67 83.5t124 66.5l-8 70l103 30l27 -264q4 -39 10 -59.5t22.5 -32t50.5 -11.5h37q3 0 5.5 -10.5t2.5 -24.5v-73q0 -15 -2.5 -25.5t-5.5 -10.5h-44q-49 0 -84.5 22z
M216 161q40 0 100 20l-16 125q-71 -22 -104 -58t-38 -75q26 -12 58 -12zM161 688l72 89l92 -73l59 73l95 -76l-72 -89l-92 73l-59 -73z" />
    <glyph glyph-name="uni062A.fina" unicode="&#x62a;" horiz-adv-x="910" arabic-form="final" 
d="M228 11.5q-74 16.5 -116.5 60t-42.5 122.5q0 21 7.5 71t24.5 144l88 -18q-23 -135 -23 -171q0 -33 21.5 -50t72 -24t145.5 -7q183 0 287 30l-16 166l106 11l10 -182q17 -11 45.5 -15.5t72.5 -4.5q4 0 6.5 -10.5t2.5 -24.5v-73q0 -15 -2.5 -25.5t-6.5 -10.5
q-79 0 -126.5 18t-59.5 50q-25 -31 -74 -44q-46 -12 -108.5 -20.5t-129.5 -8.5q-110 0 -184 16.5zM283 474l72 89l92 -73l59 73l95 -76l-72 -89l-92 73l-59 -73z" />
    <glyph glyph-name="uni062A.init" unicode="&#x62a;" horiz-adv-x="345" arabic-form="initial" 
d="M-6 11q-3 11 -3 25v73q0 14 3 24.5t6 10.5q59 0 103 5.5t75 21.5l-22 219l110 19q10 -160 10 -249q0 -34 -14.5 -64.5t-44.5 -50.5q-74 -45 -217 -45q-3 0 -6 11zM38 580l72 89l92 -73l59 73l95 -76l-72 -89l-92 73l-59 -73z" />
    <glyph glyph-name="uni062A.medi" unicode="&#x62a;" horiz-adv-x="371" arabic-form="medial" 
d="M-6 11q-3 11 -3 25v73q0 14 3 24.5t6 10.5q46 0 81 6t64 21l-22 185l111 11l10 -201q41 -22 127 -22q4 0 6.5 -10.5t2.5 -24.5v-73q0 -15 -2.5 -25.5t-6.5 -10.5q-84 0 -124 16.5t-53 53.5q-19 -38 -64 -54t-130 -16q-3 0 -6 11zM12 540l72 89l92 -73l59 73l95 -76
l-72 -89l-92 73l-59 -73z" />
    <glyph glyph-name="uni062B.fina" unicode="&#x62b;" horiz-adv-x="910" arabic-form="final" 
d="M228 11.5q-74 16.5 -116.5 60t-42.5 122.5q0 21 7.5 71t24.5 144l88 -18q-23 -135 -23 -171q0 -33 21.5 -50t72 -24t145.5 -7q183 0 287 30l-16 166l106 11l10 -182q17 -11 45.5 -15.5t72.5 -4.5q4 0 6.5 -10.5t2.5 -24.5v-73q0 -15 -2.5 -25.5t-6.5 -10.5
q-79 0 -126.5 18t-59.5 50q-25 -31 -74 -44q-46 -12 -108.5 -20.5t-129.5 -8.5q-110 0 -184 16.5zM296 467l66 81l84 -67l55 67l87 -69l-66 -81l-84 67l-55 -67zM420 695l87 -68l-66 -81l-86 68z" />
    <glyph glyph-name="uni062B.init" unicode="&#x62b;" horiz-adv-x="345" arabic-form="initial" 
d="M-6 11q-3 11 -3 25v73q0 14 3 24.5t6 10.5q59 0 103 5.5t75 21.5l-22 219l110 19q10 -160 10 -249q0 -34 -14.5 -64.5t-44.5 -50.5q-74 -45 -217 -45q-3 0 -6 11zM51 573l66 81l84 -67l55 67l87 -69l-66 -81l-84 67l-55 -67zM175 801l87 -68l-66 -81l-86 68z" />
    <glyph glyph-name="uni062B.medi" unicode="&#x62b;" horiz-adv-x="371" arabic-form="medial" 
d="M-6 11q-3 11 -3 25v73q0 14 3 24.5t6 10.5q46 0 81 6t64 21l-22 185l111 11l10 -201q41 -22 127 -22q4 0 6.5 -10.5t2.5 -24.5v-73q0 -15 -2.5 -25.5t-6.5 -10.5q-84 0 -124 16.5t-53 53.5q-19 -38 -64 -54t-130 -16q-3 0 -6 11zM25 533l66 81l84 -67l55 67l87 -69
l-66 -81l-84 67l-55 -67zM149 761l87 -68l-66 -81l-86 68z" />
    <glyph glyph-name="uni062C.fina" unicode="&#x62c;" horiz-adv-x="746" arabic-form="final" 
d="M553 18q-43 18 -67.5 55.5t-44.5 107.5q-240 -85 -272 -226q0 -90 59 -131t160 -41q92 0 229 30l-8 -143q-114 -30 -225 -30q-146 0 -234 64.5t-88 202.5q0 118 77.5 218t239.5 167q-21 7 -94 36q-27 12 -50.5 20.5t-32.5 8.5q-26 0 -38.5 -15.5t-17.5 -44.5l-85 16
q12 82 44 129t92 47q33 0 70 -13t98 -41q72 -33 124.5 -51t107.5 -21l-13 -141l-59 -15q15 -37 40 -50t76 -13h105q4 0 6.5 -10.5t2.5 -24.5v-73q0 -15 -2.5 -25.5t-6.5 -10.5h-74q-76 0 -119 18zM356 49l100 -79l-76 -93l-100 79z" />
    <glyph glyph-name="uni062C.init" unicode="&#x62c;" horiz-adv-x="720" arabic-form="initial" 
d="M-6 11q-3 11 -3 25v73q0 14 3 24.5t6 10.5h33q61 0 122.5 12t133.5 37q40 15 68 27q7 3 30.5 13t43.5 16q-44 14 -118 45q-85 35 -102 35q-26 0 -38.5 -15t-18.5 -45l-84 16q13 83 44.5 130t91.5 47q30 0 64.5 -12t93.5 -38q85 -37 148.5 -57t134.5 -20l-28 -142
q-59 -4 -108 -24.5t-118 -60.5l-46 -26q-72 -39 -147.5 -60.5t-169.5 -21.5h-30q-3 0 -6 11zM246 -181l76 93l100 -79l-76 -93z" />
    <glyph glyph-name="uni062C.medi" unicode="&#x62c;" horiz-adv-x="731" arabic-form="medial" 
d="M-6 11q-3 11 -3 25v73q0 14 3 24.5t6 10.5h33q61 0 122.5 12t133.5 37q18 6 41.5 16.5t37.5 15.5q42 20 67 28q-34 9 -75 24.5t-51 19.5q-32 12 -59.5 22t-38.5 10q-26 0 -38.5 -15t-18.5 -45l-84 16q13 83 44.5 130t91.5 47q30 0 63.5 -11t94.5 -36q81 -34 146 -53.5
t137 -19.5l-28 -135q-42 -3 -80.5 -17.5t-80.5 -39.5q23 -7 92 -7l121 1h60q4 0 6.5 -10.5t2.5 -24.5v-73q0 -15 -2.5 -25.5t-6.5 -10.5h-145q-69 0 -129 23t-75 79q-30 -17 -35 -20q-72 -39 -147.5 -60.5t-169.5 -21.5h-30q-3 0 -6 11zM246 -181l76 93l100 -79l-76 -93z
" />
    <glyph glyph-name="uni062D.fina" unicode="&#x62d;" horiz-adv-x="746" arabic-form="final" 
d="M553 18q-43 18 -67.5 55.5t-44.5 107.5q-240 -85 -272 -226q0 -90 59 -131t160 -41q92 0 229 30l-8 -143q-114 -30 -225 -30q-146 0 -234 64.5t-88 202.5q0 118 77.5 218t239.5 167q-21 7 -94 36q-27 12 -50.5 20.5t-32.5 8.5q-26 0 -38.5 -15.5t-17.5 -44.5l-85 16
q12 82 44 129t92 47q33 0 70 -13t98 -41q72 -33 124.5 -51t107.5 -21l-13 -141l-59 -15q15 -37 40 -50t76 -13h105q4 0 6.5 -10.5t2.5 -24.5v-73q0 -15 -2.5 -25.5t-6.5 -10.5h-74q-76 0 -119 18z" />
    <glyph glyph-name="uni062D.init" unicode="&#x62d;" horiz-adv-x="720" arabic-form="initial" 
d="M-6 11q-3 11 -3 25v73q0 14 3 24.5t6 10.5h33q61 0 122.5 12t133.5 37q40 15 68 27q7 3 30.5 13t43.5 16q-44 14 -118 45q-85 35 -102 35q-26 0 -38.5 -15t-18.5 -45l-84 16q13 83 44.5 130t91.5 47q30 0 64.5 -12t93.5 -38q85 -37 148.5 -57t134.5 -20l-28 -142
q-59 -4 -108 -24.5t-118 -60.5l-46 -26q-72 -39 -147.5 -60.5t-169.5 -21.5h-30q-3 0 -6 11z" />
    <glyph glyph-name="uni062D.medi" unicode="&#x62d;" horiz-adv-x="731" arabic-form="medial" 
d="M-6 11q-3 11 -3 25v73q0 14 3 24.5t6 10.5h33q61 0 122.5 12t133.5 37q18 6 41.5 16.5t37.5 15.5q42 20 67 28q-34 9 -75 24.5t-51 19.5q-32 12 -59.5 22t-38.5 10q-26 0 -38.5 -15t-18.5 -45l-84 16q13 83 44.5 130t91.5 47q30 0 63.5 -11t94.5 -36q81 -34 146 -53.5
t137 -19.5l-28 -135q-42 -3 -80.5 -17.5t-80.5 -39.5q23 -7 92 -7l121 1h60q4 0 6.5 -10.5t2.5 -24.5v-73q0 -15 -2.5 -25.5t-6.5 -10.5h-145q-69 0 -129 23t-75 79q-30 -17 -35 -20q-72 -39 -147.5 -60.5t-169.5 -21.5h-30q-3 0 -6 11z" />
    <glyph glyph-name="uni062E.fina" unicode="&#x62e;" horiz-adv-x="746" arabic-form="final" 
d="M553 18q-43 18 -67.5 55.5t-44.5 107.5q-240 -85 -272 -226q0 -90 59 -131t160 -41q92 0 229 30l-8 -143q-114 -30 -225 -30q-146 0 -234 64.5t-88 202.5q0 118 77.5 218t239.5 167q-21 7 -94 36q-27 12 -50.5 20.5t-32.5 8.5q-26 0 -38.5 -15.5t-17.5 -44.5l-85 16
q12 82 44 129t92 47q33 0 70 -13t98 -41q72 -33 124.5 -51t107.5 -21l-13 -141l-59 -15q15 -37 40 -50t76 -13h105q4 0 6.5 -10.5t2.5 -24.5v-73q0 -15 -2.5 -25.5t-6.5 -10.5h-74q-76 0 -119 18zM197 631l76 93l100 -79l-76 -93z" />
    <glyph glyph-name="uni062E.init" unicode="&#x62e;" horiz-adv-x="720" arabic-form="initial" 
d="M-6 11q-3 11 -3 25v73q0 14 3 24.5t6 10.5h33q61 0 122.5 12t133.5 37q40 15 68 27q7 3 30.5 13t43.5 16q-44 14 -118 45q-85 35 -102 35q-26 0 -38.5 -15t-18.5 -45l-84 16q13 83 44.5 130t91.5 47q30 0 64.5 -12t93.5 -38q85 -37 148.5 -57t134.5 -20l-28 -142
q-59 -4 -108 -24.5t-118 -60.5l-46 -26q-72 -39 -147.5 -60.5t-169.5 -21.5h-30q-3 0 -6 11zM206 603l76 93l100 -79l-76 -93z" />
    <glyph glyph-name="uni062E.medi" unicode="&#x62e;" horiz-adv-x="731" arabic-form="medial" 
d="M-6 11q-3 11 -3 25v73q0 14 3 24.5t6 10.5h33q61 0 122.5 12t133.5 37q18 6 41.5 16.5t37.5 15.5q42 20 67 28q-34 9 -75 24.5t-51 19.5q-32 12 -59.5 22t-38.5 10q-26 0 -38.5 -15t-18.5 -45l-84 16q13 83 44.5 130t91.5 47q30 0 63.5 -11t94.5 -36q81 -34 146 -53.5
t137 -19.5l-28 -135q-42 -3 -80.5 -17.5t-80.5 -39.5q23 -7 92 -7l121 1h60q4 0 6.5 -10.5t2.5 -24.5v-73q0 -15 -2.5 -25.5t-6.5 -10.5h-145q-69 0 -129 23t-75 79q-30 -17 -35 -20q-72 -39 -147.5 -60.5t-169.5 -21.5h-30q-3 0 -6 11zM206 603l76 93l100 -79l-76 -93z" />
    <glyph glyph-name="uni062F.fina" unicode="&#x62f;" horiz-adv-x="599" arabic-form="final" 
d="M96 18q-37 33 -37 115q0 18 4 78l88 -7v-24q0 -24 6 -34.5t22 -13.5t54 -3q44 0 88 9.5t72 25.5l-78 301l107 57l58 -290q9 -45 19.5 -62t30 -21.5t69.5 -4.5q4 0 6.5 -10.5t2.5 -24.5v-73q0 -15 -2.5 -25.5t-6.5 -10.5h-25q-108 0 -131 80q-9 -23 -17.5 -34t-23.5 -18
q-31 -17 -85 -30t-102 -13q-82 0 -119 33z" />
    <glyph glyph-name="uni0630.fina" unicode="&#x630;" horiz-adv-x="599" arabic-form="final" 
d="M96 18q-37 33 -37 115q0 18 4 78l88 -7v-24q0 -24 6 -34.5t22 -13.5t54 -3q44 0 88 9.5t72 25.5l-78 301l107 57l58 -290q9 -45 19.5 -62t30 -21.5t69.5 -4.5q4 0 6.5 -10.5t2.5 -24.5v-73q0 -15 -2.5 -25.5t-6.5 -10.5h-25q-108 0 -131 80q-9 -23 -17.5 -34t-23.5 -18
q-31 -17 -85 -30t-102 -13q-82 0 -119 33zM241 695l76 93l100 -79l-76 -93z" />
    <glyph glyph-name="uni0631.fina" unicode="&#x631;" horiz-adv-x="402" arabic-form="final" 
d="M309 11.5q-26 11.5 -44 33.5q-3 -97 -69 -180t-207 -152l-70 111q112 51 169 100.5t78 101.5l-38 297l114 23l11 -105l3 -30q4 -37 31 -52t79 -15h36q4 0 6.5 -10.5t2.5 -24.5v-73q0 -15 -2.5 -25.5t-6.5 -10.5h-36q-31 0 -57 11.5z" />
    <glyph glyph-name="uni0632.fina" unicode="&#x632;" horiz-adv-x="402" arabic-form="final" 
d="M309 11.5q-26 11.5 -44 33.5q-3 -97 -69 -180t-207 -152l-70 111q112 51 169 100.5t78 101.5l-38 297l114 23l11 -105l3 -30q4 -37 31 -52t79 -15h36q4 0 6.5 -10.5t2.5 -24.5v-73q0 -15 -2.5 -25.5t-6.5 -10.5h-36q-31 0 -57 11.5zM83 529l76 93l100 -79l-76 -93z" />
    <glyph glyph-name="uni0633.fina" unicode="&#x633;" horiz-adv-x="1257" arabic-form="final" 
d="M1150 16.5q-33 16.5 -48 47.5q-22 -32 -58.5 -48t-77.5 -16q-38 0 -68 14t-44 45q-16 -33 -49.5 -46t-68.5 -13q-36 0 -60 9.5t-39 30.5l1 -24q3 -51 3 -87q0 -54 -50.5 -90t-124.5 -53t-143 -17q-134 0 -194 51t-60 152q0 23 7.5 75t18.5 119q10 52 21 127l88 -19
q-38 -228 -38 -281q0 -43 45.5 -61t111.5 -18q73 0 127.5 9t91.5 32l-40 375l110 23l15 -149q3 -34 21 -47t60 -13q52 0 86 14l-8 188l100 4l4 -193q16 -13 52 -13q57 0 89 16l-23 230l110 19l14 -195q2 -38 20.5 -54t71.5 -16h33q4 0 6.5 -10.5t2.5 -24.5v-73
q0 -15 -2.5 -25.5t-6.5 -10.5h-33q-41 0 -74 16.5z" />
    <glyph glyph-name="uni0633.init" unicode="&#x633;" horiz-adv-x="760" arabic-form="initial" 
d="M-6 11q-3 11 -3 25v73q0 14 3 24.5t6 10.5q72 0 123 20v146h100l-2 -113q0 -29 14.5 -41t42.5 -12q44 0 78 14l-5 188l101 4v-193q18 -13 52 -13q57 0 89 16l-23 230l111 19q10 -194 10 -254q0 -52 -23.5 -87t-60.5 -51.5t-79 -16.5q-100 0 -126 59q-15 -33 -48 -46
t-63 -13q-39 0 -69.5 14.5t-47.5 45.5q-42 -60 -174 -60q-3 0 -6 11z" />
    <glyph glyph-name="uni0633.medi" unicode="&#x633;" horiz-adv-x="819" arabic-form="medial" 
d="M712 16.5q-33 16.5 -48 46.5q-22 -31 -58.5 -47t-77.5 -16q-100 0 -126 59q-15 -33 -48 -46t-63 -13q-39 0 -69.5 14.5t-47.5 45.5q-42 -60 -174 -60q-3 0 -6 11t-3 25v73q0 14 3 24.5t6 10.5q72 0 123 20v146h100l-2 -113q0 -29 14.5 -41t42.5 -12q44 0 78 14l-5 188
l101 4v-193q18 -13 52 -13q57 0 89 16l-23 230l111 19l13 -195q2 -38 20.5 -54t71.5 -16h33q4 0 6.5 -10.5t2.5 -24.5v-73q0 -15 -2.5 -25.5t-6.5 -10.5h-33q-41 0 -74 16.5z" />
    <glyph glyph-name="uni0634.fina" unicode="&#x634;" horiz-adv-x="1257" arabic-form="final" 
d="M1150 16.5q-33 16.5 -48 47.5q-22 -32 -58.5 -48t-77.5 -16q-38 0 -68 14t-44 45q-16 -33 -49.5 -46t-68.5 -13q-36 0 -60 9.5t-39 30.5l1 -24q3 -51 3 -87q0 -54 -50.5 -90t-124.5 -53t-143 -17q-134 0 -194 51t-60 152q0 23 7.5 75t18.5 119q10 52 21 127l88 -19
q-38 -228 -38 -281q0 -43 45.5 -61t111.5 -18q73 0 127.5 9t91.5 32l-40 375l110 23l15 -149q3 -34 21 -47t60 -13q52 0 86 14l-8 188l100 4l4 -193q16 -13 52 -13q57 0 89 16l-23 230l110 19l14 -195q2 -38 20.5 -54t71.5 -16h33q4 0 6.5 -10.5t2.5 -24.5v-73
q0 -15 -2.5 -25.5t-6.5 -10.5h-33q-41 0 -74 16.5zM668 518l66 81l84 -67l55 67l87 -69l-66 -81l-84 67l-55 -67zM792 746l87 -68l-66 -81l-86 68z" />
    <glyph glyph-name="uni0634.init" unicode="&#x634;" horiz-adv-x="760" arabic-form="initial" 
d="M-6 11q-3 11 -3 25v73q0 14 3 24.5t6 10.5q72 0 123 20v146h100l-2 -113q0 -29 14.5 -41t42.5 -12q44 0 78 14l-5 188l101 4v-193q18 -13 52 -13q57 0 89 16l-23 230l111 19q10 -194 10 -254q0 -52 -23.5 -87t-60.5 -51.5t-79 -16.5q-100 0 -126 59q-15 -33 -48 -46
t-63 -13q-39 0 -69.5 14.5t-47.5 45.5q-42 -60 -174 -60q-3 0 -6 11zM231 510l66 81l84 -67l55 67l87 -69l-66 -81l-84 67l-55 -67zM355 738l87 -68l-66 -81l-86 68z" />
    <glyph glyph-name="uni0634.medi" unicode="&#x634;" horiz-adv-x="819" arabic-form="medial" 
d="M712 16.5q-33 16.5 -48 46.5q-22 -31 -58.5 -47t-77.5 -16q-100 0 -126 59q-15 -33 -48 -46t-63 -13q-39 0 -69.5 14.5t-47.5 45.5q-42 -60 -174 -60q-3 0 -6 11t-3 25v73q0 14 3 24.5t6 10.5q72 0 123 20v146h100l-2 -113q0 -29 14.5 -41t42.5 -12q44 0 78 14l-5 188
l101 4v-193q18 -13 52 -13q57 0 89 16l-23 230l111 19l13 -195q2 -38 20.5 -54t71.5 -16h33q4 0 6.5 -10.5t2.5 -24.5v-73q0 -15 -2.5 -25.5t-6.5 -10.5h-33q-41 0 -74 16.5zM231 510l66 81l84 -67l55 67l87 -69l-66 -81l-84 67l-55 -67zM355 738l87 -68l-66 -81l-86 68z
" />
    <glyph glyph-name="uni0635.fina" unicode="&#x635;" horiz-adv-x="1321" arabic-form="final" 
d="M1221 16q-37 16 -61 54q-48 -33 -127.5 -51.5t-181.5 -18.5q-135 0 -213 33q3 -60 3 -104q0 -54 -50.5 -90t-124.5 -53t-143 -17q-133 0 -193.5 50.5t-60.5 149.5q0 32 9.5 94.5t34.5 208.5l3 21l88 -19q-39 -234 -39 -281q0 -44 45.5 -61.5t112.5 -17.5q151 0 219 41
l-40 375l110 23q12 -131 16 -186q19 -6 35 -8q33 53 91 121.5t129 121t136 52.5q203 0 203 -251q0 -12 -2 -32q11 -14 34 -20.5t67 -6.5q3 0 5.5 -10.5t2.5 -24.5v-73q0 -15 -2.5 -25.5t-5.5 -10.5q-63 0 -100 16zM843 144q77 0 144 8t135 30q2 71 -23.5 110.5t-75.5 39.5
q-52 0 -120 -50t-139 -135q32 -3 79 -3z" />
    <glyph glyph-name="uni0635.init" unicode="&#x635;" horiz-adv-x="892" arabic-form="initial" 
d="M-6 11q-3 11 -3 25v73q0 14 3 24.5t6 10.5q45 0 73.5 3t55.5 15l-4 169h100l-4 -158q5 -5 18 -9t24 -5q33 53 91 121.5t129.5 121t135.5 52.5q203 0 203 -251q0 -32 -7 -60t-23 -46q-41 -46 -129.5 -71.5t-210.5 -25.5q-193 0 -264 66q-28 -35 -80 -50.5t-108 -15.5
q-3 0 -6 11zM443 144q77 0 144.5 8t134.5 30q2 71 -23.5 110.5t-75.5 39.5q-52 0 -120 -50t-138 -135q36 -3 78 -3z" />
    <glyph glyph-name="uni0635.medi" unicode="&#x635;" horiz-adv-x="921" arabic-form="medial" 
d="M821 16q-37 16 -60 54q-48 -33 -127.5 -51.5t-181.5 -18.5q-193 0 -264 66q-28 -35 -80 -50.5t-108 -15.5q-3 0 -6 11t-3 25v73q0 14 3 24.5t6 10.5q45 0 73.5 3t55.5 15l-4 169h100l-4 -158q5 -5 18 -9t24 -5q33 53 91 121.5t129.5 121t135.5 52.5q203 0 203 -251
q0 -12 -2 -32q11 -14 34 -20.5t67 -6.5q3 0 6 -10.5t3 -24.5v-73q0 -14 -3 -25t-6 -11q-63 0 -100 16zM443 144q77 0 144.5 8t134.5 30q2 71 -23.5 110.5t-75.5 39.5q-52 0 -120 -50t-138 -135q36 -3 78 -3z" />
    <glyph glyph-name="uni0636.fina" unicode="&#x636;" horiz-adv-x="1321" arabic-form="final" 
d="M1221 16q-37 16 -61 54q-48 -33 -127.5 -51.5t-181.5 -18.5q-135 0 -213 33q3 -60 3 -104q0 -54 -50.5 -90t-124.5 -53t-143 -17q-133 0 -193.5 50.5t-60.5 149.5q0 32 9.5 94.5t34.5 208.5l3 21l88 -19q-39 -234 -39 -281q0 -44 45.5 -61.5t112.5 -17.5q151 0 219 41
l-40 375l110 23q12 -131 16 -186q19 -6 35 -8q33 53 91 121.5t129 121t136 52.5q203 0 203 -251q0 -12 -2 -32q11 -14 34 -20.5t67 -6.5q3 0 5.5 -10.5t2.5 -24.5v-73q0 -15 -2.5 -25.5t-5.5 -10.5q-63 0 -100 16zM843 144q77 0 144 8t135 30q2 71 -23.5 110.5t-75.5 39.5
q-52 0 -120 -50t-139 -135q32 -3 79 -3zM763 599l76 93l100 -79l-76 -93z" />
    <glyph glyph-name="uni0636.init" unicode="&#x636;" horiz-adv-x="892" arabic-form="initial" 
d="M-6 11q-3 11 -3 25v73q0 14 3 24.5t6 10.5q45 0 73.5 3t55.5 15l-4 169h100l-4 -158q5 -5 18 -9t24 -5q33 53 91 121.5t129.5 121t135.5 52.5q203 0 203 -251q0 -32 -7 -60t-23 -46q-41 -46 -129.5 -71.5t-210.5 -25.5q-193 0 -264 66q-28 -35 -80 -50.5t-108 -15.5
q-3 0 -6 11zM443 144q77 0 144.5 8t134.5 30q2 71 -23.5 110.5t-75.5 39.5q-52 0 -120 -50t-138 -135q36 -3 78 -3zM364 599l76 93l100 -79l-76 -93z" />
    <glyph glyph-name="uni0636.medi" unicode="&#x636;" horiz-adv-x="921" arabic-form="medial" 
d="M821 16q-37 16 -60 54q-48 -33 -127.5 -51.5t-181.5 -18.5q-193 0 -264 66q-28 -35 -80 -50.5t-108 -15.5q-3 0 -6 11t-3 25v73q0 14 3 24.5t6 10.5q45 0 73.5 3t55.5 15l-4 169h100l-4 -158q5 -5 18 -9t24 -5q33 53 91 121.5t129.5 121t135.5 52.5q203 0 203 -251
q0 -12 -2 -32q11 -14 34 -20.5t67 -6.5q3 0 6 -10.5t3 -24.5v-73q0 -14 -3 -25t-6 -11q-63 0 -100 16zM443 144q77 0 144.5 8t134.5 30q2 71 -23.5 110.5t-75.5 39.5q-52 0 -120 -50t-138 -135q36 -3 78 -3zM364 599l76 93l100 -79l-76 -93z" />
    <glyph glyph-name="uni0637.fina" unicode="&#x637;" horiz-adv-x="815" arabic-form="final" 
d="M715 16q-37 16 -61 54q-48 -33 -127.5 -51.5t-181.5 -18.5h-259l-27 144h91q20 25 31 46q7 11 10 32.5t3 69.5q0 17 -2 89l-8 310l114 19l2 -296q0 -26 -1 -49.5t-5 -37.5q125 127 219 127q101 0 152 -63.5t51 -187.5q0 -10 -2 -32q11 -14 34 -20.5t67 -6.5q3 0 6 -10.5
t3 -24.5v-73q0 -14 -3 -25t-6 -11q-63 0 -100 16zM336 144q77 0 144.5 8t135.5 30q2 72 -23.5 111t-76.5 39t-119.5 -50.5t-139.5 -137.5h79z" />
    <glyph glyph-name="uni0637.init" unicode="&#x637;" horiz-adv-x="727" arabic-form="initial" 
d="M91 144q20 25 31 46q7 11 10 32.5t3 69.5q0 17 -2 89l-8 310l114 19l2 -296q0 -26 -1 -49.5t-5 -37.5q125 127 219 127q101 0 152 -63.5t51 -187.5q0 -72 -31 -106q-41 -45 -129.5 -71t-210.5 -26h-286q-3 0 -6 11t-3 25v73q0 14 3 24.5t6 10.5h91zM277 144q77 0 144.5 8
t135.5 30q2 72 -23.5 111t-76.5 39t-119.5 -50.5t-139.5 -137.5h79z" />
    <glyph glyph-name="uni0637.medi" unicode="&#x637;" horiz-adv-x="756" arabic-form="medial" 
d="M655.5 16q-36.5 16 -59.5 55q-48 -34 -127.5 -52.5t-182.5 -18.5h-286q-3 0 -6 11t-3 25v73q0 14 3 24.5t6 10.5h91q20 25 31 46q7 11 10 32.5t3 69.5q0 17 -2 89l-8 310l114 19l2 -296q0 -26 -1 -49.5t-5 -37.5q125 127 219 127q101 0 152 -63.5t51 -187.5q0 -11 -2 -31
q11 -14 34 -21t67 -7q4 0 6.5 -10.5t2.5 -24.5v-73q0 -15 -2.5 -25.5t-6.5 -10.5q-64 0 -100.5 16zM277 144q77 0 144.5 8t135.5 30q2 72 -23.5 111t-76.5 39t-119.5 -50.5t-139.5 -137.5h79z" />
    <glyph glyph-name="uni0638.fina" unicode="&#x638;" horiz-adv-x="815" arabic-form="final" 
d="M715 16q-37 16 -61 54q-48 -33 -127.5 -51.5t-181.5 -18.5h-259l-27 144h91q20 25 31 46q7 11 10 32.5t3 69.5q0 17 -2 89l-8 310l114 19l2 -296q0 -26 -1 -49.5t-5 -37.5q125 127 219 127q101 0 152 -63.5t51 -187.5q0 -10 -2 -32q11 -14 34 -20.5t67 -6.5q3 0 6 -10.5
t3 -24.5v-73q0 -14 -3 -25t-6 -11q-63 0 -100 16zM336 144q77 0 144.5 8t135.5 30q2 72 -23.5 111t-76.5 39t-119.5 -50.5t-139.5 -137.5h79zM439 639l76 93l100 -79l-76 -93z" />
    <glyph glyph-name="uni0638.init" unicode="&#x638;" horiz-adv-x="727" arabic-form="initial" 
d="M91 144q20 25 31 46q7 11 10 32.5t3 69.5q0 17 -2 89l-8 310l114 19l2 -296q0 -26 -1 -49.5t-5 -37.5q125 127 219 127q101 0 152 -63.5t51 -187.5q0 -72 -31 -106q-41 -45 -129.5 -71t-210.5 -26h-286q-3 0 -6 11t-3 25v73q0 14 3 24.5t6 10.5h91zM277 144q77 0 144.5 8
t135.5 30q2 72 -23.5 111t-76.5 39t-119.5 -50.5t-139.5 -137.5h79zM381 639l76 93l100 -79l-76 -93z" />
    <glyph glyph-name="uni0638.medi" unicode="&#x638;" horiz-adv-x="756" arabic-form="medial" 
d="M655.5 16q-36.5 16 -59.5 55q-48 -34 -127.5 -52.5t-182.5 -18.5h-286q-3 0 -6 11t-3 25v73q0 14 3 24.5t6 10.5h91q20 25 31 46q7 11 10 32.5t3 69.5q0 17 -2 89l-8 310l114 19l2 -296q0 -26 -1 -49.5t-5 -37.5q125 127 219 127q101 0 152 -63.5t51 -187.5q0 -11 -2 -31
q11 -14 34 -21t67 -7q4 0 6.5 -10.5t2.5 -24.5v-73q0 -15 -2.5 -25.5t-6.5 -10.5q-64 0 -100.5 16zM277 144q77 0 144.5 8t135.5 30q2 72 -23.5 111t-76.5 39t-119.5 -50.5t-139.5 -137.5h79zM381 639l76 93l100 -79l-76 -93z" />
    <glyph glyph-name="uni0639.fina" unicode="&#x639;" horiz-adv-x="644" arabic-form="final" 
d="M155 -294q-86 66 -86 210q0 70 41.5 146t118.5 122q-35 57 -57.5 92t-31 43.5t-15.5 7.5l-26 -4l5 116q137 23 269 23q93 0 136.5 -22t43.5 -76v-32q0 -27 -34.5 -83.5t-66.5 -82.5q5 -2 17.5 -8.5t27 -10t31.5 -3.5h116q3 0 5.5 -10.5t2.5 -24.5v-73q0 -15 -2.5 -25.5
t-5.5 -10.5h-139q-65 0 -103 26.5t-65 69.5q-125 -47 -162 -144q0 -89 58 -128.5t151 -39.5q91 0 203 29l-8 -144q-106 -29 -200 -29q-138 0 -224 66zM262 307q13 -18 33 -48q6 -9 16.5 -23t24.5 -36q30 11 66.5 51t44.5 71q-8 7 -32.5 10.5t-57.5 3.5q-76 0 -116 -7
q8 -4 21 -22z" />
    <glyph glyph-name="uni0639.init" unicode="&#x639;" horiz-adv-x="539" arabic-form="initial" 
d="M-6 11q-3 11 -3 25v73q0 14 3 24.5t6 10.5h129q-28 54 -28 117q0 74 52 116.5t136 42.5q40 0 114 -19l-27 -113q-50 10 -97 10q-49 0 -78 -19q0 -65 33 -131q123 20 232 43v-133q-102 -27 -153 -38t-106.5 -15.5t-149.5 -4.5h-57q-3 0 -6 11z" />
    <glyph glyph-name="uni0639.medi" unicode="&#x639;" horiz-adv-x="560" arabic-form="medial" 
d="M-6 11q-3 11 -3 25v73q0 14 3 24.5t6 10.5h127q14 0 56 3q-36 59 -59.5 94.5t-32 44t-15.5 7.5l-26 -4l5 116q135 23 269 23q93 0 136.5 -22t43.5 -76v-32q0 -23 -28.5 -71.5t-58.5 -79.5q36 -3 53 -3h90q3 0 6 -10.5t3 -24.5v-73q0 -14 -3 -25t-6 -11h-114
q-61 0 -98 16.5t-60 48.5q-26 -30 -66 -47.5t-102 -17.5h-120q-3 0 -6 11zM216.5 268q16.5 -22 42.5 -60q7 -12 28 -42q30 11 66.5 51t44.5 72q-16 12 -90 12q-81 0 -116 -6q8 -5 24.5 -27z" />
    <glyph glyph-name="uni063A.fina" unicode="&#x63a;" horiz-adv-x="644" arabic-form="final" 
d="M155 -294q-86 66 -86 210q0 70 41.5 146t118.5 122q-35 57 -57.5 92t-31 43.5t-15.5 7.5l-26 -4l5 116q137 23 269 23q93 0 136.5 -22t43.5 -76v-32q0 -27 -34.5 -83.5t-66.5 -82.5q5 -2 17.5 -8.5t27 -10t31.5 -3.5h116q3 0 5.5 -10.5t2.5 -24.5v-73q0 -15 -2.5 -25.5
t-5.5 -10.5h-139q-65 0 -103 26.5t-65 69.5q-125 -47 -162 -144q0 -89 58 -128.5t151 -39.5q91 0 203 29l-8 -144q-106 -29 -200 -29q-138 0 -224 66zM262 307q13 -18 33 -48q6 -9 16.5 -23t24.5 -36q30 11 66.5 51t44.5 71q-8 7 -32.5 10.5t-57.5 3.5q-76 0 -116 -7
q8 -4 21 -22zM235 622l76 93l100 -79l-76 -93z" />
    <glyph glyph-name="uni063A.init" unicode="&#x63a;" horiz-adv-x="539" arabic-form="initial" 
d="M-6 11q-3 11 -3 25v73q0 14 3 24.5t6 10.5h129q-28 54 -28 117q0 74 52 116.5t136 42.5q40 0 114 -19l-27 -113q-50 10 -97 10q-49 0 -78 -19q0 -65 33 -131q123 20 232 43v-133q-102 -27 -153 -38t-106.5 -15.5t-149.5 -4.5h-57q-3 0 -6 11zM150 576l76 93l100 -79
l-76 -93z" />
    <glyph glyph-name="uni063A.medi" unicode="&#x63a;" horiz-adv-x="560" arabic-form="medial" 
d="M-6 11q-3 11 -3 25v73q0 14 3 24.5t6 10.5h127q14 0 56 3q-36 59 -59.5 94.5t-32 44t-15.5 7.5l-26 -4l5 116q135 23 269 23q93 0 136.5 -22t43.5 -76v-32q0 -23 -28.5 -71.5t-58.5 -79.5q36 -3 53 -3h90q3 0 6 -10.5t3 -24.5v-73q0 -14 -3 -25t-6 -11h-114
q-61 0 -98 16.5t-60 48.5q-26 -30 -66 -47.5t-102 -17.5h-120q-3 0 -6 11zM216.5 268q16.5 -22 42.5 -60q7 -12 28 -42q30 11 66.5 51t44.5 72q-16 12 -90 12q-81 0 -116 -6q8 -5 24.5 -27zM186 588l76 93l100 -79l-76 -93z" />
    <glyph glyph-name="uni0641.fina" unicode="&#x641;" horiz-adv-x="967" arabic-form="final" 
d="M228 11.5q-74 16.5 -116.5 60t-42.5 122.5q0 21 7.5 71t24.5 144l88 -18q-23 -135 -23 -171q0 -33 21.5 -50t72 -24t145.5 -7q138 0 196 7q-22 16 -38 40.5t-16 50.5q0 33 30 87t75 94t91 40q47 0 86 -31t62 -83.5t23 -111.5q0 -30 -11.5 -48.5t-44.5 -36.5q39 -3 72 -3
h37q4 0 6.5 -10.5t2.5 -24.5v-73q0 -15 -2.5 -25.5t-6.5 -10.5h-75q-52 0 -90.5 11t-74.5 44q-22 -20 -46 -28q-96 -32 -269 -32q-110 0 -184 16.5zM672 200q25 -22 63 -36l76 55q0 44 -21 80.5t-52 36.5q-18 0 -39.5 -15.5t-36.5 -38t-15 -40.5q0 -20 25 -42zM648 607
l76 93l100 -79l-76 -93z" />
    <glyph glyph-name="uni0641.init" unicode="&#x641;" horiz-adv-x="476" arabic-form="initial" 
d="M-6 11q-3 11 -3 25v73q0 14 3 24.5t6 10.5q154 0 216.5 2.5t88.5 10.5q2 15 4 57q-43 -9 -107 -9q-56 0 -81.5 8.5t-47.5 38.5q-15 21 -20 35.5t-5 38.5q0 66 19.5 127t60.5 99.5t103 38.5q57 0 97 -40t59.5 -104.5t19.5 -138.5q0 -90 -6.5 -143t-23.5 -84.5t-49 -48.5
q-28 -14 -62 -21t-92.5 -9t-173.5 -2q-3 0 -6 11zM223 324q54 0 87 8q0 70 -23.5 105t-64.5 35q-36 0 -59 -37t-23 -101q32 -10 83 -10zM129 747l76 93l100 -79l-76 -93z" />
    <glyph glyph-name="uni0641.medi" unicode="&#x641;" horiz-adv-x="475" arabic-form="medial" 
d="M-6 11q-3 11 -3 25v73q0 14 3 24.5t6 10.5h49q19 0 59 5q-21 13 -37 37t-16 51q0 33 31 86.5t76.5 94t88.5 40.5t82.5 -31.5t63.5 -83.5t24 -111q0 -29 -11.5 -48t-43.5 -36q52 -4 72 -4h37q3 0 5.5 -10.5t2.5 -24.5v-73q0 -15 -2.5 -25.5t-5.5 -10.5h-76q-51 0 -90 11.5
t-76 44.5q-32 -31 -73 -43.5t-100 -12.5h-60q-3 0 -6 11zM179.5 200.5q25.5 -21.5 63.5 -36.5l75 55q0 44 -21 80.5t-51 36.5q-18 0 -40 -15.5t-37 -38t-15 -40.5q0 -20 25.5 -41.5zM156 607l76 93l100 -79l-76 -93z" />
    <glyph glyph-name="uni0642.fina" unicode="&#x642;" horiz-adv-x="818" arabic-form="final" 
d="M824.5 133.5q2.5 -10.5 2.5 -24.5v-73q0 -15 -2.5 -25.5t-6.5 -10.5h-117q-4 -68 -16 -105.5t-37 -61.5q-47 -47 -139 -67.5t-186 -20.5q-134 0 -194 51t-60 152q0 23 7.5 75t18.5 119q10 52 21 127l88 -19q-38 -228 -38 -281q0 -43 45.5 -61t111.5 -18q83 0 149.5 10.5
t127.5 36.5q3 21 5 72q-43 -9 -107 -9q-56 0 -81.5 8.5t-46.5 38.5q-16 21 -21 35t-5 39q0 66 19.5 126.5t60.5 99t103 38.5q77 0 122 -69t52 -172h117q4 0 6.5 -10.5zM519 119q54 0 87 8q0 70 -23.5 105t-64.5 35q-36 0 -58.5 -37t-22.5 -102q43 -9 82 -9zM354 539l72 89
l92 -73l59 73l95 -76l-72 -89l-92 73l-59 -73z" />
    <glyph glyph-name="uni0642.init" unicode="&#x642;" horiz-adv-x="476" arabic-form="initial" 
d="M-6 11q-3 11 -3 25v73q0 14 3 24.5t6 10.5q154 0 216.5 2.5t88.5 10.5q2 15 4 57q-43 -9 -107 -9q-56 0 -81.5 8.5t-47.5 38.5q-15 21 -20 35.5t-5 38.5q0 66 19.5 127t60.5 99.5t103 38.5q57 0 97 -40t59.5 -104.5t19.5 -138.5q0 -90 -6.5 -143t-23.5 -84.5t-49 -48.5
q-28 -14 -62 -21t-92.5 -9t-173.5 -2q-3 0 -6 11zM223 324q54 0 87 8q0 70 -23.5 105t-64.5 35q-36 0 -59 -37t-23 -101q32 -10 83 -10zM58 744l72 89l92 -73l59 73l95 -76l-72 -89l-92 73l-59 -73z" />
    <glyph glyph-name="uni0642.medi" unicode="&#x642;" horiz-adv-x="475" arabic-form="medial" 
d="M-6 11q-3 11 -3 25v73q0 14 3 24.5t6 10.5h49q19 0 59 5q-21 13 -37 37t-16 51q0 33 31 86.5t76.5 94t88.5 40.5t82.5 -31.5t63.5 -83.5t24 -111q0 -29 -11.5 -48t-43.5 -36q52 -4 72 -4h37q3 0 5.5 -10.5t2.5 -24.5v-73q0 -15 -2.5 -25.5t-5.5 -10.5h-76q-51 0 -90 11.5
t-76 44.5q-32 -31 -73 -43.5t-100 -12.5h-60q-3 0 -6 11zM179.5 200.5q25.5 -21.5 63.5 -36.5l75 55q0 44 -21 80.5t-51 36.5q-18 0 -40 -15.5t-37 -38t-15 -40.5q0 -20 25.5 -41.5zM85 604l72 89l92 -73l59 73l95 -76l-72 -89l-92 73l-59 -73z" />
    <glyph glyph-name="uni0643.fina" unicode="&#x643;" horiz-adv-x="893" arabic-form="final" 
d="M228 11.5q-74 16.5 -116.5 60t-42.5 122.5q0 21 7.5 71t24.5 144l88 -18q-23 -135 -23 -171q0 -33 21.5 -50t72 -24t145.5 -7q149 0 253 30l-22 521l114 20l7 -478q3 -88 96 -88h40q3 0 6 -10.5t3 -24.5v-73q0 -14 -3 -25t-6 -11h-26q-60 0 -100.5 19t-59.5 65
q-11 -47 -101 -68t-194 -21q-110 0 -184 16.5zM315 394q111 0 146 36q0 12 -12.5 17t-40.5 10q-37 6 -56 15t-19 33q0 32 15.5 74.5t42.5 73.5t58 31q24 0 43.5 -14.5t40.5 -47.5l-37 -36q-23 26 -47 26q-22 0 -37 -23.5t-23 -56.5q47 -5 73 -12.5t40 -26t14 -55.5
q0 -58 -55.5 -92t-152.5 -34z" />
    <glyph glyph-name="uni0643.init" unicode="&#x643;" horiz-adv-x="436" arabic-form="initial" 
d="M-6 11q-3 11 -3 25v73q0 14 3 24.5t6 10.5q77 0 138 6t96 17q-16 102 -66 173.5t-154 132.5l13 102q163 77 358 135l15 -119q-117 -32 -226 -78q171 -152 171 -375q0 -77 -87 -107.5t-258 -30.5q-3 0 -6 11z" />
    <glyph glyph-name="uni0643.medi" unicode="&#x643;" horiz-adv-x="470" arabic-form="medial" 
d="M306 57q-39 -31 -115 -44t-191 -13q-3 0 -6 11t-3 25v73q0 14 3 24.5t6 10.5q77 0 138 6t96 17q-16 102 -66 173.5t-154 132.5l13 102q163 77 358 135l15 -119q-117 -32 -226 -78q153 -136 169 -330q9 -20 28.5 -29.5t52.5 -9.5h46q4 0 6.5 -10.5t2.5 -24.5v-73
q0 -15 -2.5 -25.5t-6.5 -10.5h-33q-97 0 -131 57z" />
    <glyph glyph-name="uni0644.fina" unicode="&#x644;" horiz-adv-x="746" arabic-form="final" 
d="M603 49l2 -120q1 -53 -48 -89.5t-117 -53.5t-122 -17q-131 0 -190 51t-59 152q0 23 7.5 75t18.5 119q10 52 21 127l88 -19q-39 -234 -39 -281q0 -43 45.5 -61t107.5 -18q121 0 188 41l-28 736l114 19l8 -510q9 -35 31 -45.5t62 -10.5h53q3 0 5.5 -10.5t2.5 -24.5v-73
q0 -15 -2.5 -25.5t-5.5 -10.5h-31q-70 0 -112 49z" />
    <glyph glyph-name="uni0644.init" unicode="&#x644;" horiz-adv-x="349" arabic-form="initial" 
d="M-6 11q-3 11 -3 25v73q0 14 3 24.5t6 10.5q60 0 104 6t76 22l-26 519l114 19l8 -550q1 -88 -77 -124t-199 -36q-3 0 -6 11z" />
    <glyph glyph-name="uni0644.medi" unicode="&#x644;" horiz-adv-x="380" arabic-form="medial" 
d="M-6 11q-3 11 -3 25v73q0 14 3 24.5t6 10.5q57 0 90 5t55 19l-23 523l115 19l4 -488q1 -36 26.5 -57t71.5 -21h41q4 0 6.5 -10.5t2.5 -24.5v-73q0 -15 -2.5 -25.5t-6.5 -10.5q-84 0 -128 18.5t-55 58.5q-27 -42 -77.5 -59.5t-119.5 -17.5q-3 0 -6 11z" />
    <glyph glyph-name="uni0645.fina" unicode="&#x645;" horiz-adv-x="620" arabic-form="final" 
d="M473 62q-2 -11 -8 -33q-3 -13 -13.5 -26t-32.5 -29q-29 -22 -51 -22q-12 0 -22 5l-187 86q-2 -127 33 -354l-118 -20q-19 186 -19 294q0 117 26 171q62 121 120 179t125 58q55 0 92.5 -40.5t52.5 -108.5q10 -28 25 -44.5t44.5 -25t79.5 -8.5q3 0 6 -10.5t3 -24.5v-73
q0 -14 -3 -25t-6 -11q-104 0 -147 62zM370 85q10 23 10 63q0 46 -17.5 75t-50.5 29q-28 0 -48 -21t-52 -75z" />
    <glyph glyph-name="uni0645.init" unicode="&#x645;" horiz-adv-x="525" arabic-form="initial" 
d="M21 0h-21q-3 0 -6 11t-3 25v73q0 14 3 24.5t6 10.5h35q30 0 45 4.5t23.5 15.5t19.5 37q41 93 82.5 131.5t105.5 38.5q48 0 83 -30.5t53.5 -83t18.5 -118.5q0 -52 -15 -110q-4 -14 -14 -26.5t-32 -28.5q-30 -23 -50 -23q-12 0 -24 6l-183 81q-40 -38 -127 -38zM355 82
q11 25 11 63q0 46 -17.5 75t-50.5 29q-29 0 -48.5 -20.5t-50.5 -76.5z" />
    <glyph glyph-name="uni0645.medi" unicode="&#x645;" horiz-adv-x="606" arabic-form="medial" 
d="M21 0h-21q-3 0 -6 11t-3 25v73q0 14 3 24.5t6 10.5h35q30 0 45 4.5t23.5 15.5t19.5 37q41 93 82.5 131.5t105.5 38.5q56 0 94.5 -41.5t52.5 -111.5q15 -40 45.5 -57t102.5 -17q3 0 5.5 -10.5t2.5 -24.5v-73q0 -15 -2.5 -25.5t-5.5 -10.5q-105 0 -148 62q-4 -22 -7 -33
q-4 -14 -14 -26.5t-32 -28.5q-30 -23 -50 -23q-12 0 -24 6l-183 81q-40 -38 -127 -38zM355 82q11 25 11 63q0 46 -17.5 75t-50.5 29q-29 0 -48.5 -20.5t-50.5 -76.5z" />
    <glyph glyph-name="uni0646.fina" unicode="&#x646;" horiz-adv-x="789" arabic-form="final" 
d="M636 58q5 -85 5 -129q0 -54 -50.5 -90t-124.5 -53t-143 -17q-133 0 -193.5 50.5t-60.5 149.5q0 32 9.5 94.5t34.5 208.5l3 21l88 -19q-39 -234 -39 -281q0 -44 45.5 -61.5t112.5 -17.5q151 0 219 41l-40 375l110 23l15 -132q4 -37 19.5 -53t42 -20t82.5 -4h18
q3 0 5.5 -10.5t2.5 -24.5v-73q0 -15 -2.5 -25.5t-5.5 -10.5h-16q-97 0 -137 58zM254 463l76 93l100 -79l-76 -93z" />
    <glyph glyph-name="uni0646.init" unicode="&#x646;" horiz-adv-x="345" arabic-form="initial" 
d="M-6 11q-3 11 -3 25v73q0 14 3 24.5t6 10.5q59 0 103 5.5t75 21.5l-22 219l110 19q10 -160 10 -249q0 -34 -14.5 -64.5t-44.5 -50.5q-74 -45 -217 -45q-3 0 -6 11zM109 583l76 93l100 -79l-76 -93z" />
    <glyph glyph-name="uni0646.medi" unicode="&#x646;" horiz-adv-x="371" arabic-form="medial" 
d="M-6 11q-3 11 -3 25v73q0 14 3 24.5t6 10.5q46 0 81 6t64 21l-22 185l111 11l10 -201q41 -22 127 -22q4 0 6.5 -10.5t2.5 -24.5v-73q0 -15 -2.5 -25.5t-6.5 -10.5q-84 0 -124 16.5t-53 53.5q-19 -38 -64 -54t-130 -16q-3 0 -6 11zM83 543l76 93l100 -79l-76 -93z" />
    <glyph glyph-name="uni0647.fina" unicode="&#x647;" horiz-adv-x="523" arabic-form="final" 
d="M394.5 22q-35.5 22 -48.5 63l-8 -13q-15 -25 -47 -33t-89 -8q-59 0 -96 28.5t-37 84.5q0 69 21 117t67 83.5t124 66.5l-8 70l103 30l27 -264q4 -39 10 -59.5t22.5 -32t50.5 -11.5h37q3 0 5.5 -10.5t2.5 -24.5v-73q0 -15 -2.5 -25.5t-5.5 -10.5h-44q-49 0 -84.5 22z
M216 161q40 0 100 20l-16 125q-71 -22 -104 -58t-38 -75q26 -12 58 -12z" />
    <glyph glyph-name="uni0647.init" unicode="&#x647;" horiz-adv-x="639" arabic-form="initial" 
d="M203.5 12q-72.5 -12 -203.5 -12q-3 0 -6 11t-3 25v73q0 14 3 24.5t6 10.5h85q10 0 16 -1q-26 32 -26 69t21 82.5t55 86.5l-44 22l49 107l284 -128q69 -31 105 -80t36 -115q0 -55 -33 -123q-15 -34 -42 -53q-16 -11 -26 -15.5t-20 -4.5q-9 0 -18 4l-144 56
q-22 -27 -94.5 -39zM206.5 214q20.5 -13 59.5 -22l49 114l-80 37q-49 -58 -49 -95q0 -21 20.5 -34zM462 113q20 32 20 66q0 29 -19 52t-62 41l-48 -114z" />
    <glyph glyph-name="uni0647.medi" unicode="&#x647;" horiz-adv-x="514" arabic-form="medial" 
d="M149 -166.5q-53 59.5 -78 166.5h-71q-3 0 -6 11t-3 25v73q0 14 3 24.5t6 10.5h85q14 73 47.5 135.5t82 100t103.5 37.5h55l4 -273h137q3 0 5.5 -10.5t2.5 -24.5v-73q0 -15 -2.5 -25.5t-5.5 -10.5q-93 0 -123 5q14 -10 21 -30.5t7 -42.5v-59q0 -37 -32 -65
q-22 -20 -38 -27t-38 -7q-109 0 -162 59.5zM325 -103v43q0 78 -95 78h-62q15 -129 157 -121zM229 130q42 0 58 -6l-3 170q-39 -7 -69.5 -59.5t-40.5 -104.5h55z" />
    <glyph glyph-name="uni0648.fina" unicode="&#x648;" horiz-adv-x="488" arabic-form="final" 
d="M301 7q-35 -7 -89 -7q-56 0 -81.5 8.5t-47.5 38.5q-15 21 -20 35.5t-5 38.5q0 66 19.5 127t60.5 99.5t103 38.5q77 0 122 -69.5t52 -172.5h73q4 0 6.5 -10.5t2.5 -24.5v-73q0 -15 -2.5 -25.5t-6.5 -10.5h-85q-25 -91 -97 -164.5t-194 -122.5l-71 111q205 72 260 183z
M233 119q54 0 87 8q0 70 -23.5 105t-64.5 35q-36 0 -59 -37t-23 -101q32 -10 83 -10z" />
    <glyph glyph-name="uni0649.fina" unicode="&#x649;" horiz-adv-x="715" arabic-form="final" 
d="M129 -206.5q-60 50.5 -60 151.5q0 23 7.5 75t18.5 119q10 52 21 127l88 -18q-38 -228 -38 -282q0 -43 45.5 -61t111.5 -18q94 0 156.5 12.5t100.5 43.5q1 4 1 10q0 21 -17 31t-50 13t-98 3l26 144h273q3 0 5.5 -10.5t2.5 -24.5v-73q0 -15 -2.5 -25.5t-5.5 -10.5h-40
q1 -8 1 -24q0 -79 -48 -131.5t-128 -77t-177 -24.5q-134 0 -194 50.5z" />
    <glyph glyph-name="uni064A.fina" unicode="&#x64a;" horiz-adv-x="715" arabic-form="final" 
d="M129 -206.5q-60 50.5 -60 151.5q0 23 7.5 75t18.5 119q10 52 21 127l88 -18q-38 -228 -38 -282q0 -43 45.5 -61t111.5 -18q94 0 156.5 12.5t100.5 43.5q1 4 1 10q0 21 -17 31t-50 13t-98 3l26 144h273q3 0 5.5 -10.5t2.5 -24.5v-73q0 -15 -2.5 -25.5t-5.5 -10.5h-40
q1 -8 1 -24q0 -79 -48 -131.5t-128 -77t-177 -24.5q-134 0 -194 50.5zM164 -445l72 89l92 -73l59 73l95 -76l-72 -89l-92 73l-59 -73z" />
    <glyph glyph-name="uni064A.init" unicode="&#x64a;" horiz-adv-x="345" arabic-form="initial" 
d="M-6 11q-3 11 -3 25v73q0 14 3 24.5t6 10.5q59 0 103 5.5t75 21.5l-22 219l110 19q10 -160 10 -249q0 -34 -14.5 -64.5t-44.5 -50.5q-74 -45 -217 -45q-3 0 -6 11zM-59 -187l72 89l92 -73l59 73l95 -76l-72 -89l-92 73l-59 -73z" />
    <glyph glyph-name="uni064A.medi" unicode="&#x64a;" horiz-adv-x="371" arabic-form="medial" 
d="M-6 11q-3 11 -3 25v73q0 14 3 24.5t6 10.5q46 0 81 6t64 21l-22 185l111 11l10 -201q41 -22 127 -22q4 0 6.5 -10.5t2.5 -24.5v-73q0 -15 -2.5 -25.5t-6.5 -10.5q-84 0 -124 16.5t-53 53.5q-19 -38 -64 -54t-130 -16q-3 0 -6 11zM2 -187l72 89l92 -73l59 73l95 -76
l-72 -89l-92 73l-59 -73z" />
    <glyph glyph-name=".notdef" horiz-adv-x="785" 
d="M644 -500h-498v1570h498v-1570zM523 -392v52h-160l110 74h50v52h-261v-52h110l-110 -74v-52h261zM523 -178v177h-261v-177h261zM523 93v178h-157v-88h53v36h52v-74h-157v126h-52v-178h261zM523 305v157h-52v-103h-209v-54h261zM419 395v110h104v52h-261v-52h104v-58h-104
v-52h157zM523 599v53h-104v110h-157v-163h261zM523 803v52h-104v58h104v52h-259v-52h102v-58h-104v-52h261zM314 -53h157v-73h-157v73zM314 709h52v-57h-52v57z" />
    <glyph glyph-name=".null" horiz-adv-x="0" 
 />
    <glyph glyph-name="nonmarkingreturn" horiz-adv-x="333" 
 />
    <glyph glyph-name="space" unicode=" " horiz-adv-x="240" 
 />
    <glyph glyph-name="exclam" unicode="!" horiz-adv-x="318" 
d="M207 245l-96 -15l-20 494l114 24zM98.5 134q24.5 25 61.5 25q36 0 60 -25t24 -61t-24.5 -60.5t-59.5 -24.5q-36 0 -61 24.5t-25 60.5t24.5 61z" />
    <glyph glyph-name="quotedbl" unicode="&#x22;" horiz-adv-x="524" 
d="M116 423l-25 196l-4 121h124l-4 -121l-25 -196h-66zM437 740l-4 -121l-26 -196h-65l-26 196l-4 121h125z" />
    <glyph glyph-name="numbersign" unicode="#" horiz-adv-x="556" 
d="M123 214h-84v84h94l18 140h-90v85h100l24 189h76l-23 -189h129l25 189h76l-24 -189h88v-85h-98l-16 -140h92v-84h-103l-26 -213h-77l25 213h-128l-26 -213h-78zM339 298l17 140h-128l-17 -140h128z" />
    <glyph glyph-name="dollar" unicode="$" horiz-adv-x="563" 
d="M240 -116v109q-50 5 -101 27t-89 55l58 89q42 -33 81 -50t80 -17q103 0 103 92q0 31 -19.5 55.5t-56.5 47.5q-58 31 -72 37q-88 43 -125 102q-23 34 -23 84q0 78 44 129t120 65v112h88v-110q91 -12 160 -86l-67 -76q-32 30 -60 44t-65 14q-44 0 -68.5 -22t-24.5 -63
q0 -28 19.5 -50t58.5 -42l42 -22q31 -15 37 -19q70 -34 104.5 -79.5t34.5 -110.5q0 -80 -44 -133.5t-127 -68.5v-113h-88z" />
    <glyph glyph-name="percent" unicode="%" horiz-adv-x="904" 
d="M78 370q-44 61 -44 160t44 158.5t122 59.5q79 0 123 -60.5t44 -157.5q0 -98 -44.5 -159.5t-122.5 -61.5t-122 61zM141.5 421q19.5 -41 58.5 -41q40 0 58.5 42t18.5 108q0 67 -18.5 107.5t-58.5 40.5t-59 -41t-19 -107q0 -68 19.5 -109zM608 729h84l-390 -741h-83z
M585 368.5q44 59.5 122 59.5t122 -60.5t44 -157.5q0 -98 -44 -160t-122 -62q-79 0 -122.5 61.5t-43.5 160.5t44 158.5zM648.5 101q19.5 -41 58.5 -41q40 0 58 42t18 108t-18 106.5t-58 40.5t-59 -40.5t-19 -106.5q0 -68 19.5 -109z" />
    <glyph glyph-name="ampersand" unicode="&#x26;" horiz-adv-x="706" 
d="M143 14.5q-52 25.5 -81.5 71t-29.5 104.5q0 63 35 110.5t102 93.5q-47 89 -47 156q0 51 23.5 92t65 64t93.5 23q74 0 117.5 -41t43.5 -112q0 -60 -38 -104.5t-117 -100.5q31 -43 72.5 -85.5t87.5 -77.5q64 82 92 188h118q-44 -144 -121 -245q71 -43 127 -56l-31 -105
q-80 17 -174 76q-99 -77 -220 -77q-66 0 -118 25.5zM189.5 119.5q33.5 -30.5 88.5 -30.5q56 0 110 42q-90 74 -163 176q-69 -51 -69 -109q0 -48 33.5 -78.5zM258 447q53 35 79.5 63.5t26.5 65.5q0 31 -15 48.5t-43 17.5q-33 0 -55 -25t-22 -66q0 -46 29 -104z" />
    <glyph glyph-name="quotesingle" unicode="'" horiz-adv-x="299" 
d="M116 423l-25 196l-4 121h124l-4 -121l-25 -196h-66z" />
    <glyph glyph-name="parenleft" unicode="(" horiz-adv-x="366" 
d="M120.5 49.5q-37.5 121.5 -37.5 259.5q0 137 37.5 258.5t110.5 238.5l86 -44q-62 -103 -93.5 -218.5t-31.5 -234.5t31.5 -234.5t93.5 -218.5l-86 -43q-73 115 -110.5 236.5z" />
    <glyph glyph-name="parenright" unicode=")" horiz-adv-x="366" 
d="M144 74q32 115 32 235t-32 235t-94 218l87 44q73 -116 110 -237.5t37 -259.5t-37 -260t-110 -236l-87 43q62 103 94 218z" />
    <glyph glyph-name="asterisk" unicode="*" horiz-adv-x="489" 
d="M86 389l59 96l-100 42l31 98l106 -26l9 111h105l8 -111l107 26l33 -99l-102 -41l58 -96l-84 -63l-73 87l-71 -86z" />
    <glyph glyph-name="plus" unicode="+" horiz-adv-x="546" 
d="M237 195h-187v93h187v186h93v-186h187v-93h-187v-187h-93v187z" />
    <glyph glyph-name="comma" unicode="," horiz-adv-x="305" 
d="M135.5 -55.5q28.5 32.5 27.5 71.5h-9q-34 0 -58 20.5t-24 56.5q0 35 24.5 56.5t60.5 21.5q45 0 69.5 -34t24.5 -95q0 -80 -43.5 -137t-125.5 -84l-27 71q52 20 80.5 52.5z" />
    <glyph glyph-name="hyphen" unicode="-" horiz-adv-x="353" 
d="M46 222v94h263v-94h-263z" />
    <glyph glyph-name="period" unicode="." horiz-adv-x="349" 
d="M113 13q-26 25 -26 63q0 37 25.5 62.5t63.5 25.5q37 0 62 -25.5t25 -62.5t-25.5 -62.5t-61.5 -25.5q-37 0 -63 25z" />
    <glyph glyph-name="slash" unicode="/" horiz-adv-x="375" 
d="M15 -169l248 952h87l-248 -952h-87z" />
    <glyph glyph-name="zero" unicode="0" horiz-adv-x="570" 
d="M106.5 85q-61.5 98 -61.5 267t61.5 266t178.5 97q118 0 179 -96.5t61 -266.5t-61.5 -267.5t-178.5 -97.5t-178.5 98zM201 157.5q27 -70.5 84 -70.5q112 0 112 265q0 128 -26.5 195.5t-85.5 67.5q-111 0 -111 -263q0 -124 27 -194.5z" />
    <glyph glyph-name="one" unicode="1" horiz-adv-x="569" 
d="M80 104h156v460h-130v79q51 9 89 23t74 36h101v-598h136v-104h-426v104z" />
    <glyph glyph-name="two" unicode="2" horiz-adv-x="569" 
d="M271 317q43 54 63.5 96t20.5 81q0 57 -29.5 88.5t-81.5 31.5q-35 0 -67.5 -20t-66.5 -58l-73 73q52 55 104.5 80.5t120.5 25.5q67 0 117 -26.5t77.5 -74.5t27.5 -112q0 -82 -72 -188q-53 -75 -176 -211l30 2q58 4 88 4h165v-109h-477v73q154 153 229 244z" />
    <glyph glyph-name="three" unicode="3" horiz-adv-x="571" 
d="M167 112q39 -20 86 -20q58 0 91.5 27.5t33.5 76.5q0 70 -51 96.5t-150 26.5v92q85 0 131.5 25t46.5 85q0 44 -26 68.5t-73 24.5q-37 0 -68.5 -16t-70.5 -51l-66 76q46 46 97.5 69t112.5 23q104 0 167 -48.5t63 -135.5q0 -109 -124 -160v-4q67 -17 107 -63.5t40 -114.5
q0 -62 -33.5 -107.5t-90 -70t-125.5 -24.5q-77 0 -137 25.5t-100 71.5l62 84q38 -36 77 -56z" />
    <glyph glyph-name="four" unicode="4" horiz-adv-x="571" 
d="M328 179h-307v87l272 436h161v-424h86v-99h-86v-179h-126v179zM328 278v156q0 75 5 150q-17 -36 -47 -91l-11 -20l-122 -195h175z" />
    <glyph glyph-name="five" unicode="5" horiz-adv-x="569" 
d="M133 12q-60 25 -104 69l61 85q35 -35 74 -54.5t86 -19.5q60 0 95.5 35.5t35.5 96.5q0 64 -33 98.5t-91 34.5q-31 0 -54 -8.5t-56 -29.5l-63 40l21 343h378v-110h-261l-15 -165q23 11 43.5 16.5t45.5 5.5q102 0 161 -58.5t59 -162.5q0 -71 -32.5 -126t-89.5 -85t-126 -30
q-75 0 -135 25z" />
    <glyph glyph-name="six" unicode="6" horiz-adv-x="570" 
d="M82.5 533.5q32.5 86.5 95 134t149.5 47.5q111 0 189 -78l-71 -80q-22 24 -51.5 38.5t-59.5 14.5q-77 0 -116.5 -67t-41.5 -183q27 33 68 54.5t79 21.5q98 0 151.5 -55.5t53.5 -158.5q0 -69 -28.5 -122.5t-79.5 -83t-115 -29.5q-79 0 -136.5 43t-88 121.5t-30.5 182.5
q0 113 32.5 199.5zM217 131q32 -47 86 -47q45 0 73.5 36.5t28.5 101.5q0 61 -28 91t-79 30q-33 0 -64.5 -19.5t-56.5 -58.5q8 -87 40 -134z" />
    <glyph glyph-name="seven" unicode="7" horiz-adv-x="569" 
d="M236.5 322q43.5 134 141.5 271h-328v109h473v-78q-79 -98 -120.5 -186t-59 -187.5t-23.5 -250.5h-136q9 188 52.5 322z" />
    <glyph glyph-name="eight" unicode="8" horiz-adv-x="571" 
d="M163.5 11q-54.5 24 -85.5 68.5t-31 101.5q0 59 33.5 104.5t92.5 75.5v5q-48 35 -72.5 74.5t-24.5 88.5q0 55 27.5 97.5t76 65.5t110.5 23q94 0 150.5 -51t56.5 -136q0 -46 -26 -88.5t-69 -71.5v-5q61 -33 92.5 -77t31.5 -106q0 -58 -31.5 -101.5t-86.5 -67.5t-122 -24
q-68 0 -122.5 24zM200 110q35 -33 88 -33q51 0 80.5 28t29.5 80q0 37 -19.5 61t-48 38.5t-94.5 42.5q-71 -56 -71 -131q0 -53 35 -86zM229 455q33 -28 101 -54q56 54 56 118q0 48 -26.5 77t-72.5 29q-40 0 -65.5 -26t-25.5 -70q0 -46 33 -74z" />
    <glyph glyph-name="nine" unicode="9" horiz-adv-x="570" 
d="M71 602q29 53 80 83t114 30q80 0 138 -42.5t88 -120t30 -182.5q0 -115 -33 -201.5t-95 -134t-149 -47.5q-58 0 -106.5 21t-83.5 56l72 81q21 -24 50.5 -39t59.5 -15q77 0 117 67t42 186q-23 -32 -66 -54t-82 -22q-98 0 -151.5 56.5t-53.5 157.5q0 67 29 120zM193.5 391
q27.5 -30 78.5 -30q34 0 66.5 20t53.5 58q-9 90 -41.5 134t-83.5 44q-45 0 -73 -36t-28 -99q0 -61 27.5 -91z" />
    <glyph glyph-name="colon" unicode=":" horiz-adv-x="340" 
d="M107 13q-26 25 -26 62t25.5 62t62.5 25t61.5 -25t24.5 -62t-25 -62t-61 -25t-62 25zM106.5 402q25.5 25 62.5 25q36 0 61 -25.5t25 -61.5q0 -37 -25 -62t-61 -25t-62 25t-26 62t25.5 62z" />
    <glyph glyph-name="semicolon" unicode=";" horiz-adv-x="322" 
d="M135 -58q28 32 27 70h-8q-34 0 -58 21t-24 56t24 56t60 21q45 0 69 -33.5t24 -94.5q0 -79 -43 -135.5t-124 -82.5l-27 70q52 20 80 52zM98 402q25 25 62 25t61.5 -25.5t24.5 -61.5q0 -37 -25 -62t-61 -25t-61.5 25t-25.5 62t25 62z" />
    <glyph glyph-name="less" unicode="&#x3c;" horiz-adv-x="564" 
d="M528 125l-490 189v96l490 189v-109l-208 -72l-148 -53v-6l148 -54l208 -71v-109z" />
    <glyph glyph-name="equal" unicode="=" horiz-adv-x="502" 
d="M50 282v92h396v-92h-396zM50 187h396v-93h-396v93z" />
    <glyph glyph-name="greater" unicode="&#x3e;" horiz-adv-x="564" 
d="M38 125v109l208 71l149 54v6l-357 125v109l490 -189v-96z" />
    <glyph glyph-name="question" unicode="?" horiz-adv-x="490" 
d="M170 264q0 83 66 157l14 16q35 42 50.5 67t15.5 53q0 40 -24 62.5t-64 22.5q-31 0 -57.5 -14.5t-52.5 -41.5l-72 66q82 96 198 96q91 0 144 -47.5t53 -134.5q0 -42 -19.5 -78t-61.5 -83q-37 -42 -55.5 -76t-18.5 -73q0 -12 1 -18h-115q-2 18 -2 26zM172.5 135.5
q22.5 23.5 57.5 23.5t58 -23.5t23 -60.5q0 -36 -23 -60t-58 -24t-57.5 24t-22.5 60q0 37 22.5 60.5z" />
    <glyph glyph-name="at" unicode="@" horiz-adv-x="964" 
d="M303.5 -148.5q-72.5 25.5 -127.5 75.5q-57 53 -88.5 128.5t-31.5 173.5q0 110 37.5 202.5t105.5 159.5q65 66 151.5 101.5t183.5 35.5q86 0 155.5 -27t119.5 -78q49 -51 75 -120.5t26 -153.5q0 -69 -20.5 -125.5t-57.5 -95.5q-33 -36 -75 -55t-84 -19q-47 0 -79 21.5
t-39 61.5h-5q-27 -34 -63 -53.5t-69 -19.5q-63 0 -100.5 43t-37.5 116q0 47 16 94.5t44 83.5q30 40 70 61t86 21q56 0 84 -53h4l15 45h80l-47 -231q-7 -31 -7 -47q0 -63 62 -63q26 0 51.5 15t45.5 43q43 61 43 154q0 64 -18.5 119.5t-54.5 94.5q-83 89 -231 89
q-72 0 -140 -30t-121 -84q-56 -57 -87 -134t-31 -168q0 -78 25 -140.5t71 -104.5q43 -41 102 -62t127 -21q43 0 88 12t82 32l29 -71q-95 -52 -209 -52q-83 0 -155.5 25.5zM396 167q17 -22 50 -22q20 0 40.5 13.5t44.5 43.5l29 160q-22 38 -61 38q-27 0 -49.5 -15t-38.5 -42
q-15 -24 -23.5 -54t-8.5 -58q0 -42 17 -64z" />
    <glyph glyph-name="A" unicode="A" horiz-adv-x="636" 
d="M232 710h161l229 -710h-141l-55 192h-232l-54 -192h-138zM400 293l-57 201l-24 86l-8 27h-4q-17 -70 -29 -113l-59 -201h181z" />
    <glyph glyph-name="B" unicode="B" horiz-adv-x="659" 
d="M91 710h234q257 0 257 -173q0 -54 -28 -98t-73 -58v-4q67 -16 103 -60t36 -110q0 -102 -76.5 -154.5t-200.5 -52.5h-252v710zM330 101q157 0 157 114q0 55 -38.5 80.5t-118.5 25.5h-104v-220h104zM313 417q137 0 137 101q0 49 -32 70.5t-102 21.5h-90v-193h87z" />
    <glyph glyph-name="C" unicode="C" horiz-adv-x="637" 
d="M208 33.5q-74 46.5 -113.5 129t-39.5 187.5q0 107 41.5 192t116.5 133t173 48q61 0 114.5 -23.5t92.5 -61.5l-69 -89q-33 31 -65.5 46.5t-69.5 15.5q-61 0 -104.5 -34t-66.5 -92t-23 -130q0 -116 50.5 -186.5t140.5 -70.5q44 0 80 18.5t71 56.5l70 -83
q-89 -103 -226 -103q-99 0 -173 46.5z" />
    <glyph glyph-name="D" unicode="D" horiz-adv-x="691" 
d="M91 0v710h194q171 0 261.5 -89.5t90.5 -258.5q0 -173 -89.5 -267.5t-255.5 -94.5h-201zM276 104q222 0 222 258q0 244 -222 244h-50v-502h50z" />
    <glyph glyph-name="E" unicode="E" horiz-adv-x="595" 
d="M90 710h437v-109h-302v-178h256v-109h-256v-205h313v-109h-448v710z" />
    <glyph glyph-name="F" unicode="F" horiz-adv-x="565" 
d="M91 710h438v-109h-303v-202h259v-109h-259v-287h-135v707z" />
    <glyph glyph-name="G" unicode="G" horiz-adv-x="694" 
d="M214 33.5q-77 46.5 -118 130t-41 192.5q0 106 42.5 189.5t120.5 130.5t179 47q131 0 218 -89l-71 -85q-33 32 -66 47t-76 15q-65 0 -112 -33t-71 -89.5t-24 -127.5q0 -124 54 -193.5t160 -69.5q28 0 53.5 8.5t43.5 22.5v156h-132v105h253v-318q-37 -38 -98.5 -61.5
t-132.5 -23.5q-105 0 -182 46.5z" />
    <glyph glyph-name="H" unicode="H" horiz-adv-x="732" 
d="M91 710h135v-281h281v281h135v-710h-135v316h-281v-316h-135v710z" />
    <glyph glyph-name="I" unicode="I" horiz-adv-x="315" 
d="M91 0v710h135v-710h-135z" />
    <glyph glyph-name="J" unicode="J" horiz-adv-x="548" 
d="M28 107l93 68q20 -38 47.5 -57.5t60.5 -19.5q51 0 75 32.5t24 106.5v473h135v-484q0 -105 -51 -169q-57 -70 -167 -70q-149 0 -217 120z" />
    <glyph glyph-name="K" unicode="K" horiz-adv-x="662" 
d="M91 0v710h135v-317l251 317h148l-220 -273l258 -437h-148l-190 330l-99 -122v-208h-135z" />
    <glyph glyph-name="L" unicode="L" horiz-adv-x="557" 
d="M91 0v710h135v-601h296v-109h-431z" />
    <glyph glyph-name="M" unicode="M" horiz-adv-x="823" 
d="M91 710h155l146 -408q16 -44 22 -70q17 54 23 70l141 408h156v-710h-125v317q0 57 13 193l3 41h-3l-170 -482h-81l-170 482h-4q16 -171 16 -234v-317h-122v710z" />
    <glyph glyph-name="N" unicode="N" horiz-adv-x="724" 
d="M91 0v717h140l203 -377l87 -173q-9 87 -12.5 139t-3.5 110v301h130v-717h-141l-194 363l-96 186q11 -88 13.5 -133.5t2.5 -112.5v-303h-129z" />
    <glyph glyph-name="O" unicode="O" horiz-adv-x="745" 
d="M203 35q-72 48 -110 133t-38 194q0 106 37.5 187.5t109.5 127.5t171 46t171.5 -46t110.5 -128t38 -187q0 -111 -38.5 -196t-110.5 -132t-171 -47q-98 0 -170 48zM242.5 171q47.5 -73 130.5 -73q85 0 133 73t48 191q0 112 -48.5 181t-132.5 69q-83 0 -130.5 -69.5
t-47.5 -180.5q0 -118 47.5 -191z" />
    <glyph glyph-name="P" unicode="P" horiz-adv-x="644" 
d="M91 710h231q135 0 207 -53.5t72 -164.5q0 -109 -75.5 -168.5t-199.5 -59.5h-100v-264h-135v710zM316 366q152 0 152 126q0 61 -38 88t-119 27h-85v-241h90z" />
    <glyph glyph-name="Q" unicode="Q" horiz-adv-x="746" 
d="M429.5 -137.5q-76.5 47.5 -114.5 129.5q-81 13 -139.5 63.5t-89.5 129.5t-31 177q0 106 37.5 187.5t109.5 127.5t171 46t171.5 -46t110.5 -128t38 -187q0 -143 -62 -240t-174 -125q50 -78 162 -78q41 0 78 13l24 -96q-19 -9 -50.5 -15t-66.5 -6q-98 0 -174.5 47.5z
M242.5 171q47.5 -73 130.5 -73q85 0 133 73t48 191q0 112 -48.5 181t-132.5 69q-83 0 -130.5 -69.5t-47.5 -180.5q0 -118 47.5 -191z" />
    <glyph glyph-name="R" unicode="R" horiz-adv-x="657" 
d="M91 710h246q129 0 198 -51.5t69 -159.5q0 -75 -36.5 -125.5t-106.5 -73.5l170 -300h-151l-150 278h-104v-278h-135v710zM324 381q71 0 109 30t38 88t-35.5 83t-111.5 25h-98v-226h98z" />
    <glyph glyph-name="S" unicode="S" horiz-adv-x="604" 
d="M162.5 13q-67.5 26 -117.5 75l76 92q41 -40 89.5 -62t95.5 -22q57 0 88 24t31 66q0 40 -20.5 60t-70.5 39q-60 26 -116 49q-68 28 -106 76t-38 114q0 58 32.5 103.5t88.5 70.5t123 25q63 0 121.5 -23.5t100.5 -65.5l-67 -82q-38 31 -75 46t-80 15q-50 0 -78.5 -21.5
t-28.5 -59.5q0 -34 22.5 -54.5t71.5 -40.5l21 -9q60 -25 93 -38q73 -29 109 -74.5t36 -118.5q0 -63 -34.5 -110.5t-94 -73.5t-132.5 -26t-140.5 26z" />
    <glyph glyph-name="T" unicode="T" horiz-adv-x="605" 
d="M236 0v601h-205v109h546v-109h-205v-601h-136z" />
    <glyph glyph-name="U" unicode="U" horiz-adv-x="723" 
d="M87 316v394h136v-405q0 -104 34.5 -155.5t106.5 -51.5q73 0 108 51.5t35 155.5v405h130v-394q0 -164 -67.5 -246.5t-205.5 -82.5q-277 0 -277 329z" />
    <glyph glyph-name="V" unicode="V" horiz-adv-x="598" 
d="M142 710l93 -333q25 -83 57 -206l12 -43q37 147 66 244l93 338h138l-219 -710h-162l-220 710h142z" />
    <glyph glyph-name="W" unicode="W" horiz-adv-x="886" 
d="M22 710h139l58 -339q10 -52 24 -157l13 -85l22 105q21 107 28 136l83 340h118l82 -339q7 -27 17 -73.5t15 -71.5q11 -57 20 -97l15 101q6 38 11.5 75.5t10.5 66.5l58 338h129l-135 -710h-168l-73 322q-26 114 -45 212q-25 -128 -45 -212l-71 -322h-166z" />
    <glyph glyph-name="X" unicode="X" horiz-adv-x="604" 
d="M219 366l-188 344h149l78 -151q30 -62 53 -113q34 82 47 109l73 155h144l-188 -351l200 -359h-150l-84 162q-41 81 -56 117q-24 -58 -54 -117l-81 -162h-144z" />
    <glyph glyph-name="Y" unicode="Y" horiz-adv-x="561" 
d="M214 265l-215 445h143l76 -173q5 -11 39 -93l26 -65q16 35 37 89l28 69l76 173h140l-215 -445v-265h-135v265z" />
    <glyph glyph-name="Z" unicode="Z" horiz-adv-x="597" 
d="M46 77l342 524h-311v109h476v-77l-343 -524h346v-109h-510v77z" />
    <glyph glyph-name="bracketleft" unicode="[" horiz-adv-x="356" 
d="M98 -160v941h216v-70h-118v-802h118v-69h-216z" />
    <glyph glyph-name="backslash" unicode="\" horiz-adv-x="380" 
d="M11 765h88l292 -937h-87z" />
    <glyph glyph-name="bracketright" unicode="]" horiz-adv-x="356" 
d="M44 -160v69h119v802h-119v70h216v-941h-216z" />
    <glyph glyph-name="asciicircum" unicode="^" horiz-adv-x="563" 
d="M60 298l168 429h109l168 -429h-109l-58 160l-53 149h-5l-52 -149l-58 -160h-110z" />
    <glyph glyph-name="underscore" unicode="_" horiz-adv-x="548" 
d="M14 -140v75h522v-75h-522z" />
    <glyph glyph-name="grave" unicode="`" 
 />
    <glyph glyph-name="a" unicode="a" horiz-adv-x="571" 
d="M97 30.5q-44 43.5 -44 113.5q0 87 74.5 134.5t239.5 65.5q-2 52 -24.5 78.5t-70.5 26.5q-34 0 -70 -13t-81 -40l-47 85q111 71 223 71q102 0 153.5 -58.5t51.5 -175.5v-318h-110l-10 59q-85 -72 -169 -72q-72 0 -116 43.5zM202 104q19 -17 54 -17q30 0 56 13t55 42v123
q-87 -12 -135.5 -36t-48.5 -75q0 -33 19 -50z" />
    <glyph glyph-name="b" unicode="b" horiz-adv-x="636" 
d="M79 772h136v-196l-4 -89q75 65 152 65q104 0 159 -75.5t55 -198.5q0 -80 -28.5 -146.5t-81 -105.5t-120.5 -39q-37 0 -76 18t-73 51l-11 -56h-108v772zM318 93q55 0 87.5 49t32.5 133q0 170 -111 170q-55 0 -112 -58v-251q49 -43 103 -43z" />
    <glyph glyph-name="c" unicode="c" horiz-adv-x="511" 
d="M170.5 22.5q-59.5 35.5 -92 99t-32.5 145.5q0 83 35 148t97.5 101t141.5 36q89 0 156 -59l-63 -85q-24 21 -44 30.5t-42 9.5q-66 0 -104.5 -50t-38.5 -131q0 -77 38.5 -126.5t99.5 -49.5q52 0 110 47l52 -86q-36 -32 -81.5 -48.5t-94.5 -16.5q-78 0 -137.5 35.5z" />
    <glyph glyph-name="d" unicode="d" horiz-adv-x="625" 
d="M107 63.5q-59 76.5 -59 206.5q0 78 30 142.5t82 102t117 37.5q42 0 73.5 -14t65.5 -44l-5 97v181h135v-772h-111l-10 56q-34 -32 -74.5 -50.5t-79.5 -18.5q-105 0 -164 76.5zM217.5 138q30.5 -46 86.5 -46q31 0 56 14t51 45v251q-47 44 -105 44q-33 0 -60 -21.5t-43 -61
t-16 -91.5q0 -88 30.5 -134z" />
    <glyph glyph-name="e" unicode="e" horiz-adv-x="563" 
d="M173.5 22.5q-60.5 35.5 -94 100t-33.5 147.5q0 78 32.5 142.5t90 102t127.5 37.5q109 0 167 -70t58 -185q0 -44 -5 -62h-339q8 -72 48.5 -110.5t106.5 -38.5q31 0 61 9.5t64 29.5l44 -80q-40 -27 -88.5 -42.5t-98.5 -15.5q-80 0 -140.5 35.5zM405 321q1 64 -25.5 97.5
t-79.5 33.5q-51 0 -83.5 -35t-40.5 -96h229z" />
    <glyph glyph-name="f" unicode="f" horiz-adv-x="359" 
d="M104 436h-73v96l73 6v52q0 95 47 145t137 50q48 0 101 -19l-25 -96q-29 13 -59 13q-66 0 -66 -90v-55h104v-102h-104v-436h-135v436z" />
    <glyph glyph-name="g" unicode="g" horiz-adv-x="579" 
d="M107.5 -194q-63.5 35 -63.5 103q0 32 20 61.5t59 53.5v4q-24 14 -37.5 36t-13.5 49q0 28 17.5 55t43.5 45v6q-32 23 -52.5 59.5t-20.5 81.5q0 57 28 100.5t77 67t111 23.5q48 0 82 -13h194v-94h-99q14 -16 22.5 -39.5t8.5 -49.5q0 -85 -58 -133t-150 -48q-34 0 -70 14
q-13 -10 -19 -22t-6 -30q0 -24 21.5 -34t64.5 -10h94q101 0 150.5 -32.5t49.5 -100.5q0 -59 -41 -101.5t-108 -64.5t-143 -22q-98 0 -161.5 35zM191.5 -127q35.5 -20 98.5 -20q60 0 100.5 23.5t40.5 61.5q0 30 -21.5 42t-70.5 12h-70q-45 0 -72 7q-19 -15 -30 -33t-11 -37
q0 -36 35.5 -56zM212.5 283q25.5 -29 63.5 -29q40 0 65 28.5t25 77.5q0 48 -25 76t-65 28t-64.5 -28t-24.5 -76t25.5 -77z" />
    <glyph glyph-name="h" unicode="h" horiz-adv-x="618" 
d="M79 772h136v-196l-6 -102q41 37 82 57.5t90 20.5q166 0 166 -214v-338h-135v321q0 65 -18.5 92.5t-58.5 27.5q-32 0 -57 -14.5t-63 -49.5v-377h-136v772z" />
    <glyph glyph-name="i" unicode="i" horiz-adv-x="292" 
d="M80 539h136v-539h-136v539zM89 761.5q23 20.5 59 20.5t59 -20.5t23 -53.5q0 -34 -23 -54.5t-59 -20.5t-59 20.5t-23 54.5q0 33 23 53.5z" />
    <glyph glyph-name="j" unicode="j" horiz-adv-x="297" 
d="M-46 -201l23 94q30 -8 47 -8q33 0 46.5 22.5t13.5 74.5v556h135v-554q0 -200 -176 -200q-52 0 -89 15zM92 761.5q23 20.5 59 20.5q37 0 59.5 -20.5t22.5 -53.5q0 -34 -23 -54.5t-59 -20.5t-59 20.5t-23 54.5q0 33 23 53.5z" />
    <glyph glyph-name="k" unicode="k" horiz-adv-x="582" 
d="M79 772h133v-474l196 240h144l-184 -218l203 -320h-144l-135 230l-80 -92v-138h-133v772z" />
    <glyph glyph-name="l" unicode="l" horiz-adv-x="305" 
d="M110 28.5q-31 38.5 -31 116.5v627h136v-633q0 -45 28 -45q11 0 19 2l16 -95q-20 -11 -70 -11q-67 0 -98 38.5z" />
    <glyph glyph-name="m" unicode="m" horiz-adv-x="931" 
d="M78 539h111l10 -73q43 41 82.5 63.5t89.5 22.5q105 0 145 -92q44 45 85 68.5t91 23.5q164 0 164 -214v-338h-135v321q0 65 -17.5 92.5t-54.5 27.5q-28 0 -55 -15.5t-59 -48.5v-377h-135v321q0 65 -17.5 92.5t-55.5 27.5q-27 0 -54 -15.5t-60 -48.5v-377h-135v539z" />
    <glyph glyph-name="n" unicode="n" horiz-adv-x="620" 
d="M79 539h111l10 -70h3q42 39 84 61t93 22q166 0 166 -214v-338h-134v321q0 65 -18.5 92.5t-59.5 27.5q-32 0 -57 -14.5t-63 -49.5v-377h-135v539z" />
    <glyph glyph-name="o" unicode="o" horiz-adv-x="607" 
d="M171.5 23q-59.5 36 -92.5 100t-33 145q0 82 33.5 146.5t92.5 101t133 36.5q75 0 134 -36.5t92 -101t33 -146.5q0 -80 -33.5 -144.5t-92.5 -100.5t-133 -36t-133.5 36zM216.5 139.5q32.5 -47.5 88.5 -47.5t88.5 47.5t32.5 128.5q0 83 -32.5 131t-88.5 48t-88.5 -48
t-32.5 -131q0 -81 32.5 -128.5z" />
    <glyph glyph-name="p" unicode="p" horiz-adv-x="625" 
d="M79 539h112l10 -57v-1q37 33 79.5 52t83.5 19q102 0 157.5 -72.5t55.5 -198.5q0 -81 -29.5 -148.5t-81.5 -106.5t-119 -39q-69 0 -136 56l4 -86v-165h-136v747zM318 93q53 0 86.5 48t33.5 134q0 171 -111 171q-28 0 -54 -14t-58 -45v-251q50 -43 103 -43z" />
    <glyph glyph-name="q" unicode="q" horiz-adv-x="625" 
d="M411 -35l5 86q-31 -30 -69 -47t-76 -17q-105 0 -164 76.5t-59 204.5q0 79 30 144t82 102.5t117 37.5q45 0 80 -15.5t70 -49.5l12 52h107v-747h-135v173zM217.5 138q30.5 -45 86.5 -45q31 0 56.5 14t50.5 45v250q-48 44 -105 44q-33 0 -60 -21.5t-43 -61.5t-16 -93
q0 -87 30.5 -132z" />
    <glyph glyph-name="r" unicode="r" horiz-adv-x="419" 
d="M79 539h112l9 -95q28 51 70 79.5t87 28.5q41 0 62 -12l-22 -112q-30 9 -57 9q-37 0 -70.5 -28t-54.5 -81v-328h-136v539z" />
    <glyph glyph-name="s" unicode="s" horiz-adv-x="479" 
d="M126 7q-55 20 -96 54l60 82q39 -31 74 -45.5t73 -14.5q39 0 61 17t22 46q0 28 -20.5 44.5t-62.5 29.5q-48 18 -77 32q-51 24 -78 59t-27 79q0 73 55.5 117.5t143.5 44.5q96 0 181 -64l-59 -80q-64 48 -118 48q-36 0 -55.5 -16t-19.5 -44q0 -21 15 -35t43 -26l32 -13
q61 -22 88 -43q44 -23 64.5 -52t20.5 -73q0 -77 -59 -122t-154 -45q-52 0 -107 20z" />
    <glyph glyph-name="t" unicode="t" horiz-adv-x="406" 
d="M144 37q-43 50 -43 145v255h-77v95l83 6l16 146h113v-145h136v-102h-136v-253q0 -96 74 -96q23 0 56 12l21 -93q-54 -20 -112 -20q-88 0 -131 50z" />
    <glyph glyph-name="u" unicode="u" horiz-adv-x="616" 
d="M115.5 40.5q-40.5 53.5 -40.5 159.5v339h134v-321q0 -65 19 -93t59 -28q33 0 59 16t58 54v372h134v-539h-110l-11 76q-39 -44 -81.5 -66.5t-94.5 -22.5q-85 0 -125.5 53.5z" />
    <glyph glyph-name="v" unicode="v" horiz-adv-x="554" 
d="M17 538h137l81 -275l46 -164q4 17 14.5 53.5t16.5 56.5l15 53l83 276h130l-181 -538h-157z" />
    <glyph glyph-name="w" unicode="w" horiz-adv-x="831" 
d="M30 538h134l63 -275q3 -15 14 -79q9 -56 14 -77l13 60q5 20 10 45t12 51l69 275h121l71 -275q13 -51 30 -135q4 -14 5 -21l16 78q9 54 15 78l61 275h125l-134 -538h-160l-60 245q-8 29 -20 93l-13 61q-12 -54 -16 -77q-9 -53 -16 -78l-59 -244h-156z" />
    <glyph glyph-name="x" unicode="x" horiz-adv-x="539" 
d="M188 282l-157 256h143l58 -98q6 -10 18 -34q10 -19 18 -33.5t13 -24.5q13 25 42 92l48 98h140l-158 -271l168 -267h-144l-62 105q-19 32 -25 43q-22 40 -30 51q-4 -6 -22 -45l-25 -50l-55 -104h-138z" />
    <glyph glyph-name="y" unicode="y" horiz-adv-x="553" 
d="M51 -201l24 99q23 -7 40 -7q38 0 63 22.5t40 67.5l10 34l-211 529h136l89 -256q40 -119 48 -154l18 65q22 81 24 89l77 255h130l-193 -557q-39 -103 -89.5 -150t-133.5 -47q-42 0 -72 10z" />
    <glyph glyph-name="z" unicode="z" horiz-adv-x="494" 
d="M41 67l251 369h-224v102h390v-68l-252 -369h260v-101h-425v67z" />
    <glyph glyph-name="braceleft" unicode="{" horiz-adv-x="358" 
d="M152 -126.5q-31 33.5 -31 115.5q0 27 2 58.5t3 43.5q5 53 5 95q0 40 -24.5 62t-70.5 23v78q45 1 70 23t25 60q0 47 -5 99q-1 10 -3 39t-2 59q0 84 31 118t103 34h60v-70h-23q-38 0 -52 -18.5t-14 -68.5l2 -88q3 -57 3 -99q0 -59 -17.5 -87t-57.5 -37v-6q40 -10 57.5 -38
t17.5 -86q0 -41 -3 -98l-2 -89q0 -51 14 -69t52 -18h23v-69h-60q-72 0 -103 33.5z" />
    <glyph glyph-name="bar" unicode="|" horiz-adv-x="277" 
d="M97 -266v1095h86v-1095h-86z" />
    <glyph glyph-name="braceright" unicode="}" horiz-adv-x="358" 
d="M45 -91h24q38 0 52 18t14 69q0 37 -3 89q-1 24 -2 49.5t-1 48.5q0 58 17.5 86t58.5 38v6q-41 9 -58.5 37t-17.5 87q0 23 1 49.5t2 49.5q3 53 3 88q0 50 -14 68.5t-52 18.5h-24v70h60q73 0 104 -34t31 -118q0 -48 -5 -98q-1 -11 -3 -40.5t-2 -58.5q0 -38 24.5 -60
t70.5 -23v-78q-46 -1 -70.5 -23t-24.5 -62q0 -42 5 -95q1 -12 3 -43.5t2 -58.5q0 -82 -31.5 -115.5t-103.5 -33.5h-60v69z" />
    <glyph glyph-name="asciitilde" unicode="~" horiz-adv-x="565" 
d="M324.5 276.5q-24.5 11.5 -52.5 31.5q-32 24 -49 34t-37 10q-46 0 -81 -64l-69 52q67 105 152 105q30 0 54 -11t53 -31q4 -3 22 -17t33.5 -20.5t29.5 -6.5q45 0 82 64l68 -53q-66 -105 -152 -105q-29 0 -53.5 11.5z" />
    <glyph glyph-name="uni00A0" unicode="&#xa0;" horiz-adv-x="470" 
 />
    <glyph glyph-name="exclamdown" unicode="&#xa1;" horiz-adv-x="328" 
d="M130 359l96 15l20 -494l-114 -23zM117.5 591.5q24.5 24.5 59.5 24.5q36 0 61 -24.5t25 -60.5t-24.5 -60.5t-61.5 -24.5q-36 0 -60 24.5t-24 60.5t24.5 60.5z" />
    <glyph glyph-name="cent" unicode="&#xa2;" horiz-adv-x="563" 
d="M220 239.5q28 -41.5 77 -56.5v313q-49 -16 -77 -57.5t-28 -98.5q0 -59 28 -100.5zM84 442q17 47 49 82q59 67 164 84v110h73v-106q83 -5 139 -61l-60 -81q-37 31 -79 36v-332q49 5 94 42l53 -82q-62 -55 -147 -65v-108h-73v108q-52 6 -94.5 27t-71.5 55q-64 73 -64 189
q0 55 17 102z" />
    <glyph glyph-name="sterling" unicode="&#xa3;" horiz-adv-x="564" 
d="M56 1v80q53 26 85 73.5t32 108.5q0 11 -2 24t-3 18h-110v77l73 5h14q-12 35 -17.5 59.5t-5.5 48.5q0 96 63 157q61 58 159 58q56 0 99.5 -21.5t80.5 -63.5l-72 -72q-42 51 -97 51q-49 0 -77.5 -30t-28.5 -85q0 -40 17 -102h167v-82h-149q4 -28 4 -44q0 -44 -13 -77
t-44 -65v-7h294v-111h-469z" />
    <glyph glyph-name="currency" unicode="&#xa4;" horiz-adv-x="565" 
d="M27 167l68 69q-38 51 -38 123q0 73 37 124l-67 70l65 66l76 -77q50 33 116 33q65 0 114 -33l76 77l66 -66l-68 -70q39 -51 39 -124q0 -68 -39 -123l68 -69l-66 -67l-76 76q-52 -32 -114 -32q-65 0 -116 32l-76 -76zM205 270q31 -35 79 -35t78.5 36t30.5 88
q0 55 -31.5 89.5t-77.5 34.5q-48 0 -79 -35.5t-31 -88.5q0 -54 31 -89z" />
    <glyph glyph-name="yen" unicode="&#xa5;" horiz-adv-x="566" 
d="M218 1v166h-172v65h172v68h-172v63h143l-168 334h134l68 -161l28 -73l9 -23q14 -34 22 -51h6q11 25 31 75l15 36q10 24 14 36l66 161h133l-169 -334h143v-63h-172v-68h172v-65h-172v-166h-131z" />
    <glyph glyph-name="brokenbar" unicode="&#xa6;" horiz-adv-x="277" 
d="M97 343v486h86v-486h-86zM97 234h86v-500h-86v500z" />
    <glyph glyph-name="section" unicode="&#xa7;" horiz-adv-x="564" 
d="M148 -58q-53 21 -88 64l76 66q53 -55 125 -55q37 0 58 16.5t21 43.5q0 29 -31 49.5t-102 52.5l-12 6t-11 5q-138 60 -138 178q0 83 89 141q-32 37 -32 90q0 70 49 113t133 43q53 0 100 -18t84 -47l-59 -81q-62 50 -118 50q-35 0 -53 -14t-18 -41q0 -25 33.5 -47.5
t101.5 -55.5l25 -12q71 -32 105 -72t34 -102q0 -47 -22.5 -81.5t-70.5 -62.5q30 -39 30 -88q0 -74 -55 -118t-141 -44q-60 0 -113 21zM173.5 328.5q17.5 -20.5 51.5 -39.5l65 -30q64 -29 70 -32q26 13 38 32t12 45q0 28 -17.5 49.5t-51.5 39.5q-19 11 -66 31q-56 25 -68 32
q-51 -29 -51 -79q0 -28 17.5 -48.5z" />
    <glyph glyph-name="dieresis" unicode="&#xa8;" 
 />
    <glyph glyph-name="copyright" unicode="&#xa9;" horiz-adv-x="818" 
d="M273 17q-65 26 -113 73q-107 104 -107 266q0 82 28 149.5t79 114.5q48 46 113 71t137 25q71 0 136.5 -25t114.5 -71q50 -48 77.5 -115t27.5 -149q0 -81 -27.5 -148.5t-77.5 -117.5q-50 -47 -115 -73t-136 -26q-72 0 -137 26zM136.5 231q22.5 -57 64.5 -99
q40 -41 94 -63.5t115 -22.5t115 22.5t94 63.5q42 42 64 99t22 125t-22 124.5t-64 98.5q-40 41 -94 62.5t-115 21.5t-115 -21.5t-94 -62.5q-42 -42 -64.5 -99t-22.5 -124q0 -68 22.5 -125zM233.5 440.5q16.5 38.5 46.5 66.5q29 27 65.5 41.5t76.5 14.5q45 0 77.5 -16
t62.5 -46l-50 -55q-21 21 -39.5 30.5t-42.5 9.5q-55 0 -87.5 -36.5t-32.5 -93.5q0 -63 31.5 -100.5t83.5 -37.5q28 0 51 10.5t46 30.5l43 -61q-35 -28 -69 -42.5t-75 -14.5q-88 0 -146 58t-58 157q0 46 16.5 84.5z" />
    <glyph glyph-name="ordfeminine" unicode="&#xaa;" horiz-adv-x="571" 
d="M97 33.5q-44 43.5 -44 113.5q0 85 74.5 132t239.5 65q-2 52 -24.5 78.5t-70.5 26.5q-34 0 -70 -13t-81 -40l-47 85q111 71 223 71q102 0 153.5 -58.5t51.5 -175.5v-315h-110l-10 59v-1q-86 -71 -169 -71q-72 0 -116 43.5zM202 107q19 -17 54 -17q30 0 56 13t55 42v120
q-86 -12 -135 -35.5t-49 -72.5q0 -33 19 -50z" />
    <glyph glyph-name="guillemotleft" unicode="&#xab;" horiz-adv-x="564" 
d="M101 58.5q-14 71.5 -14 146.5t14.5 147.5t47.5 154.5l90 -43q-50 -133 -50 -259q0 -130 50 -258l-92 -41q-32 81 -46 152.5zM320 354q14 73 48 153l89 -43q-50 -133 -50 -259t50 -258l-91 -41q-33 80 -46.5 151t-13.5 148q0 76 14 149z" />
    <glyph glyph-name="logicalnot" unicode="&#xac;" horiz-adv-x="564" 
d="M430 106v206h-392v95h490v-301h-98z" />
    <glyph glyph-name="uni00AD" unicode="&#xad;" horiz-adv-x="353" 
d="M46 222v94h263v-94h-263z" />
    <glyph glyph-name="registered" unicode="&#xae;" horiz-adv-x="488" 
d="M136.5 367q-48.5 29 -76 78.5t-27.5 110.5t28 110.5t76.5 78t106.5 28.5q60 0 108.5 -28.5t76 -78t27.5 -110.5q0 -62 -28 -112t-76.5 -78t-107.5 -28t-107.5 29zM104 466q21 -39 57.5 -61t82.5 -22q47 0 84 21.5t58 61t21 90.5q0 50 -21 89.5t-58 61.5t-84 22
q-46 0 -83 -22.5t-57.5 -62t-20.5 -88.5q0 -51 21 -90zM161 665h91q39 0 62 -18t23 -52q0 -20 -10.5 -35.5t-29.5 -23.5l46 -86h-55l-35 70h-40v-70h-52v215zM240 557q41 0 41 36q0 15 -10 24t-30 9h-28v-69h27z" />
    <glyph glyph-name="macron" unicode="&#xaf;" 
 />
    <glyph glyph-name="degree" unicode="&#xb0;" horiz-adv-x="384" 
d="M88 482q-44 44 -44 107q0 32 11.5 60t32.5 49q44 42 106 42q30 0 57.5 -11t47.5 -31q44 -42 44 -109q0 -63 -44 -107q-44 -42 -105 -42q-62 0 -106 42zM137 528q22 -24 57 -24q34 0 56 23.5t22 61.5t-21.5 62t-56.5 24t-57 -24t-22 -62q0 -37 22 -61z" />
    <glyph glyph-name="plusminus" unicode="&#xb1;" horiz-adv-x="564" 
d="M50 65v93h467v-93h-467zM50 453h187v186h93v-186h187v-93h-187v-187h-93v187h-187v93z" />
    <glyph glyph-name="uni00B2" unicode="&#xb2;" horiz-adv-x="569" 
d="M183.5 215q50.5 52 87.5 97q43 53 63.5 95t20.5 81q0 57 -29.5 88.5t-81.5 31.5q-35 0 -67.5 -20t-66.5 -58l-73 73q52 56 104 81t121 25q67 0 117 -26.5t77.5 -74.5t27.5 -112q0 -82 -72 -188q-54 -76 -176 -203q70 6 118 6h165v-108h-477v72q91 88 141.5 140z" />
    <glyph glyph-name="uni00B3" unicode="&#xb3;" horiz-adv-x="571" 
d="M166 114q39 -20 87 -20q58 0 92 27t34 75q0 66 -51.5 92t-150.5 26v92q85 0 131 25t46 85q0 44 -25.5 68.5t-72.5 24.5q-37 0 -68.5 -16t-70.5 -51l-66 81q47 43 98 65t112 22q104 0 167 -48.5t63 -135.5q0 -109 -124 -160v-4q66 -17 106.5 -62.5t40.5 -110.5
q0 -61 -33.5 -106t-90 -69t-125.5 -24q-77 0 -137 25t-100 71l62 84q37 -36 76 -56z" />
    <glyph glyph-name="acute" unicode="&#xb4;" 
 />
    <glyph glyph-name="paragraph" unicode="&#xb6;" horiz-adv-x="662" 
d="M427 -83v801h131v-801h-131zM124 665q69 53 192 53h47v-485h-39q-60 0 -111 15.5t-87 45.5q-81 67 -81 185q0 128 79 186z" />
    <glyph glyph-name="periodcentered" unicode="&#xb7;" horiz-adv-x="327" 
d="M104.5 283q-26.5 26 -26.5 64t26 64.5t64 26.5q39 0 64.5 -26t25.5 -65q0 -37 -26 -63.5t-64 -26.5q-37 0 -63.5 26z" />
    <glyph glyph-name="cedilla" unicode="&#xb8;" 
 />
    <glyph glyph-name="uni00B9" unicode="&#xb9;" horiz-adv-x="569" 
d="M80 107h156v451h-130v79q52 10 89.5 24t73.5 35h101v-589h136v-104h-426v104z" />
    <glyph glyph-name="ordmasculine" unicode="&#xba;" horiz-adv-x="607" 
d="M171.5 26q-59.5 36 -92.5 100t-33 144q0 81 33.5 145t92.5 100.5t133 36.5t133.5 -36.5t92.5 -100.5t33 -145q0 -80 -33.5 -144t-92.5 -100t-133 -36t-133.5 36zM216.5 141.5q32.5 -47.5 88.5 -47.5t88.5 47.5t32.5 128.5t-32.5 129.5t-88.5 48.5t-88.5 -48.5
t-32.5 -129.5t32.5 -128.5z" />
    <glyph glyph-name="guillemotright" unicode="&#xbb;" horiz-adv-x="564" 
d="M375 205q0 130 -50 259l90 43q33 -81 47.5 -153.5t14.5 -148.5t-14 -147.5t-46 -151.5l-92 41q50 128 50 258zM158 205q0 123 -51 259l90 43q33 -81 47 -153.5t14 -148.5q0 -77 -13.5 -148t-46.5 -151l-91 41q51 134 51 258z" />
    <glyph glyph-name="onequarter" unicode="&#xbc;" horiz-adv-x="569" 
 />
    <glyph glyph-name="onehalf" unicode="&#xbd;" horiz-adv-x="569" 
 />
    <glyph glyph-name="threequarters" unicode="&#xbe;" horiz-adv-x="571" 
 />
    <glyph glyph-name="questiondown" unicode="&#xbf;" horiz-adv-x="489" 
d="M317 263q0 -81 -66 -155q-6 -7 -31.5 -37.5t-36.5 -53.5t-11 -45q0 -40 24 -62.5t64 -22.5q57 0 110 56l72 -66q-39 -46 -89 -71t-109 -25q-92 0 -145 47.5t-53 134.5q0 42 19.5 77.5t62.5 83.5q41 45 59 83t14 84h114q2 -18 2 -28zM199 514q23 24 59 24q34 0 57 -24.5
t23 -59.5q0 -37 -22.5 -60.5t-57.5 -23.5t-58.5 23.5t-23.5 60.5q0 36 23 60z" />
    <glyph glyph-name="Agrave" unicode="&#xc0;" 
 />
    <glyph glyph-name="Aacute" unicode="&#xc1;" 
 />
    <glyph glyph-name="Acircumflex" unicode="&#xc2;" 
 />
    <glyph glyph-name="Atilde" unicode="&#xc3;" 
 />
    <glyph glyph-name="Adieresis" unicode="&#xc4;" 
 />
    <glyph glyph-name="Aring" unicode="&#xc5;" 
 />
    <glyph glyph-name="AE" unicode="&#xc6;" 
 />
    <glyph glyph-name="Ccedilla" unicode="&#xc7;" 
 />
    <glyph glyph-name="Egrave" unicode="&#xc8;" 
 />
    <glyph glyph-name="Eacute" unicode="&#xc9;" 
 />
    <glyph glyph-name="Ecircumflex" unicode="&#xca;" 
 />
    <glyph glyph-name="Edieresis" unicode="&#xcb;" 
 />
    <glyph glyph-name="Igrave" unicode="&#xcc;" 
 />
    <glyph glyph-name="Iacute" unicode="&#xcd;" 
 />
    <glyph glyph-name="Icircumflex" unicode="&#xce;" 
 />
    <glyph glyph-name="Idieresis" unicode="&#xcf;" 
 />
    <glyph glyph-name="Eth" unicode="&#xd0;" 
 />
    <glyph glyph-name="Ntilde" unicode="&#xd1;" 
 />
    <glyph glyph-name="Ograve" unicode="&#xd2;" 
 />
    <glyph glyph-name="Oacute" unicode="&#xd3;" 
 />
    <glyph glyph-name="Ocircumflex" unicode="&#xd4;" 
 />
    <glyph glyph-name="Otilde" unicode="&#xd5;" 
 />
    <glyph glyph-name="Odieresis" unicode="&#xd6;" 
 />
    <glyph glyph-name="multiply" unicode="&#xd7;" horiz-adv-x="495" 
d="M50 109l132 132l-132 133l65 65l133 -132l132 132l65 -65l-132 -133l132 -133l-65 -64l-132 131l-133 -132z" />
    <glyph glyph-name="Oslash" unicode="&#xd8;" 
 />
    <glyph glyph-name="Ugrave" unicode="&#xd9;" 
 />
    <glyph glyph-name="Uacute" unicode="&#xda;" 
 />
    <glyph glyph-name="Ucircumflex" unicode="&#xdb;" 
 />
    <glyph glyph-name="Udieresis" unicode="&#xdc;" 
 />
    <glyph glyph-name="Yacute" unicode="&#xdd;" 
 />
    <glyph glyph-name="Thorn" unicode="&#xde;" 
 />
    <glyph glyph-name="germandbls" unicode="&#xdf;" 
 />
    <glyph glyph-name="agrave" unicode="&#xe0;" 
 />
    <glyph glyph-name="aacute" unicode="&#xe1;" 
 />
    <glyph glyph-name="acircumflex" unicode="&#xe2;" 
 />
    <glyph glyph-name="atilde" unicode="&#xe3;" 
 />
    <glyph glyph-name="adieresis" unicode="&#xe4;" 
 />
    <glyph glyph-name="aring" unicode="&#xe5;" 
 />
    <glyph glyph-name="ae" unicode="&#xe6;" 
 />
    <glyph glyph-name="ccedilla" unicode="&#xe7;" 
 />
    <glyph glyph-name="egrave" unicode="&#xe8;" 
 />
    <glyph glyph-name="eacute" unicode="&#xe9;" 
 />
    <glyph glyph-name="ecircumflex" unicode="&#xea;" 
 />
    <glyph glyph-name="edieresis" unicode="&#xeb;" 
 />
    <glyph glyph-name="igrave" unicode="&#xec;" 
 />
    <glyph glyph-name="iacute" unicode="&#xed;" 
 />
    <glyph glyph-name="icircumflex" unicode="&#xee;" 
 />
    <glyph glyph-name="idieresis" unicode="&#xef;" 
 />
    <glyph glyph-name="eth" unicode="&#xf0;" 
 />
    <glyph glyph-name="ntilde" unicode="&#xf1;" 
 />
    <glyph glyph-name="ograve" unicode="&#xf2;" 
 />
    <glyph glyph-name="oacute" unicode="&#xf3;" 
 />
    <glyph glyph-name="ocircumflex" unicode="&#xf4;" 
 />
    <glyph glyph-name="otilde" unicode="&#xf5;" 
 />
    <glyph glyph-name="odieresis" unicode="&#xf6;" 
 />
    <glyph glyph-name="divide" unicode="&#xf7;" horiz-adv-x="567" 
d="M50 195v93h467v-93h-467zM237 120.5q20 20.5 50 20.5t50 -20.5t20 -50.5t-20.5 -50t-49.5 -20q-30 0 -50 20t-20 50t20 50.5zM237 464q20 20 50 20t50 -20.5t20 -50.5t-20.5 -50t-49.5 -20t-49.5 20t-20.5 50q0 31 20 51z" />
    <glyph glyph-name="oslash" unicode="&#xf8;" 
 />
    <glyph glyph-name="ugrave" unicode="&#xf9;" 
 />
    <glyph glyph-name="uacute" unicode="&#xfa;" 
 />
    <glyph glyph-name="ucircumflex" unicode="&#xfb;" 
 />
    <glyph glyph-name="udieresis" unicode="&#xfc;" 
 />
    <glyph glyph-name="yacute" unicode="&#xfd;" 
 />
    <glyph glyph-name="thorn" unicode="&#xfe;" 
 />
    <glyph glyph-name="ydieresis" unicode="&#xff;" 
 />
    <glyph glyph-name="OE" unicode="&#x152;" 
 />
    <glyph glyph-name="oe" unicode="&#x153;" 
 />
    <glyph glyph-name="Scaron" unicode="&#x160;" 
 />
    <glyph glyph-name="scaron" unicode="&#x161;" 
 />
    <glyph glyph-name="Ydieresis" unicode="&#x178;" 
 />
    <glyph glyph-name="Zcaron" unicode="&#x17d;" 
 />
    <glyph glyph-name="zcaron" unicode="&#x17e;" 
 />
    <glyph glyph-name="florin" unicode="&#x192;" 
 />
    <glyph glyph-name="circumflex" unicode="&#x2c6;" 
 />
    <glyph glyph-name="tilde" unicode="&#x2dc;" 
 />
    <glyph glyph-name="uni03BC" unicode="&#x3bc;" 
 />
    <glyph glyph-name="uni060C" unicode="&#x60c;" horiz-adv-x="313" 
d="M90.5 17q-23.5 28 -23.5 76q0 51 25.5 113t64.5 110l56 -58q-48 -55 -63 -102q3 1 8 1q34 0 59 -24.5t25 -59.5q0 -34 -24.5 -59t-59.5 -25q-44 0 -67.5 28z" />
    <glyph glyph-name="uni0615" unicode="&#x615;" horiz-adv-x="0" 
d="M-131 62l38 1l7 10q4 6 5.5 18t1.5 39q0 37 -3 133l56 13v-125v-8q39 39 73 39q41 0 62.5 -25.5t21.5 -73.5q0 -39 -38 -61t-105 -22h-107zM6 65q45 0 75 16q-1 39 -38 39q-29 0 -73 -55h36z" />
    <glyph glyph-name="uni061B" unicode="&#x61b;" horiz-adv-x="291" 
d="M77 274q-24 28 -24 75q0 52 25.5 113.5t64.5 110.5l56 -58q-48 -54 -63 -102q3 1 8 1q34 0 59 -24.5t25 -60.5q0 -34 -24.5 -58.5t-59.5 -24.5q-43 0 -67 28zM85.5 139q25.5 25 62.5 25t62 -25.5t25 -62.5t-25 -62.5t-62 -25.5t-62.5 25t-25.5 63t25.5 63z" />
    <glyph glyph-name="uni061F" unicode="&#x61f;" horiz-adv-x="552" 
d="M390 564q0 46 -29 72.5t-82 26.5q-50 0 -79 -27t-29 -70q0 -35 21 -62t72 -72l23 -21q34 -30 49.5 -55t20 -50.5t4.5 -67.5l-90 -13q-1 35 -4 51.5t-14.5 34.5t-39.5 46q-11 11 -39 35q-33 28 -53 49.5t-33.5 55t-13.5 80.5q0 56 26.5 101.5t73.5 72t105 26.5
q93 0 146 -51t53 -138q0 -27 -4 -51l-87 -2q3 15 3 29zM251.5 139.5q25.5 25.5 63.5 25.5t63 -25.5t25 -63.5q0 -37 -25.5 -62.5t-62.5 -25.5t-63 25t-26 63t25.5 63.5z" />
    <glyph glyph-name="uni0621" unicode="&#x621;" horiz-adv-x="567" 
d="M62 95l120 39q-24 47 -32 80t-8 73q0 59 52 94t127 35q28 0 48.5 -3.5t25.5 -4.5l-22 -107q-37 8 -62 8q-51 0 -80 -15q0 -35 10.5 -64.5t33.5 -62.5l214 63l15 -110l-425 -132z" />
    <glyph glyph-name="uni0622" unicode="&#x622;" horiz-adv-x="245" 
d="M174 515l3 -515l-96 -12l-22 508zM104 609q-30 4 -37 4q-17 0 -26 -9t-17 -38l-77 20q19 71 44.5 97.5t72.5 26.5q20 0 55 -5q70 -9 116 -9h57l-20 -96h-50q-57 0 -118 9z" />
    <glyph glyph-name="uni0623" unicode="&#x623;" horiz-adv-x="245" 
d="M174 515l3 -515l-96 -12l-22 508zM-11 607l75 21q-23 46 -23 81q0 36 26.5 56.5t73.5 20.5q28 0 51 -7v-62q-36 7 -67 7q-20 0 -31 -5q0 -15 8.5 -36t19.5 -39l120 34v-65l-253 -71v65z" />
    <glyph glyph-name="uni0624" unicode="&#x624;" horiz-adv-x="476" 
d="M301 7q-35 -7 -89 -7q-56 0 -81.5 8.5t-47.5 38.5q-15 21 -20 35.5t-5 38.5q0 66 19.5 127t60.5 99.5t103 38.5q57 0 97 -40t59.5 -104.5t19.5 -138.5q0 -124 -74.5 -225.5t-230.5 -164.5l-71 111q205 72 260 183zM233 119q54 0 87 8q0 70 -23.5 105t-64.5 35
q-36 0 -59 -37t-23 -101q32 -10 83 -10zM112 539l75 21q-23 46 -23 81q0 36 26.5 56.5t73.5 20.5q28 0 51 -7v-62q-36 7 -67 7q-20 0 -31 -5q0 -15 8.5 -36t19.5 -39l120 34v-65l-253 -71v65z" />
    <glyph glyph-name="uni0625" unicode="&#x625;" horiz-adv-x="236" 
d="M174 710l3 -710l-96 -12l-22 703zM9 -254l75 21q-23 46 -23 81q0 36 26.5 56.5t73.5 20.5q28 0 51 -7v-62q-36 7 -67 7q-20 0 -31 -5q0 -15 8.5 -36t19.5 -39l120 34v-65l-253 -71v65z" />
    <glyph glyph-name="uni0626" unicode="&#x626;" horiz-adv-x="756" 
d="M129 -180q-60 51 -60 152q0 23 7.5 75t18.5 119q10 52 21 127l88 -19q-38 -228 -38 -281q0 -43 45.5 -61t111.5 -18q92 0 154.5 12.5t100.5 43.5q5 18 5 29q0 38 -35 43q-74 7 -110 14t-56.5 25.5t-20.5 54.5q0 79 30.5 160t80.5 134t104 53q41 0 76 -26t70 -83l-61 -66
q-46 46 -84 46q-43 0 -74 -47t-42 -118q80 -9 122.5 -21.5t67.5 -49t25 -109.5q0 -82 -48 -135.5t-128 -79t-177 -25.5q-134 0 -194 51zM98 450l75 21q-23 46 -23 81q0 36 26.5 56.5t73.5 20.5q28 0 51 -7v-62q-36 7 -67 7q-20 0 -31 -5q0 -15 8.5 -36t19.5 -39l120 34v-65
l-253 -71v65z" />
    <glyph glyph-name="uni0627" unicode="&#x627;" horiz-adv-x="236" 
d="M174 710l3 -710l-96 -12l-22 703z" />
    <glyph glyph-name="uni0628" unicode="&#x628;" horiz-adv-x="870" 
d="M228 11.5q-74 16.5 -116.5 60t-42.5 122.5q0 21 7.5 71t24.5 144l88 -18q-23 -135 -23 -171q0 -33 21.5 -50t72 -24t145.5 -7q198 0 297 29l-22 222l111 19q10 -148 10 -250q0 -43 -16.5 -71.5t-56.5 -47.5q-47 -21 -127.5 -33t-188.5 -12q-110 0 -184 16.5zM324 -184
l76 93l100 -79l-76 -93z" />
    <glyph glyph-name="uni0629" unicode="&#x629;" horiz-adv-x="482" 
d="M115 33q-46 38 -46 108q0 51 26 100.5t78 112.5l-44 30l64 99q239 -147 239 -360q0 -38 -23 -71q-14 -21 -22.5 -30t-18.5 -12q-44 -15 -135 -15q-72 0 -118 38zM185.5 148q16.5 -9 54.5 -9q66 0 99 7q-6 42 -25.5 80.5t-68.5 73.5q-29 -27 -52.5 -64.5t-23.5 -58.5
q0 -20 16.5 -29zM81 632l72 89l92 -73l59 73l95 -76l-72 -89l-92 73l-59 -73z" />
    <glyph glyph-name="uni062A" unicode="&#x62a;" horiz-adv-x="870" 
d="M228 11.5q-74 16.5 -116.5 60t-42.5 122.5q0 21 7.5 71t24.5 144l88 -18q-23 -135 -23 -171q0 -33 21.5 -50t72 -24t145.5 -7q198 0 297 29l-22 222l111 19q10 -148 10 -250q0 -43 -16.5 -71.5t-56.5 -47.5q-47 -21 -127.5 -33t-188.5 -12q-110 0 -184 16.5zM283 474
l72 89l92 -73l59 73l95 -76l-72 -89l-92 73l-59 -73z" />
    <glyph glyph-name="uni062B" unicode="&#x62b;" horiz-adv-x="870" 
d="M228 11.5q-74 16.5 -116.5 60t-42.5 122.5q0 21 7.5 71t24.5 144l88 -18q-23 -135 -23 -171q0 -33 21.5 -50t72 -24t145.5 -7q198 0 297 29l-22 222l111 19q10 -148 10 -250q0 -43 -16.5 -71.5t-56.5 -47.5q-47 -21 -127.5 -33t-188.5 -12q-110 0 -184 16.5zM296 467
l66 81l84 -67l55 67l87 -69l-66 -81l-84 67l-55 -67zM420 695l87 -68l-66 -81l-86 68z" />
    <glyph glyph-name="uni062C" unicode="&#x62c;" horiz-adv-x="664" 
d="M150 -295.5q-88 64.5 -88 202.5q0 118 77.5 218t239.5 167q-21 7 -94 36q-27 12 -50.5 20.5t-32.5 8.5q-26 0 -38.5 -15.5t-17.5 -44.5l-85 16q12 82 44 129t92 47q33 0 70 -13t98 -41q72 -33 124.5 -51t107.5 -21l-13 -141q-181 -42 -288 -109t-127 -158q0 -90 59 -131
t160 -41q92 0 229 30l-8 -143q-114 -30 -225 -30q-146 0 -234 64.5zM373 54l99 -79l-76 -93l-100 79z" />
    <glyph glyph-name="uni062D" unicode="&#x62d;" horiz-adv-x="664" 
d="M150 -295.5q-88 64.5 -88 202.5q0 118 77.5 218t239.5 167q-21 7 -94 36q-27 12 -50.5 20.5t-32.5 8.5q-26 0 -38.5 -15.5t-17.5 -44.5l-85 16q12 82 44 129t92 47q33 0 70 -13t98 -41q72 -33 124.5 -51t107.5 -21l-13 -141q-181 -42 -288 -109t-127 -158q0 -90 59 -131
t160 -41q92 0 229 30l-8 -143q-114 -30 -225 -30q-146 0 -234 64.5z" />
    <glyph glyph-name="uni062E" unicode="&#x62e;" horiz-adv-x="664" 
d="M150 -295.5q-88 64.5 -88 202.5q0 118 77.5 218t239.5 167q-21 7 -94 36q-27 12 -50.5 20.5t-32.5 8.5q-26 0 -38.5 -15.5t-17.5 -44.5l-85 16q12 82 44 129t92 47q33 0 70 -13t98 -41q72 -33 124.5 -51t107.5 -21l-13 -141q-181 -42 -288 -109t-127 -158q0 -90 59 -131
t160 -41q92 0 229 30l-8 -143q-114 -30 -225 -30q-146 0 -234 64.5zM197 631l76 93l100 -79l-76 -93z" />
    <glyph glyph-name="uni062F" unicode="&#x62f;" horiz-adv-x="556" 
d="M148 190q0 -24 7 -34.5t26.5 -13.5t66.5 -3q37 0 84.5 6.5t75.5 16.5q-16 119 -175 269l73 95q102 -98 151.5 -195.5t49.5 -182.5q0 -80 -74 -116.5t-189 -36.5q-71 0 -111.5 13.5t-58.5 46.5t-18 91q0 15 4 75l88 -7v-24z" />
    <glyph glyph-name="uni0630" unicode="&#x630;" horiz-adv-x="556" 
d="M148 190q0 -24 7 -34.5t26.5 -13.5t66.5 -3q37 0 84.5 6.5t75.5 16.5q-16 119 -175 269l73 95q102 -98 151.5 -195.5t49.5 -182.5q0 -80 -74 -116.5t-189 -36.5q-71 0 -111.5 13.5t-58.5 46.5t-18 91q0 15 4 75l88 -7v-24zM177 705l76 93l100 -79l-76 -93z" />
    <glyph glyph-name="uni0631" unicode="&#x631;" horiz-adv-x="334" 
d="M88 -75.5q57 49.5 78 101.5l-38 297l114 23q12 -115 17.5 -179.5t5.5 -110.5q0 -102 -65.5 -187t-210.5 -156l-70 111q112 51 169 100.5z" />
    <glyph glyph-name="uni0632" unicode="&#x632;" horiz-adv-x="334" 
d="M88 -75.5q57 49.5 78 101.5l-38 297l114 23q12 -115 17.5 -179.5t5.5 -110.5q0 -102 -65.5 -187t-210.5 -156l-70 111q112 51 169 100.5zM83 529l76 93l100 -79l-76 -93z" />
    <glyph glyph-name="uni0633" unicode="&#x633;" horiz-adv-x="1198" 
d="M129 -180q-60 51 -60 152q0 23 7.5 75t18.5 119q10 52 21 127l88 -19q-38 -228 -38 -281q0 -43 45.5 -61t111.5 -18q73 0 127.5 9t91.5 32l-40 375l110 23l15 -149q3 -34 21 -47t60 -13q52 0 86 14l-8 188l100 4l4 -193q16 -13 52 -13q57 0 89 16l-23 230l110 19
q10 -154 10 -254q0 -52 -23 -87t-60 -51.5t-79 -16.5q-38 0 -68 14t-44 45q-16 -33 -49.5 -46t-68.5 -13q-36 0 -60 9.5t-39 30.5l1 -24q3 -51 3 -87q0 -54 -50.5 -90t-124.5 -53t-143 -17q-134 0 -194 51z" />
    <glyph glyph-name="uni0634" unicode="&#x634;" horiz-adv-x="1198" 
d="M129 -180q-60 51 -60 152q0 23 7.5 75t18.5 119q10 52 21 127l88 -19q-38 -228 -38 -281q0 -43 45.5 -61t111.5 -18q73 0 127.5 9t91.5 32l-40 375l110 23l15 -149q3 -34 21 -47t60 -13q52 0 86 14l-8 188l100 4l4 -193q16 -13 52 -13q57 0 89 16l-23 230l110 19
q10 -154 10 -254q0 -52 -23 -87t-60 -51.5t-79 -16.5q-38 0 -68 14t-44 45q-16 -33 -49.5 -46t-68.5 -13q-36 0 -60 9.5t-39 30.5l1 -24q3 -51 3 -87q0 -54 -50.5 -90t-124.5 -53t-143 -17q-134 0 -194 51zM668 518l66 81l84 -67l55 67l87 -69l-66 -81l-84 67l-55 -67z
M792 746l87 -68l-66 -81l-86 68z" />
    <glyph glyph-name="uni0635" unicode="&#x635;" horiz-adv-x="1291" 
d="M638 33q3 -60 3 -104q0 -54 -50.5 -90t-124.5 -53t-143 -17q-133 0 -193.5 50.5t-60.5 149.5q0 32 9.5 94.5t34.5 208.5l3 21l88 -19q-39 -234 -39 -281q0 -44 45.5 -61.5t112.5 -17.5q151 0 219 41l-40 375l110 23q12 -131 16 -186q19 -6 35 -8q33 53 91 121.5t129 121
t136 52.5q203 0 203 -251q0 -32 -7 -60t-23 -46q-42 -45 -130.5 -71t-210.5 -26q-135 0 -213 33zM843 144q77 0 144 8t135 30q2 71 -23.5 110.5t-75.5 39.5q-52 0 -120 -50t-139 -135q32 -3 79 -3z" />
    <glyph glyph-name="uni0636" unicode="&#x636;" horiz-adv-x="1291" 
d="M638 33q3 -60 3 -104q0 -54 -50.5 -90t-124.5 -53t-143 -17q-133 0 -193.5 50.5t-60.5 149.5q0 32 9.5 94.5t34.5 208.5l3 21l88 -19q-39 -234 -39 -281q0 -44 45.5 -61.5t112.5 -17.5q151 0 219 41l-40 375l110 23q12 -131 16 -186q19 -6 35 -8q33 53 91 121.5t129 121
t136 52.5q203 0 203 -251q0 -32 -7 -60t-23 -46q-42 -45 -130.5 -71t-210.5 -26q-135 0 -213 33zM843 144q77 0 144 8t135 30q2 71 -23.5 110.5t-75.5 39.5q-52 0 -120 -50t-139 -135q32 -3 79 -3zM763 599l76 93l100 -79l-76 -93z" />
    <glyph glyph-name="uni0637" unicode="&#x637;" horiz-adv-x="785" 
d="M59 144h91q20 25 31 46q7 11 10 32.5t3 69.5q0 17 -2 89l-8 310l114 19l2 -296q0 -26 -1 -49.5t-5 -37.5q125 127 219 127q101 0 152 -63.5t51 -187.5q0 -72 -31 -106q-41 -45 -129.5 -71t-210.5 -26h-259zM336 144q77 0 144.5 8t135.5 30q2 72 -23.5 111t-76.5 39
t-119.5 -50.5t-139.5 -137.5h79z" />
    <glyph glyph-name="uni0638" unicode="&#x638;" horiz-adv-x="785" 
d="M59 144h91q20 25 31 46q7 11 10 32.5t3 69.5q0 17 -2 89l-8 310l114 19l2 -296q0 -26 -1 -49.5t-5 -37.5q125 127 219 127q101 0 152 -63.5t51 -187.5q0 -72 -31 -106q-41 -45 -129.5 -71t-210.5 -26h-259zM336 144q77 0 144.5 8t135.5 30q2 72 -23.5 111t-76.5 39
t-119.5 -50.5t-139.5 -137.5h79zM439 639l76 93l100 -79l-76 -93z" />
    <glyph glyph-name="uni0639" unicode="&#x639;" horiz-adv-x="528" 
d="M127 -294q-86 66 -86 210q0 61 27.5 123.5t80.5 111.5q-29 38 -45.5 88t-16.5 102q0 74 52 116t136 42q45 0 113 -18l-27 -114q-50 10 -97 10q-49 0 -78 -18q0 -34 14.5 -74.5t38.5 -73.5l216 63v-134l-129 -39q-74 -22 -116.5 -59.5t-63.5 -89.5q0 -89 58 -128.5
t152 -39.5q91 0 202 29l-7 -144q-106 -29 -201 -29q-137 0 -223 66z" />
    <glyph glyph-name="uni063A" unicode="&#x63a;" horiz-adv-x="528" 
d="M127 -294q-86 66 -86 210q0 61 27.5 123.5t80.5 111.5q-29 38 -45.5 88t-16.5 102q0 74 52 116t136 42q45 0 113 -18l-27 -114q-50 10 -97 10q-49 0 -78 -18q0 -34 14.5 -74.5t38.5 -73.5l216 63v-134l-129 -39q-74 -22 -116.5 -59.5t-63.5 -89.5q0 -89 58 -128.5
t152 -39.5q91 0 202 29l-7 -144q-106 -29 -201 -29q-137 0 -223 66zM135 656l76 93l100 -79l-76 -93z" />
    <glyph glyph-name="uni0640" unicode="&#x640;" horiz-adv-x="227" 
d="M-6 11q-3 11 -3 25v73q0 14 3 24.5t6 10.5h227q4 0 6.5 -10.5t2.5 -24.5v-73q0 -15 -2.5 -25.5t-6.5 -10.5h-227q-3 0 -6 11z" />
    <glyph glyph-name="uni0641" unicode="&#x641;" horiz-adv-x="930" 
d="M228 11.5q-74 16.5 -116.5 60t-42.5 122.5q0 21 7.5 71t24.5 144l88 -18q-23 -135 -23 -171q0 -33 21.5 -50t72 -24t145.5 -7q295 0 354 18q2 15 4 57q-43 -9 -107 -9q-56 0 -81.5 8.5t-47.5 38.5q-15 21 -20 35.5t-5 38.5q0 66 19.5 127t60.5 99.5t103 38.5q57 0 97 -40
t59.5 -104.5t19.5 -138.5q0 -91 -6.5 -144t-23 -84t-49.5 -48q-41 -21 -121 -29t-249 -8q-110 0 -184 16.5zM677 324q54 0 87 8q0 70 -23.5 105t-64.5 35q-36 0 -59 -37t-23 -101q32 -10 83 -10zM583 747l76 93l100 -79l-76 -93z" />
    <glyph glyph-name="uni0642" unicode="&#x642;" horiz-adv-x="772" 
d="M129 -180q-60 51 -60 152q0 23 7.5 75t18.5 119q10 52 21 127l88 -19q-38 -228 -38 -281q0 -43 45.5 -61t111.5 -18q83 0 149.5 10.5t127.5 36.5q3 21 5 72q-43 -9 -107 -9q-56 0 -81.5 8.5t-46.5 38.5q-16 21 -21 35t-5 39q0 66 19.5 126.5t60.5 99t103 38.5
q57 0 97 -39.5t59.5 -104t19.5 -138.5q0 -125 -11 -182t-44 -88q-47 -47 -139 -67.5t-186 -20.5q-134 0 -194 51zM519 143q54 0 87 8q0 70 -23.5 105t-64.5 35q-36 0 -58.5 -37t-22.5 -102q43 -9 82 -9zM354 563l72 89l92 -73l59 73l95 -76l-72 -89l-92 73l-59 -73z" />
    <glyph glyph-name="uni0643" unicode="&#x643;" horiz-adv-x="831" 
d="M76.5 265q7.5 50 24.5 144l88 -18q-23 -135 -23 -171q0 -33 21.5 -50t72 -24t145.5 -7q157 0 258 31l-34 520l113 20q3 -57 9.5 -278.5t6.5 -273.5q0 -42 -16 -70.5t-56 -47.5q-47 -21 -117 -33t-157 -12q-110 0 -184 16.5t-116.5 60t-42.5 122.5q0 21 7.5 71zM315 394
q111 0 146 36q0 12 -12.5 17t-40.5 10q-37 6 -56 15t-19 33q0 32 15.5 74.5t42.5 73.5t58 31q24 0 43.5 -14.5t40.5 -47.5l-37 -36q-23 26 -47 26q-22 0 -37 -23.5t-23 -56.5q47 -5 73 -12.5t40 -26t14 -55.5q0 -58 -55.5 -92t-152.5 -34z" />
    <glyph glyph-name="uni0644" unicode="&#x644;" horiz-adv-x="678" 
d="M128 -180q-59 51 -59 152q0 23 7.5 75t18.5 119q10 52 21 127l88 -19q-39 -234 -39 -281q0 -43 45.5 -61t107.5 -18q121 0 188 41l-28 736l114 19l13 -781q1 -53 -48 -89.5t-117 -53.5t-122 -17q-131 0 -190 51z" />
    <glyph glyph-name="uni0645" unicode="&#x645;" horiz-adv-x="539" 
d="M55 -7q0 117 26 171q62 121 120 179t125 58q47 0 82 -30.5t53.5 -83.5t18.5 -118q0 -57 -15 -110q-3 -13 -13.5 -26t-32.5 -29q-29 -22 -51 -22q-12 0 -22 5l-187 86q-2 -127 33 -354l-118 -20q-19 186 -19 294zM370 115q10 23 10 63q0 46 -17.5 75t-50.5 29
q-28 0 -48 -21t-52 -75z" />
    <glyph glyph-name="uni0646" unicode="&#x646;" horiz-adv-x="706" 
d="M129.5 -180.5q-60.5 50.5 -60.5 149.5q0 32 9.5 94.5t34.5 208.5l3 21l88 -19q-39 -234 -39 -281q0 -44 45.5 -61.5t112.5 -17.5q151 0 219 41l-40 375l110 23q29 -303 29 -424q0 -54 -50.5 -90t-124.5 -53t-143 -17q-133 0 -193.5 50.5zM254 463l76 93l100 -79l-76 -93z
" />
    <glyph glyph-name="uni0647" unicode="&#x647;" horiz-adv-x="482" 
d="M115 33q-46 38 -46 108q0 51 26 100.5t78 112.5l-44 30l64 99q239 -147 239 -360q0 -38 -23 -71q-14 -21 -22.5 -30t-18.5 -12q-44 -15 -135 -15q-72 0 -118 38zM185.5 148q16.5 -9 54.5 -9q66 0 99 7q-6 42 -25.5 80.5t-68.5 73.5q-29 -27 -52.5 -64.5t-23.5 -58.5
q0 -20 16.5 -29z" />
    <glyph glyph-name="uni0648" unicode="&#x648;" horiz-adv-x="476" 
d="M301 7q-35 -7 -89 -7q-56 0 -81.5 8.5t-47.5 38.5q-15 21 -20 35.5t-5 38.5q0 66 19.5 127t60.5 99.5t103 38.5q57 0 97 -40t59.5 -104.5t19.5 -138.5q0 -124 -74.5 -225.5t-230.5 -164.5l-71 111q205 72 260 183zM233 119q54 0 87 8q0 70 -23.5 105t-64.5 35
q-36 0 -59 -37t-23 -101q32 -10 83 -10z" />
    <glyph glyph-name="uni0649" unicode="&#x649;" horiz-adv-x="756" 
d="M129 -180q-60 51 -60 152q0 23 7.5 75t18.5 119q10 52 21 127l88 -19q-38 -228 -38 -281q0 -43 45.5 -61t111.5 -18q92 0 154.5 12.5t100.5 43.5q5 18 5 29q0 38 -35 43q-74 7 -110 14t-56.5 25.5t-20.5 54.5q0 79 30.5 160t80.5 134t104 53q41 0 76 -26t70 -83l-61 -66
q-46 46 -84 46q-43 0 -74 -47t-42 -118q80 -9 122.5 -21.5t67.5 -49t25 -109.5q0 -82 -48 -135.5t-128 -79t-177 -25.5q-134 0 -194 51z" />
    <glyph glyph-name="uni064A" unicode="&#x64a;" horiz-adv-x="756" 
d="M129 -180q-60 51 -60 152q0 23 7.5 75t18.5 119q10 52 21 127l88 -19q-38 -228 -38 -281q0 -43 45.5 -61t111.5 -18q92 0 154.5 12.5t100.5 43.5q5 18 5 29q0 38 -35 43q-74 7 -110 14t-56.5 25.5t-20.5 54.5q0 79 30.5 160t80.5 134t104 53q41 0 76 -26t70 -83l-61 -66
q-46 46 -84 46q-43 0 -74 -47t-42 -118q80 -9 122.5 -21.5t67.5 -49t25 -109.5q0 -82 -48 -135.5t-128 -79t-177 -25.5q-134 0 -194 51zM164 -418l72 89l92 -73l59 73l95 -76l-72 -89l-92 73l-59 -73z" />
    <glyph glyph-name="uni064B" unicode="&#x64b;" horiz-adv-x="0" 
d="M-122 65l253 71v-65l-253 -71v65zM-122 179l253 71v-65l-253 -71v65z" />
    <glyph glyph-name="uni064C" unicode="&#x64c;" horiz-adv-x="0" 
d="M-122 43q-11 21 -15.5 38t-4.5 35q0 16 5.5 38.5t10.5 40t8 26.5l55 -18q-12 -36 -16.5 -54.5t-4.5 -32.5q0 -18 12 -38l42 11q-8 2 -11.5 10t-3.5 18q0 15 9 42.5t29.5 49.5t51.5 22q38 0 62 -33t24 -79q0 -32 -15 -44.5t-51 -22.5l-187 -52v43zM41 110q23 0 38 5
q0 59 -35 59q-15 0 -24 -15.5t-11 -43.5q13 -5 32 -5z" />
    <glyph glyph-name="uni064D" unicode="&#x64d;" horiz-adv-x="0" 
d="M-122 -35l253 71v-65l-253 -71v65zM-122 -148l253 71v-65l-253 -71v65z" />
    <glyph glyph-name="uni064E" unicode="&#x64e;" horiz-adv-x="0" 
d="M-122 65l253 71v-65l-253 -71v65z" />
    <glyph glyph-name="uni064F" unicode="&#x64f;" horiz-adv-x="0" 
d="M-122 65l92 24q-8 2 -11.5 10t-3.5 18q0 15 9 42.5t29.5 49.5t51.5 22q38 0 62 -33t24 -79q0 -32 -15 -44.5t-51 -22.5l-187 -52v65zM41 110q23 0 38 5q0 59 -35 59q-15 0 -24 -15.5t-11 -43.5q13 -5 32 -5z" />
    <glyph glyph-name="uni0650" unicode="&#x650;" horiz-adv-x="0" 
d="M-122 -35l253 71v-65l-253 -71v65z" />
    <glyph glyph-name="uni0651" unicode="&#x651;" horiz-adv-x="0" 
d="M-83 69q0 -18 18 -18q10 0 22 5t21 13v53l44 8v-44q0 -17 18 -17q10 0 22.5 5.5t18.5 11.5q0 32 -8 70l50 24q8 -41 8 -86q0 -39 -28 -62.5t-65 -23.5q-22 0 -35 15q-14 -15 -35 -25t-43 -10q-26 0 -41 14t-15 39q0 26 5 62l47 9q-4 -30 -4 -43z" />
    <glyph glyph-name="uni0652" unicode="&#x652;" horiz-adv-x="0" 
d="M-85 101q0 35 24 59.5t61 24.5q27 0 49 -16.5t32 -45.5q4 -12 4 -28q0 -29 -16 -51t-45 -30l-33 -9q-18 -4 -24 -4q-18 0 -29 10.5t-18 33.5l87 25q21 8 21 25q0 15 -7 22t-18 7q-14 0 -22.5 -7t-8.5 -18q0 -3 2 -9l-55 -17q-4 13 -4 28z" />
    <glyph glyph-name="uni0653" unicode="&#x653;" horiz-adv-x="0" 
d="M-14 57q-30 4 -37 4q-17 0 -26 -9t-17 -38l-77 20q19 71 44.5 97.5t72.5 26.5q20 0 55 -5q70 -9 116 -9h57l-20 -96h-50q-57 0 -118 9z" />
    <glyph glyph-name="uni0654" unicode="&#x654;" horiz-adv-x="0" 
d="M-129 64l75 21q-23 46 -23 81q0 36 26.5 56.5t73.5 20.5q28 0 51 -7v-62q-36 7 -67 7q-20 0 -31 -5q0 -15 8.5 -36t19.5 -39l120 34v-65l-253 -71v65z" />
    <glyph glyph-name="uni0655" unicode="&#x655;" horiz-adv-x="0" 
d="M-122 -107l75 21q-23 46 -23 81q0 36 26.5 56.5t73.5 20.5q28 0 51 -7v-62q-36 7 -67 7q-20 0 -31 -5q0 -15 8.5 -36t19.5 -39l120 34v-65l-253 -71v65z" />
    <glyph glyph-name="uni0656" unicode="&#x656;" horiz-adv-x="0" 
d="M-26 5l53 9l-4 -146h-42z" />
    <glyph glyph-name="uni0658" unicode="&#x658;" horiz-adv-x="0" 
d="M-86.5 11q-28.5 21 -28.5 57q0 12 11 67q2 9 4.5 21.5t5.5 30.5h57q-6 -26 -12.5 -62.5t-6.5 -44.5q0 -13 11 -19t37 -6q39 0 61 11l-14 135l63 12l8 -145q2 -36 -31 -57t-90 -21q-47 0 -75.5 21z" />
    <glyph glyph-name="uni065A" unicode="&#x65a;" horiz-adv-x="0" 
d="M-65.5 97.5q-20.5 42.5 -49.5 88.5l55 27q40 -66 60 -127q20 57 65 127l50 -36q-53 -80 -85 -170l-56 -7q-19 55 -39.5 97.5z" />
    <glyph glyph-name="uni0660" unicode="&#x660;" horiz-adv-x="345" 
d="M58 211l99 121l130 -103l-99 -120z" />
    <glyph glyph-name="uni0661" unicode="&#x661;" horiz-adv-x="268" 
d="M209 0l-96 -8q0 180 -15.5 356.5t-47.5 308.5l111 23q48 -265 48 -680z" />
    <glyph glyph-name="uni0662" unicode="&#x662;" horiz-adv-x="537" 
d="M245.5 327q-25.5 7 -46.5 20q10 -159 10 -347l-96 -8q0 180 -15.5 356.5t-47.5 308.5l111 23q13 -66 29 -164q5 -28 25 -40t67 -12q74 0 109 21l-21 178l106 17l10 -198q4 -81 -50.5 -121.5t-140.5 -40.5q-24 0 -49.5 7z" />
    <glyph glyph-name="uni0663" unicode="&#x663;" horiz-adv-x="708" 
d="M199 344q10 -157 10 -344l-96 -8q0 180 -15.5 356.5t-47.5 308.5l111 23l5 -28q7 -43 24 -136q11 -52 73 -52q34 0 68 15l-7 176l100 8l4 -191q24 -8 53 -8q51 0 81 21l-22 178l107 17l10 -198q2 -49 -21.5 -86t-62 -56.5t-79.5 -19.5q-80 0 -109 34q-19 -19 -49.5 -26.5
t-60.5 -7.5q-44 0 -76 24z" />
    <glyph glyph-name="uni0664" unicode="&#x664;" horiz-adv-x="496" 
d="M104 49q-59 49 -59 131q0 56 29.5 103t92.5 81q-58 26 -85 62.5t-27 93.5q0 86 59 123t152 37q54 0 112 -11v-122q-68 9 -108 9q-70 0 -112 -29q2 -43 19.5 -67t57 -35t108.5 -10v-107q-133 -17 -202 -96q12 -37 42 -52.5t91 -15.5q43 0 78.5 3.5t87.5 11.5l-5 -140
q-50 -10 -86.5 -14.5t-81.5 -4.5q-104 0 -163 49z" />
    <glyph glyph-name="uni0665" unicode="&#x665;" horiz-adv-x="623" 
d="M68 178q0 74 38.5 166t95 156.5t105.5 64.5q62 0 119.5 -63t93 -155.5t35.5 -172.5q0 -79 -63.5 -128t-185.5 -49q-238 0 -238 181zM201.5 156q33.5 -15 109.5 -15q105 0 155 30q-1 50 -29 112.5t-65 107.5t-61 45q-20 0 -54.5 -40t-61.5 -93.5t-27 -93.5q0 -38 33.5 -53
z" />
    <glyph glyph-name="uni0666" unicode="&#x666;" horiz-adv-x="520" 
d="M323 175.5q-8 88.5 -8 191.5l1 135q-30 -5 -106 -5q-71 0 -157 15l-8 141q107 -15 199 -15q112 0 172 5q0 -163 2 -253t12 -183t31 -197l-106 -28q-24 105 -32 193.5z" />
    <glyph glyph-name="uni0667" unicode="&#x667;" horiz-adv-x="612" 
d="M231.5 200.5q-23.5 101.5 -70.5 209.5t-114 201l89 69q57 -82 104 -191t64 -222q22 121 70 228t108 185l83 -77q-70 -93 -119 -201t-73.5 -206.5t-24.5 -168.5v-27l-93 -8v30q0 77 -23.5 178.5z" />
    <glyph glyph-name="uni0668" unicode="&#x668;" horiz-adv-x="612" 
d="M380.5 471.5q23.5 -101.5 70.5 -209.5t114 -201l-89 -69q-57 82 -104 191t-64 222q-22 -121 -70 -228t-108 -185l-83 77q70 93 119 201t73.5 206.5t24.5 168.5v27l93 8v-30q0 -77 23.5 -178.5z" />
    <glyph glyph-name="uni0669" unicode="&#x669;" horiz-adv-x="557" 
d="M360 231v19q-64 -16 -116 -16q-68 0 -104.5 10.5t-57.5 41.5q-24 35 -24 75q0 75 19 148t63 122t114 49q100 0 151.5 -82t51.5 -211q0 -200 28 -377l-107 -28q-18 149 -18 249zM248 378q61 0 112 12q0 86 -25 125t-81 39q-52 0 -78 -42t-26 -122q35 -12 98 -12z" />
    <glyph glyph-name="uni066A" unicode="&#x66a;" horiz-adv-x="802" 
d="M138 0l406 710h122l-405 -710h-123zM86.5 646.5q20.5 35.5 56 56t79.5 20.5q43 0 79 -20.5t56.5 -56t20.5 -79.5t-20.5 -79.5t-56.5 -56t-79 -20.5q-44 0 -79.5 20.5t-56 56t-20.5 79.5t20.5 79.5zM171.5 518q20.5 -20 50.5 -20t50 20t20 49t-20.5 49.5t-49.5 20.5
q-30 0 -50.5 -20.5t-20.5 -49.5t20.5 -49zM444.5 221q20.5 36 56 56.5t79.5 20.5t79.5 -20.5t56 -56.5t20.5 -79q0 -44 -20.5 -79.5t-56 -56t-79.5 -20.5t-79.5 20.5t-56 56t-20.5 79.5q0 43 20.5 79zM530 92.5q20 -19.5 50 -19.5q31 0 51 19.5t20 49.5q0 29 -21 49t-50 20
t-49.5 -20t-20.5 -49q0 -30 20 -49.5z" />
    <glyph glyph-name="uni066B" unicode="&#x66b;" horiz-adv-x="333" 
d="M0 -222l243 412l90 -51l-243 -412z" />
    <glyph glyph-name="uni066C" unicode="&#x66c;" horiz-adv-x="318" 
d="M218.5 150q23.5 -28 23.5 -76q0 -51 -25.5 -113t-64.5 -110l-56 58q48 55 63 102q-3 -1 -8 -1q-34 0 -59 24.5t-25 59.5t25 59.5t59 24.5q44 0 67.5 -28z" />
    <glyph glyph-name="uni066D" unicode="&#x66d;" horiz-adv-x="586" 
d="M129 407l107 -37l-4 114h121l-3 -114l107 37l37 -111l-110 -34l69 -89l-96 -70l-64 94l-65 -94l-96 70l67 89l-108 34z" />
    <glyph glyph-name="uni066E" unicode="&#x66e;" horiz-adv-x="870" 
d="M228 11.5q-74 16.5 -116.5 60t-42.5 122.5q0 21 7.5 71t24.5 144l88 -18q-23 -135 -23 -171q0 -33 21.5 -50t72 -24t145.5 -7q198 0 297 29l-22 222l111 19q10 -148 10 -250q0 -43 -16.5 -71.5t-56.5 -47.5q-47 -21 -127.5 -33t-188.5 -12q-110 0 -184 16.5z" />
    <glyph glyph-name="uni066F" unicode="&#x66f;" horiz-adv-x="772" 
d="M129 -180q-60 51 -60 152q0 23 7.5 75t18.5 119q10 52 21 127l88 -19q-38 -228 -38 -281q0 -43 45.5 -61t111.5 -18q83 0 149.5 10.5t127.5 36.5q3 21 5 72q-43 -9 -107 -9q-56 0 -81.5 8.5t-46.5 38.5q-16 21 -21 35t-5 39q0 66 19.5 126.5t60.5 99t103 38.5
q57 0 97 -39.5t59.5 -104t19.5 -138.5q0 -125 -11 -182t-44 -88q-47 -47 -139 -67.5t-186 -20.5q-134 0 -194 51zM519 143q54 0 87 8q0 70 -23.5 105t-64.5 35q-36 0 -58.5 -37t-22.5 -102q43 -9 82 -9z" />
    <glyph glyph-name="uni0670" unicode="&#x670;" horiz-adv-x="0" 
d="M-26 137l53 9l-4 -146h-42z" />
    <glyph glyph-name="uni0671" unicode="&#x671;" horiz-adv-x="245" 
d="M174 515l3 -515l-96 -12l-22 508zM35 565q-25 11 -25 38v30q-11 -6 -25.5 -24.5t-24.5 -39.5l-45 26q6 19 25 45.5t46.5 45t59.5 16.5v-56q0 -8 5 -11.5t10 -3.5q31 41 61.5 70t63.5 29q40 0 58 -22t18 -69q0 -31 -11 -42q-17 -19 -55.5 -31t-83.5 -12q-52 0 -77 11z
M214 631q0 20 -6.5 29.5t-23.5 9.5q-30 0 -79 -54q60 1 109 15z" />
    <glyph glyph-name="uni0679" unicode="&#x679;" horiz-adv-x="870" 
d="M228 11.5q-74 16.5 -116.5 60t-42.5 122.5q0 21 7.5 71t24.5 144l88 -18q-23 -135 -23 -171q0 -33 21.5 -50t72 -24t145.5 -7q198 0 297 29l-22 222l111 19q10 -148 10 -250q0 -43 -16.5 -71.5t-56.5 -47.5q-47 -21 -127.5 -33t-188.5 -12q-110 0 -184 16.5zM311 456
l38 1l7 10q4 6 5.5 18t1.5 39q0 37 -3 133l56 13v-125v-8q39 39 73 39q41 0 62.5 -25.5t21.5 -73.5q0 -39 -38 -61t-105 -22h-107zM448 459q45 0 75 16q-1 39 -38 39q-29 0 -73 -55h36z" />
    <glyph glyph-name="uni067E" unicode="&#x67e;" horiz-adv-x="870" 
d="M228 11.5q-74 16.5 -116.5 60t-42.5 122.5q0 21 7.5 71t24.5 144l88 -18q-23 -135 -23 -171q0 -33 21.5 -50t72 -24t145.5 -7q198 0 297 29l-22 222l111 19q10 -148 10 -250q0 -43 -16.5 -71.5t-56.5 -47.5q-47 -21 -127.5 -33t-188.5 -12q-110 0 -184 16.5zM266 -182
l66 81l84 -67l55 67l87 -69l-66 -81l-84 67l-55 -67zM409 -241l87 -68l-66 -81l-87 69z" />
    <glyph glyph-name="uni0686" unicode="&#x686;" horiz-adv-x="664" 
d="M150 -295.5q-88 64.5 -88 202.5q0 118 77.5 218t239.5 167q-21 7 -94 36q-27 12 -50.5 20.5t-32.5 8.5q-26 0 -38.5 -15.5t-17.5 -44.5l-85 16q12 82 44 129t92 47q33 0 70 -13t98 -41q72 -33 124.5 -51t107.5 -21l-13 -141q-181 -42 -288 -109t-127 -158q0 -90 59 -131
t160 -41q92 0 229 30l-8 -143q-114 -30 -225 -30q-146 0 -234 64.5zM336 71l71 -56l46 56l71 -57l-54 -67l-71 56l-46 -56l-71 57zM400 -45l72 -57l-55 -66l-71 56z" />
    <glyph glyph-name="uni0688" unicode="&#x688;" horiz-adv-x="556" 
d="M148 190q0 -24 7 -34.5t26.5 -13.5t66.5 -3q37 0 84.5 6.5t75.5 16.5q-16 119 -175 269l73 95q102 -98 151.5 -195.5t49.5 -182.5q0 -80 -74 -116.5t-189 -36.5q-71 0 -111.5 13.5t-58.5 46.5t-18 91q0 15 4 75l88 -7v-24zM134 684l38 1l7 10q4 6 5.5 18t1.5 39
q0 37 -3 133l56 13v-125v-8q39 39 73 39q41 0 62.5 -25.5t21.5 -73.5q0 -39 -38 -61t-105 -22h-107zM271 687q45 0 75 16q-1 39 -38 39q-29 0 -73 -55h36z" />
    <glyph glyph-name="uni0691" unicode="&#x691;" horiz-adv-x="334" 
d="M88 -75.5q57 49.5 78 101.5l-38 297l114 23q12 -115 17.5 -179.5t5.5 -110.5q0 -102 -65.5 -187t-210.5 -156l-70 111q112 51 169 100.5zM40 508l38 1l7 10q4 6 5.5 18t1.5 39q0 37 -3 133l56 13v-125v-8q39 39 73 39q41 0 62.5 -25.5t21.5 -73.5q0 -39 -38 -61t-105 -22
h-107zM177 511q45 0 75 16q-1 39 -38 39q-29 0 -73 -55h36z" />
    <glyph glyph-name="uni0695" unicode="&#x695;" horiz-adv-x="334" 
d="M88 -75.5q57 49.5 78 101.5l-38 297l114 23q12 -115 17.5 -179.5t5.5 -110.5q0 -102 -65.5 -187t-210.5 -156l-70 111q112 51 169 100.5zM-4.5 -483.5q-20.5 42.5 -49.5 88.5l55 27q40 -66 60 -127q20 57 65 127l50 -36q-53 -80 -85 -170l-56 -7q-19 55 -39.5 97.5z" />
    <glyph glyph-name="uni0698" unicode="&#x698;" horiz-adv-x="334" 
d="M88 -75.5q57 49.5 78 101.5l-38 297l114 23q12 -115 17.5 -179.5t5.5 -110.5q0 -102 -65.5 -187t-210.5 -156l-70 111q112 51 169 100.5zM25 519l66 81l84 -67l55 67l87 -69l-66 -81l-84 67l-55 -67zM149 747l87 -68l-66 -81l-86 68z" />
    <glyph glyph-name="uni06A1" unicode="&#x6a1;" horiz-adv-x="930" 
d="M228 11.5q-74 16.5 -116.5 60t-42.5 122.5q0 21 7.5 71t24.5 144l88 -18q-23 -135 -23 -171q0 -33 21.5 -50t72 -24t145.5 -7q295 0 354 18q2 15 4 57q-43 -9 -107 -9q-56 0 -81.5 8.5t-47.5 38.5q-15 21 -20 35.5t-5 38.5q0 66 19.5 127t60.5 99.5t103 38.5q57 0 97 -40
t59.5 -104.5t19.5 -138.5q0 -91 -6.5 -144t-23 -84t-49.5 -48q-41 -21 -121 -29t-249 -8q-110 0 -184 16.5zM677 324q54 0 87 8q0 70 -23.5 105t-64.5 35q-36 0 -59 -37t-23 -101q32 -10 83 -10z" />
    <glyph glyph-name="uni06A4" unicode="&#x6a4;" horiz-adv-x="930" 
d="M228 11.5q-74 16.5 -116.5 60t-42.5 122.5q0 21 7.5 71t24.5 144l88 -18q-23 -135 -23 -171q0 -33 21.5 -50t72 -24t145.5 -7q295 0 354 18q2 15 4 57q-43 -9 -107 -9q-56 0 -81.5 8.5t-47.5 38.5q-15 21 -20 35.5t-5 38.5q0 66 19.5 127t60.5 99.5t103 38.5q57 0 97 -40
t59.5 -104.5t19.5 -138.5q0 -91 -6.5 -144t-23 -84t-49.5 -48q-41 -21 -121 -29t-249 -8q-110 0 -184 16.5zM677 324q54 0 87 8q0 70 -23.5 105t-64.5 35q-36 0 -59 -37t-23 -101q32 -10 83 -10zM525 737l66 81l84 -67l55 67l87 -69l-66 -81l-84 67l-55 -67zM649 965l87 -68
l-66 -81l-86 68z" />
    <glyph glyph-name="uni06A9" unicode="&#x6a9;" horiz-adv-x="874" 
d="M228 11.5q-74 16.5 -116.5 60t-42.5 122.5q0 21 7.5 71t24.5 144l88 -18q-23 -135 -23 -171q0 -33 21.5 -50t72 -24t145.5 -7q175 0 260 27q-16 103 -66 174.5t-154 132.5l13 102q163 77 358 135l15 -119q-115 -32 -227 -78q171 -151 171 -375q0 -78 -90.5 -110.5
t-272.5 -32.5q-110 0 -184 16.5z" />
    <glyph glyph-name="uni06AA" unicode="&#x6aa;" horiz-adv-x="1008" 
d="M152 9l-83 144q152 -9 244 -11.5t240 -2.5q112 0 184.5 15t101.5 41q-11 41 -58.5 59.5t-137.5 18.5q-198 0 -272.5 3.5t-104 19.5t-29.5 56q0 72 50 138.5t128.5 108.5t160.5 44l15 -128q-88 -3 -153.5 -33.5t-91.5 -71.5q22 -5 74 -6.5t158 -1.5q121 0 199 -19.5
t119.5 -69t41.5 -137.5q0 -44 -47 -86t-138.5 -68.5t-219.5 -26.5q-162 0 -381 14z" />
    <glyph glyph-name="uni06AF" unicode="&#x6af;" horiz-adv-x="874" 
d="M228 11.5q-74 16.5 -116.5 60t-42.5 122.5q0 21 7.5 71t24.5 144l88 -18q-23 -135 -23 -171q0 -33 21.5 -50t72 -24t145.5 -7q175 0 260 27q-16 103 -66 174.5t-154 132.5l13 102q163 77 358 135l15 -119q-115 -32 -227 -78q171 -151 171 -375q0 -78 -90.5 -110.5
t-272.5 -32.5q-110 0 -184 16.5zM468 678l169 76l7 -52l-180 -78z" />
    <glyph glyph-name="uni06B5" unicode="&#x6b5;" horiz-adv-x="678" 
d="M128 -180q-59 51 -59 152q0 23 7.5 75t18.5 119q10 52 21 127l88 -19q-39 -234 -39 -281q0 -43 45.5 -61t107.5 -18q121 0 188 41l-28 736l114 19l13 -781q1 -53 -48 -89.5t-117 -53.5t-122 -17q-131 0 -190 51zM128.5 484.5q-20.5 42.5 -49.5 88.5l55 27q40 -66 60 -127
q20 57 65 127l50 -36q-53 -80 -85 -170l-56 -7q-19 55 -39.5 97.5z" />
    <glyph glyph-name="uni06BA" unicode="&#x6ba;" horiz-adv-x="706" 
d="M129.5 -180.5q-60.5 50.5 -60.5 149.5q0 32 9.5 94.5t34.5 208.5l3 21l88 -19q-39 -234 -39 -281q0 -44 45.5 -61.5t112.5 -17.5q151 0 219 41l-40 375l110 23q29 -303 29 -424q0 -54 -50.5 -90t-124.5 -53t-143 -17q-133 0 -193.5 50.5z" />
    <glyph glyph-name="uni06BE" unicode="&#x6be;" horiz-adv-x="705" 
d="M230 144q-35 9 -58.5 34.5t-23.5 56.5q0 35 18 71.5t50 75.5l-45 21l50 107l284 -127q69 -31 102 -79.5t33 -115.5q0 -74 -27 -129q-7 -14 -17.5 -24.5t-28.5 -22.5q-28 -20 -45 -20q-7 0 -15 3l-151 59q-48 -39 -119.5 -62t-147.5 -28l-19 144q82 8 160 36zM269.5 205.5
q28.5 -15.5 71.5 -17.5l46 116l-90 39q-56 -61 -56 -98q0 -24 28.5 -39.5zM531 112q9 13 14.5 30t5.5 31q0 66 -89 99l-49 -114z" />
    <glyph glyph-name="uni06C0" unicode="&#x6c0;" horiz-adv-x="482" 
d="M115 33q-46 38 -46 108q0 51 26 100.5t78 112.5l-44 30l64 99q239 -147 239 -360q0 -38 -23 -71q-14 -21 -22.5 -30t-18.5 -12q-44 -15 -135 -15q-72 0 -118 38zM185.5 148q16.5 -9 54.5 -9q66 0 99 7q-6 42 -25.5 80.5t-68.5 73.5q-29 -27 -52.5 -64.5t-23.5 -58.5
q0 -20 16.5 -29zM278 672q0 12 -12.5 17t-40.5 10q-37 6 -56 15t-19 33q0 32 15.5 74.5t42.5 73.5t58 31q24 0 43.5 -14.5t40.5 -47.5l-37 -36q-23 26 -47 26q-22 0 -37 -23.5t-23 -56.5q47 -5 73 -12.5t40 -26t14 -55.5q0 -58 -55.5 -92t-152.5 -34l7 82q111 0 146 36z" />
    <glyph glyph-name="uni06C1" unicode="&#x6c1;" horiz-adv-x="482" 
d="M115 33q-46 38 -46 108q0 51 26 100.5t78 112.5l-44 30l64 99q239 -147 239 -360q0 -38 -23 -71q-14 -21 -22.5 -30t-18.5 -12q-44 -15 -135 -15q-72 0 -118 38zM185.5 148q16.5 -9 54.5 -9q66 0 99 7q-6 42 -25.5 80.5t-68.5 73.5q-29 -27 -52.5 -64.5t-23.5 -58.5
q0 -20 16.5 -29z" />
    <glyph glyph-name="uni06C2" unicode="&#x6c2;" horiz-adv-x="482" 
d="M115 33q-46 38 -46 108q0 51 26 100.5t78 112.5l-44 30l64 99q239 -147 239 -360q0 -38 -23 -71q-14 -21 -22.5 -30t-18.5 -12q-44 -15 -135 -15q-72 0 -118 38zM185.5 148q16.5 -9 54.5 -9q66 0 99 7q-6 42 -25.5 80.5t-68.5 73.5q-29 -27 -52.5 -64.5t-23.5 -58.5
q0 -20 16.5 -29zM111 610l75 21q-23 46 -23 81q0 36 26.5 56.5t73.5 20.5q28 0 51 -7v-62q-36 7 -67 7q-20 0 -31 -5q0 -15 8.5 -36t19.5 -39l120 34v-65l-253 -71v65z" />
    <glyph glyph-name="uni06C3" unicode="&#x6c3;" horiz-adv-x="482" 
d="M115 33q-46 38 -46 108q0 51 26 100.5t78 112.5l-44 30l64 99q239 -147 239 -360q0 -38 -23 -71q-14 -21 -22.5 -30t-18.5 -12q-44 -15 -135 -15q-72 0 -118 38zM185.5 148q16.5 -9 54.5 -9q66 0 99 7q-6 42 -25.5 80.5t-68.5 73.5q-29 -27 -52.5 -64.5t-23.5 -58.5
q0 -20 16.5 -29zM81 632l72 89l92 -73l59 73l95 -76l-72 -89l-92 73l-59 -73z" />
    <glyph glyph-name="uni06C6" unicode="&#x6c6;" horiz-adv-x="476" 
d="M301 7q-35 -7 -89 -7q-56 0 -81.5 8.5t-47.5 38.5q-15 21 -20 35.5t-5 38.5q0 66 19.5 127t60.5 99.5t103 38.5q57 0 97 -40t59.5 -104.5t19.5 -138.5q0 -124 -74.5 -225.5t-230.5 -164.5l-71 111q205 72 260 183zM233 119q54 0 87 8q0 70 -23.5 105t-64.5 35
q-36 0 -59 -37t-23 -101q32 -10 83 -10zM175.5 577.5q-20.5 42.5 -49.5 88.5l55 27q40 -66 60 -127q20 57 65 127l50 -36q-53 -80 -85 -170l-56 -7q-19 55 -39.5 97.5z" />
    <glyph glyph-name="uni06C7" unicode="&#x6c7;" horiz-adv-x="476" 
d="M301 7q-35 -7 -89 -7q-56 0 -81.5 8.5t-47.5 38.5q-15 21 -20 35.5t-5 38.5q0 66 19.5 127t60.5 99.5t103 38.5q57 0 97 -40t59.5 -104.5t19.5 -138.5q0 -124 -74.5 -225.5t-230.5 -164.5l-71 111q205 72 260 183zM233 119q54 0 87 8q0 70 -23.5 105t-64.5 35
q-36 0 -59 -37t-23 -101q32 -10 83 -10zM119 529l92 24q-8 2 -11.5 10t-3.5 18q0 15 9 42.5t29.5 49.5t51.5 22q38 0 62 -33t24 -79q0 -32 -15 -44.5t-51 -22.5l-187 -52v65zM282 574q23 0 38 5q0 59 -35 59q-15 0 -24 -15.5t-11 -43.5q13 -5 32 -5z" />
    <glyph glyph-name="uni06CC" unicode="&#x6cc;" horiz-adv-x="756" 
d="M129 -180q-60 51 -60 152q0 23 7.5 75t18.5 119q10 52 21 127l88 -19q-38 -228 -38 -281q0 -43 45.5 -61t111.5 -18q92 0 154.5 12.5t100.5 43.5q5 18 5 29q0 38 -35 43q-74 7 -110 14t-56.5 25.5t-20.5 54.5q0 79 30.5 160t80.5 134t104 53q41 0 76 -26t70 -83l-61 -66
q-46 46 -84 46q-43 0 -74 -47t-42 -118q80 -9 122.5 -21.5t67.5 -49t25 -109.5q0 -82 -48 -135.5t-128 -79t-177 -25.5q-134 0 -194 51z" />
    <glyph glyph-name="uni06CE" unicode="&#x6ce;" horiz-adv-x="756" 
d="M129 -180q-60 51 -60 152q0 23 7.5 75t18.5 119q10 52 21 127l88 -19q-38 -228 -38 -281q0 -43 45.5 -61t111.5 -18q92 0 154.5 12.5t100.5 43.5q5 18 5 29q0 38 -35 43q-74 7 -110 14t-56.5 25.5t-20.5 54.5q0 79 30.5 160t80.5 134t104 53q41 0 76 -26t70 -83l-61 -66
q-46 46 -84 46q-43 0 -74 -47t-42 -118q80 -9 122.5 -21.5t67.5 -49t25 -109.5q0 -82 -48 -135.5t-128 -79t-177 -25.5q-134 0 -194 51zM161.5 488.5q-20.5 42.5 -49.5 88.5l55 27q40 -66 60 -127q20 57 65 127l50 -36q-53 -80 -85 -170l-56 -7q-19 55 -39.5 97.5z" />
    <glyph glyph-name="uni06D2" unicode="&#x6d2;" horiz-adv-x="725" 
d="M141.5 39.5q-72.5 39.5 -72.5 118.5q0 58 38.5 134t92 130.5t94.5 54.5q40 0 75 -25t71 -83l-61 -67q-46 46 -84 46q-17 0 -45 -23.5t-51.5 -59t-30.5 -71.5q32 -32 78 -41t132 -9q55 0 119 3.5t134 8.5q11 0 35 2l-31 -144q-163 -14 -282 -14q-139 0 -211.5 39.5z" />
    <glyph glyph-name="uni06D3" unicode="&#x6d3;" horiz-adv-x="725" 
d="M141.5 39.5q-72.5 39.5 -72.5 118.5q0 58 38.5 134t92 130.5t94.5 54.5q40 0 75 -25t71 -83l-61 -67q-46 46 -84 46q-17 0 -45 -23.5t-51.5 -59t-30.5 -71.5q32 -32 78 -41t132 -9q55 0 119 3.5t134 8.5q11 0 35 2l-31 -144q-163 -14 -282 -14q-139 0 -211.5 39.5z
M165 619l75 21q-23 46 -23 81q0 36 26.5 56.5t73.5 20.5q28 0 51 -7v-62q-36 7 -67 7q-20 0 -31 -5q0 -15 8.5 -36t19.5 -39l120 34v-65l-253 -71v65z" />
    <glyph glyph-name="uni06D4" unicode="&#x6d4;" horiz-adv-x="457" 
d="M384 191l-29 -144h-282l29 144h282z" />
    <glyph glyph-name="uni06D5" unicode="&#x6d5;" horiz-adv-x="482" 
d="M115 33q-46 38 -46 108q0 51 26 100.5t78 112.5l-44 30l64 99q239 -147 239 -360q0 -38 -23 -71q-14 -21 -22.5 -30t-18.5 -12q-44 -15 -135 -15q-72 0 -118 38zM185.5 148q16.5 -9 54.5 -9q66 0 99 7q-6 42 -25.5 80.5t-68.5 73.5q-29 -27 -52.5 -64.5t-23.5 -58.5
q0 -20 16.5 -29z" />
    <glyph glyph-name="uni06F0" unicode="&#x6f0;" horiz-adv-x="506" 
d="M153.5 83.5q-44.5 25.5 -70 70t-25.5 99.5t25.5 99.5t70 70t99.5 25.5t99.5 -25.5t70 -70t25.5 -99.5t-25.5 -99.5t-70 -70t-99.5 -25.5t-99.5 25.5zM190 191.5q25 -24.5 63 -24.5t63 24.5t25 61.5t-25.5 62t-62.5 25t-62.5 -25t-25.5 -62t25 -61.5z" />
    <glyph glyph-name="uni06F1" unicode="&#x6f1;" horiz-adv-x="268" 
d="M209 0l-96 -8q0 180 -15.5 356.5t-47.5 308.5l111 23q48 -265 48 -680z" />
    <glyph glyph-name="uni06F2" unicode="&#x6f2;" horiz-adv-x="537" 
d="M245.5 327q-25.5 7 -46.5 20q10 -159 10 -347l-96 -8q0 180 -15.5 356.5t-47.5 308.5l111 23q13 -66 29 -164q5 -28 25 -40t67 -12q74 0 109 21l-21 178l106 17l10 -198q4 -81 -50.5 -121.5t-140.5 -40.5q-24 0 -49.5 7z" />
    <glyph glyph-name="uni06F3" unicode="&#x6f3;" horiz-adv-x="708" 
d="M199 344q10 -157 10 -344l-96 -8q0 180 -15.5 356.5t-47.5 308.5l111 23l5 -28q7 -43 24 -136q11 -52 73 -52q34 0 68 15l-7 176l100 8l4 -191q24 -8 53 -8q51 0 81 21l-22 178l107 17l10 -198q2 -49 -21.5 -86t-62 -56.5t-79.5 -19.5q-80 0 -109 34q-19 -19 -49.5 -26.5
t-60.5 -7.5q-44 0 -76 24z" />
    <glyph glyph-name="uni06F4" unicode="&#x6f4;" horiz-adv-x="646" 
d="M202 275q7 -119 7 -275l-96 -8q0 184 -16 328t-54 293l110 23q24 -111 36 -220q18 -12 38 -15.5t48 -2.5q-15 27 -21.5 57t-6.5 70q0 74 51.5 114.5t131.5 40.5q42 0 110 -18l-27 -114q-54 10 -94 10q-39 0 -73 -13q0 -80 31 -140q102 7 213 40l5 -133
q-125 -34 -181.5 -44.5t-124.5 -10.5q-49 0 -87 18z" />
    <glyph glyph-name="uni06F5" unicode="&#x6f5;" horiz-adv-x="629" 
d="M89 33.5q-42 38.5 -42 110.5q0 89 56.5 198t145.5 206q-11 11 -26 23l-22 19l80 99q147 -121 223.5 -262t76.5 -279q0 -52 -21.5 -86.5t-55.5 -50.5t-71 -16q-41 0 -68 12t-45 45q-21 -27 -54.5 -42t-71.5 -15q-63 0 -105 38.5zM175 151q16 -12 42 -12q36 0 60 18l-2 68
l86 5l2 -79q21 -12 54 -12q47 0 64 21q-2 92 -41 170.5t-117 152.5q-164 -189 -164 -295q0 -25 16 -37z" />
    <glyph glyph-name="uni06F6" unicode="&#x6f6;" horiz-adv-x="565" 
d="M233 291q-66 26 -99.5 78.5t-33.5 125.5q0 53 24 95t67.5 66t99.5 24q51 0 118 -25l-26 -104q-32 6 -51 8t-43 2q-28 0 -55.5 -9t-41.5 -26q0 -66 38.5 -101t139.5 -36l111 53l29 -118q-89 -38 -153.5 -83.5t-118 -105t-119.5 -153.5l-69 62q92 155 183 247z" />
    <glyph glyph-name="uni06F7" unicode="&#x6f7;" horiz-adv-x="612" 
d="M231.5 200.5q-23.5 101.5 -70.5 209.5t-114 201l89 69q57 -82 104 -191t64 -222q22 121 70 228t108 185l83 -77q-70 -93 -119 -201t-73.5 -206.5t-24.5 -168.5v-27l-93 -8v30q0 77 -23.5 178.5z" />
    <glyph glyph-name="uni06F8" unicode="&#x6f8;" horiz-adv-x="612" 
d="M380.5 471.5q23.5 -101.5 70.5 -209.5t114 -201l-89 -69q-57 82 -104 191t-64 222q-22 -121 -70 -228t-108 -185l-83 77q70 93 119 201t73.5 206.5t24.5 168.5v27l93 8v-30q0 -77 23.5 -178.5z" />
    <glyph glyph-name="uni06F9" unicode="&#x6f9;" horiz-adv-x="557" 
d="M360 231v19q-64 -16 -116 -16q-68 0 -104.5 10.5t-57.5 41.5q-24 35 -24 75q0 75 19 148t63 122t114 49q100 0 151.5 -82t51.5 -211q0 -200 28 -377l-107 -28q-18 149 -18 249zM248 378q61 0 112 12q0 86 -25 125t-81 39q-52 0 -78 -42t-26 -122q35 -12 98 -12z" />
    <glyph glyph-name="uni0756" unicode="&#x756;" horiz-adv-x="870" 
d="M228 11.5q-74 16.5 -116.5 60t-42.5 122.5q0 21 7.5 71t24.5 144l88 -18q-23 -135 -23 -171q0 -33 21.5 -50t72 -24t145.5 -7q198 0 297 29l-22 222l111 19q10 -148 10 -250q0 -43 -16.5 -71.5t-56.5 -47.5q-47 -21 -127.5 -33t-188.5 -12q-110 0 -184 16.5zM376.5 491.5
q-20.5 42.5 -49.5 88.5l55 27q40 -66 60 -127q20 57 65 127l50 -36q-53 -80 -85 -170l-56 -7q-19 55 -39.5 97.5z" />
    <glyph glyph-name="uni0769" unicode="&#x769;" horiz-adv-x="706" 
d="M129.5 -180.5q-60.5 50.5 -60.5 149.5q0 32 9.5 94.5t34.5 208.5l3 21l88 -19q-39 -234 -39 -281q0 -44 45.5 -61.5t112.5 -17.5q151 0 219 41l-40 375l110 23q29 -303 29 -424q0 -54 -50.5 -90t-124.5 -53t-143 -17q-133 0 -193.5 50.5zM254 463l76 93l100 -79l-76 -93z
M276.5 725.5q-20.5 42.5 -49.5 88.5l55 27q40 -66 60 -127q20 57 65 127l50 -36q-53 -80 -85 -170l-56 -7q-19 55 -39.5 97.5z" />
    <glyph glyph-name="uni08A0" unicode="&#x8a0;" horiz-adv-x="870" 
d="M228 11.5q-74 16.5 -116.5 60t-42.5 122.5q0 21 7.5 71t24.5 144l88 -18q-23 -135 -23 -171q0 -33 21.5 -50t72 -24t145.5 -7q198 0 297 29l-22 222l111 19q10 -148 10 -250q0 -43 -16.5 -71.5t-56.5 -47.5q-47 -21 -127.5 -33t-188.5 -12q-110 0 -184 16.5z
M346.5 -213.5q-20.5 42.5 -49.5 88.5l55 27q40 -66 60 -127q20 57 65 127l50 -36q-53 -80 -85 -170l-56 -7q-19 55 -39.5 97.5z" />
    <glyph glyph-name="uni200B" unicode="&#x200b;" horiz-adv-x="0" 
 />
    <glyph glyph-name="uni200C" unicode="&#x200c;" horiz-adv-x="0" 
d="M1 689h36v-706h-36v706z" />
    <glyph glyph-name="uni200D" unicode="&#x200d;" horiz-adv-x="0" 
d="M-17 621l-74 -75l-23 24l88 88l-77 78l25 24l77 -77l81 82l24 -25l-81 -81l93 -93l-24 -25l-73 74v-632h-36v638z" />
    <glyph glyph-name="uni200E" unicode="&#x200e;" horiz-adv-x="0" 
d="M-19 669h174l-70 67l22 23l110 -108l-110 -108l-22 23l70 68h-138v-651h-36v686z" />
    <glyph glyph-name="uni200F" unicode="&#x200f;" horiz-adv-x="0" 
d="M-19 634h-138l70 -68l-22 -23l-110 108l110 108l22 -23l-70 -67h174v-686h-36v651z" />
    <glyph glyph-name="endash" unicode="&#x2013;" horiz-adv-x="524" 
d="M46 227v86h434v-86h-434z" />
    <glyph glyph-name="emdash" unicode="&#x2014;" horiz-adv-x="875" 
d="M46 227v86h785v-86h-785z" />
    <glyph glyph-name="quoteleft" unicode="&#x2018;" horiz-adv-x="304" 
d="M85.5 443.5q-22.5 31.5 -22.5 91.5q0 141 136 211l31 -58q-46 -25 -68 -56t-22 -76q3 1 11 1q30 0 51 -19t21 -50q0 -35 -20.5 -55.5t-51.5 -20.5q-43 0 -65.5 31.5z" />
    <glyph glyph-name="quoteright" unicode="&#x2019;" horiz-adv-x="304" 
d="M143.5 536.5q21.5 30.5 21.5 75.5q-2 -1 -9 -1q-31 0 -51.5 18.5t-20.5 49.5q0 36 20 57t52 21q42 0 64.5 -32.5t22.5 -91.5q0 -141 -137 -211l-30 58q46 26 67.5 56.5z" />
    <glyph glyph-name="quotesinglbase" unicode="&#x201a;" horiz-adv-x="313" 
d="M135 -59.5q29 33.5 28 73.5q-3 -1 -9 -1q-35 0 -59 21.5t-24 57.5q0 35 24.5 57t61.5 22q45 0 70 -34.5t25 -96.5q0 -81 -44.5 -139t-127.5 -86l-28 71q54 21 83 54.5z" />
    <glyph glyph-name="quotedblleft" unicode="&#x201c;" horiz-adv-x="526" 
d="M88.5 444q-22.5 32 -22.5 91q0 140 137 211l30 -58q-46 -26 -67.5 -56.5t-21.5 -75.5q2 1 10 1q31 0 52 -19t21 -50q0 -35 -20.5 -55.5t-52.5 -20.5q-43 0 -65.5 32zM422 746l30 -58q-46 -26 -67.5 -56.5t-21.5 -75.5q2 1 10 1q30 0 51 -19t21 -50q0 -35 -20 -55.5
t-52 -20.5q-43 0 -65.5 32t-22.5 91q0 141 137 211z" />
    <glyph glyph-name="quotedblright" unicode="&#x201d;" horiz-adv-x="527" 
d="M143.5 536q21.5 31 21.5 76q-2 -1 -8 -1q-31 0 -52 18.5t-21 49.5q0 36 20 57t53 21q42 0 64.5 -32.5t22.5 -91.5q0 -140 -137 -211l-31 58q46 25 67.5 56zM362.5 536q21.5 31 21.5 76q-2 -1 -9 -1q-30 0 -51 18.5t-21 49.5q0 36 20 57t52 21q43 0 65.5 -32.5t22.5 -91.5
q0 -140 -137 -211l-31 58q46 25 67.5 56z" />
    <glyph glyph-name="quotedblbase" unicode="&#x201e;" horiz-adv-x="306" 
d="M135 -59.5q29 33.5 28 73.5q-3 -1 -9 -1q-35 0 -59 21.5t-24 57.5q0 35 24.5 57t61.5 22q45 0 70 -34.5t25 -96.5q0 -81 -44.5 -139t-127.5 -86l-28 71q54 21 83 54.5z" />
    <glyph glyph-name="dagger" unicode="&#x2020;" horiz-adv-x="533" 
d="M215 -84l8 592l-169 -8v107l169 -9l-8 185h106l-9 -185l170 9v-107l-170 8l9 -592h-106z" />
    <glyph glyph-name="daggerdbl" unicode="&#x2021;" horiz-adv-x="533" 
d="M215 -84l8 184l-169 -7v106l169 -11l-8 161l8 162l-169 -11v107l169 -9l-8 185h106l-9 -185l170 9v-107l-170 11l9 -162l-9 -161l170 11v-106l-170 7l9 -184h-106z" />
    <glyph glyph-name="bullet" unicode="&#x2022;" horiz-adv-x="359" 
d="M87 185q-39 41 -39 100q0 30 10.5 56t28.5 44q39 39 93 39q27 0 51.5 -10.5t42.5 -28.5q17 -18 27 -44t10 -56q0 -60 -37 -100q-18 -19 -42.5 -29t-51.5 -10q-56 0 -93 39z" />
    <glyph glyph-name="ellipsis" unicode="&#x2026;" horiz-adv-x="728" 
d="M515 13.5q-26 25.5 -26 63.5q0 37 26 62.5t63 25.5t62.5 -25.5t25.5 -62.5q0 -38 -25.5 -63.5t-62.5 -25.5t-63 25.5zM94 139.5q26 25.5 63 25.5t62 -25.5t25 -63.5q0 -37 -25.5 -62.5t-61.5 -25.5q-37 0 -63 25t-26 63t26 63.5zM304 139.5q26 25.5 63 25.5t62.5 -25.5
t25.5 -63.5q0 -37 -25.5 -62.5t-62.5 -25.5t-63 25t-26 63t26 63.5z" />
    <glyph glyph-name="perthousand" unicode="&#x2030;" horiz-adv-x="1316" 
d="M608 729h84l-390 -741h-83zM78 649.5q44 59.5 122 59.5t122.5 -60.5t44.5 -157.5t-44.5 -159t-122.5 -62t-122 61t-44 160t44 158.5zM141.5 382q19.5 -41 58.5 -41q40 0 58.5 42t18.5 108t-18.5 107t-58.5 41t-59 -41t-19 -107q0 -68 19.5 -109zM585 368.5
q44 59.5 122 59.5q79 0 123 -60.5t44 -157.5q0 -99 -44 -160.5t-123 -61.5q-78 0 -122 61.5t-44 160.5t44 158.5zM649 101q19 -41 58 -41q41 0 59.5 42t18.5 108t-19 106.5t-59 40.5q-39 0 -58 -41t-19 -106q0 -68 19 -109zM995.5 368.5q43.5 59.5 122.5 59.5
q78 0 122 -60.5t44 -157.5q0 -99 -44 -160.5t-122 -61.5q-79 0 -122.5 61.5t-43.5 160.5t43.5 158.5zM1059.5 101q19.5 -41 58.5 -41q40 0 58.5 42t18.5 108t-18.5 106.5t-58.5 40.5t-59 -40.5t-19 -106.5q0 -68 19.5 -109z" />
    <glyph glyph-name="guilsinglleft" unicode="&#x2039;" horiz-adv-x="308" 
d="M200 66l-148 162v95l148 161l49 -41l-124 -168l124 -169z" />
    <glyph glyph-name="guilsinglright" unicode="&#x203a;" horiz-adv-x="308" 
d="M110 66l-50 40l125 169l-125 168l50 41l147 -161v-95z" />
    <glyph glyph-name="fraction" unicode="&#x2044;" horiz-adv-x="111" 
d="M-183 -13l391 744h86l-391 -744h-86z" />
    <glyph glyph-name="Euro" unicode="&#x20ac;" horiz-adv-x="565" 
d="M186.5 57.5q-70.5 69.5 -91.5 188.5h-70v62l62 4q-1 10 -1 34q0 25 2 33h-63v62l70 6q22 123 96 193.5t185 70.5q47 0 92 -22t79 -62l-74 -72q-48 54 -102 54q-57 0 -94 -42t-51 -120h253v-68h-259q-2 -8 -2 -30q0 -8 0.5 -17.5t-0.5 -17.5h216v-68h-205q14 -76 50 -116
t91 -40q34 0 60 16t53 50l73 -68q-80 -100 -193 -100q-106 0 -176.5 69.5z" />
    <glyph glyph-name="trademark" unicode="&#x2122;" horiz-adv-x="729" 
d="M107 390v262h-101v77h288v-77h-102v-262h-85zM347 729h100l46 -114l27 -79h7l28 79l44 114h102v-339h-79v122l10 123h-8l-69 -193h-63l-69 193h-8l11 -123v-122h-79v339z" />
    <glyph glyph-name="arrowleft" unicode="&#x2190;" horiz-adv-x="676" 
d="M26 272v4l302 291l61 -71l-188 -170h431v-104h-431l188 -169l-61 -71z" />
    <glyph glyph-name="arrowup" unicode="&#x2191;" horiz-adv-x="675" 
d="M286 -26v430l-169 -188l-71 62l290 301h4l291 -301l-71 -62l-170 187v-429h-104z" />
    <glyph glyph-name="arrowright" unicode="&#x2192;" horiz-adv-x="674" 
d="M41 314h430l-188 169l62 71l301 -290v-4l-301 -292l-62 72l188 169h-430v105z" />
    <glyph glyph-name="arrowdown" unicode="&#x2193;" horiz-adv-x="675" 
d="M390 132l170 188l71 -62l-291 -301h-4l-290 301l71 62l169 -188v430h104v-430z" />
    <glyph glyph-name="partialdiff" unicode="&#x2202;" horiz-adv-x="609" 
d="M153 17.5q-47 27.5 -74 76t-27 108.5q0 72 28.5 127.5t81.5 86.5t123 31q42 0 80.5 -18.5t68.5 -53.5q2 6 2.5 13t0.5 20q0 108 -33 162.5t-103 54.5q-65 0 -116 -51l-55 79q83 75 186 75q121 0 182 -83.5t61 -233.5q0 -117 -35 -212.5t-103 -152t-163 -56.5
q-58 0 -105 27.5zM199.5 124.5q29.5 -31.5 72.5 -31.5q58 0 98.5 46.5t56.5 138.5q-53 73 -127 73q-60 0 -95 -36.5t-35 -104.5q0 -54 29.5 -85.5z" />
    <glyph glyph-name="product" unicode="&#x220f;" horiz-adv-x="759" 
d="M93 -126v825h575v-825h-129v713h-318v-713h-128z" />
    <glyph glyph-name="summation" unicode="&#x2211;" horiz-adv-x="573" 
d="M30 -126v78l241 334l-229 337v76h493v-108h-336v-8l203 -296l-211 -296v-8h373v-109h-534z" />
    <glyph glyph-name="minus" unicode="&#x2212;" horiz-adv-x="567" 
d="M50 195v93h467v-93h-467z" />
    <glyph glyph-name="radical" unicode="&#x221a;" horiz-adv-x="631" 
d="M308 -89l-165 459l-81 -34l-22 61l168 69l114 -341l14 -52q6 -24 9 -33h8l9 53l6 32l182 775h86l-237 -989h-91z" />
    <glyph glyph-name="infinity" unicode="&#x221e;" horiz-adv-x="878" 
d="M513 168.5q-51 31.5 -104 99.5h-5q-86 -105 -184 -105q-48 0 -88.5 25.5t-64.5 68t-24 91.5q0 97 54 153.5t142 56.5q57 0 99.5 -28t81.5 -79h6q47 62 98 93t113 31q57 0 102.5 -27t71 -74.5t25.5 -104.5q0 -68 -25.5 -120.5t-72 -82t-107.5 -29.5q-67 0 -118 31.5z
M165.5 285q25.5 -27 66.5 -27q37 0 70 23t60 62q-31 44 -65 70t-69 26q-42 0 -65 -24.5t-23 -63.5t25.5 -66zM549.5 286.5q37.5 -30.5 81.5 -30.5q49 0 78.5 32t29.5 78q0 52 -31 82.5t-84 30.5q-85 0 -157 -102q45 -60 82.5 -90.5z" />
    <glyph glyph-name="integral" unicode="&#x222b;" horiz-adv-x="401" 
d="M54 -159l11 92q17 -3 37 -3q46 0 60 37.5t14 123.5q0 97 -22 255q-10 82 -15.5 142.5t-5.5 120.5q0 130 40.5 195t142.5 65q31 0 55 -6l-14 -93q-12 4 -36 4q-44 0 -58.5 -39t-14.5 -123q0 -48 5 -98t15 -131l3 -26l4 -42q8 -75 12 -123t4 -97q0 -131 -40 -196t-142 -65
q-32 0 -55 7z" />
    <glyph glyph-name="approxequal" unicode="&#x2248;" horiz-adv-x="562" 
d="M324.5 396.5q-24.5 11.5 -52.5 31.5q-32 24 -49 34t-37 10q-46 0 -81 -64l-69 52q67 105 152 105q30 0 54 -11t53 -31q6 -4 23.5 -17.5t32.5 -20.5t29 -7q45 0 82 65l68 -53q-66 -105 -152 -105q-29 0 -53.5 11.5zM188 326q30 0 54 -11t53 -31q4 -3 22 -17t33.5 -20.5
t29.5 -6.5q45 0 82 64l68 -53q-65 -104 -152 -104q-30 0 -54.5 11t-51.5 31q-32 24 -49 34t-37 10q-46 0 -81 -64l-69 52q66 105 152 105z" />
    <glyph glyph-name="notequal" unicode="&#x2260;" horiz-adv-x="496" 
d="M393 374h53v-92h-121l-71 -95h192v-93h-261l-45 -61h-80l45 61h-55v93h123l69 95h-192v92h260l42 58h84z" />
    <glyph glyph-name="lessequal" unicode="&#x2264;" horiz-adv-x="564" 
d="M528 171l-490 159v111l490 160v-109l-204 -61l-152 -41v-7l152 -42l204 -62v-108zM38 95h490v-94h-490v94z" />
    <glyph glyph-name="greaterequal" unicode="&#x2265;" horiz-adv-x="564" 
d="M38 171v108l204 62l153 42v7l-153 41l-204 61v109l490 -160v-111zM38 95h490v-94h-490v94z" />
    <glyph glyph-name="uniFBB2" unicode="&#xfbb2;" horiz-adv-x="0" 
d="M-88 79l76 93l100 -79l-76 -93z" />
    <glyph glyph-name="uniFBB3" unicode="&#xfbb3;" horiz-adv-x="0" 
d="M-88 -78l76 93l100 -79l-76 -93z" />
    <glyph glyph-name="uniFBB4" unicode="&#xfbb4;" horiz-adv-x="0" 
d="M-159 76l72 89l92 -73l59 73l95 -76l-72 -89l-92 73l-59 -73z" />
    <glyph glyph-name="uniFBB5" unicode="&#xfbb5;" horiz-adv-x="0" 
d="M-159 -89l72 89l92 -73l59 73l95 -76l-72 -89l-92 73l-59 -73z" />
    <glyph glyph-name="uniFBB6" unicode="&#xfbb6;" horiz-adv-x="0" 
d="M-146 69l66 81l84 -67l55 67l87 -69l-66 -81l-84 67l-55 -67zM-22 297l87 -68l-66 -81l-86 68z" />
    <glyph glyph-name="uniFBB9" unicode="&#xfbb9;" horiz-adv-x="0" 
d="M-146 -81l66 81l84 -67l55 67l87 -69l-66 -81l-84 67l-55 -67zM-3 -140l87 -68l-66 -81l-87 69z" />
    <glyph glyph-name="uniFD3E" unicode="&#xfd3e;" horiz-adv-x="379" 
d="M118 -2q-27 107 -27 226q0 118 27 225.5t92 218.5l80 -65q-47 -72 -73 -175t-26 -204q0 -103 25.5 -205.5t73.5 -174.5l-80 -65q-65 112 -92 219z" />
    <glyph glyph-name="uniFD3F" unicode="&#xfd3f;" horiz-adv-x="379" 
d="M163.5 19q25.5 103 25.5 205t-25.5 204.5t-72.5 174.5l79 65q65 -111 92 -218.5t27 -225.5q0 -119 -27 -226t-92 -219l-79 65q47 72 72.5 175z" />
    <glyph glyph-name="uni0627.short" horiz-adv-x="245" 
d="M174 515l3 -515l-96 -12l-22 508z" />
    <glyph glyph-name="uni0627.fina.short" horiz-adv-x="310" 
d="M169 21q-43 21 -66 71t-29 139l-15 265l115 19l2 -283q1 -43 24.5 -65.5t67.5 -22.5h42q3 0 6 -10.5t3 -24.5v-73q0 -14 -3 -25t-6 -11h-27q-71 0 -114 21z" />
    <glyph glyph-name="uni0769.fina" horiz-adv-x="789" 
d="M636 58q5 -85 5 -129q0 -54 -50.5 -90t-124.5 -53t-143 -17q-133 0 -193.5 50.5t-60.5 149.5q0 32 9.5 94.5t34.5 208.5l3 21l88 -19q-39 -234 -39 -281q0 -44 45.5 -61.5t112.5 -17.5q151 0 219 41l-40 375l110 23l15 -132q4 -37 19.5 -53t42 -20t82.5 -4h18
q3 0 5.5 -10.5t2.5 -24.5v-73q0 -15 -2.5 -25.5t-5.5 -10.5h-16q-97 0 -137 58zM254 463l76 93l100 -79l-76 -93zM276.5 725.5q-20.5 42.5 -49.5 88.5l55 27q40 -66 60 -127q20 57 65 127l50 -36q-53 -80 -85 -170l-56 -7q-19 55 -39.5 97.5z" />
    <glyph glyph-name="uni06440627.fina.alt" horiz-adv-x="597" 
d="M450 17q-38 17 -55 56q-52 -50 -144.5 -77t-193.5 -35l-19 144q98 10 187 32.5t124 47.5l-29 506l115 19l11 -489q1 -32 11.5 -48.5t34.5 -22.5t71 -6h34q3 0 5.5 -10.5t2.5 -24.5v-73q0 -15 -2.5 -25.5t-5.5 -10.5h-41q-68 0 -106 17zM194 505q40 -135 40 -316l-92 -20
q0 64 -9.5 140t-33.5 150z" />
    <glyph glyph-name="uni06440627.alt" horiz-adv-x="519" 
d="M225 137.5q89 22.5 124 47.5l-29 506l115 19l11 -521q2 -107 -116 -161.5t-273 -66.5l-19 144q98 10 187 32.5zM194 505q40 -135 40 -316l-92 -20q0 64 -9.5 140t-33.5 150z" />
    <glyph glyph-name="uni06280698.fina" horiz-adv-x="755" 
d="M28 519l66 81l84 -67l55 67l86 -69l-66 -81l-84 67l-55 -67zM88 -75.5q57 49.5 78 101.5l-38 297l114 23l5 -45q3 -25 17 -38t42.5 -18t80.5 -5q83 0 134 23l-4 92l103 12l1 -129q1 -40 13.5 -59.5t40 -27t80.5 -7.5q4 0 6.5 -10.5t2.5 -24.5v-73q0 -15 -2.5 -25.5
t-6.5 -10.5q-102 0 -152 31t-68 111q-59 -46 -148 -46q-85 0 -125 38q3 -43 3 -78q0 -102 -65.5 -187t-210.5 -156l-70 111q112 51 169 100.5zM152 747l87 -68l-66 -81l-87 68zM428 -76l100 -79l-76 -93l-100 79z" />
    <glyph glyph-name="uni067E0631.fina" horiz-adv-x="752" 
d="M259 134q3 -43 3 -78q0 -102 -65.5 -187t-210.5 -156l-70 111q112 51 169 100.5t78 101.5l-38 297l114 23l5 -45q3 -25 17 -38t42.5 -18t80.5 -5q83 0 134 23l-4 92l103 12l1 -129q1 -40 13.5 -59.5t40 -27t80.5 -7.5q4 0 6.5 -10.5t2.5 -24.5v-73q0 -15 -2.5 -25.5
t-6.5 -10.5q-102 0 -152 31t-68 111q-59 -46 -148 -46q-85 0 -125 38zM288 -172l66 81l84 -67l55 67l87 -69l-66 -81l-84 67l-55 -67zM431 -231l87 -68l-66 -81l-87 69z" />
    <glyph glyph-name="uni067E0632.fina" horiz-adv-x="752" 
d="M80 529l76 93l100 -79l-76 -93zM85 -75.5q57 49.5 78 101.5l-38 297l114 23l5 -45q3 -25 17 -38t42.5 -18t80.5 -5q83 0 134 23l-4 92l103 12l1 -129q1 -40 13.5 -59.5t40 -27t80.5 -7.5q4 0 6.5 -10.5t2.5 -24.5v-73q0 -15 -2.5 -25.5t-6.5 -10.5q-102 0 -152 31
t-68 111q-59 -46 -148 -46q-85 0 -125 38q3 -43 3 -78q0 -102 -65.5 -187t-210.5 -156l-70 111q112 51 169 100.5zM355 -92l84 -66l55 66l86 -68l-66 -81l-84 67l-55 -67l-87 69zM431 -231l87 -68l-66 -81l-87 68z" />
    <glyph glyph-name="uni067E0698.fina" horiz-adv-x="752" 
d="M288 -172l67 80l84 -66l55 66l86 -68l-66 -81l-84 67l-55 -67zM85 -75.5q57 49.5 78 101.5l-38 297l114 23l5 -45q3 -25 17 -38t42.5 -18t80.5 -5q83 0 134 23l-4 92l103 12l1 -129q1 -40 13.5 -59.5t40 -27t80.5 -7.5q4 0 6.5 -10.5t2.5 -24.5v-73q0 -15 -2.5 -25.5
t-6.5 -10.5q-102 0 -152 31t-68 111q-59 -46 -148 -46q-85 0 -125 38q3 -43 3 -78q0 -102 -65.5 -187t-210.5 -156l-70 111q112 51 169 100.5zM88 600l84 -67l55 67l87 -69l-67 -81l-84 67l-55 -67l-86 69zM146 747l87 -68l-66 -81l-86 68zM431 -231l87 -68l-66 -81l-87 68z
" />
    <glyph glyph-name="uni067E0646.fina" horiz-adv-x="1126" 
d="M974 31q-50 31 -68 111q-59 -46 -148 -46t-127 41q10 -140 10 -208q0 -54 -50.5 -90t-124.5 -53t-143 -17q-133 0 -193.5 50.5t-60.5 149.5q0 32 9.5 94.5t34.5 208.5l3 21l88 -19q-39 -234 -39 -281q0 -44 45.5 -61.5t112.5 -17.5q151 0 219 41l-40 375l110 23l1 -9v2
l5 -45q3 -25 17 -38t42.5 -18t80.5 -5q83 0 134 23l-4 92l103 12l1 -129q1 -40 13.5 -59.5t40 -27t80.5 -7.5q4 0 6.5 -10.5t2.5 -24.5v-73q0 -15 -2.5 -25.5t-6.5 -10.5q-102 0 -152 31zM330 556l100 -79l-76 -93l-100 79zM732 -84l84 -67l55 67l86 -69l-66 -81l-84 67
l-55 -67l-86 69zM808 -224l87 -68l-66 -81l-86 69z" />
    <glyph glyph-name="uni067E0649.fina" horiz-adv-x="961" 
d="M129 -206q-60 51 -60 152q0 22 7.5 73t18.5 117l21 131l88 -19q-38 -228 -38 -282q0 -43 45.5 -61t111.5 -18q92 0 154.5 12.5t100.5 43.5q5 17 5 30q0 37 -35 42q-74 7 -110 14t-56.5 25.5t-20.5 54.5q0 72 40 141.5t99.5 114t114.5 44.5q53 0 86 -18.5t51 -45t40 -71.5
q22 -44 39.5 -69.5t49 -43t80.5 -17.5q3 0 5.5 -10.5t2.5 -24.5v-73q0 -15 -2.5 -25.5t-5.5 -10.5q-73 0 -118.5 25t-69 59t-49.5 89q-17 38 -29.5 59t-31.5 34.5t-47 13.5q-30 0 -62.5 -16.5t-57.5 -44t-35 -57.5q80 -8 122.5 -20.5t67.5 -49t25 -110.5q0 -82 -48 -135.5
t-128 -78.5t-177 -25q-134 0 -194 51zM720 -179l66 81l84 -67l55 67l87 -69l-66 -81l-84 67l-55 -67zM863 -238l87 -68l-66 -81l-87 69z" />
    <glyph glyph-name="uni062A0632.fina" horiz-adv-x="755" 
d="M83 529l76 93l100 -79l-76 -93zM88 -75.5q57 49.5 78 101.5l-38 297l114 23l5 -45q3 -25 17 -38t42.5 -18t80.5 -5q83 0 134 23l-4 92l103 12l1 -129q1 -40 13.5 -59.5t40 -27t80.5 -7.5q4 0 6.5 -10.5t2.5 -24.5v-73q0 -15 -2.5 -25.5t-6.5 -10.5q-102 0 -152 31
t-68 111q-59 -46 -148 -46q-85 0 -125 38q3 -43 3 -78q0 -102 -65.5 -187t-210.5 -156l-70 111q112 51 169 100.5zM476 629l91 -73l60 73l95 -76l-73 -89l-91 73l-60 -73l-95 76z" />
    <glyph glyph-name="uni062A0698.fina" horiz-adv-x="755" 
d="M262 134q3 -43 3 -78q0 -102 -65.5 -187t-210.5 -156l-70 111q112 51 169 100.5t78 101.5l-38 297l114 23l5 -45q3 -25 17 -38t42.5 -18t80.5 -5q83 0 134 23l-4 92l103 12l1 -129q1 -40 13.5 -59.5t40 -27t80.5 -7.5q4 0 6.5 -10.5t2.5 -24.5v-73q0 -15 -2.5 -25.5
t-6.5 -10.5q-102 0 -152 31t-68 111q-59 -46 -148 -46q-85 0 -125 38zM91 600l84 -67l55 67l86 -69l-66 -81l-84 67l-55 -67l-86 69zM149 747l87 -68l-66 -81l-87 68zM476 629l91 -73l60 73l95 -76l-73 -89l-91 73l-60 -73l-95 76z" />
    <glyph glyph-name="uni062A0646.fina" horiz-adv-x="1126" 
d="M974 31q-50 31 -68 111q-59 -46 -148 -46t-127 41q10 -140 10 -208q0 -54 -50.5 -90t-124.5 -53t-143 -17q-133 0 -193.5 50.5t-60.5 149.5q0 32 9.5 94.5t34.5 208.5l3 21l88 -19q-39 -234 -39 -281q0 -44 45.5 -61.5t112.5 -17.5q151 0 219 41l-40 375l110 23l1 -9v2
l5 -45q3 -25 17 -38t42.5 -18t80.5 -5q83 0 134 23l-4 92l103 12l1 -129q1 -40 13.5 -59.5t40 -27t80.5 -7.5q4 0 6.5 -10.5t2.5 -24.5v-73q0 -15 -2.5 -25.5t-6.5 -10.5q-102 0 -152 31zM330 556l100 -79l-76 -93l-100 79zM843 650l91 -73l60 73l95 -76l-73 -89l-91 73
l-60 -73l-95 76z" />
    <glyph glyph-name="uni062A0649.fina" horiz-adv-x="961" 
d="M129 -206q-60 51 -60 152q0 22 7.5 73t18.5 117l21 131l88 -19q-38 -228 -38 -282q0 -43 45.5 -61t111.5 -18q92 0 154.5 12.5t100.5 43.5q5 17 5 30q0 37 -35 42q-74 7 -110 14t-56.5 25.5t-20.5 54.5q0 72 40 141.5t99.5 114t114.5 44.5q53 0 86 -18.5t51 -45t40 -71.5
q22 -44 39.5 -69.5t49 -43t80.5 -17.5q3 0 5.5 -10.5t2.5 -24.5v-73q0 -15 -2.5 -25.5t-5.5 -10.5q-73 0 -118.5 25t-69 59t-49.5 89q-17 38 -29.5 59t-31.5 34.5t-47 13.5q-30 0 -62.5 -16.5t-57.5 -44t-35 -57.5q80 -8 122.5 -20.5t67.5 -49t25 -110.5q0 -82 -48 -135.5
t-128 -78.5t-177 -25q-134 0 -194 51zM456 602l72 89l92 -73l59 73l95 -76l-72 -89l-92 73l-59 -73z" />
    <glyph glyph-name="uni062B0632.fina" horiz-adv-x="755" 
d="M83 529l76 93l100 -79l-76 -93zM88 -75.5q57 49.5 78 101.5l-38 297l114 23l5 -45q3 -25 17 -38t42.5 -18t80.5 -5q83 0 134 23l-4 92l103 12l1 -129q1 -40 13.5 -59.5t40 -27t80.5 -7.5q4 0 6.5 -10.5t2.5 -24.5v-73q0 -15 -2.5 -25.5t-6.5 -10.5q-102 0 -152 31
t-68 111q-59 -46 -148 -46q-85 0 -125 38q3 -43 3 -78q0 -102 -65.5 -187t-210.5 -156l-70 111q112 51 169 100.5zM483 614l84 -67l55 67l86 -69l-66 -81l-84 67l-55 -67l-86 69zM541 761l87 -68l-66 -81l-87 68z" />
    <glyph glyph-name="uni062B0698.fina" horiz-adv-x="755" 
d="M262 134q3 -43 3 -78q0 -102 -65.5 -187t-210.5 -156l-70 111q112 51 169 100.5t78 101.5l-38 297l114 23l5 -45q3 -25 17 -38t42.5 -18t80.5 -5q83 0 134 23l-4 92l103 12l1 -129q1 -40 13.5 -59.5t40 -27t80.5 -7.5q4 0 6.5 -10.5t2.5 -24.5v-73q0 -15 -2.5 -25.5
t-6.5 -10.5q-102 0 -152 31t-68 111q-59 -46 -148 -46q-85 0 -125 38zM91 600l84 -67l55 67l86 -69l-66 -81l-84 67l-55 -67l-86 69zM149 747l87 -68l-66 -81l-87 68zM483 614l84 -67l55 67l86 -69l-66 -81l-84 67l-55 -67l-86 69zM541 761l87 -68l-66 -81l-87 68z" />
    <glyph glyph-name="uni062B0646.fina" horiz-adv-x="1126" 
d="M974 31q-50 31 -68 111q-59 -46 -148 -46t-127 41q10 -140 10 -208q0 -54 -50.5 -90t-124.5 -53t-143 -17q-133 0 -193.5 50.5t-60.5 149.5q0 32 9.5 94.5t34.5 208.5l3 21l88 -19q-39 -234 -39 -281q0 -44 45.5 -61.5t112.5 -17.5q151 0 219 41l-40 375l110 23l1 -9v2
l5 -45q3 -25 17 -38t42.5 -18t80.5 -5q83 0 134 23l-4 92l103 12l1 -129q1 -40 13.5 -59.5t40 -27t80.5 -7.5q4 0 6.5 -10.5t2.5 -24.5v-73q0 -15 -2.5 -25.5t-6.5 -10.5q-102 0 -152 31zM330 556l100 -79l-76 -93l-100 79zM850 614l84 -67l55 67l86 -69l-66 -81l-84 67
l-55 -67l-86 69zM908 761l87 -68l-67 -81l-86 68z" />
    <glyph glyph-name="uni06B50627.fina.alt" horiz-adv-x="597" 
d="M450 17q-38 17 -55 56q-52 -50 -144.5 -77t-193.5 -35l-19 144q98 10 187 32.5t124 47.5l-29 506l115 19l11 -489q1 -32 11.5 -48.5t34.5 -22.5t71 -6h34q3 0 5.5 -10.5t2.5 -24.5v-73q0 -15 -2.5 -25.5t-5.5 -10.5h-41q-68 0 -106 17zM105 690q79 -118 104 -245t25 -256
l-92 -20q0 107 -25 227t-97 221zM316.5 876.5q-20.5 42.5 -49.5 88.5l55 27q40 -66 60 -127q20 57 65 127l50 -36q-53 -80 -85 -170l-56 -7q-19 55 -39.5 97.5z" />
    <glyph glyph-name="uni06B50627.alt" horiz-adv-x="519" 
d="M225 137.5q89 22.5 124 47.5l-29 506l115 19l11 -521q2 -107 -116 -161.5t-273 -66.5l-19 144q98 10 187 32.5zM105 690q79 -118 104 -245t25 -256l-92 -20q0 107 -25 227t-97 221zM316.5 872.5q-20.5 42.5 -49.5 88.5l55 27q40 -66 60 -127q20 57 65 127l50 -36
q-53 -80 -85 -170l-56 -7q-19 55 -39.5 97.5z" />
    <glyph glyph-name="uni06460632.fina" horiz-adv-x="755" 
d="M83 529l76 93l100 -79l-76 -93zM88 -75.5q57 49.5 78 101.5l-38 297l114 23l5 -45q3 -25 17 -38t42.5 -18t80.5 -5q83 0 134 23l-4 92l103 12l1 -129q1 -40 13.5 -59.5t40 -27t80.5 -7.5q4 0 6.5 -10.5t2.5 -24.5v-73q0 -15 -2.5 -25.5t-6.5 -10.5q-102 0 -152 31
t-68 111q-59 -46 -148 -46q-85 0 -125 38q3 -43 3 -78q0 -102 -65.5 -187t-210.5 -156l-70 111q112 51 169 100.5zM551 636l100 -79l-77 -93l-99 79z" />
    <glyph glyph-name="uni06460698.fina" horiz-adv-x="755" 
d="M262 134q3 -43 3 -78q0 -102 -65.5 -187t-210.5 -156l-70 111q112 51 169 100.5t78 101.5l-38 297l114 23l5 -45q3 -25 17 -38t42.5 -18t80.5 -5q83 0 134 23l-4 92l103 12l1 -129q1 -40 13.5 -59.5t40 -27t80.5 -7.5q4 0 6.5 -10.5t2.5 -24.5v-73q0 -15 -2.5 -25.5
t-6.5 -10.5q-102 0 -152 31t-68 111q-59 -46 -148 -46q-85 0 -125 38zM91 600l84 -67l55 67l86 -69l-66 -81l-84 67l-55 -67l-86 69zM149 747l87 -68l-66 -81l-87 68zM551 636l100 -79l-77 -93l-99 79z" />
    <glyph glyph-name="uni06460646.fina" horiz-adv-x="1126" 
d="M974 31q-50 31 -68 111q-59 -46 -148 -46t-127 41q10 -140 10 -208q0 -54 -50.5 -90t-124.5 -53t-143 -17q-133 0 -193.5 50.5t-60.5 149.5q0 32 9.5 94.5t34.5 208.5l3 21l88 -19q-39 -234 -39 -281q0 -44 45.5 -61.5t112.5 -17.5q151 0 219 41l-40 375l110 23l1 -9v2
l5 -45q3 -25 17 -38t42.5 -18t80.5 -5q83 0 134 23l-4 92l103 12l1 -129q1 -40 13.5 -59.5t40 -27t80.5 -7.5q4 0 6.5 -10.5t2.5 -24.5v-73q0 -15 -2.5 -25.5t-6.5 -10.5q-102 0 -152 31zM330 556l100 -79l-76 -93l-100 79zM918 636l99 -79l-76 -93l-100 79z" />
    <glyph glyph-name="uni06460649.fina" horiz-adv-x="961" 
d="M129 -206q-60 51 -60 152q0 22 7.5 73t18.5 117l21 131l88 -19q-38 -228 -38 -282q0 -43 45.5 -61t111.5 -18q92 0 154.5 12.5t100.5 43.5q5 17 5 30q0 37 -35 42q-74 7 -110 14t-56.5 25.5t-20.5 54.5q0 72 40 141.5t99.5 114t114.5 44.5q53 0 86 -18.5t51 -45t40 -71.5
q22 -44 39.5 -69.5t49 -43t80.5 -17.5q3 0 5.5 -10.5t2.5 -24.5v-73q0 -15 -2.5 -25.5t-5.5 -10.5q-73 0 -118.5 25t-69 59t-49.5 89q-17 38 -29.5 59t-31.5 34.5t-47 13.5q-30 0 -62.5 -16.5t-57.5 -44t-35 -57.5q80 -8 122.5 -20.5t67.5 -49t25 -110.5q0 -82 -48 -135.5
t-128 -78.5t-177 -25q-134 0 -194 51zM527 605l76 93l100 -79l-76 -93z" />
    <glyph glyph-name="uni064A0632.fina" horiz-adv-x="755" 
d="M83 529l76 93l100 -79l-76 -93zM88 -75.5q57 49.5 78 101.5l-38 297l114 23l5 -45q3 -25 17 -38t42.5 -18t80.5 -5q83 0 134 23l-4 92l103 12l1 -129q1 -40 13.5 -59.5t40 -27t80.5 -7.5q4 0 6.5 -10.5t2.5 -24.5v-73q0 -15 -2.5 -25.5t-6.5 -10.5q-102 0 -152 31
t-68 111q-59 -46 -148 -46q-85 0 -125 38q3 -43 3 -78q0 -102 -65.5 -187t-210.5 -156l-70 111q112 51 169 100.5zM347 -92l92 -73l60 73l94 -75l-72 -89l-92 73l-59 -73l-95 76z" />
    <glyph glyph-name="uni064A0646.fina" horiz-adv-x="1126" 
d="M974 31q-50 31 -68 111q-59 -46 -148 -46t-127 41q10 -140 10 -208q0 -54 -50.5 -90t-124.5 -53t-143 -17q-133 0 -193.5 50.5t-60.5 149.5q0 32 9.5 94.5t34.5 208.5l3 21l88 -19q-39 -234 -39 -281q0 -44 45.5 -61.5t112.5 -17.5q151 0 219 41l-40 375l110 23l1 -9v2
l5 -45q3 -25 17 -38t42.5 -18t80.5 -5q83 0 134 23l-4 92l103 12l1 -129q1 -40 13.5 -59.5t40 -27t80.5 -7.5q4 0 6.5 -10.5t2.5 -24.5v-73q0 -15 -2.5 -25.5t-6.5 -10.5q-102 0 -152 31zM330 556l100 -79l-76 -93l-100 79zM725 -84l91 -73l60 73l95 -76l-73 -89l-91 73
l-60 -73l-95 76z" />
    <glyph glyph-name="uni064A0698.fina" horiz-adv-x="755" 
d="M262 134q3 -43 3 -78q0 -102 -65.5 -187t-210.5 -156l-70 111q112 51 169 100.5t78 101.5l-38 297l114 23l5 -45q3 -25 17 -38t42.5 -18t80.5 -5q83 0 134 23l-4 92l103 12l1 -129q1 -40 13.5 -59.5t40 -27t80.5 -7.5q4 0 6.5 -10.5t2.5 -24.5v-73q0 -15 -2.5 -25.5
t-6.5 -10.5q-102 0 -152 31t-68 111q-59 -46 -148 -46q-85 0 -125 38zM91 600l84 -67l55 67l86 -69l-66 -81l-84 67l-55 -67l-86 69zM149 747l87 -68l-66 -81l-87 68zM347 -92l92 -73l60 73l94 -75l-72 -89l-92 73l-59 -73l-95 76z" />
    <glyph glyph-name="uni06260632.fina" horiz-adv-x="755" 
d="M83 529l76 93l100 -79l-76 -93zM88 -75.5q57 49.5 78 101.5l-38 297l114 23l5 -45q3 -25 17 -38t42.5 -18t80.5 -5q83 0 134 23l-4 92l103 12l1 -129q1 -40 13.5 -59.5t40 -27t80.5 -7.5q4 0 6.5 -10.5t2.5 -24.5v-73q0 -15 -2.5 -25.5t-6.5 -10.5q-102 0 -152 31
t-68 111q-59 -46 -148 -46q-85 0 -125 38q3 -43 3 -78q0 -102 -65.5 -187t-210.5 -156l-70 111q112 51 169 100.5zM433 518l76 21q-23 48 -23 82q0 36 26.5 56.5t73.5 20.5q28 0 51 -7v-62q-36 7 -67 7q-20 0 -31 -5q0 -15 8.5 -36t20.5 -39l118 33v-65l-253 -71v65z" />
    <glyph glyph-name="uni06260646.fina" horiz-adv-x="1126" 
d="M974 31q-50 31 -68 111q-59 -46 -148 -46t-127 41q10 -140 10 -208q0 -54 -50.5 -90t-124.5 -53t-143 -17q-133 0 -193.5 50.5t-60.5 149.5q0 32 9.5 94.5t34.5 208.5l3 21l88 -19q-39 -234 -39 -281q0 -44 45.5 -61.5t112.5 -17.5q151 0 219 41l-40 375l110 23l1 -9v2
l5 -45q3 -25 17 -38t42.5 -18t80.5 -5q83 0 134 23l-4 92l103 12l1 -129q1 -40 13.5 -59.5t40 -27t80.5 -7.5q4 0 6.5 -10.5t2.5 -24.5v-73q0 -15 -2.5 -25.5t-6.5 -10.5q-102 0 -152 31zM330 556l100 -79l-76 -93l-100 79zM800 518l75 21q-23 48 -23 82q0 36 26.5 56.5
t73.5 20.5q28 0 51 -7v-62q-36 7 -67 7q-20 0 -31 -5q0 -15 8.5 -36t20.5 -39l119 33v-65l-253 -71v65z" />
    <glyph glyph-name="uni06F0.ss05" horiz-adv-x="711" 
d="M256.5 83.5q-44.5 25.5 -70 70t-25.5 99.5t25.5 99.5t70 70t99.5 25.5t99.5 -25.5t70 -70t25.5 -99.5t-25.5 -99.5t-70 -70t-99.5 -25.5t-99.5 25.5zM293 191.5q25 -24.5 63 -24.5t63 24.5t25 61.5t-25.5 62t-62.5 25t-62.5 -25t-25.5 -62t25 -61.5z" />
    <glyph glyph-name="uni06F1.ss05" horiz-adv-x="711" 
d="M435 0l-96 -8q0 180 -15.5 356.5t-47.5 308.5l111 23q48 -265 48 -680z" />
    <glyph glyph-name="uni06F2.ss05" horiz-adv-x="711" 
d="M333.5 327q-25.5 7 -46.5 20q10 -159 10 -347l-96 -8q0 180 -15.5 356.5t-47.5 308.5l111 23q13 -66 29 -164q5 -28 25 -40t67 -12q74 0 109 21l-21 178l106 17l10 -198q4 -81 -50.5 -121.5t-140.5 -40.5q-24 0 -49.5 7z" />
    <glyph glyph-name="uni06F3.ss05" horiz-adv-x="711" 
d="M201 344q10 -157 10 -344l-96 -8q0 180 -15.5 356.5t-47.5 308.5l111 23l5 -28q7 -43 24 -136q11 -52 73 -52q34 0 68 15l-7 176l100 8l4 -191q24 -8 53 -8q51 0 81 21l-22 178l107 17l10 -198q2 -49 -21.5 -86t-62 -56.5t-79.5 -19.5q-80 0 -109 34q-19 -19 -49.5 -26.5
t-60.5 -7.5q-44 0 -76 24z" />
    <glyph glyph-name="uni06F4.ss05" horiz-adv-x="711" 
d="M239 275q7 -119 7 -275l-96 -8q0 184 -16 328t-54 293l110 23q24 -111 36 -220q18 -12 38 -15.5t48 -2.5q-15 27 -21.5 57t-6.5 70q0 74 51.5 114.5t131.5 40.5q42 0 110 -18l-27 -114q-54 10 -94 10q-39 0 -73 -13q0 -80 31 -140q102 7 213 40l5 -133
q-125 -34 -181.5 -44.5t-124.5 -10.5q-49 0 -87 18z" />
    <glyph glyph-name="uni06F5.ss05" horiz-adv-x="711" 
d="M130 33.5q-42 38.5 -42 110.5q0 89 56.5 198t145.5 206q-11 11 -26 23l-22 19l80 99q147 -121 223.5 -262t76.5 -279q0 -52 -21.5 -86.5t-55.5 -50.5t-71 -16q-41 0 -68 12t-45 45q-21 -27 -54.5 -42t-71.5 -15q-63 0 -105 38.5zM216 151q16 -12 42 -12q36 0 60 18l-2 68
l86 5l2 -79q21 -12 54 -12q47 0 64 21q-2 92 -41 170.5t-117 152.5q-164 -189 -164 -295q0 -25 16 -37z" />
    <glyph glyph-name="uni06F6.ss05" horiz-adv-x="711" 
d="M309 291q-66 26 -99.5 78.5t-33.5 125.5q0 53 24 95t67.5 66t99.5 24q51 0 118 -25l-26 -104q-32 6 -51 8t-43 2q-28 0 -55.5 -9t-41.5 -26q0 -66 38.5 -101t139.5 -36l111 53l29 -118q-89 -38 -153.5 -83.5t-118 -105t-119.5 -153.5l-69 62q92 155 183 247z" />
    <glyph glyph-name="uni06F7.ss05" horiz-adv-x="711" 
d="M281.5 200.5q-23.5 101.5 -70.5 209.5t-114 201l89 69q57 -82 104 -191t64 -222q22 121 70 228t108 185l83 -77q-70 -93 -119 -201t-73.5 -206.5t-24.5 -168.5v-27l-93 -8v30q0 77 -23.5 178.5z" />
    <glyph glyph-name="uni06F8.ss05" horiz-adv-x="711" 
d="M430.5 471.5q23.5 -101.5 70.5 -209.5t114 -201l-89 -69q-57 82 -104 191t-64 222q-22 -121 -70 -228t-108 -185l-83 77q70 93 119 201t73.5 206.5t24.5 168.5v27l93 8v-30q0 -77 23.5 -178.5z" />
    <glyph glyph-name="uni06F9.ss05" horiz-adv-x="711" 
d="M445 231v19q-64 -16 -116 -16q-68 0 -104.5 10.5t-57.5 41.5q-24 35 -24 75q0 75 19 148t63 122t114 49q100 0 151.5 -82t51.5 -211q0 -200 28 -377l-107 -28q-18 149 -18 249zM333 378q61 0 112 12q0 86 -25 125t-81 39q-52 0 -78 -42t-26 -122q35 -12 98 -12z" />
    <glyph glyph-name="uni06F4.urdu" horiz-adv-x="620" 
d="M230 107q-28 55 -74 132q-54 92 -79.5 148.5t-25.5 110.5q0 79 39 130.5t104 51.5q42 0 74.5 -13.5t54.5 -48.5q21 35 54 48.5t75 13.5q31 0 57.5 -12.5t44.5 -38.5l-81 -102q-7 4 -19 6.5t-21 2.5q-64 -2 -64 -72v-69l-85 5v115q-28 21 -71 21q-28 0 -45.5 -14.5
t-17.5 -44.5q0 -23 16 -55.5t53 -93.5q44 -70 74.5 -128.5t51.5 -123.5l-68 -84q-19 60 -47 115z" />
    <glyph glyph-name="uni06F7.urdu" horiz-adv-x="673" 
d="M183 283.5q50 88.5 73 172.5t25 180l94 9q-3 -150 -37.5 -269t-93.5 -221q136 19 328 19h54l-65 -143q-135 -2 -237.5 -10t-192.5 -30l-84 92q86 112 136 200.5z" />
    <glyph glyph-name="zero.dnom" horiz-adv-x="397" 
d="M77.5 48q-44.5 61 -44.5 162q0 100 44.5 159.5t122.5 59.5t123 -60t45 -159q0 -101 -45 -162t-123 -61t-122.5 61zM143.5 101q19.5 -40 56.5 -40q38 0 56.5 41t18.5 108t-18.5 106.5t-56.5 39.5t-57 -39.5t-19 -106.5q0 -69 19.5 -109z" />
    <glyph glyph-name="dotmaster" horiz-adv-x="0" 
 />
    <glyph glyph-name="wasla-ar" horiz-adv-x="0" 
d="M-54 11q-25 11 -25 38v30q-11 -6 -25.5 -24.5t-24.5 -39.5l-45 26q6 19 25 45.5t46.5 45t59.5 16.5v-56q0 -8 5 -11.5t10 -3.5q31 41 61.5 70t63.5 29q40 0 58 -22t18 -69q0 -31 -11 -42q-17 -19 -55.5 -31t-83.5 -12q-52 0 -77 11zM125 77q0 20 -6.5 29.5t-23.5 9.5
q-30 0 -79 -54q60 1 109 15z" />
    <glyph glyph-name="gafsarkashabove-ar" horiz-adv-x="0" 
d="M-94 509l169 76l7 -52l-180 -78z" />
    <glyph glyph-name="hamzacenter-ar" horiz-adv-x="0" 
d="M-129 -55l75 21q-23 46 -23 81q0 36 26.5 56.5t73.5 20.5q28 0 51 -7v-62q-36 7 -67 7q-20 0 -31 -5q0 -15 8.5 -36t19.5 -39l120 34v-65l-253 -71v65z" />
    <glyph glyph-name="uni0654064F" horiz-adv-x="0" 
d="M-131 188l103 29q-9 -1 -13 7t-4 19q0 15 9 42.5t29.5 49t51.5 21.5q38 0 62 -32.5t24 -78.5q0 -33 -14.5 -45t-51.5 -22l-187 -52zM-129 -72l75 21q-23 46 -23 81q0 36 26.5 56.5t73.5 20.5q28 0 51 -7v-62q-36 7 -67 7q-20 0 -31 -5q0 -15 8.5 -36t19.5 -39l120 34v-65
l-253 -71v65zM41 236q23 0 38 5q0 27 -10.5 42.5t-26.5 15.5q-12 0 -22 -16t-11 -42q20 -5 32 -5z" />
    <glyph glyph-name="uni0654064C" horiz-adv-x="0" 
d="M-130 167q-12 25 -12 56q0 16 5.5 38.5t10.5 40t8 26.5l55 -19q-12 -35 -16.5 -53.5t-4.5 -32.5q0 -18 10 -35l46 13q-9 -1 -13 7t-4 19q0 15 9 42.5t29.5 49t51.5 21.5q38 0 62 -32.5t24 -78.5q0 -33 -14.5 -45t-51.5 -22l-187 -52zM-129 -88l75 21q-23 46 -23 81
q0 36 26.5 56.5t73.5 20.5q28 0 51 -7v-62q-36 7 -67 7q-20 0 -31 -5q0 -15 8.5 -36t19.5 -39l120 34v-65l-253 -71v65zM41 220q23 0 38 5q0 27 -10.5 42.5t-26.5 15.5q-12 0 -22 -16t-11 -42q20 -5 32 -5z" />
    <glyph glyph-name="uni0654064E" horiz-adv-x="0" 
d="M-129 64l75 21q-23 46 -23 81q0 36 26.5 56.5t73.5 20.5q28 0 51 -7v-62q-36 7 -67 7q-20 0 -31 -5q0 -15 8.5 -36t19.5 -39l120 34v-65l-253 -71v65zM-122 316l253 71v-65l-253 -71v65z" />
    <glyph glyph-name="uni0654064B" horiz-adv-x="0" 
d="M-129 -102l75 21q-23 46 -23 81q0 36 26.5 56.5t73.5 20.5q28 0 51 -7v-62q-36 7 -67 7q-20 0 -31 -5q0 -15 8.5 -36t19.5 -39l120 34v-65l-253 -71v65zM-122 150l253 71v-65l-253 -71v65zM-122 264l253 71v-65l-253 -71v65z" />
    <glyph glyph-name="uni06540652" horiz-adv-x="0" 
d="M-129 -100l75 21q-23 46 -23 81q0 36 26.5 56.5t73.5 20.5q28 0 51 -7v-62q-36 7 -67 7q-20 0 -31 -5q0 -15 8.5 -36t19.5 -39l120 34v-65l-253 -71v65zM-85 202q0 35 24 59.5t61 24.5q27 0 49 -16.5t32 -45.5q4 -12 4 -28q0 -29 -16 -51t-45 -30l-33 -9q-18 -4 -24 -4
q-18 0 -29 10.5t-18 33.5l87 25q21 8 21 25q0 15 -7 22t-18 7q-14 0 -22.5 -7t-8.5 -18q0 -3 2 -9l-55 -17q-4 13 -4 28z" />
    <glyph glyph-name="uni06550650" horiz-adv-x="0" 
d="M-122 52l75 21q-23 46 -23 81q0 36 26.5 56.5t73.5 20.5q28 0 51 -7v-62q-36 7 -67 7q-20 0 -31 -5q0 -15 8.5 -36t19.5 -39l120 34v-65l-253 -71v65zM-122 -60l253 71v-65l-253 -71v65z" />
    <glyph glyph-name="uni0655064D" horiz-adv-x="0" 
d="M-122 68l75 21q-23 46 -23 81q0 36 26.5 56.5t73.5 20.5q28 0 51 -7v-62q-36 7 -67 7q-20 0 -31 -5q0 -15 8.5 -36t19.5 -39l120 34v-65l-253 -71v65zM-122 -44l253 71v-65l-253 -71v65zM-122 -157l253 71v-65l-253 -71v65z" />
    <glyph glyph-name="uni0651064B" horiz-adv-x="0" 
d="M-83 83q0 -18 18 -18q10 0 22 5t21 13v53l44 8v-44q0 -17 18 -17q10 0 22.5 5.5t18.5 11.5q0 32 -8 70l50 24q8 -41 8 -86q0 -39 -28 -62.5t-65 -23.5q-22 0 -35 15q-14 -15 -35 -25t-43 -10q-26 0 -41 14t-15 39q0 26 5 62l47 9q-4 -30 -4 -43zM-122 228l253 71v-65
l-253 -71v65zM-122 342l253 71v-65l-253 -71v65z" />
    <glyph glyph-name="uni0651064C" horiz-adv-x="0" 
d="M-98 -73q0 -18 18 -18q10 0 22 5t21 13v53l44 8v-44q0 -17 18 -17q10 0 22.5 5.5t18.5 11.5q0 32 -8 70l50 24q8 -41 8 -86q0 -39 -28 -62.5t-65 -23.5q-22 0 -35 15q-14 -15 -35 -25t-43 -10q-26 0 -41 14t-15 39q0 26 5 62l47 9q-4 -30 -4 -43zM-137 50
q-11 21 -15.5 38t-4.5 35q0 16 5.5 38.5t10.5 40t8 26.5l55 -18q-12 -36 -16.5 -54.5t-4.5 -32.5q0 -18 12 -38l42 11q-8 2 -11.5 10t-3.5 18q0 15 9 42.5t29.5 49.5t51.5 22q38 0 62 -33t24 -79q0 -32 -15 -44.5t-51 -22.5l-187 -52v43zM26 117q23 0 38 5q0 59 -35 59
q-15 0 -24 -15.5t-11 -43.5q13 -5 32 -5z" />
    <glyph glyph-name="uni0651064D" horiz-adv-x="0" 
d="M-83 69q0 -18 18 -18q10 0 22 5t21 13v53l44 8v-44q0 -17 18 -17q10 0 22.5 5.5t18.5 11.5q0 32 -8 70l50 24q8 -41 8 -86q0 -39 -28 -62.5t-65 -23.5q-22 0 -35 15q-14 -15 -35 -25t-43 -10q-26 0 -41 14t-15 39q0 26 5 62l47 9q-4 -30 -4 -43zM-123 -83l253 71v-65
l-253 -71v65zM-123 -196l253 71v-65l-253 -71v65z" />
    <glyph glyph-name="uni0651064E" horiz-adv-x="0" 
d="M-83 69q0 -18 18 -18q10 0 22 5t21 13v53l44 8v-44q0 -17 18 -17q10 0 22.5 5.5t18.5 11.5q0 32 -8 70l50 24q8 -41 8 -86q0 -39 -28 -62.5t-65 -23.5q-22 0 -35 15q-14 -15 -35 -25t-43 -10q-26 0 -41 14t-15 39q0 26 5 62l47 9q-4 -30 -4 -43zM-122 214l253 71v-65
l-253 -71v65z" />
    <glyph glyph-name="uni0651064F" horiz-adv-x="0" 
d="M-83 22q0 -18 18 -18q10 0 22 5t21 13v53l44 8v-44q0 -17 18 -17q10 0 22.5 5.5t18.5 11.5q0 32 -8 70l50 24q8 -41 8 -86q0 -39 -28 -62.5t-65 -23.5q-22 0 -35 15q-14 -15 -35 -25t-43 -10q-26 0 -41 14t-15 39q0 26 5 62l47 9q-4 -30 -4 -43zM-122 167l92 24
q-8 2 -11.5 10t-3.5 18q0 15 9 42.5t29.5 49.5t51.5 22q38 0 62 -33t24 -79q0 -32 -15 -44.5t-51 -22.5l-187 -52v65zM41 212q23 0 38 5q0 59 -35 59q-15 0 -24 -15.5t-11 -43.5q13 -5 32 -5z" />
    <glyph glyph-name="uni06510650" horiz-adv-x="0" 
d="M-83 69q0 -18 18 -18q10 0 22 5t21 13v53l44 8v-44q0 -17 18 -17q10 0 22.5 5.5t18.5 11.5q0 32 -8 70l50 24q8 -41 8 -86q0 -39 -28 -62.5t-65 -23.5q-22 0 -35 15q-14 -15 -35 -25t-43 -10q-26 0 -41 14t-15 39q0 26 5 62l47 9q-4 -30 -4 -43zM-122 -80l253 71v-65
l-253 -71v65z" />
    <glyph glyph-name="uni06510670" horiz-adv-x="0" 
d="M-83 69q0 -18 18 -18q10 0 22 5t21 13v53l44 8v-44q0 -17 18 -17q10 0 22.5 5.5t18.5 11.5q0 32 -8 70l50 24q8 -41 8 -86q0 -39 -28 -62.5t-65 -23.5q-22 0 -35 15q-14 -15 -35 -25t-43 -10q-26 0 -41 14t-15 39q0 26 5 62l47 9q-4 -30 -4 -43zM-27 302l53 9l-4 -146
h-42z" />
    <glyph glyph-name="vbelow-ar" horiz-adv-x="0" 
d="M-65.5 97.5q-20.5 42.5 -49.5 88.5l55 27q40 -66 60 -127q20 57 65 127l50 -36q-53 -80 -85 -170l-56 -7q-19 55 -39.5 97.5z" />
    <glyph glyph-name="dad-yeh2-ar" horiz-adv-x="1081" 
d="M150.5 -201q-81.5 51 -81.5 154q0 64 46.5 148.5t119.5 144t147 59.5q34 0 55.5 -11.5t33 -26t30.5 -45.5q68 93 150.5 162.5t157.5 69.5q203 0 203 -251q0 -32 -7 -60t-23 -46q-42 -45 -132 -71t-219 -26q-61 0 -100 17t-59.5 40t-41.5 58q-17 29 -29.5 41.5t-32.5 12.5
q-31 0 -71 -28.5t-75.5 -74.5t-53.5 -96q11 -35 44.5 -52t79.5 -21.5t120 -4.5q71 0 150.5 5t97.5 6l40 3l-32 -145q-173 -13 -281 -13q-155 0 -236.5 51zM633 144q77 0 144 8t135 30q0 150 -99 150q-50 0 -115.5 -47t-134.5 -127q28 -14 70 -14zM554 599l76 93l100 -79
l-76 -93z" />
    <glyph glyph-name="gafswash-ar" horiz-adv-x="1009" 
d="M319.5 650.5q36.5 30.5 71.5 46.5l9 -57q-37 -18 -75 -53t-63 -74l-5 73q26 34 62.5 64.5zM313 141.5q92 -2.5 240 -2.5q112 0 184.5 15t101.5 41q-11 41 -58.5 59.5t-137.5 18.5q-198 0 -272.5 3.5t-104 19.5t-29.5 56q0 72 50 138.5t128.5 108.5t160.5 44l15 -128
q-88 -3 -153.5 -33.5t-91.5 -71.5q22 -5 74 -6.5t158 -1.5q121 0 199 -19.5t119.5 -69t41.5 -137.5q0 -44 -47 -86t-138.5 -68.5t-219.5 -26.5q-162 0 -381 14l-83 144q152 -9 244 -11.5z" />
    <glyph glyph-name="kafcheh" horiz-adv-x="0" 
d="M38 116q0 12 -12.5 17t-40.5 10q-37 6 -56 15t-19 33q0 32 15.5 74.5t42.5 73.5t58 31q24 0 43.5 -14.5t40.5 -47.5l-37 -36q-23 26 -47 26q-22 0 -37 -23.5t-23 -56.5q47 -5 73 -12.5t40 -26t14 -55.5q0 -58 -55.5 -92t-152.5 -34l7 82q111 0 146 36z" />
    <glyph glyph-name="sad-yeh2-ar" horiz-adv-x="1081" 
d="M150.5 -201q-81.5 51 -81.5 154q0 64 46.5 148.5t119.5 144t147 59.5q34 0 55.5 -11.5t33 -26t30.5 -45.5q68 93 150.5 162.5t157.5 69.5q203 0 203 -251q0 -32 -7 -60t-23 -46q-42 -45 -132 -71t-219 -26q-61 0 -100 17t-59.5 40t-41.5 58q-17 29 -29.5 41.5t-32.5 12.5
q-31 0 -71 -28.5t-75.5 -74.5t-53.5 -96q11 -35 44.5 -52t79.5 -21.5t120 -4.5q71 0 150.5 5t97.5 6l40 3l-32 -145q-173 -13 -281 -13q-155 0 -236.5 51zM633 144q77 0 144 8t135 30q0 150 -99 150q-50 0 -115.5 -47t-134.5 -127q28 -14 70 -14z" />
    <glyph glyph-name="seen-yeh2-ar" horiz-adv-x="1109" 
d="M150.5 -201q-81.5 51 -81.5 154q0 64 46.5 148.5t119.5 144t147 59.5q33 0 55 -11.5t35 -28.5t29 -45q22 -38 42 -57t58 -19q22 0 43 3.5t32 10.5l-4 188l100 4v-193q18 -13 53 -13q57 0 89 16l-23 230l110 19q10 -154 10 -254q0 -52 -23 -87t-60 -51.5t-79 -16.5
q-38 0 -68 14t-44 45q-16 -33 -49 -46t-65 -13q-59 0 -96.5 16.5t-57 39.5t-39.5 58q-18 29 -30 42t-32 13q-31 0 -71 -28.5t-75.5 -74.5t-53.5 -96q11 -35 44.5 -52t79.5 -21.5t120 -4.5q71 0 150.5 5t97.5 6l40 3l-32 -145q-173 -13 -281 -13q-155 0 -236.5 51z" />
    <glyph glyph-name="sheen-yeh2-ar" horiz-adv-x="1109" 
d="M150.5 -201q-81.5 51 -81.5 154q0 64 46.5 148.5t119.5 144t147 59.5q33 0 55 -11.5t35 -28.5t29 -45q22 -38 42 -57t58 -19q22 0 43 3.5t32 10.5l-4 188l100 4v-193q18 -13 53 -13q57 0 89 16l-23 230l110 19q10 -154 10 -254q0 -52 -23 -87t-60 -51.5t-79 -16.5
q-38 0 -68 14t-44 45q-16 -33 -49 -46t-65 -13q-59 0 -96.5 16.5t-57 39.5t-39.5 58q-18 29 -30 42t-32 13q-31 0 -71 -28.5t-75.5 -74.5t-53.5 -96q11 -35 44.5 -52t79.5 -21.5t120 -4.5q71 0 150.5 5t97.5 6l40 3l-32 -145q-173 -13 -281 -13q-155 0 -236.5 51zM551 510
l66 81l84 -67l55 67l87 -69l-66 -81l-84 67l-55 -67zM675 738l87 -68l-66 -81l-86 68z" />
    <glyph glyph-name="ain-ar-k.fina" horiz-adv-x="688" 
d="M402 26.5q-38 26.5 -65 69.5q-125 -47 -162 -144q0 -89 58 -128.5t151 -39.5q91 0 203 29l-8 -144q-106 -29 -200 -29q-138 0 -224 66t-86 210q0 70 41.5 146t118.5 122q-35 57 -57.5 92t-31 43.5t-15.5 7.5l-26 -4l5 116q137 23 269 23q93 0 136.5 -22t43.5 -76v-32
q0 -27 -34.5 -83.5t-66.5 -82.5q5 -2 17.5 -8.5t27 -10t31.5 -3.5h160q3 0 5.5 -10.5t2.5 -24.5v-73q0 -15 -2.5 -25.5t-5.5 -10.5h-183q-65 0 -103 26.5zM262 307q13 -18 33 -48q6 -9 16.5 -23t24.5 -36q30 11 66.5 51t44.5 71q-8 7 -32.5 10.5t-57.5 3.5q-76 0 -116 -7
q8 -4 21 -22z" />
    <glyph glyph-name="beh-yeh2-ar.fina" horiz-adv-x="627" 
d="M150.5 -201q-81.5 51 -81.5 154q0 64 46.5 148.5t119.5 144t147 59.5q33 0 54 -10.5t33.5 -25.5t27.5 -41q16 -28 29.5 -44.5t38 -28t62.5 -11.5q3 0 5.5 -10.5t2.5 -24.5v-73q0 -15 -2.5 -25.5t-5.5 -10.5q-60 0 -98.5 17t-58.5 39.5t-40 57.5q-17 29 -29.5 42t-32.5 13
q-31 0 -71 -28.5t-75.5 -74.5t-53.5 -96q11 -35 44.5 -52t79.5 -21.5t120 -4.5q71 0 150.5 5t97.5 6l40 3l-32 -145q-173 -13 -281 -13q-155 0 -236.5 51zM306 -451l76 93l100 -79l-76 -93z" />
    </font>
</defs>
</svg>
