<?xml version="1.0" standalone="no"?>
<!DOCTYPE svg PUBLIC "-//W3C//DTD SVG 1.1//EN" "http://www.w3.org/Graphics/SVG/1.1/DTD/svg11.dtd" >
<svg xmlns="http://www.w3.org/2000/svg" xmlns:xlink="http://www.w3.org/1999/xlink" version="1.1">
<metadata>
Created by FontForge 20201107 at Wed Aug 31 14:42:27 2022
 By 
Copyright (c) 2022 by www.fontiran.com All rights reserved.
</metadata>
<defs>
<font id="AnjomanMax-Thin" horiz-adv-x="600" >
  <font-face 
    font-family="Anjoman Max Thin"
    font-weight="100"
    font-stretch="normal"
    units-per-em="1000"
    panose-1="0 0 0 0 0 0 0 0 0 0"
    ascent="800"
    descent="-200"
    x-height="508"
    cap-height="710"
    bbox="-214 -500 1332 1070"
    underline-thickness="35"
    underline-position="-361"
    unicode-range="U+0020-FEFC"
  />
<missing-glyph horiz-adv-x="785" 
d="M644 -500h-498v1570h498v-1570zM523 -392v52h-160l110 74h50v52h-261v-52h110l-110 -74v-52h261zM523 -178v177h-261v-177h261zM523 93v178h-157v-88h53v36h52v-74h-157v126h-52v-178h261zM523 305v157h-52v-103h-209v-54h261zM419 395v110h104v52h-261v-52h104v-58h-104
v-52h157zM523 599v53h-104v110h-157v-163h261zM523 803v52h-104v58h104v52h-259v-52h102v-58h-104v-52h261zM314 -53h157v-73h-157v73zM314 709h52v-57h-52v57z" />
    <glyph glyph-name="uniFDF2" unicode="&#x627;&#xfedf;&#xfee0;&#xfeea;" horiz-adv-x="1255" arabic-form="isolated" 
d="M510 479.5q-17 15.5 -17 41.5q0 15 5 41l5 35l21 -4l-9 -65q-2 -18 8.5 -29.5t30.5 -11.5q27 0 51 15v76h20v-49q0 -23 12 -32.5t41 -9.5q31 0 45 15q2 25 -9 101l19 3q10 -53 10 -93q0 -24 -19.5 -36.5t-57.5 -12.5q-14 0 -27 6.5t-21 18.5q-8 -12 -24.5 -18.5
t-38.5 -6.5q-28 0 -45 15.5zM108 244.5q28 47.5 75.5 77t101.5 30.5l-6 58l25 7l19 -224q5 -55 11.5 -87t26.5 -54t59 -22h22q80 0 121.5 8.5t59.5 37.5l-9 289l23 5l7 -254q1 -47 37 -66.5t98 -19.5h6q63 0 117.5 9t91.5 36l-13 480l25 5l9 -475q0 -16 -12 -29t-32 -23
q-64 -33 -186 -33q-130 0 -149 58q-9 -27 -57.5 -42.5t-136.5 -15.5h-4q-34 0 -57 5.5t-41.5 28t-26.5 69.5q-14 -12 -48 -20t-72 -8q-39 0 -76 16t-37 53q0 53 28 100.5zM138.5 113q24.5 -8 54.5 -8q39 0 61.5 4.5t50.5 13.5l-19 201q-62 -3 -103.5 -34.5t-61 -74
t-19.5 -81.5q12 -13 36.5 -21zM626 767l-1 -129h-21l-3 125zM1165 660l12 -660l-22 -5l-15 660z" />
    <glyph glyph-name="uniFDFC" unicode="&#x631;&#xfef3;&#xfe8e;&#x644;&#x621;" horiz-adv-x="1347" arabic-form="isolated" 
d="M132.5 -168q-52.5 39 -52.5 121q0 35 38 273l22 -3q-35 -210 -35 -273q0 -65 46 -96t143 -31q92 0 156.5 15.5t99.5 53.5l-24 763l25 5l19 -760q1 -27 -33 -52t-97 -40t-146 -15q-109 0 -161.5 39zM675 660l8 -515q1 -66 41 -90.5t107 -24.5q74 0 132.5 9.5t95.5 35.5
l-13 240l24 5q10 -184 10 -235q0 -16 -12 -29.5t-31 -22.5q-73 -31 -197 -33h-9q-86 0 -128 38t-44 107l-9 510zM728 -109h192v-36h-192v36zM1167.5 -113q69.5 63 79.5 118l-22 250l23 5q19 -208 19 -251q0 -41 -33.5 -88.5t-93.5 -91t-135 -72.5l-15 23q108 44 177.5 107z
" />
    <glyph glyph-name="uni06440622" unicode="&#xfedf;&#xfe82;" horiz-adv-x="404" arabic-form="isolated" 
d="M227.5 25.5q66.5 39.5 70.5 73.5l-14 606l25 5l13 -600q1 -57 -82 -106.5t-203 -76.5l-3 28q127 31 193.5 70.5zM96 477q30 -99 45.5 -210.5t15.5 -203.5l-23 -8q0 79 -15 196t-44 217zM45 624q-40 4 -51 4q-19 0 -27.5 -3t-12 -10t-10.5 -27l-20 5q10 36 24 48t46 12
q16 0 58 -4q52 -6 78 -6h34l-5 -25h-25q-35 0 -89 6z" />
    <glyph glyph-name="uni06440622.fina" unicode="&#xfee0;&#xfe82;" horiz-adv-x="514" arabic-form="final" 
d="M397 6.5q-37 6.5 -56.5 22t-27.5 43.5q-24 -46 -100.5 -84.5t-175.5 -60.5l-3 28q127 31 193.5 70.5t70.5 73.5l-14 606l25 5l14 -600q1 -36 23 -53.5t57 -22t93 -4.5h18q5 0 5 -12v-6q0 -12 -5 -12h-17q-63 0 -100 6.5zM96 477q30 -99 45.5 -210.5t15.5 -203.5l-23 -8
q0 79 -15 196t-44 217zM45 604q-40 4 -51 4q-19 0 -27.5 -3t-12 -10t-10.5 -27l-20 5q10 36 24 48t46 12q16 0 58 -4q52 -6 78 -6h34l-5 -25h-25q-35 0 -89 6z" />
    <glyph glyph-name="uni06440623" unicode="&#xfedf;&#xfe84;" horiz-adv-x="404" arabic-form="isolated" 
d="M227.5 25.5q66.5 39.5 70.5 73.5l-14 606l25 5l13 -600q1 -57 -82 -106.5t-203 -76.5l-3 28q127 31 193.5 70.5zM96 477q30 -99 45.5 -210.5t15.5 -203.5l-23 -8q0 79 -15 196t-44 217zM-53 585l79 24q-30 45 -30 75q0 21 23.5 31.5t53.5 10.5q16 0 31 -3v-17
q-18 2 -30 2q-40 0 -63 -16q0 -30 32 -78l101 30v-20l-197 -58v19z" />
    <glyph glyph-name="uni06440623.fina" unicode="&#xfee0;&#xfe84;" horiz-adv-x="514" arabic-form="final" 
d="M397 6.5q-37 6.5 -56.5 22t-27.5 43.5q-24 -46 -100.5 -84.5t-175.5 -60.5l-3 28q127 31 193.5 70.5t70.5 73.5l-14 606l25 5l14 -600q1 -36 23 -53.5t57 -22t93 -4.5h18q5 0 5 -12v-6q0 -12 -5 -12h-17q-63 0 -100 6.5zM96 477q30 -99 45.5 -210.5t15.5 -203.5l-23 -8
q0 79 -15 196t-44 217zM-53 584l79 24q-30 45 -30 75q0 21 23.5 31.5t53.5 10.5q16 0 31 -3v-17q-18 2 -30 2q-40 0 -63 -16q0 -30 32 -78l101 30v-20l-197 -58v19z" />
    <glyph glyph-name="uni06440625" unicode="&#xfedf;&#xfe88;" horiz-adv-x="404" arabic-form="isolated" 
d="M227.5 25.5q66.5 39.5 70.5 73.5l-14 606l25 5l13 -600q1 -57 -82 -106.5t-203 -76.5l-3 28q127 31 193.5 70.5zM41 615q56 -114 86 -269t30 -283l-23 -8q0 66 -12.5 167t-38 203.5t-62.5 172.5zM49 -236l79 24q-30 45 -30 75q0 21 23.5 31.5t53.5 10.5q16 0 31 -3v-17
q-18 2 -30 2q-40 0 -63 -16q0 -30 32 -78l101 30v-20l-197 -58v19z" />
    <glyph glyph-name="uni06440625.fina" unicode="&#xfee0;&#xfe88;" horiz-adv-x="514" arabic-form="final" 
d="M397 6.5q-37 6.5 -56.5 22t-27.5 43.5q-24 -46 -100.5 -84.5t-175.5 -60.5l-3 28q127 31 193.5 70.5t70.5 73.5l-14 606l25 5l14 -600q1 -36 23 -53.5t57 -22t93 -4.5h18q5 0 5 -12v-6q0 -12 -5 -12h-17q-63 0 -100 6.5zM41 615q56 -114 86 -269t30 -283l-23 -8
q0 66 -12.5 167t-38 203.5t-62.5 172.5zM49 -237l79 24q-30 45 -30 75q0 21 23.5 31.5t53.5 10.5q16 0 31 -3v-17q-18 2 -30 2q-40 0 -63 -16q0 -30 32 -78l101 30v-20l-197 -58v19z" />
    <glyph glyph-name="uni06440627" unicode="&#xfedf;&#xfe8e;" horiz-adv-x="404" arabic-form="isolated" 
d="M227.5 25.5q66.5 39.5 70.5 73.5l-14 606l25 5l13 -600q1 -57 -82 -106.5t-203 -76.5l-3 28q127 31 193.5 70.5zM41 615q56 -114 86 -269t30 -283l-23 -8q0 66 -12.5 167t-38 203.5t-62.5 172.5z" />
    <glyph glyph-name="uni06440627.fina" unicode="&#xfee0;&#xfe8e;" horiz-adv-x="514" arabic-form="final" 
d="M397 6.5q-37 6.5 -56.5 22t-27.5 43.5q-24 -46 -100.5 -84.5t-175.5 -60.5l-3 28q127 31 193.5 70.5t70.5 73.5l-14 606l25 5l14 -600q1 -36 23 -53.5t57 -22t93 -4.5h18q5 0 5 -12v-6q0 -12 -5 -12h-17q-63 0 -100 6.5zM41 615q56 -114 86 -269t30 -283l-23 -8
q0 66 -12.5 167t-38 203.5t-62.5 172.5z" />
    <glyph glyph-name="uni06440671" unicode="&#xfedf;&#xfb51;" horiz-adv-x="404" 
d="M227.5 25.5q66.5 39.5 70.5 73.5l-14 606l25 5l13 -600q1 -57 -82 -106.5t-203 -76.5l-3 28q127 31 193.5 70.5zM96 477q30 -99 45.5 -210.5t15.5 -203.5l-23 -8q0 79 -15 196t-44 217zM-0.5 591.5q-21.5 7.5 -21.5 34.5v33q-20 -2 -33.5 -17.5t-33.5 -46.5l-16 11
q3 5 17.5 28t35.5 36.5t47 11.5v-59q0 -9 7.5 -13.5t13.5 -4.5q30 45 57.5 75t61.5 30q28 0 40.5 -17t12.5 -51v-8q0 -14 -6 -20q-13 -13 -46 -21.5t-73 -8.5q-42 0 -63.5 7.5zM110.5 606q27.5 4 62.5 17q1 35 -7.5 51t-34.5 16q-21 0 -40.5 -19t-58.5 -69q51 0 78.5 4z" />
    <glyph glyph-name="uni06440671.fina" unicode="&#xfee0;&#xfb51;" horiz-adv-x="514" 
d="M397 6.5q-37 6.5 -56.5 22t-27.5 43.5q-24 -46 -100.5 -84.5t-175.5 -60.5l-3 28q127 31 193.5 70.5t70.5 73.5l-14 606l25 5l14 -600q1 -36 23 -53.5t57 -22t93 -4.5h18q5 0 5 -12v-6q0 -12 -5 -12h-17q-63 0 -100 6.5zM96 477q30 -99 45.5 -210.5t15.5 -203.5l-23 -8
q0 79 -15 196t-44 217zM-0.5 575.5q-21.5 7.5 -21.5 34.5v33q-20 -2 -33.5 -17.5t-33.5 -46.5l-16 11q3 5 17.5 28t35.5 36.5t47 11.5v-59q0 -9 7.5 -13.5t13.5 -4.5q30 45 57.5 75t61.5 30q28 0 40.5 -17t12.5 -51v-8q0 -14 -6 -20q-13 -13 -46 -21.5t-73 -8.5
q-42 0 -63.5 7.5zM110.5 590q27.5 4 62.5 17q1 35 -7.5 51t-34.5 16q-21 0 -40.5 -19t-58.5 -69q51 0 78.5 4z" />
    <glyph glyph-name="uni066E.init" unicode="&#x66e;" horiz-adv-x="309" 
d="M-5 12v6q0 12 5 12q146 0 208 45l-13 240l24 5q10 -184 10 -235q0 -16 -12 -29.5t-31 -22.5q-40 -17 -89.5 -25t-96.5 -8q-5 0 -5 12z" />
    <glyph glyph-name="uni066E.medi" unicode="&#x66e;" horiz-adv-x="312" 
d="M-5 12v6q0 12 5 12q54 0 84.5 8t64.5 29l-17 215l23 3l16 -218q37 -37 141 -37q5 0 5 -12v-6q0 -12 -5 -12q-64 0 -102 13.5t-50 35.5q-16 -22 -61 -35.5t-99 -13.5q-5 0 -5 12z" />
    <glyph glyph-name="uni066E.fina" unicode="&#x66e;" horiz-adv-x="873" 
d="M217.5 6.5q-64.5 11.5 -101 44t-36.5 92.5q0 18 5.5 61t17.5 116l22 -3q-13 -88 -16.5 -120t-3.5 -52q0 -44 27.5 -70t87 -38t160.5 -12t189.5 11.5t133.5 33.5l-13 202l23 3l13 -205q18 -25 53 -32.5t94 -7.5q5 0 5 -12v-6q0 -12 -5 -12q-74 0 -112.5 14.5t-49.5 36.5
q-10 -11 -27.5 -17.5t-47.5 -13.5q-49 -11 -120 -18t-137 -7q-97 0 -161.5 11.5z" />
    <glyph glyph-name="uni066F.fina" unicode="&#x66f;" horiz-adv-x="689" 
d="M694 18v-6q0 -12 -5 -12h-78q-1 -65 -6.5 -95t-16 -41.5t-33.5 -23.5q-88 -44 -261 -44q-109 0 -161.5 39t-52.5 121q0 35 38 273l22 -3q-35 -210 -35 -273q0 -65 46 -96t143 -31q108 0 173 14.5t108 39.5q10 56 10 132q-52 -13 -128 -13q-26 0 -57.5 6.5t-43.5 20.5
q-7 8 -10.5 17.5t-3.5 29.5q0 34 13 84t45 89.5t83 39.5q128 0 128 -239v-17h78q5 0 5 -12zM400 34.5q23 -5.5 54 -5.5q87 0 131 14q0 109 -26.5 162t-81.5 53q-33 0 -58 -28.5t-39 -76t-14 -104.5q11 -9 34 -14.5z" />
    <glyph glyph-name="uni0695.fina" unicode="&#x695;" horiz-adv-x="345" 
d="M221 14.5q-31 14.5 -46 39.5q2 -19 2 -45q0 -41 -33.5 -88.5t-93.5 -91t-135 -72.5l-15 23q108 44 177.5 107t79.5 118l-22 250l23 5l14 -148q4 -39 39.5 -60.5t81.5 -21.5h52q5 0 5 -12v-6q0 -12 -5 -12h-52q-41 0 -72 14.5zM-69 -315l14 6q47 -80 70 -137q32 79 68 137
l16 -8q-42 -68 -70 -145l-24 -4q-29 78 -74 151z" />
    <glyph glyph-name="uni06A1.init" unicode="&#x6a1;" horiz-adv-x="416" 
d="M-5 12v6q0 12 5 12q123 0 193.5 7t111.5 26q5 29 5 80q-52 -13 -128 -13q-26 0 -57.5 6.5t-43.5 20.5q-6 7 -10 17t-4 30q0 34 13 84t45 89.5t83 39.5q128 0 128 -239q0 -63 -4 -92.5t-14.5 -42t-33.5 -19.5q-40 -12 -97 -18t-187 -6q-5 0 -5 12zM125 165.5
q23 -5.5 54 -5.5q87 0 131 14q0 109 -26.5 162t-81.5 53q-33 0 -58 -28.5t-39 -76t-14 -104.5q11 -9 34 -14.5z" />
    <glyph glyph-name="uni06A1.medi" unicode="&#x6a1;" horiz-adv-x="411" 
d="M-5 12v6q0 12 5 12h95q56 0 100 16q-46 29 -81 65.5t-35 67.5q0 20 21.5 60t55 71t71.5 31q33 0 61 -26t44.5 -72t16.5 -105q0 -18 -19 -34.5t-78 -55.5q20 -9 44.5 -13.5t60.5 -4.5h54q5 0 5 -12v-6q0 -12 -5 -12h-34q-50 0 -83.5 7t-72.5 26q-66 -33 -166 -33h-55
q-5 0 -5 12zM137.5 124.5q34.5 -30.5 87.5 -64.5l101 70q0 69 -26.5 126t-77.5 57q-26 0 -53.5 -27t-46.5 -60t-19 -43q0 -28 34.5 -58.5z" />
    <glyph glyph-name="uni06A1.fina" unicode="&#x6a1;" horiz-adv-x="923" 
d="M217.5 6.5q-64.5 11.5 -101 44t-36.5 92.5q0 18 5.5 61t17.5 116l22 -3q-13 -88 -16.5 -120t-3.5 -52q0 -43 27.5 -69.5t87.5 -38.5t160 -12q164 0 225.5 3.5t100.5 18.5q-45 28 -80 64.5t-35 67.5q0 20 21.5 60t55 71t70.5 31q33 0 61 -26t44.5 -72t16.5 -105
q0 -18 -19 -34.5t-78 -55.5q39 -18 106 -18h54q5 0 5 -12v-6q0 -12 -5 -12h-35q-50 0 -83.5 7t-71.5 26q-11 -6 -36 -14q-42 -14 -119.5 -19t-198.5 -5q-97 0 -161.5 11.5zM648.5 124.5q34.5 -30.5 87.5 -64.5l101 70q0 69 -26.5 126t-77.5 57q-26 0 -53.5 -27t-46.5 -60
t-19 -43q0 -28 34.5 -58.5z" />
    <glyph glyph-name="uni06AA.init" unicode="&#x6aa;" horiz-adv-x="810" 
d="M-5 12v6q0 12 5 12h369q101 0 175 12t115 31t48 40q0 49 -32.5 74.5t-90 34t-149.5 8.5q-186 0 -245.5 2t-74.5 9t-15 29q0 40 36.5 88.5t94.5 85t117 44.5l4 -24q-47 -6 -99.5 -37t-90 -73.5t-43.5 -81.5q20 -11 72.5 -13.5t202.5 -2.5q116 0 185 -8.5t110 -39t41 -91.5
q0 -36 -47.5 -62.5t-133.5 -40.5t-200 -14h-349q-5 0 -5 12z" />
    <glyph glyph-name="uni06AA.medi" unicode="&#x6aa;" horiz-adv-x="884" 
d="M751.5 13q-30.5 13 -49.5 54q-41 -32 -133 -49.5t-220 -17.5h-349q-5 0 -5 12v6q0 12 5 12h369q101 0 175 12t115 31t48 40q0 49 -32.5 74.5t-90 34t-149.5 8.5q-186 0 -245.5 2t-74.5 9t-15 29q0 40 36.5 88.5t94.5 85t117 44.5l4 -24q-47 -6 -99.5 -37t-90 -73.5
t-43.5 -81.5q20 -11 72.5 -13.5t202.5 -2.5q116 0 185 -8.5t110 -39t41 -91.5q0 -17 -10 -31q12 -27 27.5 -39t35 -14.5t58.5 -2.5h43q5 0 5 -12v-6q0 -12 -5 -12h-45q-57 0 -87.5 13z" />
    <glyph glyph-name="uni06AA.fina" unicode="&#x6aa;" horiz-adv-x="988" 
d="M855.5 13q-30.5 13 -49.5 54q-40 -34 -132.5 -53t-220.5 -19q-116 0 -321 9l-36 1l-16 30q106 -6 187 -8t206 -2q100 0 175 13.5t116 33.5t47 41q0 49 -33 74.5t-90.5 34t-148.5 8.5q-186 0 -245.5 2t-74.5 9t-15 29q0 40 36.5 88.5t94 85t117.5 44.5l4 -24
q-47 -6 -99.5 -37t-90 -73.5t-43.5 -81.5q20 -11 72.5 -13.5t202.5 -2.5q115 0 184.5 -8.5t110.5 -39t41 -91.5q0 -17 -10 -31q12 -27 27.5 -39t35 -14.5t58.5 -2.5h43q5 0 5 -12v-6q0 -12 -5 -12h-45q-57 0 -87.5 13z" />
    <glyph glyph-name="uni06B5.init" unicode="&#x6b5;" horiz-adv-x="309" 
d="M-5 12v6q0 12 5 12q63 0 117.5 9t91.5 36l-14 630l25 5l10 -625q1 -42 -72.5 -63.5t-157.5 -21.5q-5 0 -5 12zM134 982l14 6q47 -80 70 -137q32 79 68 137l16 -8q-42 -68 -70 -145l-24 -4q-29 78 -74 151z" />
    <glyph glyph-name="uni06B5.medi" unicode="&#x6b5;" horiz-adv-x="343" 
d="M-5 12v6q0 12 5 12q66 0 104.5 9t56.5 37l-20 629l25 5l16 -594q1 -48 40 -67t115 -19h6q5 0 5 -12v-6q0 -12 -5 -12q-150 0 -169 58q-9 -27 -54 -42.5t-120 -15.5q-5 0 -5 12zM72 982l14 6q47 -80 70 -137q32 79 68 137l16 -8q-42 -68 -70 -145l-24 -4q-29 78 -74 151z
" />
    <glyph glyph-name="uni06B5.fina" unicode="&#x6b5;" horiz-adv-x="672" 
d="M527 35l3 -135q1 -27 -32 -52t-92 -40t-132 -15q-194 0 -194 160q0 35 38 273l22 -3q-36 -216 -36 -273q0 -64 43.5 -95.5t126.5 -31.5q172 0 236 69l-24 813l25 5l14 -610q6 -34 18.5 -48.5t30 -18t53.5 -3.5h45q5 0 5 -12v-6q0 -12 -5 -12h-57q-65 0 -88 35zM133 490
l14 6q47 -80 70 -137q32 79 68 137l16 -8q-42 -68 -70 -145l-24 -4q-29 78 -74 151z" />
    <glyph glyph-name="uni06C2.fina" unicode="&#x6c2;" horiz-adv-x="442" 
d="M359 12q-30 12 -43 54l-8 -6q-15 -12 -47 -18.5t-68 -6.5q-39 0 -76 16t-37 53q0 53 28 100.5t75.5 77t101.5 30.5l-6 58l25 7l19 -224q4 -49 11 -73t26.5 -37t59.5 -13h22q5 0 5 -12v-6q0 -12 -5 -12h-4q-49 0 -79 12zM139 73q24 -8 54 -8q39 0 61.5 4.5t50.5 13.5
l-19 201q-62 -3 -103 -34.5t-60.5 -74t-19.5 -81.5q12 -13 36 -21zM187 475l79 24q-30 45 -30 75q0 21 23.5 31.5t53.5 10.5q16 0 31 -3v-17q-18 2 -30 2q-40 0 -63 -16q0 -30 32 -78l101 30v-20l-197 -58v19z" />
    <glyph glyph-name="uni06C3.fina" unicode="&#x6c3;" horiz-adv-x="442" 
d="M359 12q-30 12 -43 54l-8 -6q-15 -12 -47 -18.5t-68 -6.5q-39 0 -76 16t-37 53q0 53 28 100.5t75.5 77t101.5 30.5l-6 58l25 7l19 -224q4 -49 11 -73t26.5 -37t59.5 -13h22q5 0 5 -12v-6q0 -12 -5 -12h-4q-49 0 -79 12zM139 73q24 -8 54 -8q39 0 61.5 4.5t50.5 13.5
l-19 201q-62 -3 -103 -34.5t-60.5 -74t-19.5 -81.5q12 -13 36 -21zM204 506l29 38l37 -28l-29 -38zM327 544l37 -28l-29 -38l-37 28z" />
    <glyph glyph-name="uni06CE.init" unicode="&#x6ce;" horiz-adv-x="309" 
d="M-5 12v6q0 12 5 12q146 0 208 45l-13 240l24 5q10 -184 10 -235q0 -16 -12 -29.5t-31 -22.5q-40 -17 -89.5 -25t-96.5 -8q-5 0 -5 12zM19 -158l29 38l37 -28l-29 -38zM142 -120l37 -28l-29 -38l-37 28zM117 574l14 6q47 -80 70 -137q32 79 68 137l16 -8q-42 -68 -70 -145
l-24 -4q-29 78 -74 151z" />
    <glyph glyph-name="uni06CE.medi" unicode="&#x6ce;" horiz-adv-x="312" 
d="M-5 12v6q0 12 5 12q54 0 84.5 8t64.5 29l-17 215l23 3l16 -218q37 -37 141 -37q5 0 5 -12v-6q0 -12 -5 -12q-64 0 -102 13.5t-50 35.5q-16 -22 -61 -35.5t-99 -13.5q-5 0 -5 12zM60 -158l29 38l37 -28l-29 -38zM183 -120l37 -28l-29 -38l-37 28zM51 546l14 6
q47 -80 70 -137q32 79 68 137l16 -8q-42 -68 -70 -145l-24 -4q-29 78 -74 151z" />
    <glyph glyph-name="uni06CE.fina" unicode="&#x6ce;" horiz-adv-x="627" 
d="M132.5 -187q-52.5 39 -52.5 121q0 35 38 273l22 -3q-35 -210 -35 -273q0 -65 46 -96t143 -31q92 0 156 14t105 59q11 49 11 64q0 27 -17 39t-56.5 16t-122.5 4l16 30h241q5 0 5 -12v-6q0 -12 -5 -12h-62q27 -18 27 -60q0 -95 -83 -130.5t-215 -35.5q-109 0 -161.5 39z
M173 469l14 6q47 -80 70 -137q32 79 68 137l16 -8q-42 -68 -70 -145l-24 -4q-29 78 -74 151z" />
    <glyph glyph-name="uni06D5.fina" unicode="&#x6d5;" horiz-adv-x="442" 
d="M359 12q-30 12 -43 54l-8 -6q-15 -12 -47 -18.5t-68 -6.5q-39 0 -76 16t-37 53q0 53 28 100.5t75.5 77t101.5 30.5l-6 58l25 7l19 -224q4 -49 11 -73t26.5 -37t59.5 -13h22q5 0 5 -12v-6q0 -12 -5 -12h-4q-49 0 -79 12zM139 73q24 -8 54 -8q39 0 61.5 4.5t50.5 13.5
l-19 201q-62 -3 -103 -34.5t-60.5 -74t-19.5 -81.5q12 -13 36 -21z" />
    <glyph glyph-name="uni0671.fina" unicode="&#x671;" horiz-adv-x="260" arabic-form="final" 
d="M124 38q-42 38 -44 107l-10 415l25 5l9 -420q1 -66 41 -90.5t107 -24.5h8q5 0 5 -12v-6q0 -12 -5 -12h-8q-86 0 -128 38zM30.5 648.5q-21.5 7.5 -21.5 34.5v33q-20 -2 -33.5 -17.5t-33.5 -46.5l-16 11q3 5 17.5 28t35.5 36.5t47 11.5v-59q0 -9 7.5 -13.5t13.5 -4.5
q30 45 57.5 75t61.5 30q28 0 40.5 -17t12.5 -51v-8q0 -14 -6 -20q-13 -13 -46 -21.5t-73 -8.5q-42 0 -63.5 7.5zM141.5 663q27.5 4 62.5 17q1 35 -7.5 51t-34.5 16q-21 0 -40.5 -19t-58.5 -69q51 0 78.5 4z" />
    <glyph glyph-name="uni067E.fina" unicode="&#x67e;" horiz-adv-x="873" arabic-form="final" 
d="M217.5 6.5q-64.5 11.5 -101 44t-36.5 92.5q0 18 5.5 61t17.5 116l22 -3q-13 -88 -16.5 -120t-3.5 -52q0 -44 27.5 -70t87 -38t160.5 -12t189.5 11.5t133.5 33.5l-13 202l23 3l13 -205q18 -25 53 -32.5t94 -7.5q5 0 5 -12v-6q0 -12 -5 -12q-74 0 -112.5 14.5t-49.5 36.5
q-10 -11 -27.5 -17.5t-47.5 -13.5q-49 -11 -120 -18t-137 -7q-97 0 -161.5 11.5zM299 -157l29 38l37 -28l-29 -38zM375 -191l37 -28l-29 -38l-37 28zM422 -119l37 -28l-29 -38l-37 28z" />
    <glyph glyph-name="uni067E.init" unicode="&#x67e;" horiz-adv-x="309" arabic-form="initial" 
d="M-5 12v6q0 12 5 12q146 0 208 45l-13 240l24 5q10 -184 10 -235q0 -16 -12 -29.5t-31 -22.5q-40 -17 -89.5 -25t-96.5 -8q-5 0 -5 12zM19 -158l29 38l37 -28l-29 -38zM95 -192l37 -28l-29 -38l-37 28zM142 -120l37 -28l-29 -38l-37 28z" />
    <glyph glyph-name="uni067E.medi" unicode="&#x67e;" horiz-adv-x="312" arabic-form="medial" 
d="M-5 12v6q0 12 5 12q54 0 84.5 8t64.5 29l-17 215l23 3l16 -218q37 -37 141 -37q5 0 5 -12v-6q0 -12 -5 -12q-64 0 -102 13.5t-50 35.5q-16 -22 -61 -35.5t-99 -13.5q-5 0 -5 12zM60 -158l29 38l37 -28l-29 -38zM136 -192l37 -28l-29 -38l-37 28zM183 -120l37 -28l-29 -38
l-37 28z" />
    <glyph glyph-name="uni0679.fina" unicode="&#x679;" horiz-adv-x="873" arabic-form="final" 
d="M217.5 6.5q-64.5 11.5 -101 44t-36.5 92.5q0 18 5.5 61t17.5 116l22 -3q-13 -88 -16.5 -120t-3.5 -52q0 -44 27.5 -70t87 -38t160.5 -12t189.5 11.5t133.5 33.5l-13 202l23 3l13 -205q18 -25 53 -32.5t94 -7.5q5 0 5 -12v-6q0 -12 -5 -12q-74 0 -112.5 14.5t-49.5 36.5
q-10 -11 -27.5 -17.5t-47.5 -13.5q-49 -11 -120 -18t-137 -7q-97 0 -161.5 11.5zM309 357h20l11 20q8 15 11 32.5t3 54.5l-2 97l15 4v-97v-38q0 -16 -1 -21q25 32 45.5 50t40.5 18q27 0 42 -19.5t15 -57.5q0 -29 -30 -45t-82 -16h-85zM399 357q44 0 66 10.5t29 24.5
q0 33 -13.5 50t-32.5 17q-18 0 -41 -24.5t-63 -77.5h55z" />
    <glyph glyph-name="uni0679.init" unicode="&#x679;" horiz-adv-x="309" arabic-form="initial" 
d="M-5 12v6q0 12 5 12q146 0 208 45l-13 240l24 5q10 -184 10 -235q0 -16 -12 -29.5t-31 -22.5q-40 -17 -89.5 -25t-96.5 -8q-5 0 -5 12zM101 441h20l11 20q8 15 11 32.5t3 54.5l-2 97l15 4v-97v-38q0 -16 -1 -21q25 32 45.5 50t40.5 18q27 0 42 -19.5t15 -57.5
q0 -29 -30 -45t-82 -16h-85zM191 441q44 0 66 10.5t29 24.5q0 33 -13.5 50t-32.5 17q-18 0 -41 -24.5t-63 -77.5h55z" />
    <glyph glyph-name="uni0679.medi" unicode="&#x679;" horiz-adv-x="312" arabic-form="medial" 
d="M-5 12v6q0 12 5 12q54 0 84.5 8t64.5 29l-17 215l23 3l16 -218q37 -37 141 -37q5 0 5 -12v-6q0 -12 -5 -12q-64 0 -102 13.5t-50 35.5q-16 -22 -61 -35.5t-99 -13.5q-5 0 -5 12zM35 413h20l11 20q8 15 11 32.5t3 54.5l-2 97l15 4v-97v-38q0 -16 -1 -21q25 32 45.5 50
t40.5 18q27 0 42 -19.5t15 -57.5q0 -29 -30 -45t-82 -16h-85zM125 413q44 0 66 10.5t29 24.5q0 33 -13.5 50t-32.5 17q-18 0 -41 -24.5t-63 -77.5h55z" />
    <glyph glyph-name="uni06A4.fina" unicode="&#x6a4;" horiz-adv-x="923" arabic-form="final" 
d="M217.5 6.5q-64.5 11.5 -101 44t-36.5 92.5q0 18 5.5 61t17.5 116l22 -3q-13 -88 -16.5 -120t-3.5 -52q0 -43 27.5 -69.5t87.5 -38.5t160 -12q164 0 225.5 3.5t100.5 18.5q-45 28 -80 64.5t-35 67.5q0 20 21.5 60t55 71t70.5 31q33 0 61 -26t44.5 -72t16.5 -105
q0 -18 -19 -34.5t-78 -55.5q39 -18 106 -18h54q5 0 5 -12v-6q0 -12 -5 -12h-35q-50 0 -83.5 7t-71.5 26q-11 -6 -36 -14q-42 -14 -119.5 -19t-198.5 -5q-97 0 -161.5 11.5zM648.5 124.5q34.5 -30.5 87.5 -64.5l101 70q0 69 -26.5 126t-77.5 57q-26 0 -53.5 -27t-46.5 -60
t-19 -43q0 -28 34.5 -58.5zM658 489l29 38l37 -28l-29 -38zM734 614l37 -28l-29 -38l-37 28zM781 527l37 -28l-29 -38l-37 28z" />
    <glyph glyph-name="uni06A4.init" unicode="&#x6a4;" horiz-adv-x="416" arabic-form="initial" 
d="M-5 12v6q0 12 5 12q123 0 193.5 7t111.5 26q5 29 5 80q-52 -13 -128 -13q-26 0 -57.5 6.5t-43.5 20.5q-6 7 -10 17t-4 30q0 34 13 84t45 89.5t83 39.5q128 0 128 -239q0 -63 -4 -92.5t-14.5 -42t-33.5 -19.5q-40 -12 -97 -18t-187 -6q-5 0 -5 12zM125 165.5
q23 -5.5 54 -5.5q87 0 131 14q0 109 -26.5 162t-81.5 53q-33 0 -58 -28.5t-39 -76t-14 -104.5q11 -9 34 -14.5zM129 565l29 38l37 -28l-29 -38zM205 690l37 -28l-29 -38l-37 28zM252 603l37 -28l-29 -38l-37 28z" />
    <glyph glyph-name="uni06A4.medi" unicode="&#x6a4;" horiz-adv-x="411" arabic-form="medial" 
d="M-5 12v6q0 12 5 12h95q56 0 100 16q-46 29 -81 65.5t-35 67.5q0 20 21.5 60t55 71t71.5 31q33 0 61 -26t44.5 -72t16.5 -105q0 -18 -19 -34.5t-78 -55.5q20 -9 44.5 -13.5t60.5 -4.5h54q5 0 5 -12v-6q0 -12 -5 -12h-34q-50 0 -83.5 7t-72.5 26q-66 -33 -166 -33h-55
q-5 0 -5 12zM137.5 124.5q34.5 -30.5 87.5 -64.5l101 70q0 69 -26.5 126t-77.5 57q-26 0 -53.5 -27t-46.5 -60t-19 -43q0 -28 34.5 -58.5zM148 489l29 38l37 -28l-29 -38zM224 614l37 -28l-29 -38l-37 28zM271 527l37 -28l-29 -38l-37 28z" />
    <glyph glyph-name="uni0686.fina" unicode="&#x686;" horiz-adv-x="637" arabic-form="final" 
d="M503.5 19.5q-42.5 19.5 -65.5 64t-30 122.5q-79 -24 -148 -68.5t-112 -111.5t-43 -150q0 -64 33.5 -111t93 -72t136.5 -25q56 0 95.5 7t75.5 22l-1 -28q-37 -15 -76 -22t-94 -7q-132 0 -210 61t-78 170q0 118 84 221t283 152q-25 5 -61 19t-90 37q-55 24 -84.5 35
t-44.5 11q-25 0 -38.5 -19.5t-21.5 -63.5l-22 4q13 55 31.5 80.5t57.5 25.5q17 0 45 -10.5t83 -34.5q84 -36 141 -55.5t105 -19.5l-1 -25q-57 0 -118 -16q8 -77 30 -116t59.5 -52.5t101.5 -13.5h17q5 0 5 -12v-6q0 -12 -5 -12h-21q-70 0 -112.5 19.5zM297 -28l37 -28
l-29 -38l-37 28zM344 -100l37 -28l-29 -38l-37 28zM391 -28l37 -28l-29 -38l-37 28z" />
    <glyph glyph-name="uni0686.init" unicode="&#x686;" horiz-adv-x="621" arabic-form="initial" 
d="M-5 12v6q0 12 5 12h41q66 0 129.5 23t142.5 73q97 61 144 72q-22 4 -58.5 17.5t-61.5 23.5t-38 15q-54 23 -87 35t-48 12q-26 0 -39.5 -19t-21.5 -64l-22 4q13 55 31.5 80.5t57.5 25.5q17 0 47 -10.5t87 -34.5q87 -36 145.5 -55.5t106.5 -19.5l-2 -25q-58 0 -103.5 -15
t-112.5 -57q-59 -38 -100.5 -60t-93.5 -36.5t-114 -14.5h-30q-5 0 -5 12zM215 -158l29 38l37 -28l-29 -38zM291 -192l37 -28l-29 -38l-37 28zM338 -120l37 -28l-29 -38l-37 28z" />
    <glyph glyph-name="uni0686.medi" unicode="&#x686;" horiz-adv-x="597" arabic-form="medial" 
d="M-5 12v6q0 12 5 12h41q66 0 129.5 23t142.5 73q97 61 144 72q-22 4 -58.5 17.5t-61.5 23.5t-38 15q-54 23 -87 35t-48 12q-26 0 -39.5 -19t-21.5 -64l-22 4q13 55 31.5 80.5t57.5 25.5q17 0 47 -10.5t87 -34.5q87 -36 145.5 -55.5t106.5 -19.5l-2 -25q-37 0 -66 -5
t-59 -18q3 -50 14.5 -78t36.5 -40t70 -12h47q5 0 5 -12v-6q0 -12 -5 -12h-35q-61 0 -94 18t-45.5 50t-15.5 83q-33 -17 -69 -40q-59 -38 -100.5 -60t-93.5 -36.5t-114 -14.5h-30q-5 0 -5 12zM215 -158l29 38l37 -28l-29 -38zM291 -192l37 -28l-29 -38l-37 28zM338 -120
l37 -28l-29 -38l-37 28z" />
    <glyph glyph-name="uni0688.fina" unicode="&#x688;" horiz-adv-x="560" arabic-form="final" 
d="M99.5 -5.5q-17.5 9.5 -23.5 31t-6 64.5v23h20v-13q0 -43 3.5 -59t15.5 -21t45 -5q71 0 141.5 21.5t100.5 54.5l-69 311l24 14l54 -255q14 -66 28 -91.5t39.5 -32.5t87.5 -7q5 0 5 -12v-6q0 -12 -5 -12h-25q-53 0 -84.5 16t-43.5 55q-6 -10 -25 -24q-35 -26 -103 -44
t-125 -18q-37 0 -54.5 9.5zM225 531h20l11 20q8 15 11 32.5t3 54.5l-2 97l15 4v-97v-38q0 -16 -1 -21q25 32 45.5 50t40.5 18q27 0 42 -19.5t15 -57.5q0 -29 -30 -45t-82 -16h-85zM315 531q44 0 66 10.5t29 24.5q0 33 -13.5 50t-32.5 17q-18 0 -41 -24.5t-63 -77.5h55z" />
    <glyph glyph-name="uni0698.fina" unicode="&#x698;" horiz-adv-x="345" arabic-form="final" 
d="M221 14.5q-31 14.5 -46 39.5q2 -19 2 -45q0 -41 -33.5 -88.5t-93.5 -91t-135 -72.5l-15 23q108 44 177.5 107t79.5 118l-22 250l23 5l14 -148q4 -39 39.5 -60.5t81.5 -21.5h52q5 0 5 -12v-6q0 -12 -5 -12h-52q-41 0 -72 14.5zM55 403l29 38l37 -28l-29 -38zM131 528
l37 -28l-29 -38l-37 28zM178 441l37 -28l-29 -38l-37 28z" />
    <glyph glyph-name="uni0691.fina" unicode="&#x691;" horiz-adv-x="345" arabic-form="final" 
d="M221 14.5q-31 14.5 -46 39.5q2 -19 2 -45q0 -41 -33.5 -88.5t-93.5 -91t-135 -72.5l-15 23q108 44 177.5 107t79.5 118l-22 250l23 5l14 -148q4 -39 39.5 -60.5t81.5 -21.5h52q5 0 5 -12v-6q0 -12 -5 -12h-52q-41 0 -72 14.5zM35 389h20l11 20q8 15 11 32.5t3 54.5l-2 97
l15 4v-97v-38q0 -16 -1 -21q25 32 45.5 50t40.5 18q27 0 42 -19.5t15 -57.5q0 -29 -30 -45t-82 -16h-85zM125 389q44 0 66 10.5t29 24.5q0 33 -13.5 50t-32.5 17q-18 0 -41 -24.5t-63 -77.5h55z" />
    <glyph glyph-name="uni06A9.fina" unicode="&#x6a9;" horiz-adv-x="878" arabic-form="final" 
d="M752 12.5q-24 12.5 -32 44.5q-24 -31 -111.5 -46.5t-229.5 -15.5q-97 0 -161.5 11.5t-101 44t-36.5 92.5q0 18 5.5 61t17.5 116l22 -3q-13 -88 -16.5 -120t-3.5 -52q0 -43 27.5 -69.5t87.5 -38.5t160 -12q135 0 212.5 12t113.5 35q0 103 -21 182t-75 150t-151 140l5 30
q87 46 155.5 77t147.5 59l4 -28q-136 -45 -286 -125q120 -84 178 -186t65 -244q2 -46 14 -67t28.5 -25.5t46.5 -4.5h61q5 0 5 -12v-6q0 -12 -5 -12h-65q-37 0 -61 12.5z" />
    <glyph glyph-name="uni06A9.init" unicode="&#x6a9;" horiz-adv-x="377" arabic-form="initial" 
d="M-5 12v6q0 12 5 12q194 0 261 42q0 103 -21 182t-75 150t-151 140l5 30q87 46 155.5 77t147.5 59l4 -28q-136 -45 -286 -125q130 -91 187 -202.5t57 -273.5q0 -41 -79.5 -61t-204.5 -20q-5 0 -5 12z" />
    <glyph glyph-name="uni06A9.medi" unicode="&#x6a9;" horiz-adv-x="433" arabic-form="medial" 
d="M307 12.5q-24 12.5 -32 44.5q-23 -29 -97 -43t-178 -14q-5 0 -5 12v6q0 12 5 12q194 0 261 42q0 103 -21 182t-75 150t-151 140l5 30q87 46 155.5 77t147.5 59l4 -28q-136 -45 -286 -125q120 -84 178 -186t65 -244q2 -46 14 -67t28.5 -25.5t46.5 -4.5h61q5 0 5 -12v-6
q0 -12 -5 -12h-65q-37 0 -61 12.5z" />
    <glyph glyph-name="uni06AF.fina" unicode="&#x6af;" horiz-adv-x="878" arabic-form="final" 
d="M752 12.5q-24 12.5 -32 44.5q-24 -31 -111.5 -46.5t-229.5 -15.5q-97 0 -161.5 11.5t-101 44t-36.5 92.5q0 18 5.5 61t17.5 116l22 -3q-13 -88 -16.5 -120t-3.5 -52q0 -43 27.5 -69.5t87.5 -38.5t160 -12q135 0 212.5 12t113.5 35q0 103 -21 182t-75 150t-151 140l5 30
q87 46 155.5 77t147.5 59l4 -28q-136 -45 -286 -125q120 -84 178 -186t65 -244q2 -46 14 -67t28.5 -25.5t46.5 -4.5h61q5 0 5 -12v-6q0 -12 -5 -12h-65q-37 0 -61 12.5zM473 656l152 82l4 -22l-160 -87z" />
    <glyph glyph-name="uni06AF.init" unicode="&#x6af;" horiz-adv-x="377" arabic-form="initial" 
d="M-5 12v6q0 12 5 12q194 0 261 42q0 103 -21 182t-75 150t-151 140l5 30q87 46 155.5 77t147.5 59l4 -28q-136 -45 -286 -125q130 -91 187 -202.5t57 -273.5q0 -41 -79.5 -61t-204.5 -20q-5 0 -5 12zM29 656l152 82l4 -22l-160 -87z" />
    <glyph glyph-name="uni06AF.medi" unicode="&#x6af;" horiz-adv-x="433" arabic-form="medial" 
d="M307 12.5q-24 12.5 -32 44.5q-23 -29 -97 -43t-178 -14q-5 0 -5 12v6q0 12 5 12q194 0 261 42q0 103 -21 182t-75 150t-151 140l5 30q87 46 155.5 77t147.5 59l4 -28q-136 -45 -286 -125q120 -84 178 -186t65 -244q2 -46 14 -67t28.5 -25.5t46.5 -4.5h61q5 0 5 -12v-6
q0 -12 -5 -12h-65q-37 0 -61 12.5zM29 656l152 82l4 -22l-160 -87z" />
    <glyph glyph-name="uni06BA.fina" unicode="&#x6ba;" horiz-adv-x="760" arabic-form="final" 
d="M628 10.5q-40 10.5 -55 38.5q7 -97 7 -149q0 -29 -34 -53.5t-99 -39t-153 -14.5q-214 0 -214 150q0 45 38 283l22 -3q-36 -216 -36 -273q0 -66 45.5 -96.5t144.5 -30.5q112 0 175 19.5t91 49.5l-28 388l24 5l14 -175q4 -49 45 -64.5t109 -15.5h36q5 0 5 -12v-6
q0 -12 -5 -12h-31q-61 0 -101 10.5z" />
    <glyph glyph-name="uni06C0.fina" unicode="&#x6c0;" horiz-adv-x="442" arabic-form="final" 
d="M359 12q-30 12 -43 54l-8 -6q-15 -12 -47 -18.5t-68 -6.5q-39 0 -76 16t-37 53q0 53 28 100.5t75.5 77t101.5 30.5l-6 58l25 7l19 -224q4 -49 11 -73t26.5 -37t59.5 -13h22q5 0 5 -12v-6q0 -12 -5 -12h-4q-49 0 -79 12zM139 73q24 -8 54 -8q39 0 61.5 4.5t50.5 13.5
l-19 201q-62 -3 -103 -34.5t-60.5 -74t-19.5 -81.5q12 -13 36 -21zM293.5 508q49.5 14 59.5 38q0 40 -26.5 52.5t-72.5 16.5q-25 2 -36.5 5.5t-11.5 12.5q0 14 12.5 51.5t37 68.5t58.5 31q38 0 68 -42l-17 -12q-11 14 -25 21.5t-26 7.5q-32 0 -56 -38.5t-29 -79.5
q56 -3 87 -12.5t44 -28t13 -49.5q0 -37 -53.5 -58t-139.5 -21v22q64 0 113.5 14z" />
    <glyph glyph-name="uni06C1.fina" unicode="&#x6c1;" horiz-adv-x="458" arabic-form="final" 
d="M112.5 140.5q29.5 48.5 84 80t127.5 34.5l9 -83q7 -61 18 -90.5t34 -40.5t69 -11h4q5 0 5 -12v-6q0 -12 -5 -12h-4q-70 0 -99.5 27.5t-37.5 85.5l-16 113q-82 -11 -137 -61t-62 -133l-22 6q3 54 32.5 102.5z" />
    <glyph glyph-name="uni06C1.init" unicode="&#x6c1;" horiz-adv-x="311" arabic-form="initial" 
d="M78.5 -246.5q-14.5 14.5 -14.5 43.5q0 34 19 79t42 79l16 -19q-25 -40 -40 -71t-16 -61q19 8 26 8q16 0 26.5 -10t10.5 -26t-10.5 -26.5t-26.5 -10.5q-18 0 -32.5 14.5zM-5 18q0 12 5 12q146 0 208 45l-13 240l24 5q10 -184 10 -235q0 -16 -12 -29.5t-31 -22.5
q-40 -17 -89.5 -25t-96.5 -8q-5 0 -5 12v6z" />
    <glyph glyph-name="uni06C1.medi" unicode="&#x6c1;" horiz-adv-x="409" arabic-form="medial" 
d="M189.5 -177q-42.5 25 -58 68.5t-15.5 109.5q0 27 1 41q-19 -25 -52 -33.5t-65 -8.5q-5 0 -5 12v6q0 12 5 12q46 2 71.5 13t38 38t14.5 77l25 4q-9 -90 -9 -157q0 -86 27 -126.5t94 -50.5q-25 18 -25 79q0 58 39 90.5t107 32.5h27q5 0 5 -12v-6q0 -12 -5 -12
q-82 0 -117 -24.5t-35 -82.5q0 -27 15 -47.5t36 -20.5v-27q-76 0 -118.5 25z" />
    <glyph glyph-name="uni06BE.fina" unicode="&#x6be;" horiz-adv-x="511" arabic-form="final" 
d="M208 -137.5q-33 64.5 -33 137.5h-93l16 30h74q4 59 26.5 118t57.5 97t72 38h30l12 -253h141q5 0 5 -12v-6q0 -12 -5 -12q-125 0 -154 5q30 -8 44.5 -37t14.5 -68v-31q0 -23 -2 -34t-9 -20q-9 -11 -20.5 -14t-43.5 -3q-100 0 -133 64.5zM277 33q45 0 67 -11l-11 231
q-3 1 -8 1q-34 0 -62.5 -42.5t-46 -97t-17.5 -81.5h78zM238 -132q38 -44 112 -44q19 0 40 3v74q0 35 -22 66t-73 31h-95q0 -86 38 -130z" />
    <glyph glyph-name="uni06BE.init" unicode="&#x6be;" horiz-adv-x="563" arabic-form="initial" 
d="M202 16.5q-36 -11.5 -80.5 -14t-121.5 -2.5q-5 0 -5 12v6q0 12 5 12h95q42 0 79 7t56 18q-137 26 -137 101q0 31 22.5 75t63.5 91l-56 26l10 24l220 -96q73 -32 104 -66.5t31 -88.5q0 -45 -19 -90q-6 -15 -23 -29q-11 -10 -22 -10q-5 0 -13 3l-155 57q-18 -24 -54 -35.5z
M149 113q31 -16 96 -32l74 181l-117 50q-84 -102 -84 -156q0 -27 31 -43zM433 17q14 20 22 46.5t8 54.5q0 43 -25 74t-98 60l-71 -175z" />
    <glyph glyph-name="uni06BE.medi" unicode="&#x6be;" horiz-adv-x="566" arabic-form="medial" 
d="M471 35l-2 -4q-6 -15 -23 -29q-11 -10 -22 -10q-5 0 -13 3l-155 57q-18 -24 -54 -35.5t-80.5 -14t-121.5 -2.5q-5 0 -5 12v6q0 12 5 12h95q42 0 79 7t56 18q-137 26 -137 101q0 31 22.5 75t63.5 91l-56 26l10 24l220 -96q73 -32 104 -66.5t31 -88.5q0 -33 -8 -60
q27 -31 86 -31q5 0 5 -12v-6q0 -12 -5 -12q-61 0 -95 35zM149 113q31 -16 96 -32l74 181l-117 50q-84 -102 -84 -156q0 -27 31 -43zM433 17q14 20 22 46.5t8 54.5q0 43 -25 74t-98 60l-71 -175z" />
    <glyph glyph-name="uni06D2.fina" unicode="&#x6d2;" horiz-adv-x="553" arabic-form="final" 
d="M133.5 -218.5q-53.5 23.5 -53.5 79.5q0 39 38 78.5t101 65t135 25.5h199q5 0 5 -12v-6q0 -12 -5 -12h-199q-63 0 -122.5 -21.5t-96 -56t-35.5 -71.5q21 -38 67 -50.5t145 -12.5q56 0 151 5q14 1 34 2t47 2l-9 -30l-22 -1q-131 -8 -226 -8q-100 0 -153.5 23.5z" />
    <glyph glyph-name="uni06D3.fina" unicode="&#x6d3;" horiz-adv-x="553" arabic-form="final" 
d="M133.5 -218.5q-53.5 23.5 -53.5 79.5q0 39 38 78.5t101 65t135 25.5h199q5 0 5 -12v-6q0 -12 -5 -12h-199q-63 0 -122.5 -21.5t-96 -56t-35.5 -71.5q21 -38 67 -50.5t145 -12.5q56 0 151 5q14 1 34 2t47 2l-9 -30l-22 -1q-131 -8 -226 -8q-100 0 -153.5 23.5zM157 119
l79 24q-30 45 -30 75q0 21 23.5 31.5t53.5 10.5q16 0 31 -3v-17q-18 2 -30 2q-40 0 -63 -16q0 -30 32 -78l101 30v-20l-197 -58v19z" />
    <glyph glyph-name="uni06C7.fina" unicode="&#x6c7;" horiz-adv-x="421" arabic-form="final" 
d="M224.5 -119.5q68.5 58.5 82.5 132.5q-51 -13 -127 -13q-26 0 -57.5 6.5t-43.5 20.5q-6 7 -10 17t-4 30q0 34 13 84t45 89.5t83 39.5q128 0 128 -239q0 -12 -1 -18h88q5 0 5 -12v-6q0 -12 -5 -12h-92q-19 -90 -97.5 -150.5t-166.5 -92.5l-15 23q106 42 174.5 100.5z
M123 35.5q23 -5.5 54 -5.5q87 0 131 14q0 109 -26.5 162t-81.5 53q-33 0 -58 -28.5t-39 -76t-14 -104.5q11 -9 34 -14.5zM109 404l103 30q-19 2 -25.5 10t-6.5 25q0 13 7 35.5t21.5 40t36.5 17.5q29 0 45 -29t16 -60q0 -21 -9.5 -28.5t-42.5 -17.5l-145 -42v19zM241 451
q26 0 50 8q0 42 -12.5 63t-35.5 21q-22 0 -35 -25t-12 -61q12 -6 45 -6z" />
    <glyph glyph-name="uni06C6.fina" unicode="&#x6c6;" horiz-adv-x="421" arabic-form="final" 
d="M224.5 -119.5q68.5 58.5 82.5 132.5q-51 -13 -127 -13q-26 0 -57.5 6.5t-43.5 20.5q-6 7 -10 17t-4 30q0 34 13 84t45 89.5t83 39.5q128 0 128 -239q0 -12 -1 -18h88q5 0 5 -12v-6q0 -12 -5 -12h-92q-19 -90 -97.5 -150.5t-166.5 -92.5l-15 23q106 42 174.5 100.5z
M123 35.5q23 -5.5 54 -5.5q87 0 131 14q0 109 -26.5 162t-81.5 53q-33 0 -58 -28.5t-39 -76t-14 -104.5q11 -9 34 -14.5zM122 554l14 6q47 -80 70 -137q32 79 68 137l16 -8q-42 -68 -70 -145l-24 -4q-29 78 -74 151z" />
    <glyph glyph-name="uni06CC.fina" unicode="&#x6cc;" horiz-adv-x="627" arabic-form="final" 
d="M132.5 -187q-52.5 39 -52.5 121q0 35 38 273l22 -3q-35 -210 -35 -273q0 -65 46 -96t143 -31q92 0 156 14t105 59q11 49 11 64q0 27 -17 39t-56.5 16t-122.5 4l16 30h241q5 0 5 -12v-6q0 -12 -5 -12h-62q27 -18 27 -60q0 -95 -83 -130.5t-215 -35.5q-109 0 -161.5 39z
" />
    <glyph glyph-name="uni06CC.init" unicode="&#x6cc;" horiz-adv-x="309" arabic-form="initial" 
d="M-5 12v6q0 12 5 12q146 0 208 45l-13 240l24 5q10 -184 10 -235q0 -16 -12 -29.5t-31 -22.5q-40 -17 -89.5 -25t-96.5 -8q-5 0 -5 12zM19 -158l29 38l37 -28l-29 -38zM142 -120l37 -28l-29 -38l-37 28z" />
    <glyph glyph-name="uni06CC.medi" unicode="&#x6cc;" horiz-adv-x="312" arabic-form="medial" 
d="M-5 12v6q0 12 5 12q54 0 84.5 8t64.5 29l-17 215l23 3l16 -218q37 -37 141 -37q5 0 5 -12v-6q0 -12 -5 -12q-64 0 -102 13.5t-50 35.5q-16 -22 -61 -35.5t-99 -13.5q-5 0 -5 12zM60 -158l29 38l37 -28l-29 -38zM183 -120l37 -28l-29 -38l-37 28z" />
    <glyph glyph-name="uni06260631.fina" unicode="&#xfc64;" horiz-adv-x="596" arabic-form="final" 
d="M157 163q10 -112 10 -154q0 -41 -33.5 -88.5t-93.5 -91t-135 -72.5l-15 23q108 44 177.5 107t79.5 118l-22 250l23 5l5 -45q3 -32 38.5 -40.5t90.5 -8.5q40 0 71.5 8t60.5 25l-2 81l24 4l3 -117q2 -52 17 -81.5t48.5 -42.5t91.5 -13q5 0 5 -12v-6q0 -12 -5 -12
q-67 0 -105 16t-56 53.5t-20 102.5q-26 -17 -61.5 -26.5t-71.5 -9.5q-98 0 -125 27zM322 396l79 24q-30 45 -30 75q0 21 23.5 31.5t53.5 10.5q16 0 31 -3v-17q-18 2 -30 2q-40 0 -63 -16q0 -30 32 -78l101 30v-20l-197 -58v19z" />
    <glyph glyph-name="uni06260649.fina" unicode="&#xfc68;" horiz-adv-x="850" arabic-form="final" 
d="M132.5 -186q-52.5 39 -52.5 121q0 35 38 273l22 -3q-35 -210 -35 -273q0 -65 46 -96t143 -31q89 0 151 14t104 58q18 44 18 77q0 39 -18.5 60t-55.5 27q-24 4 -68 6q-41 2 -57 8t-16 28q0 51 35 106.5t88.5 93t103.5 37.5q35 0 59 -19.5t39 -47.5t34 -76q20 -49 36 -78
t41 -49t62 -20q5 0 5 -12v-6q0 -12 -5 -12q-43 0 -72 22.5t-46.5 54.5t-39.5 85q-18 45 -31.5 70.5t-33.5 43t-48 17.5q-41 0 -89.5 -33t-81.5 -83t-32 -97q83 -4 127 -13t66.5 -32.5t22.5 -71.5q0 -110 -82 -149t-216 -39q-109 0 -161.5 39zM482 424l79 24q-30 45 -30 75
q0 21 23.5 31.5t53.5 10.5q16 0 31 -3v-17q-18 2 -30 2q-40 0 -63 -16q0 -30 32 -78l101 30v-20l-197 -58v19z" />
    <glyph glyph-name="uni06280631.fina" unicode="&#xfc6a;" horiz-adv-x="596" arabic-form="final" 
d="M157 163q10 -112 10 -154q0 -41 -33.5 -88.5t-93.5 -91t-135 -72.5l-15 23q108 44 177.5 107t79.5 118l-22 250l23 5l5 -45q3 -32 38.5 -40.5t90.5 -8.5q40 0 71.5 8t60.5 25l-2 81l24 4l3 -117q2 -52 17 -81.5t48.5 -42.5t91.5 -13q5 0 5 -12v-6q0 -12 -5 -12
q-67 0 -105 16t-56 53.5t-20 102.5q-26 -17 -61.5 -26.5t-71.5 -9.5q-98 0 -125 27zM299 -107l29 38l37 -28l-29 -38z" />
    <glyph glyph-name="uni06280632.fina" unicode="&#xfc6b;" horiz-adv-x="606" arabic-form="final" 
d="M102 403l29 38l37 -28l-29 -38zM77.5 -113q69.5 63 79.5 118l-22 250l23 5l5 -45q3 -32 38.5 -40.5t90.5 -8.5q40 0 71.5 8t60.5 25l-2 81l24 4l3 -117q2 -52 17 -81.5t48.5 -42.5t91.5 -13q5 0 5 -12v-6q0 -12 -5 -12q-67 0 -105 16t-56 53.5t-20 102.5
q-26 -17 -61.5 -26.5t-71.5 -9.5q-98 0 -125 27q10 -112 10 -154q0 -41 -33.5 -88.5t-93.5 -91t-135 -72.5l-15 23q108 44 177.5 107zM338 -53l37 -28l-29 -38l-37 28z" />
    <glyph glyph-name="uni06280646.fina" unicode="&#xfc6d;" horiz-adv-x="1005" arabic-form="final" 
d="M900 16q-38 16 -56 53.5t-20 102.5q-26 -17 -61.5 -26.5t-71.5 -9.5q-99 0 -126 27q15 -194 15 -263q0 -29 -34 -53.5t-99 -39t-153 -14.5q-214 0 -214 150q0 45 38 283l22 -3q-36 -216 -36 -273q0 -66 45.5 -96.5t144.5 -30.5q112 0 175 19.5t91 49.5l-28 388l24 5
l4 -51l2 -19q3 -32 38.5 -40.5t90.5 -8.5q40 0 71.5 8t60.5 25l-2 81l24 4l3 -117q2 -52 17 -81.5t48.5 -42.5t91.5 -13q5 0 5 -12v-6q0 -12 -5 -12q-67 0 -105 16zM331 410l37 -28l-29 -38l-37 28zM736 -53l37 -28l-29 -38l-37 28z" />
    <glyph glyph-name="uni06280649.fina" unicode="&#xfc6e;" horiz-adv-x="850" arabic-form="final" 
d="M132.5 -186q-52.5 39 -52.5 121q0 35 38 273l22 -3q-35 -210 -35 -273q0 -65 46 -96t143 -31q89 0 151 14t104 58q18 44 18 77q0 39 -18.5 60t-55.5 27q-24 4 -68 6q-41 2 -57 8t-16 28q0 51 35 106.5t88.5 93t103.5 37.5q35 0 59 -19.5t39 -47.5t34 -76q20 -49 36 -78
t41 -49t62 -20q5 0 5 -12v-6q0 -12 -5 -12q-43 0 -72 22.5t-46.5 54.5t-39.5 85q-18 45 -31.5 70.5t-33.5 43t-48 17.5q-41 0 -89.5 -33t-81.5 -83t-32 -97q83 -4 127 -13t66.5 -32.5t22.5 -71.5q0 -110 -82 -149t-216 -39q-109 0 -161.5 39zM737 -158l29 38l37 -28l-29 -38
z" />
    <glyph glyph-name="uni062A0631.fina" unicode="&#xfc70;" horiz-adv-x="596" arabic-form="final" 
d="M157 163q10 -112 10 -154q0 -41 -33.5 -88.5t-93.5 -91t-135 -72.5l-15 23q108 44 177.5 107t79.5 118l-22 250l23 5l5 -45q3 -32 38.5 -40.5t90.5 -8.5q40 0 71.5 8t60.5 25l-2 81l24 4l3 -117q2 -52 17 -81.5t48.5 -42.5t91.5 -13q5 0 5 -12v-6q0 -12 -5 -12
q-67 0 -105 16t-56 53.5t-20 102.5q-26 -17 -61.5 -26.5t-71.5 -9.5q-98 0 -125 27zM339 427l29 38l37 -28l-29 -38zM462 465l37 -28l-29 -38l-37 28z" />
    <glyph glyph-name="uni062B0631.fina" unicode="&#xfc76;" horiz-adv-x="596" arabic-form="final" 
d="M157 163q10 -112 10 -154q0 -41 -33.5 -88.5t-93.5 -91t-135 -72.5l-15 23q108 44 177.5 107t79.5 118l-22 250l23 5l5 -45q3 -32 38.5 -40.5t90.5 -8.5q40 0 71.5 8t60.5 25l-2 81l24 4l3 -117q2 -52 17 -81.5t48.5 -42.5t91.5 -13q5 0 5 -12v-6q0 -12 -5 -12
q-67 0 -105 16t-56 53.5t-20 102.5q-26 -17 -61.5 -26.5t-71.5 -9.5q-98 0 -125 27zM339 427l29 38l37 -28l-29 -38zM415 552l37 -28l-29 -38l-37 28zM462 465l37 -28l-29 -38l-37 28z" />
    <glyph glyph-name="uni062B0649.fina" unicode="&#xfc7a;" horiz-adv-x="850" arabic-form="final" 
d="M132.5 -186q-52.5 39 -52.5 121q0 35 38 273l22 -3q-35 -210 -35 -273q0 -65 46 -96t143 -31q89 0 151 14t104 58q18 44 18 77q0 39 -18.5 60t-55.5 27q-24 4 -68 6q-41 2 -57 8t-16 28q0 51 35 106.5t88.5 93t103.5 37.5q35 0 59 -19.5t39 -47.5t34 -76q20 -49 36 -78
t41 -49t62 -20q5 0 5 -12v-6q0 -12 -5 -12q-43 0 -72 22.5t-46.5 54.5t-39.5 85q-18 45 -31.5 70.5t-33.5 43t-48 17.5q-41 0 -89.5 -33t-81.5 -83t-32 -97q83 -4 127 -13t66.5 -32.5t22.5 -71.5q0 -110 -82 -149t-216 -39q-109 0 -161.5 39zM499 455l29 38l37 -28l-29 -38z
M575 580l37 -28l-29 -38l-37 28zM622 493l37 -28l-29 -38l-37 28z" />
    <glyph glyph-name="uni06460631.fina" unicode="&#xfc8a;" horiz-adv-x="596" arabic-form="final" 
d="M157 163q10 -112 10 -154q0 -41 -33.5 -88.5t-93.5 -91t-135 -72.5l-15 23q108 44 177.5 107t79.5 118l-22 250l23 5l5 -45q3 -32 38.5 -40.5t90.5 -8.5q40 0 71.5 8t60.5 25l-2 81l24 4l3 -117q2 -52 17 -81.5t48.5 -42.5t91.5 -13q5 0 5 -12v-6q0 -12 -5 -12
q-67 0 -105 16t-56 53.5t-20 102.5q-26 -17 -61.5 -26.5t-71.5 -9.5q-98 0 -125 27zM386 427l29 38l37 -28l-29 -38z" />
    <glyph glyph-name="uni064A0631.fina" unicode="&#xfc91;" horiz-adv-x="596" arabic-form="final" 
d="M157 163q10 -112 10 -154q0 -41 -33.5 -88.5t-93.5 -91t-135 -72.5l-15 23q108 44 177.5 107t79.5 118l-22 250l23 5l5 -45q3 -32 38.5 -40.5t90.5 -8.5q40 0 71.5 8t60.5 25l-2 81l24 4l3 -117q2 -52 17 -81.5t48.5 -42.5t91.5 -13q5 0 5 -12v-6q0 -12 -5 -12
q-67 0 -105 16t-56 53.5t-20 102.5q-26 -17 -61.5 -26.5t-71.5 -9.5q-98 0 -125 27zM252 -107l29 38l37 -28l-29 -38zM375 -69l37 -28l-29 -38l-37 28z" />
    <glyph glyph-name="uni064A0649.fina" unicode="&#xfc95;" horiz-adv-x="850" arabic-form="final" 
d="M132.5 -186q-52.5 39 -52.5 121q0 35 38 273l22 -3q-35 -210 -35 -273q0 -65 46 -96t143 -31q89 0 151 14t104 58q18 44 18 77q0 39 -18.5 60t-55.5 27q-24 4 -68 6q-41 2 -57 8t-16 28q0 51 35 106.5t88.5 93t103.5 37.5q35 0 59 -19.5t39 -47.5t34 -76q20 -49 36 -78
t41 -49t62 -20q5 0 5 -12v-6q0 -12 -5 -12q-43 0 -72 22.5t-46.5 54.5t-39.5 85q-18 45 -31.5 70.5t-33.5 43t-48 17.5q-41 0 -89.5 -33t-81.5 -83t-32 -97q83 -4 127 -13t66.5 -32.5t22.5 -71.5q0 -110 -82 -149t-216 -39q-109 0 -161.5 39zM690 -158l29 38l37 -28l-29 -38
zM813 -120l37 -28l-29 -38l-37 28z" />
    <glyph glyph-name="uni06330649" unicode="&#xfcfb;" horiz-adv-x="1244" arabic-form="isolated" 
d="M132.5 -186q-52.5 39 -52.5 121q0 35 38 273l22 -3q-35 -210 -35 -273q0 -65 46 -96t143 -31q89 0 151 14t104 58q18 44 18 77q0 39 -18.5 60t-55.5 27q-24 4 -68 6q-41 2 -57 8t-16 28q0 51 35 106.5t88.5 93t103.5 37.5q35 0 59.5 -20t39 -48.5t33.5 -76.5t33.5 -77
t38.5 -48.5t59 -19.5q75 0 103 21l-5 224h25l4 -217q19 -28 68 -28q34 0 60 4.5t46 21.5l-12 259l23 5l10 -251q0 -39 -39.5 -54t-90.5 -15q-29 0 -51 11.5t-27 27.5q-6 -21 -42 -30t-72 -9q-41 0 -68.5 22.5t-44.5 54.5t-37 83q-17 45 -31 71.5t-34 44t-48 17.5
q-41 0 -89.5 -33t-81.5 -83t-32 -97q83 -4 127 -13t66.5 -32.5t22.5 -71.5q0 -110 -82 -149t-216 -39q-109 0 -161.5 39z" />
    <glyph glyph-name="uni06340649" unicode="&#xfcfd;" horiz-adv-x="1244" arabic-form="isolated" 
d="M132.5 -186q-52.5 39 -52.5 121q0 35 38 273l22 -3q-35 -210 -35 -273q0 -65 46 -96t143 -31q89 0 151 14t104 58q18 44 18 77q0 39 -18.5 60t-55.5 27q-24 4 -68 6q-41 2 -57 8t-16 28q0 51 35 106.5t88.5 93t103.5 37.5q35 0 59.5 -20t39 -48.5t33.5 -76.5t33.5 -77
t38.5 -48.5t59 -19.5q75 0 103 21l-5 224h25l4 -217q19 -28 68 -28q34 0 60 4.5t46 21.5l-12 259l23 5l10 -251q0 -39 -39.5 -54t-90.5 -15q-29 0 -51 11.5t-27 27.5q-6 -21 -42 -30t-72 -9q-41 0 -68.5 22.5t-44.5 54.5t-37 83q-17 45 -31 71.5t-34 44t-48 17.5
q-41 0 -89.5 -33t-81.5 -83t-32 -97q83 -4 127 -13t66.5 -32.5t22.5 -71.5q0 -110 -82 -149t-216 -39q-109 0 -161.5 39zM860 423l29 38l37 -28l-29 -38zM936 548l37 -28l-29 -38l-37 28zM983 461l37 -28l-29 -38l-37 28z" />
    <glyph glyph-name="uni06350649" unicode="&#xfd05;" horiz-adv-x="1272" arabic-form="isolated" 
d="M132.5 -188q-52.5 39 -52.5 121q0 35 38 273l22 -3q-35 -210 -35 -273q0 -65 46 -96t143 -31q89 0 151 14t104 58q18 44 18 77q0 39 -18.5 60t-55.5 27q-24 4 -68 6q-41 2 -57 8t-16 28q0 51 35 107t88.5 94t103.5 38q35 0 59.5 -20t39 -48.5t34.5 -79.5q14 -38 22 -55
q194 211 310 211q148 0 148 -192q0 -23 -4.5 -43t-14.5 -28q-35 -27 -121.5 -46t-212.5 -19q-40 0 -67 22t-43.5 53.5t-36.5 83.5q-18 45 -31.5 71.5t-33.5 44.5t-48 18q-41 0 -89.5 -33.5t-81.5 -84t-32 -97.5q83 -4 127 -13t66.5 -32.5t22.5 -71.5q0 -110 -82 -149
t-216 -39q-109 0 -161.5 39zM839 30q102 0 184 12.5t142 45.5q2 28 2 44q0 169 -124 169q-55 0 -133.5 -57t-163.5 -151q36 -63 93 -63z" />
    <glyph glyph-name="uni06360649" unicode="&#xfd07;" horiz-adv-x="1272" arabic-form="isolated" 
d="M132.5 -188q-52.5 39 -52.5 121q0 35 38 273l22 -3q-35 -210 -35 -273q0 -65 46 -96t143 -31q89 0 151 14t104 58q18 44 18 77q0 39 -18.5 60t-55.5 27q-24 4 -68 6q-41 2 -57 8t-16 28q0 51 35 107t88.5 94t103.5 38q35 0 59.5 -20t39 -48.5t34.5 -79.5q14 -38 22 -55
q194 211 310 211q148 0 148 -192q0 -23 -4.5 -43t-14.5 -28q-35 -27 -121.5 -46t-212.5 -19q-40 0 -67 22t-43.5 53.5t-36.5 83.5q-18 45 -31.5 71.5t-33.5 44.5t-48 18q-41 0 -89.5 -33.5t-81.5 -84t-32 -97.5q83 -4 127 -13t66.5 -32.5t22.5 -71.5q0 -110 -82 -149
t-216 -39q-109 0 -161.5 39zM839 30q102 0 184 12.5t142 45.5q2 28 2 44q0 169 -124 169q-55 0 -133.5 -57t-163.5 -151q36 -63 93 -63zM923 485l29 38l37 -28l-29 -38z" />
    <glyph glyph-name="uni06330649.fina" unicode="&#xfd17;" horiz-adv-x="1327" arabic-form="final" 
d="M1190.5 13q-20.5 13 -29.5 38q-10 -29 -46.5 -40t-80.5 -11q-29 0 -51 11.5t-27 27.5q-6 -21 -42 -30t-72 -9q-41 0 -68.5 22.5t-44.5 54.5t-37 83q-17 45 -31 71.5t-34 44t-48 17.5q-41 0 -89.5 -33t-81.5 -83t-32 -97q83 -4 127 -13t66.5 -32.5t22.5 -71.5
q0 -110 -82 -149t-216 -39q-109 0 -161.5 39t-52.5 121q0 35 38 273l22 -3q-35 -210 -35 -273q0 -65 46 -96t143 -31q89 0 151 14t104 58q18 44 18 77q0 39 -18.5 60t-55.5 27q-24 4 -68 6q-41 2 -57 8t-16 28q0 51 35 106.5t88.5 93t103.5 37.5q35 0 59.5 -20t39 -48.5
t33.5 -76.5t33.5 -77t38.5 -48.5t59 -19.5q75 0 103 21l-5 224h25l4 -217q19 -28 68 -28q34 0 60 4.5t46 21.5l-12 259l23 5l9 -197q2 -50 22 -71.5t64 -21.5h78q5 0 5 -12v-6q0 -12 -5 -12h-78q-38 0 -58.5 13z" />
    <glyph glyph-name="uni06340649.fina" unicode="&#xfd19;" horiz-adv-x="1327" arabic-form="final" 
d="M1190.5 13q-20.5 13 -29.5 38q-10 -29 -46.5 -40t-80.5 -11q-29 0 -51 11.5t-27 27.5q-6 -21 -42 -30t-72 -9q-41 0 -68.5 22.5t-44.5 54.5t-37 83q-17 45 -31 71.5t-34 44t-48 17.5q-41 0 -89.5 -33t-81.5 -83t-32 -97q83 -4 127 -13t66.5 -32.5t22.5 -71.5
q0 -110 -82 -149t-216 -39q-109 0 -161.5 39t-52.5 121q0 35 38 273l22 -3q-35 -210 -35 -273q0 -65 46 -96t143 -31q89 0 151 14t104 58q18 44 18 77q0 39 -18.5 60t-55.5 27q-24 4 -68 6q-41 2 -57 8t-16 28q0 51 35 106.5t88.5 93t103.5 37.5q35 0 59.5 -20t39 -48.5
t33.5 -76.5t33.5 -77t38.5 -48.5t59 -19.5q75 0 103 21l-5 224h25l4 -217q19 -28 68 -28q34 0 60 4.5t46 21.5l-12 259l23 5l9 -197q2 -50 22 -71.5t64 -21.5h78q5 0 5 -12v-6q0 -12 -5 -12h-78q-38 0 -58.5 13zM860 423l29 38l37 -28l-29 -38zM936 548l37 -28l-29 -38
l-37 28zM983 461l37 -28l-29 -38l-37 28z" />
    <glyph glyph-name="uni06350649.fina" unicode="&#xfd21;" horiz-adv-x="1288" arabic-form="final" 
d="M1173 65q-35 -27 -121.5 -46t-212.5 -19q-40 0 -67 22t-43.5 53.5t-36.5 83.5q-18 45 -31.5 71.5t-33.5 44.5t-48 18q-41 0 -89.5 -33.5t-81.5 -84t-32 -97.5q83 -4 127 -13t66.5 -32.5t22.5 -71.5q0 -110 -82 -149t-216 -39q-109 0 -161.5 39t-52.5 121q0 35 38 273
l22 -3q-35 -210 -35 -273q0 -65 46 -96t143 -31q89 0 151 14t104 58q18 44 18 77q0 39 -18.5 60t-55.5 27q-24 4 -68 6q-41 2 -57 8t-16 28q0 51 35 107t88.5 94t103.5 38q35 0 59.5 -20t39 -48.5t34.5 -79.5q14 -38 22 -55q194 211 310 211q148 0 148 -192q0 -31 -6 -49
q11 -32 40 -44.5t62 -12.5q5 0 5 -12v-6q0 -12 -5 -12q-82 0 -115 65zM839 30q102 0 184 12.5t142 45.5q2 28 2 44q0 169 -124 169q-55 0 -133.5 -57t-163.5 -151q36 -63 93 -63z" />
    <glyph glyph-name="uni06360649.fina" unicode="&#xfd23;" horiz-adv-x="1288" arabic-form="final" 
d="M1173 65q-35 -27 -121.5 -46t-212.5 -19q-40 0 -67 22t-43.5 53.5t-36.5 83.5q-18 45 -31.5 71.5t-33.5 44.5t-48 18q-41 0 -89.5 -33.5t-81.5 -84t-32 -97.5q83 -4 127 -13t66.5 -32.5t22.5 -71.5q0 -110 -82 -149t-216 -39q-109 0 -161.5 39t-52.5 121q0 35 38 273
l22 -3q-35 -210 -35 -273q0 -65 46 -96t143 -31q89 0 151 14t104 58q18 44 18 77q0 39 -18.5 60t-55.5 27q-24 4 -68 6q-41 2 -57 8t-16 28q0 51 35 107t88.5 94t103.5 38q35 0 59.5 -20t39 -48.5t34.5 -79.5q14 -38 22 -55q194 211 310 211q148 0 148 -192q0 -31 -6 -49
q11 -32 40 -44.5t62 -12.5q5 0 5 -12v-6q0 -12 -5 -12q-82 0 -115 65zM839 30q102 0 184 12.5t142 45.5q2 28 2 44q0 169 -124 169q-55 0 -133.5 -57t-163.5 -151q36 -63 93 -63zM925 485l29 38l37 -28l-29 -38z" />
    <glyph glyph-name="uni0622.fina" unicode="&#x622;" horiz-adv-x="260" arabic-form="final" 
d="M124 38q-42 38 -44 107l-10 415l25 5l9 -420q1 -66 41 -90.5t107 -24.5h8q5 0 5 -12v-6q0 -12 -5 -12h-8q-86 0 -128 38zM76 681q-40 4 -51 4q-19 0 -27.5 -3t-12 -10t-10.5 -27l-20 5q10 36 24 48t46 12q16 0 58 -4q52 -6 78 -6h34l-5 -25h-25q-35 0 -89 6z" />
    <glyph glyph-name="uni0623.fina" unicode="&#x623;" horiz-adv-x="260" arabic-form="final" 
d="M124 38q-42 38 -44 107l-10 415l25 5l9 -420q1 -66 41 -90.5t107 -24.5h8q5 0 5 -12v-6q0 -12 -5 -12h-8q-86 0 -128 38zM-22 642l79 24q-30 45 -30 75q0 21 23.5 31.5t53.5 10.5q16 0 31 -3v-17q-18 2 -30 2q-40 0 -63 -16q0 -30 32 -78l101 30v-20l-197 -58v19z" />
    <glyph glyph-name="uni0624.fina" unicode="&#x624;" horiz-adv-x="421" arabic-form="final" 
d="M224.5 -119.5q68.5 58.5 82.5 132.5q-51 -13 -127 -13q-26 0 -57.5 6.5t-43.5 20.5q-6 7 -10 17t-4 30q0 34 13 84t45 89.5t83 39.5q128 0 128 -239q0 -12 -1 -18h88q5 0 5 -12v-6q0 -12 -5 -12h-92q-19 -90 -97.5 -150.5t-166.5 -92.5l-15 23q106 42 174.5 100.5z
M123 35.5q23 -5.5 54 -5.5q87 0 131 14q0 109 -26.5 162t-81.5 53q-33 0 -58 -28.5t-39 -76t-14 -104.5q11 -9 34 -14.5zM109 404l79 24q-30 45 -30 75q0 21 23.5 31.5t53.5 10.5q16 0 31 -3v-17q-18 2 -30 2q-40 0 -63 -16q0 -30 32 -78l101 30v-20l-197 -58v19z" />
    <glyph glyph-name="uni0625.fina" unicode="&#x625;" horiz-adv-x="260" arabic-form="final" 
d="M79 145l-10 560l25 5l9 -565q1 -66 41 -90.5t107 -24.5h9q5 0 5 -12v-6q0 -12 -5 -12h-9q-169 0 -172 145zM-2 -244l79 24q-30 45 -30 75q0 21 23.5 31.5t53.5 10.5q16 0 31 -3v-17q-18 2 -30 2q-40 0 -63 -16q0 -30 32 -78l101 30v-20l-197 -58v19z" />
    <glyph glyph-name="uni0626.fina" unicode="&#x626;" horiz-adv-x="627" arabic-form="final" 
d="M132.5 -187q-52.5 39 -52.5 121q0 35 38 273l22 -3q-35 -210 -35 -273q0 -65 46 -96t143 -31q92 0 156 14t105 59q11 49 11 64q0 27 -17 39t-56.5 16t-122.5 4l16 30h241q5 0 5 -12v-6q0 -12 -5 -12h-62q27 -18 27 -60q0 -95 -83 -130.5t-215 -35.5q-109 0 -161.5 39z
M160 319l79 24q-30 45 -30 75q0 21 23.5 31.5t53.5 10.5q16 0 31 -3v-17q-18 2 -30 2q-40 0 -63 -16q0 -30 32 -78l101 30v-20l-197 -58v19z" />
    <glyph glyph-name="uni0626.init" unicode="&#x626;" horiz-adv-x="309" arabic-form="initial" 
d="M-5 12v6q0 12 5 12q146 0 208 45l-13 240l24 5q10 -184 10 -235q0 -16 -12 -29.5t-31 -22.5q-40 -17 -89.5 -25t-96.5 -8q-5 0 -5 12zM104 424l79 24q-30 45 -30 75q0 21 23.5 31.5t53.5 10.5q16 0 31 -3v-17q-18 2 -30 2q-40 0 -63 -16q0 -30 32 -78l101 30v-20
l-197 -58v19z" />
    <glyph glyph-name="uni0626.medi" unicode="&#x626;" horiz-adv-x="312" arabic-form="medial" 
d="M-5 12v6q0 12 5 12q54 0 84.5 8t64.5 29l-17 215l23 3l16 -218q37 -37 141 -37q5 0 5 -12v-6q0 -12 -5 -12q-64 0 -102 13.5t-50 35.5q-16 -22 -61 -35.5t-99 -13.5q-5 0 -5 12zM38 396l79 24q-30 45 -30 75q0 21 23.5 31.5t53.5 10.5q16 0 31 -3v-17q-18 2 -30 2
q-40 0 -63 -16q0 -30 32 -78l101 30v-20l-197 -58v19z" />
    <glyph glyph-name="uni0627.fina" unicode="&#x627;" horiz-adv-x="260" arabic-form="final" 
d="M79 145l-10 560l25 5l9 -565q1 -66 41 -90.5t107 -24.5h9q5 0 5 -12v-6q0 -12 -5 -12h-9q-169 0 -172 145z" />
    <glyph glyph-name="uni0628.fina" unicode="&#x628;" horiz-adv-x="873" arabic-form="final" 
d="M217.5 6.5q-64.5 11.5 -101 44t-36.5 92.5q0 18 5.5 61t17.5 116l22 -3q-13 -88 -16.5 -120t-3.5 -52q0 -44 27.5 -70t87 -38t160.5 -12t189.5 11.5t133.5 33.5l-13 202l23 3l13 -205q18 -25 53 -32.5t94 -7.5q5 0 5 -12v-6q0 -12 -5 -12q-74 0 -112.5 14.5t-49.5 36.5
q-10 -11 -27.5 -17.5t-47.5 -13.5q-49 -11 -120 -18t-137 -7q-97 0 -161.5 11.5zM346 -157l29 38l37 -28l-29 -38z" />
    <glyph glyph-name="uni0628.init" unicode="&#x628;" horiz-adv-x="309" arabic-form="initial" 
d="M-5 12v6q0 12 5 12q146 0 208 45l-13 240l24 5q10 -184 10 -235q0 -16 -12 -29.5t-31 -22.5q-40 -17 -89.5 -25t-96.5 -8q-5 0 -5 12zM66 -158l29 38l37 -28l-29 -38z" />
    <glyph glyph-name="uni0628.medi" unicode="&#x628;" horiz-adv-x="312" arabic-form="medial" 
d="M-5 12v6q0 12 5 12q54 0 84.5 8t64.5 29l-17 215l23 3l16 -218q37 -37 141 -37q5 0 5 -12v-6q0 -12 -5 -12q-64 0 -102 13.5t-50 35.5q-16 -22 -61 -35.5t-99 -13.5q-5 0 -5 12zM107 -158l29 38l37 -28l-29 -38z" />
    <glyph glyph-name="uni0629.fina" unicode="&#x629;" horiz-adv-x="442" arabic-form="final" 
d="M359 12q-30 12 -43 54l-8 -6q-15 -12 -47 -18.5t-68 -6.5q-39 0 -76 16t-37 53q0 53 28 100.5t75.5 77t101.5 30.5l-6 58l25 7l19 -224q4 -49 11 -73t26.5 -37t59.5 -13h22q5 0 5 -12v-6q0 -12 -5 -12h-4q-49 0 -79 12zM139 73q24 -8 54 -8q39 0 61.5 4.5t50.5 13.5
l-19 201q-62 -3 -103 -34.5t-60.5 -74t-19.5 -81.5q12 -13 36 -21zM204 506l29 38l37 -28l-29 -38zM327 544l37 -28l-29 -38l-37 28z" />
    <glyph glyph-name="uni062A.fina" unicode="&#x62a;" horiz-adv-x="873" arabic-form="final" 
d="M217.5 6.5q-64.5 11.5 -101 44t-36.5 92.5q0 18 5.5 61t17.5 116l22 -3q-13 -88 -16.5 -120t-3.5 -52q0 -44 27.5 -70t87 -38t160.5 -12t189.5 11.5t133.5 33.5l-13 202l23 3l13 -205q18 -25 53 -32.5t94 -7.5q5 0 5 -12v-6q0 -12 -5 -12q-74 0 -112.5 14.5t-49.5 36.5
q-10 -11 -27.5 -17.5t-47.5 -13.5q-49 -11 -120 -18t-137 -7q-97 0 -161.5 11.5zM329 371l29 38l37 -28l-29 -38zM452 409l37 -28l-29 -38l-37 28z" />
    <glyph glyph-name="uni062A.init" unicode="&#x62a;" horiz-adv-x="309" arabic-form="initial" 
d="M-5 12v6q0 12 5 12q146 0 208 45l-13 240l24 5q10 -184 10 -235q0 -16 -12 -29.5t-31 -22.5q-40 -17 -89.5 -25t-96.5 -8q-5 0 -5 12zM121 455l29 38l37 -28l-29 -38zM244 493l37 -28l-29 -38l-37 28z" />
    <glyph glyph-name="uni062A.medi" unicode="&#x62a;" horiz-adv-x="312" arabic-form="medial" 
d="M-5 12v6q0 12 5 12q54 0 84.5 8t64.5 29l-17 215l23 3l16 -218q37 -37 141 -37q5 0 5 -12v-6q0 -12 -5 -12q-64 0 -102 13.5t-50 35.5q-16 -22 -61 -35.5t-99 -13.5q-5 0 -5 12zM55 427l29 38l37 -28l-29 -38zM178 465l37 -28l-29 -38l-37 28z" />
    <glyph glyph-name="uni062B.fina" unicode="&#x62b;" horiz-adv-x="873" arabic-form="final" 
d="M217.5 6.5q-64.5 11.5 -101 44t-36.5 92.5q0 18 5.5 61t17.5 116l22 -3q-13 -88 -16.5 -120t-3.5 -52q0 -44 27.5 -70t87 -38t160.5 -12t189.5 11.5t133.5 33.5l-13 202l23 3l13 -205q18 -25 53 -32.5t94 -7.5q5 0 5 -12v-6q0 -12 -5 -12q-74 0 -112.5 14.5t-49.5 36.5
q-10 -11 -27.5 -17.5t-47.5 -13.5q-49 -11 -120 -18t-137 -7q-97 0 -161.5 11.5zM329 371l29 38l37 -28l-29 -38zM405 496l37 -28l-29 -38l-37 28zM452 409l37 -28l-29 -38l-37 28z" />
    <glyph glyph-name="uni062B.init" unicode="&#x62b;" horiz-adv-x="309" arabic-form="initial" 
d="M-5 12v6q0 12 5 12q146 0 208 45l-13 240l24 5q10 -184 10 -235q0 -16 -12 -29.5t-31 -22.5q-40 -17 -89.5 -25t-96.5 -8q-5 0 -5 12zM121 455l29 38l37 -28l-29 -38zM197 580l37 -28l-29 -38l-37 28zM244 493l37 -28l-29 -38l-37 28z" />
    <glyph glyph-name="uni062B.medi" unicode="&#x62b;" horiz-adv-x="312" arabic-form="medial" 
d="M-5 12v6q0 12 5 12q54 0 84.5 8t64.5 29l-17 215l23 3l16 -218q37 -37 141 -37q5 0 5 -12v-6q0 -12 -5 -12q-64 0 -102 13.5t-50 35.5q-16 -22 -61 -35.5t-99 -13.5q-5 0 -5 12zM55 427l29 38l37 -28l-29 -38zM131 552l37 -28l-29 -38l-37 28zM178 465l37 -28l-29 -38
l-37 28z" />
    <glyph glyph-name="uni062C.fina" unicode="&#x62c;" horiz-adv-x="637" arabic-form="final" 
d="M503.5 19.5q-42.5 19.5 -65.5 64t-30 122.5q-79 -24 -148 -68.5t-112 -111.5t-43 -150q0 -64 33.5 -111t93 -72t136.5 -25q56 0 95.5 7t75.5 22l-1 -28q-37 -15 -76 -22t-94 -7q-132 0 -210 61t-78 170q0 118 84 221t283 152q-25 5 -61 19t-90 37q-55 24 -84.5 35
t-44.5 11q-25 0 -38.5 -19.5t-21.5 -63.5l-22 4q13 55 31.5 80.5t57.5 25.5q17 0 45 -10.5t83 -34.5q84 -36 141 -55.5t105 -19.5l-1 -25q-57 0 -118 -16q8 -77 30 -116t59.5 -52.5t101.5 -13.5h17q5 0 5 -12v-6q0 -12 -5 -12h-21q-70 0 -112.5 19.5zM324 -53l37 -28
l-29 -38l-37 28z" />
    <glyph glyph-name="uni062C.init" unicode="&#x62c;" horiz-adv-x="621" arabic-form="initial" 
d="M-5 12v6q0 12 5 12h41q66 0 129.5 23t142.5 73q97 61 144 72q-22 4 -58.5 17.5t-61.5 23.5t-38 15q-54 23 -87 35t-48 12q-26 0 -39.5 -19t-21.5 -64l-22 4q13 55 31.5 80.5t57.5 25.5q17 0 47 -10.5t87 -34.5q87 -36 145.5 -55.5t106.5 -19.5l-2 -25q-58 0 -103.5 -15
t-112.5 -57q-59 -38 -100.5 -60t-93.5 -36.5t-114 -14.5h-30q-5 0 -5 12zM262 -158l29 38l37 -28l-29 -38z" />
    <glyph glyph-name="uni062C.medi" unicode="&#x62c;" horiz-adv-x="597" arabic-form="medial" 
d="M-5 12v6q0 12 5 12h41q66 0 129.5 23t142.5 73q97 61 144 72q-22 4 -58.5 17.5t-61.5 23.5t-38 15q-54 23 -87 35t-48 12q-26 0 -39.5 -19t-21.5 -64l-22 4q13 55 31.5 80.5t57.5 25.5q17 0 47 -10.5t87 -34.5q87 -36 145.5 -55.5t106.5 -19.5l-2 -25q-37 0 -66 -5
t-59 -18q3 -50 14.5 -78t36.5 -40t70 -12h47q5 0 5 -12v-6q0 -12 -5 -12h-35q-61 0 -94 18t-45.5 50t-15.5 83q-33 -17 -69 -40q-59 -38 -100.5 -60t-93.5 -36.5t-114 -14.5h-30q-5 0 -5 12zM262 -158l29 38l37 -28l-29 -38z" />
    <glyph glyph-name="uni062D.fina" unicode="&#x62d;" horiz-adv-x="637" arabic-form="final" 
d="M503.5 19.5q-42.5 19.5 -65.5 64t-30 122.5q-79 -24 -148 -68.5t-112 -111.5t-43 -150q0 -64 33.5 -111t93 -72t136.5 -25q56 0 95.5 7t75.5 22l-1 -28q-37 -15 -76 -22t-94 -7q-132 0 -210 61t-78 170q0 118 84 221t283 152q-25 5 -61 19t-90 37q-55 24 -84.5 35
t-44.5 11q-25 0 -38.5 -19.5t-21.5 -63.5l-22 4q13 55 31.5 80.5t57.5 25.5q17 0 45 -10.5t83 -34.5q84 -36 141 -55.5t105 -19.5l-1 -25q-57 0 -118 -16q8 -77 30 -116t59.5 -52.5t101.5 -13.5h17q5 0 5 -12v-6q0 -12 -5 -12h-21q-70 0 -112.5 19.5z" />
    <glyph glyph-name="uni062D.init" unicode="&#x62d;" horiz-adv-x="621" arabic-form="initial" 
d="M-5 12v6q0 12 5 12h41q66 0 129.5 23t142.5 73q97 61 144 72q-22 4 -58.5 17.5t-61.5 23.5t-38 15q-54 23 -87 35t-48 12q-26 0 -39.5 -19t-21.5 -64l-22 4q13 55 31.5 80.5t57.5 25.5q17 0 47 -10.5t87 -34.5q87 -36 145.5 -55.5t106.5 -19.5l-2 -25q-58 0 -103.5 -15
t-112.5 -57q-59 -38 -100.5 -60t-93.5 -36.5t-114 -14.5h-30q-5 0 -5 12z" />
    <glyph glyph-name="uni062D.medi" unicode="&#x62d;" horiz-adv-x="597" arabic-form="medial" 
d="M-5 12v6q0 12 5 12h41q66 0 129.5 23t142.5 73q97 61 144 72q-22 4 -58.5 17.5t-61.5 23.5t-38 15q-54 23 -87 35t-48 12q-26 0 -39.5 -19t-21.5 -64l-22 4q13 55 31.5 80.5t57.5 25.5q17 0 47 -10.5t87 -34.5q87 -36 145.5 -55.5t106.5 -19.5l-2 -25q-37 0 -66 -5
t-59 -18q3 -50 14.5 -78t36.5 -40t70 -12h47q5 0 5 -12v-6q0 -12 -5 -12h-35q-61 0 -94 18t-45.5 50t-15.5 83q-33 -17 -69 -40q-59 -38 -100.5 -60t-93.5 -36.5t-114 -14.5h-30q-5 0 -5 12z" />
    <glyph glyph-name="uni062E.fina" unicode="&#x62e;" horiz-adv-x="637" arabic-form="final" 
d="M503.5 19.5q-42.5 19.5 -65.5 64t-30 122.5q-79 -24 -148 -68.5t-112 -111.5t-43 -150q0 -64 33.5 -111t93 -72t136.5 -25q56 0 95.5 7t75.5 22l-1 -28q-37 -15 -76 -22t-94 -7q-132 0 -210 61t-78 170q0 118 84 221t283 152q-25 5 -61 19t-90 37q-55 24 -84.5 35
t-44.5 11q-25 0 -38.5 -19.5t-21.5 -63.5l-22 4q13 55 31.5 80.5t57.5 25.5q17 0 45 -10.5t83 -34.5q84 -36 141 -55.5t105 -19.5l-1 -25q-57 0 -118 -16q8 -77 30 -116t59.5 -52.5t101.5 -13.5h17q5 0 5 -12v-6q0 -12 -5 -12h-21q-70 0 -112.5 19.5zM201 471l29 38l37 -28
l-29 -38z" />
    <glyph glyph-name="uni062E.init" unicode="&#x62e;" horiz-adv-x="621" arabic-form="initial" 
d="M-5 12v6q0 12 5 12h41q66 0 129.5 23t142.5 73q97 61 144 72q-22 4 -58.5 17.5t-61.5 23.5t-38 15q-54 23 -87 35t-48 12q-26 0 -39.5 -19t-21.5 -64l-22 4q13 55 31.5 80.5t57.5 25.5q17 0 47 -10.5t87 -34.5q87 -36 145.5 -55.5t106.5 -19.5l-2 -25q-58 0 -103.5 -15
t-112.5 -57q-59 -38 -100.5 -60t-93.5 -36.5t-114 -14.5h-30q-5 0 -5 12zM197 426l29 38l37 -28l-29 -38z" />
    <glyph glyph-name="uni062E.medi" unicode="&#x62e;" horiz-adv-x="597" arabic-form="medial" 
d="M-5 12v6q0 12 5 12h41q66 0 129.5 23t142.5 73q97 61 144 72q-22 4 -58.5 17.5t-61.5 23.5t-38 15q-54 23 -87 35t-48 12q-26 0 -39.5 -19t-21.5 -64l-22 4q13 55 31.5 80.5t57.5 25.5q17 0 47 -10.5t87 -34.5q87 -36 145.5 -55.5t106.5 -19.5l-2 -25q-37 0 -66 -5
t-59 -18q3 -50 14.5 -78t36.5 -40t70 -12h47q5 0 5 -12v-6q0 -12 -5 -12h-35q-61 0 -94 18t-45.5 50t-15.5 83q-33 -17 -69 -40q-59 -38 -100.5 -60t-93.5 -36.5t-114 -14.5h-30q-5 0 -5 12zM197 426l29 38l37 -28l-29 -38z" />
    <glyph glyph-name="uni062F.fina" unicode="&#x62f;" horiz-adv-x="560" arabic-form="final" 
d="M99.5 -5.5q-17.5 9.5 -23.5 31t-6 64.5v23h20v-13q0 -43 3.5 -59t15.5 -21t45 -5q71 0 141.5 21.5t100.5 54.5l-69 311l24 14l54 -255q14 -66 28 -91.5t39.5 -32.5t87.5 -7q5 0 5 -12v-6q0 -12 -5 -12h-25q-53 0 -84.5 16t-43.5 55q-6 -10 -25 -24q-35 -26 -103 -44
t-125 -18q-37 0 -54.5 9.5z" />
    <glyph glyph-name="uni0630.fina" unicode="&#x630;" horiz-adv-x="560" arabic-form="final" 
d="M99.5 -5.5q-17.5 9.5 -23.5 31t-6 64.5v23h20v-13q0 -43 3.5 -59t15.5 -21t45 -5q71 0 141.5 21.5t100.5 54.5l-69 311l24 14l54 -255q14 -66 28 -91.5t39.5 -32.5t87.5 -7q5 0 5 -12v-6q0 -12 -5 -12h-25q-53 0 -84.5 16t-43.5 55q-6 -10 -25 -24q-35 -26 -103 -44
t-125 -18q-37 0 -54.5 9.5zM292 545l29 38l37 -28l-29 -38z" />
    <glyph glyph-name="uni0631.fina" unicode="&#x631;" horiz-adv-x="345" arabic-form="final" 
d="M221 14.5q-31 14.5 -46 39.5q2 -19 2 -45q0 -41 -33.5 -88.5t-93.5 -91t-135 -72.5l-15 23q108 44 177.5 107t79.5 118l-22 250l23 5l14 -148q4 -39 39.5 -60.5t81.5 -21.5h52q5 0 5 -12v-6q0 -12 -5 -12h-52q-41 0 -72 14.5z" />
    <glyph glyph-name="uni0632.fina" unicode="&#x632;" horiz-adv-x="345" arabic-form="final" 
d="M221 14.5q-31 14.5 -46 39.5q2 -19 2 -45q0 -41 -33.5 -88.5t-93.5 -91t-135 -72.5l-15 23q108 44 177.5 107t79.5 118l-22 250l23 5l14 -148q4 -39 39.5 -60.5t81.5 -21.5h52q5 0 5 -12v-6q0 -12 -5 -12h-52q-41 0 -72 14.5zM102 403l29 38l37 -28l-29 -38z" />
    <glyph glyph-name="uni0633.fina" unicode="&#x633;" horiz-adv-x="1175" arabic-form="final" 
d="M1038.5 13q-20.5 13 -29.5 38q-10 -29 -46.5 -40t-80.5 -11q-29 0 -51 11.5t-27 27.5q-6 -21 -44 -30t-85 -9q-36 0 -61.5 9t-39.5 33q6 -98 6 -142q0 -29 -34 -53.5t-99 -39t-153 -14.5q-109 0 -161.5 39t-52.5 121q0 35 38 273l22 -3q-35 -210 -35 -273q0 -65 46 -96
t143 -31q202 0 266 69l-28 388l24 5l12 -172q3 -45 31 -64t80 -19q41 0 69 4.5t45 16.5l-5 224h24l4 -217q19 -28 69 -28q34 0 60 4.5t46 21.5l-12 259l23 5l9 -197q2 -50 22 -71.5t64 -21.5h78q5 0 5 -12v-6q0 -12 -5 -12h-78q-38 0 -58.5 13z" />
    <glyph glyph-name="uni0633.init" unicode="&#x633;" horiz-adv-x="622" arabic-form="initial" 
d="M-5 12v6q0 12 5 12q83 0 126 29l5 176h25l-6 -144q-2 -61 84 -61q60 0 88 21v224h24v-217q19 -28 69 -28q34 0 60 4.5t46 21.5l-12 259l23 5q10 -190 10 -251q0 -39 -39.5 -54t-90.5 -15q-29 0 -51 11.5t-27 27.5q-6 -20 -40 -29.5t-62 -9.5q-36 0 -60.5 11.5t-32.5 27.5
q-14 -16 -55 -27.5t-84 -11.5q-5 0 -5 12z" />
    <glyph glyph-name="uni0633.medi" unicode="&#x633;" horiz-adv-x="705" arabic-form="medial" 
d="M568.5 13q-20.5 13 -29.5 38q-10 -29 -46.5 -40t-80.5 -11q-29 0 -51 11.5t-27 27.5q-6 -20 -40 -29.5t-62 -9.5q-36 0 -60.5 11.5t-32.5 27.5q-14 -16 -55 -27.5t-84 -11.5q-5 0 -5 12v6q0 12 5 12q83 0 126 29l5 176h25l-6 -144q-2 -61 84 -61q60 0 88 21v224h24v-217
q19 -28 69 -28q34 0 60 4.5t46 21.5l-12 259l23 5q8 -156 9 -198q2 -50 22 -71t64 -21h78q5 0 5 -12v-6q0 -12 -5 -12h-78q-38 0 -58.5 13z" />
    <glyph glyph-name="uni0634.fina" unicode="&#x634;" horiz-adv-x="1175" arabic-form="final" 
d="M1038.5 13q-20.5 13 -29.5 38q-10 -29 -46.5 -40t-80.5 -11q-29 0 -51 11.5t-27 27.5q-6 -21 -44 -30t-85 -9q-36 0 -61.5 9t-39.5 33q6 -98 6 -142q0 -29 -34 -53.5t-99 -39t-153 -14.5q-109 0 -161.5 39t-52.5 121q0 35 38 273l22 -3q-35 -210 -35 -273q0 -65 46 -96
t143 -31q202 0 266 69l-28 388l24 5l12 -172q3 -45 31 -64t80 -19q41 0 69 4.5t45 16.5l-5 224h24l4 -217q19 -28 69 -28q34 0 60 4.5t46 21.5l-12 259l23 5l9 -197q2 -50 22 -71.5t64 -21.5h78q5 0 5 -12v-6q0 -12 -5 -12h-78q-38 0 -58.5 13zM708 423l29 38l37 -28
l-29 -38zM784 548l37 -28l-29 -38l-37 28zM831 461l37 -28l-29 -38l-37 28z" />
    <glyph glyph-name="uni0634.init" unicode="&#x634;" horiz-adv-x="622" arabic-form="initial" 
d="M-5 12v6q0 12 5 12q83 0 126 29l5 176h25l-6 -144q-2 -61 84 -61q60 0 88 21v224h24v-217q19 -28 69 -28q34 0 60 4.5t46 21.5l-12 259l23 5q10 -190 10 -251q0 -39 -39.5 -54t-90.5 -15q-29 0 -51 11.5t-27 27.5q-6 -20 -40 -29.5t-62 -9.5q-36 0 -60.5 11.5t-32.5 27.5
q-14 -16 -55 -27.5t-84 -11.5q-5 0 -5 12zM238 423l29 38l37 -28l-29 -38zM314 548l37 -28l-29 -38l-37 28zM361 461l37 -28l-29 -38l-37 28z" />
    <glyph glyph-name="uni0634.medi" unicode="&#x634;" horiz-adv-x="705" arabic-form="medial" 
d="M568.5 13q-20.5 13 -29.5 38q-10 -29 -46.5 -40t-80.5 -11q-29 0 -51 11.5t-27 27.5q-6 -20 -40 -29.5t-62 -9.5q-36 0 -60.5 11.5t-32.5 27.5q-14 -16 -55 -27.5t-84 -11.5q-5 0 -5 12v6q0 12 5 12q83 0 126 29l5 176h25l-6 -144q-2 -61 84 -61q60 0 88 21v224h24v-217
q19 -28 69 -28q34 0 60 4.5t46 21.5l-12 259l23 5q8 -156 9 -198q2 -50 22 -71t64 -21h78q5 0 5 -12v-6q0 -12 -5 -12h-78q-38 0 -58.5 13zM238 423l29 38l37 -28l-29 -38zM314 548l37 -28l-29 -38l-37 28zM361 461l37 -28l-29 -38l-37 28z" />
    <glyph glyph-name="uni0635.fina" unicode="&#x635;" horiz-adv-x="1222" arabic-form="final" 
d="M1107 64q-35 -26 -118 -45t-197 -19q-157 0 -218 27q6 -86 6 -127q0 -29 -34 -53.5t-99 -39t-153 -14.5q-214 0 -214 150q0 45 38 283l22 -3q-36 -216 -36 -273q0 -66 45.5 -96.5t144.5 -30.5q112 0 175 19.5t91 49.5l-28 388l24 5q7 -90 16 -226q16 -10 36 -14
q76 93 180 188t192 95q147 0 147 -192q0 -33 -6 -51q12 -31 40.5 -43t60.5 -12q5 0 5 -12v-6q0 -12 -5 -12q-80 0 -115 64zM800 30q193 0 302 58q2 17 2 52q0 73 -27.5 117t-97.5 44q-62 0 -154.5 -73t-187.5 -187q65 -11 163 -11z" />
    <glyph glyph-name="uni0635.init" unicode="&#x635;" horiz-adv-x="796" arabic-form="initial" 
d="M-5 12v6q0 12 5 12q38 0 64 4.5t61 21.5v153h25l-3 -141q7 -7 22.5 -14t27.5 -9q77 94 180 188.5t191 94.5q148 0 148 -192q0 -57 -18 -71q-35 -27 -118.5 -46t-198.5 -19q-189 0 -237 42q-20 -19 -62.5 -30.5t-81.5 -11.5q-5 0 -5 12zM389 30q192 0 302 58q2 17 2 52
q0 73 -27.5 117t-97.5 44q-62 0 -154.5 -73t-187.5 -187q65 -11 163 -11z" />
    <glyph glyph-name="uni0635.medi" unicode="&#x635;" horiz-adv-x="811" arabic-form="medial" 
d="M696 64q-36 -27 -118.5 -45.5t-196.5 -18.5q-189 0 -237 42q-20 -19 -62.5 -30.5t-81.5 -11.5q-5 0 -5 12v6q0 12 5 12q38 0 64 4.5t61 21.5v153h25l-3 -141q7 -7 22.5 -14t27.5 -9q77 94 180 188.5t191 94.5q148 0 148 -192q0 -34 -7 -52q13 -30 41.5 -42t60.5 -12
q5 0 5 -12v-6q0 -12 -5 -12q-80 0 -115 64zM389 30q192 0 302 58q2 17 2 52q0 73 -27.5 117t-97.5 44q-62 0 -154.5 -73t-187.5 -187q65 -11 163 -11z" />
    <glyph glyph-name="uni0636.fina" unicode="&#x636;" horiz-adv-x="1222" arabic-form="final" 
d="M1107 64q-35 -26 -118 -45t-197 -19q-157 0 -218 27q6 -86 6 -127q0 -29 -34 -53.5t-99 -39t-153 -14.5q-214 0 -214 150q0 45 38 283l22 -3q-36 -216 -36 -273q0 -66 45.5 -96.5t144.5 -30.5q112 0 175 19.5t91 49.5l-28 388l24 5q7 -90 16 -226q16 -10 36 -14
q76 93 180 188t192 95q147 0 147 -192q0 -33 -6 -51q12 -31 40.5 -43t60.5 -12q5 0 5 -12v-6q0 -12 -5 -12q-80 0 -115 64zM800 30q193 0 302 58q2 17 2 52q0 73 -27.5 117t-97.5 44q-62 0 -154.5 -73t-187.5 -187q65 -11 163 -11zM859 485l29 38l37 -28l-29 -38z" />
    <glyph glyph-name="uni0636.init" unicode="&#x636;" horiz-adv-x="796" arabic-form="initial" 
d="M-5 12v6q0 12 5 12q38 0 64 4.5t61 21.5v153h25l-3 -141q7 -7 22.5 -14t27.5 -9q77 94 180 188.5t191 94.5q148 0 148 -192q0 -57 -18 -71q-35 -27 -118.5 -46t-198.5 -19q-189 0 -237 42q-20 -19 -62.5 -30.5t-81.5 -11.5q-5 0 -5 12zM389 30q192 0 302 58q2 17 2 52
q0 73 -27.5 117t-97.5 44q-62 0 -154.5 -73t-187.5 -187q65 -11 163 -11zM448 485l29 38l37 -28l-29 -38z" />
    <glyph glyph-name="uni0636.medi" unicode="&#x636;" horiz-adv-x="811" arabic-form="medial" 
d="M696 64q-36 -27 -118.5 -45.5t-196.5 -18.5q-189 0 -237 42q-20 -19 -62.5 -30.5t-81.5 -11.5q-5 0 -5 12v6q0 12 5 12q38 0 64 4.5t61 21.5v153h25l-3 -141q7 -7 22.5 -14t27.5 -9q77 94 180 188.5t191 94.5q148 0 148 -192q0 -34 -7 -52q13 -30 41.5 -42t60.5 -12
q5 0 5 -12v-6q0 -12 -5 -12q-80 0 -115 64zM389 30q192 0 302 58q2 17 2 52q0 73 -27.5 117t-97.5 44q-62 0 -154.5 -73t-187.5 -187q65 -11 163 -11zM448 485l29 38l37 -28l-29 -38z" />
    <glyph glyph-name="uni0637.fina" unicode="&#x637;" horiz-adv-x="790" arabic-form="final" 
d="M675 65h-1q-35 -26 -118.5 -45.5t-198.5 -19.5h-267l-10 30h88q25 23 47 56q14 22 19.5 53t4.5 110l-9 456l25 5l7 -450v-37q0 -72 -9 -91q75 83 151.5 139.5t140.5 56.5q148 0 148 -192q0 -30 -6 -47q11 -33 40.5 -46t62.5 -13q5 0 5 -12v-6q0 -12 -5 -12q-82 0 -115 65
zM365 30q193 0 302 58q2 17 2 52q0 73 -27.5 117t-97.5 44q-62 0 -153.5 -74.5t-190.5 -196.5h165z" />
    <glyph glyph-name="uni0637.init" unicode="&#x637;" horiz-adv-x="693" arabic-form="initial" 
d="M88 30q25 23 47 56q14 22 19.5 53t4.5 110l-9 456l25 5l7 -450v-37q0 -72 -9 -91q75 83 151.5 139.5t140.5 56.5q148 0 148 -192q0 -23 -4.5 -43t-14.5 -28q-35 -26 -118.5 -45.5t-198.5 -19.5h-277q-5 0 -5 12v6q0 12 5 12h88zM285 30q193 0 302 58q2 17 2 52
q0 73 -27.5 117t-97.5 44q-62 0 -153.5 -74.5t-190.5 -196.5h165z" />
    <glyph glyph-name="uni0637.medi" unicode="&#x637;" horiz-adv-x="710" arabic-form="medial" 
d="M595 65h-1q-35 -26 -118.5 -45.5t-198.5 -19.5h-277q-5 0 -5 12v6q0 12 5 12h88q25 23 47 56q14 22 19.5 53t4.5 110l-9 456l25 5l7 -450v-37q0 -72 -9 -91q75 83 151.5 139.5t140.5 56.5q148 0 148 -192q0 -30 -6 -47q11 -33 40.5 -46t62.5 -13q5 0 5 -12v-6
q0 -12 -5 -12q-82 0 -115 65zM285 30q193 0 302 58q2 17 2 52q0 73 -27.5 117t-97.5 44q-62 0 -153.5 -74.5t-190.5 -196.5h165z" />
    <glyph glyph-name="uni0638.fina" unicode="&#x638;" horiz-adv-x="790" arabic-form="final" 
d="M675 65h-1q-35 -26 -118.5 -45.5t-198.5 -19.5h-267l-10 30h88q25 23 47 56q14 22 19.5 53t4.5 110l-9 456l25 5l7 -450v-37q0 -72 -9 -91q75 83 151.5 139.5t140.5 56.5q148 0 148 -192q0 -30 -6 -47q11 -33 40.5 -46t62.5 -13q5 0 5 -12v-6q0 -12 -5 -12q-82 0 -115 65
zM365 30q193 0 302 58q2 17 2 52q0 73 -27.5 117t-97.5 44q-62 0 -153.5 -74.5t-190.5 -196.5h165zM512 476l29 38l37 -28l-29 -38z" />
    <glyph glyph-name="uni0638.init" unicode="&#x638;" horiz-adv-x="693" arabic-form="initial" 
d="M88 30q25 23 47 56q14 22 19.5 53t4.5 110l-9 456l25 5l7 -450v-37q0 -72 -9 -91q75 83 151.5 139.5t140.5 56.5q148 0 148 -192q0 -23 -4.5 -43t-14.5 -28q-35 -26 -118.5 -45.5t-198.5 -19.5h-277q-5 0 -5 12v6q0 12 5 12h88zM285 30q193 0 302 58q2 17 2 52
q0 73 -27.5 117t-97.5 44q-62 0 -153.5 -74.5t-190.5 -196.5h165zM432 476l29 38l37 -28l-29 -38z" />
    <glyph glyph-name="uni0638.medi" unicode="&#x638;" horiz-adv-x="710" arabic-form="medial" 
d="M595 65h-1q-35 -26 -118.5 -45.5t-198.5 -19.5h-277q-5 0 -5 12v6q0 12 5 12h88q25 23 47 56q14 22 19.5 53t4.5 110l-9 456l25 5l7 -450v-37q0 -72 -9 -91q75 83 151.5 139.5t140.5 56.5q148 0 148 -192q0 -30 -6 -47q11 -33 40.5 -46t62.5 -13q5 0 5 -12v-6
q0 -12 -5 -12q-82 0 -115 65zM285 30q193 0 302 58q2 17 2 52q0 73 -27.5 117t-97.5 44q-62 0 -153.5 -74.5t-190.5 -196.5h165zM432 476l29 38l37 -28l-29 -38z" />
    <glyph glyph-name="uni0639.fina" unicode="&#x639;" horiz-adv-x="540" arabic-form="final" 
d="M154.5 -306q-74.5 54 -74.5 159q0 79 50 151.5t155 113.5q-72 103 -100.5 141.5t-39 46.5t-22.5 6l-25 -5l5 28q75 19 241 19q56 0 98 -9.5t42 -32.5v-13q0 -23 -25 -62t-61 -76.5t-65 -54.5q18 -33 46 -54.5t88 -21.5h73q5 0 5 -12v-6q0 -12 -5 -12h-59q-56 0 -91.5 17
t-52 37.5t-28.5 45.5q-192 -80 -204 -234q0 -99 68.5 -148.5t173.5 -49.5q80 0 162 28l-1 -28q-84 -28 -165 -28q-114 0 -188.5 54zM213 268q30 -41 102 -145q46 34 94.5 88t55.5 92q-6 24 -124 24q-48 0 -98 -3t-74 -6q14 -9 44 -50z" />
    <glyph glyph-name="uni0639.init" unicode="&#x639;" horiz-adv-x="498" arabic-form="initial" 
d="M-5 12v6q0 12 5 12h153q-48 87 -48 147q0 47 36.5 75.5t96.5 28.5q61 0 110 -14l-8 -23q-50 10 -101 10q-33 0 -62 -12.5t-48 -38.5q0 -43 14 -87t38 -84q119 13 237 48v-26q-86 -24 -135.5 -34.5t-106 -15t-150.5 -4.5h-26q-5 0 -5 12z" />
    <glyph glyph-name="uni0639.medi" unicode="&#x639;" horiz-adv-x="485" arabic-form="medial" 
d="M-5 12v6q0 12 5 12h119q83 0 115 21q-72 104 -104 146.5t-43.5 51t-23.5 6.5l-25 -5l5 29q80 19 242 19q54 0 97 -10t43 -33v-12q0 -23 -24.5 -62t-59.5 -76t-64 -54q12 -11 34 -16t63 -5h111q5 0 5 -12v-6q0 -12 -5 -12h-98q-100 0 -130 34q-41 -34 -125 -34h-132
q-5 0 -5 12zM153 212q31 -41 103 -145q47 35 94.5 89t54.5 93q-5 21 -123 21q-47 0 -98 -2.5t-75 -5.5q13 -9 44 -50z" />
    <glyph glyph-name="uni063A.fina" unicode="&#x63a;" horiz-adv-x="540" arabic-form="final" 
d="M154.5 -306q-74.5 54 -74.5 159q0 79 50 151.5t155 113.5q-72 103 -100.5 141.5t-39 46.5t-22.5 6l-25 -5l5 28q75 19 241 19q56 0 98 -9.5t42 -32.5v-13q0 -23 -25 -62t-61 -76.5t-65 -54.5q18 -33 46 -54.5t88 -21.5h73q5 0 5 -12v-6q0 -12 -5 -12h-59q-56 0 -91.5 17
t-52 37.5t-28.5 45.5q-192 -80 -204 -234q0 -99 68.5 -148.5t173.5 -49.5q80 0 162 28l-1 -28q-84 -28 -165 -28q-114 0 -188.5 54zM213 268q30 -41 102 -145q46 34 94.5 88t55.5 92q-6 24 -124 24q-48 0 -98 -3t-74 -6q14 -9 44 -50zM261 502l29 38l37 -28l-29 -38z" />
    <glyph glyph-name="uni063A.init" unicode="&#x63a;" horiz-adv-x="498" arabic-form="initial" 
d="M-5 12v6q0 12 5 12h153q-48 87 -48 147q0 47 36.5 75.5t96.5 28.5q61 0 110 -14l-8 -23q-50 10 -101 10q-33 0 -62 -12.5t-48 -38.5q0 -43 14 -87t38 -84q119 13 237 48v-26q-86 -24 -135.5 -34.5t-106 -15t-150.5 -4.5h-26q-5 0 -5 12zM175 429l29 38l37 -28l-29 -38z
" />
    <glyph glyph-name="uni063A.medi" unicode="&#x63a;" horiz-adv-x="485" arabic-form="medial" 
d="M-5 12v6q0 12 5 12h119q83 0 115 21q-72 104 -104 146.5t-43.5 51t-23.5 6.5l-25 -5l5 29q80 19 242 19q54 0 97 -10t43 -33v-12q0 -23 -24.5 -62t-59.5 -76t-64 -54q12 -11 34 -16t63 -5h111q5 0 5 -12v-6q0 -12 -5 -12h-98q-100 0 -130 34q-41 -34 -125 -34h-132
q-5 0 -5 12zM153 212q31 -41 103 -145q47 35 94.5 89t54.5 93q-5 21 -123 21q-47 0 -98 -2.5t-75 -5.5q13 -9 44 -50zM202 446l29 38l37 -28l-29 -38z" />
    <glyph glyph-name="uni0641.fina" unicode="&#x641;" horiz-adv-x="923" arabic-form="final" 
d="M217.5 6.5q-64.5 11.5 -101 44t-36.5 92.5q0 18 5.5 61t17.5 116l22 -3q-13 -88 -16.5 -120t-3.5 -52q0 -43 27.5 -69.5t87.5 -38.5t160 -12q164 0 225.5 3.5t100.5 18.5q-45 28 -80 64.5t-35 67.5q0 20 21.5 60t55 71t70.5 31q33 0 61 -26t44.5 -72t16.5 -105
q0 -18 -19 -34.5t-78 -55.5q39 -18 106 -18h54q5 0 5 -12v-6q0 -12 -5 -12h-35q-50 0 -83.5 7t-71.5 26q-11 -6 -36 -14q-42 -14 -119.5 -19t-198.5 -5q-97 0 -161.5 11.5zM648.5 124.5q34.5 -30.5 87.5 -64.5l101 70q0 69 -26.5 126t-77.5 57q-26 0 -53.5 -27t-46.5 -60
t-19 -43q0 -28 34.5 -58.5zM705 489l29 38l37 -28l-29 -38z" />
    <glyph glyph-name="uni0641.init" unicode="&#x641;" horiz-adv-x="416" arabic-form="initial" 
d="M-5 12v6q0 12 5 12q123 0 193.5 7t111.5 26q5 29 5 80q-52 -13 -128 -13q-26 0 -57.5 6.5t-43.5 20.5q-6 7 -10 17t-4 30q0 34 13 84t45 89.5t83 39.5q128 0 128 -239q0 -63 -4 -92.5t-14.5 -42t-33.5 -19.5q-40 -12 -97 -18t-187 -6q-5 0 -5 12zM125 165.5
q23 -5.5 54 -5.5q87 0 131 14q0 109 -26.5 162t-81.5 53q-33 0 -58 -28.5t-39 -76t-14 -104.5q11 -9 34 -14.5zM176 565l29 38l37 -28l-29 -38z" />
    <glyph glyph-name="uni0641.medi" unicode="&#x641;" horiz-adv-x="411" arabic-form="medial" 
d="M-5 12v6q0 12 5 12h95q56 0 100 16q-46 29 -81 65.5t-35 67.5q0 20 21.5 60t55 71t71.5 31q33 0 61 -26t44.5 -72t16.5 -105q0 -18 -19 -34.5t-78 -55.5q20 -9 44.5 -13.5t60.5 -4.5h54q5 0 5 -12v-6q0 -12 -5 -12h-34q-50 0 -83.5 7t-72.5 26q-66 -33 -166 -33h-55
q-5 0 -5 12zM137.5 124.5q34.5 -30.5 87.5 -64.5l101 70q0 69 -26.5 126t-77.5 57q-26 0 -53.5 -27t-46.5 -60t-19 -43q0 -28 34.5 -58.5zM195 489l29 38l37 -28l-29 -38z" />
    <glyph glyph-name="uni0642.fina" unicode="&#x642;" horiz-adv-x="689" arabic-form="final" 
d="M694 18v-6q0 -12 -5 -12h-78q-1 -65 -6.5 -95t-16 -41.5t-33.5 -23.5q-88 -44 -261 -44q-109 0 -161.5 39t-52.5 121q0 35 38 273l22 -3q-35 -210 -35 -273q0 -65 46 -96t143 -31q108 0 173 14.5t108 39.5q10 56 10 132q-52 -13 -128 -13q-26 0 -57.5 6.5t-43.5 20.5
q-7 8 -10.5 17.5t-3.5 29.5q0 34 13 84t45 89.5t83 39.5q128 0 128 -239v-17h78q5 0 5 -12zM400 34.5q23 -5.5 54 -5.5q87 0 131 14q0 109 -26.5 162t-81.5 53q-33 0 -58 -28.5t-39 -76t-14 -104.5q11 -9 34 -14.5zM403 435l29 38l37 -28l-29 -38zM526 473l37 -28l-29 -38
l-37 28z" />
    <glyph glyph-name="uni0642.init" unicode="&#x642;" horiz-adv-x="416" arabic-form="initial" 
d="M-5 12v6q0 12 5 12q123 0 193.5 7t111.5 26q5 29 5 80q-52 -13 -128 -13q-26 0 -57.5 6.5t-43.5 20.5q-6 7 -10 17t-4 30q0 34 13 84t45 89.5t83 39.5q128 0 128 -239q0 -63 -4 -92.5t-14.5 -42t-33.5 -19.5q-40 -12 -97 -18t-187 -6q-5 0 -5 12zM125 165.5
q23 -5.5 54 -5.5q87 0 131 14q0 109 -26.5 162t-81.5 53q-33 0 -58 -28.5t-39 -76t-14 -104.5q11 -9 34 -14.5zM129 565l29 38l37 -28l-29 -38zM252 603l37 -28l-29 -38l-37 28z" />
    <glyph glyph-name="uni0642.medi" unicode="&#x642;" horiz-adv-x="411" arabic-form="medial" 
d="M-5 12v6q0 12 5 12h95q56 0 100 16q-46 29 -81 65.5t-35 67.5q0 20 21.5 60t55 71t71.5 31q33 0 61 -26t44.5 -72t16.5 -105q0 -18 -19 -34.5t-78 -55.5q20 -9 44.5 -13.5t60.5 -4.5h54q5 0 5 -12v-6q0 -12 -5 -12h-34q-50 0 -83.5 7t-72.5 26q-66 -33 -166 -33h-55
q-5 0 -5 12zM137.5 124.5q34.5 -30.5 87.5 -64.5l101 70q0 69 -26.5 126t-77.5 57q-26 0 -53.5 -27t-46.5 -60t-19 -43q0 -28 34.5 -58.5zM148 489l29 38l37 -28l-29 -38zM271 527l37 -28l-29 -38l-37 28z" />
    <glyph glyph-name="uni0643.fina" unicode="&#x643;" horiz-adv-x="838" arabic-form="final" 
d="M217.5 6.5q-64.5 11.5 -101 44t-36.5 92.5q0 18 5.5 61t17.5 116l22 -3q-13 -88 -16.5 -120t-3.5 -52q0 -43 27.5 -69.5t87.5 -38.5t160 -12q86 0 160.5 10t113.5 32l-28 635l24 8l26 -565q3 -67 41 -91t119 -24h2q5 0 5 -12v-6q0 -12 -5 -12h-2q-63 0 -109.5 18.5
t-50.5 49.5q1 -24 -51 -40.5t-122.5 -24.5t-123.5 -8q-97 0 -161.5 11.5zM290 313q64 0 113.5 14t59.5 38q0 40 -26.5 52.5t-72.5 16.5q-25 2 -36.5 5.5t-11.5 12.5q0 14 12.5 51.5t37 68.5t58.5 31q38 0 68 -42l-17 -12q-11 14 -25 21.5t-26 7.5q-32 0 -56 -38.5t-29 -79.5
q56 -3 87 -12.5t44 -28t13 -49.5q0 -37 -53.5 -58t-139.5 -21v22z" />
    <glyph glyph-name="uni0643.init" unicode="&#x643;" horiz-adv-x="377" arabic-form="initial" 
d="M-5 12v6q0 12 5 12q194 0 261 42q0 103 -21 182t-75 150t-151 140l5 30q87 46 155.5 77t147.5 59l4 -28q-136 -45 -286 -125q130 -91 187 -202.5t57 -273.5q0 -41 -79.5 -61t-204.5 -20q-5 0 -5 12z" />
    <glyph glyph-name="uni0643.medi" unicode="&#x643;" horiz-adv-x="433" arabic-form="medial" 
d="M307 12.5q-24 12.5 -32 44.5q-23 -29 -97 -43t-178 -14q-5 0 -5 12v6q0 12 5 12q194 0 261 42q0 103 -21 182t-75 150t-151 140l5 30q87 46 155.5 77t147.5 59l4 -28q-136 -45 -286 -125q120 -84 178 -186t65 -244q2 -46 14 -67t28.5 -25.5t46.5 -4.5h61q5 0 5 -12v-6
q0 -12 -5 -12h-65q-37 0 -61 12.5z" />
    <glyph glyph-name="uni0644.fina" unicode="&#x644;" horiz-adv-x="672" arabic-form="final" 
d="M527 35l3 -135q1 -27 -32 -52t-92 -40t-132 -15q-194 0 -194 160q0 35 38 273l22 -3q-36 -216 -36 -273q0 -64 43.5 -95.5t126.5 -31.5q172 0 236 69l-24 813l25 5l14 -610q6 -34 18.5 -48.5t30 -18t53.5 -3.5h45q5 0 5 -12v-6q0 -12 -5 -12h-57q-65 0 -88 35z" />
    <glyph glyph-name="uni0644.init" unicode="&#x644;" horiz-adv-x="309" arabic-form="initial" 
d="M-5 12v6q0 12 5 12q63 0 117.5 9t91.5 36l-14 630l25 5l10 -625q1 -42 -72.5 -63.5t-157.5 -21.5q-5 0 -5 12z" />
    <glyph glyph-name="uni0644.medi" unicode="&#x644;" horiz-adv-x="343" arabic-form="medial" 
d="M-5 12v6q0 12 5 12q66 0 104.5 9t56.5 37l-20 629l25 5l16 -594q1 -48 40 -67t115 -19h6q5 0 5 -12v-6q0 -12 -5 -12q-150 0 -169 58q-9 -27 -54 -42.5t-120 -15.5q-5 0 -5 12z" />
    <glyph glyph-name="uni0645.fina" unicode="&#x645;" horiz-adv-x="520" arabic-form="final" 
d="M420 11.5q-29 11.5 -42 39.5q-6 -41 -13 -62q-9 -22 -22 -31q-7 -6 -21 -6q-17 0 -37 9l-165 72q-16 -35 -16 -127q0 -82 14 -224l-25 -4q-13 153 -13 230q0 94 25 152q81 189 160 189q47 0 78 -37t36 -101q8 -32 22 -49t41.5 -24.5t77.5 -7.5q5 0 5 -12v-6q0 -12 -5 -12
q-71 0 -100 11.5zM331 -27q11 16 17.5 46t6.5 62q0 63 -24.5 101.5t-63.5 38.5q-36 0 -66.5 -37.5t-69.5 -124.5z" />
    <glyph glyph-name="uni0645.init" unicode="&#x645;" horiz-adv-x="437" arabic-form="initial" 
d="M71 9.5q-21 -9.5 -46 -9.5h-25q-5 0 -5 12v6q0 12 5 12h35q18 0 29 4t21 16.5t22 39.5q30 66 52 100t43 46.5t50 12.5q52 0 83.5 -44t31.5 -118q0 -24 -4 -51.5t-11 -46.5q-9 -22 -22 -31q-7 -6 -21 -6q-17 0 -37 9l-168 73q-12 -15 -33 -24.5zM318 -27q11 16 17.5 46
t6.5 62q0 63 -24.5 101.5t-63.5 38.5q-25 0 -44 -13.5t-39.5 -48t-50.5 -102.5z" />
    <glyph glyph-name="uni0645.medi" unicode="&#x645;" horiz-adv-x="507" arabic-form="medial" 
d="M71 9.5q-21 -9.5 -46 -9.5h-25q-5 0 -5 12v6q0 12 5 12h35q18 0 29 4t21 16.5t22 39.5q30 66 52 100t43 46.5t50 12.5q47 0 78 -37t36 -101q8 -32 22 -49t41.5 -24.5t77.5 -7.5q5 0 5 -12v-6q0 -12 -5 -12q-71 0 -100 11.5t-42 39.5q-6 -41 -13 -62q-9 -22 -22 -31
q-7 -6 -21 -6q-17 0 -37 9l-168 73q-12 -15 -33 -24.5zM318 -27q11 16 17.5 46t6.5 62q0 63 -24.5 101.5t-63.5 38.5q-25 0 -44 -13.5t-39.5 -48t-50.5 -102.5z" />
    <glyph glyph-name="uni0646.fina" unicode="&#x646;" horiz-adv-x="760" arabic-form="final" 
d="M628 10.5q-40 10.5 -55 38.5q7 -97 7 -149q0 -29 -34 -53.5t-99 -39t-153 -14.5q-214 0 -214 150q0 45 38 283l22 -3q-36 -216 -36 -273q0 -66 45.5 -96.5t144.5 -30.5q112 0 175 19.5t91 49.5l-28 388l24 5l14 -175q4 -49 45 -64.5t109 -15.5h36q5 0 5 -12v-6
q0 -12 -5 -12h-31q-61 0 -101 10.5zM302 372l29 38l37 -28l-29 -38z" />
    <glyph glyph-name="uni0646.init" unicode="&#x646;" horiz-adv-x="309" arabic-form="initial" 
d="M-5 12v6q0 12 5 12q146 0 208 45l-13 240l24 5q10 -184 10 -235q0 -16 -12 -29.5t-31 -22.5q-40 -17 -89.5 -25t-96.5 -8q-5 0 -5 12zM168 455l29 38l37 -28l-29 -38z" />
    <glyph glyph-name="uni0646.medi" unicode="&#x646;" horiz-adv-x="312" arabic-form="medial" 
d="M-5 12v6q0 12 5 12q54 0 84.5 8t64.5 29l-17 215l23 3l16 -218q37 -37 141 -37q5 0 5 -12v-6q0 -12 -5 -12q-64 0 -102 13.5t-50 35.5q-16 -22 -61 -35.5t-99 -13.5q-5 0 -5 12zM102 427l29 38l37 -28l-29 -38z" />
    <glyph glyph-name="uni0647.fina" unicode="&#x647;" horiz-adv-x="442" arabic-form="final" 
d="M359 12q-30 12 -43 54l-8 -6q-15 -12 -47 -18.5t-68 -6.5q-39 0 -76 16t-37 53q0 53 28 100.5t75.5 77t101.5 30.5l-6 58l25 7l19 -224q4 -49 11 -73t26.5 -37t59.5 -13h22q5 0 5 -12v-6q0 -12 -5 -12h-4q-49 0 -79 12zM139 73q24 -8 54 -8q39 0 61.5 4.5t50.5 13.5
l-19 201q-62 -3 -103 -34.5t-60.5 -74t-19.5 -81.5q12 -13 36 -21z" />
    <glyph glyph-name="uni0647.init" unicode="&#x647;" horiz-adv-x="563" arabic-form="initial" 
d="M202 16.5q-36 -11.5 -80.5 -14t-121.5 -2.5q-5 0 -5 12v6q0 12 5 12h95q42 0 79 7t56 18q-137 26 -137 101q0 31 22.5 75t63.5 91l-56 26l10 24l220 -96q73 -32 104 -66.5t31 -88.5q0 -45 -19 -90q-6 -15 -23 -29q-11 -10 -22 -10q-5 0 -13 3l-155 57q-18 -24 -54 -35.5z
M149 113q31 -16 96 -32l74 181l-117 50q-84 -102 -84 -156q0 -27 31 -43zM433 17q14 20 22 46.5t8 54.5q0 43 -25 74t-98 60l-71 -175z" />
    <glyph glyph-name="uni0647.medi" unicode="&#x647;" horiz-adv-x="435" arabic-form="medial" 
d="M132 -137.5q-33 64.5 -33 137.5h-99q-5 0 -5 12v6q0 12 5 12h96q4 59 26.5 118t57.5 97t72 38h30l12 -253h141q5 0 5 -12v-6q0 -12 -5 -12q-125 0 -154 5q30 -8 44.5 -37t14.5 -68v-31q0 -23 -2 -34t-9 -20q-9 -11 -20.5 -14t-43.5 -3q-100 0 -133 64.5zM201 30
q51 0 67 -8l-11 231l-8 1q-34 0 -62.5 -43t-46 -98.5t-17.5 -82.5h78zM162.5 -131.5q38.5 -44.5 112.5 -44.5q18 0 39 3v74q0 35 -22.5 67t-72.5 32h-95q0 -87 38.5 -131.5z" />
    <glyph glyph-name="uni0648.fina" unicode="&#x648;" horiz-adv-x="421" arabic-form="final" 
d="M224.5 -119.5q68.5 58.5 82.5 132.5q-51 -13 -127 -13q-26 0 -57.5 6.5t-43.5 20.5q-6 7 -10 17t-4 30q0 34 13 84t45 89.5t83 39.5q128 0 128 -239q0 -12 -1 -18h88q5 0 5 -12v-6q0 -12 -5 -12h-92q-19 -90 -97.5 -150.5t-166.5 -92.5l-15 23q106 42 174.5 100.5z
M123 35.5q23 -5.5 54 -5.5q87 0 131 14q0 109 -26.5 162t-81.5 53q-33 0 -58 -28.5t-39 -76t-14 -104.5q11 -9 34 -14.5z" />
    <glyph glyph-name="uni0649.fina" unicode="&#x649;" horiz-adv-x="627" arabic-form="final" 
d="M132.5 -187q-52.5 39 -52.5 121q0 35 38 273l22 -3q-35 -210 -35 -273q0 -65 46 -96t143 -31q92 0 156 14t105 59q11 49 11 64q0 27 -17 39t-56.5 16t-122.5 4l16 30h241q5 0 5 -12v-6q0 -12 -5 -12h-62q27 -18 27 -60q0 -95 -83 -130.5t-215 -35.5q-109 0 -161.5 39z
" />
    <glyph glyph-name="uni064A.fina" unicode="&#x64a;" horiz-adv-x="627" arabic-form="final" 
d="M132.5 -187q-52.5 39 -52.5 121q0 35 38 273l22 -3q-35 -210 -35 -273q0 -65 46 -96t143 -31q92 0 156 14t105 59q11 49 11 64q0 27 -17 39t-56.5 16t-122.5 4l16 30h241q5 0 5 -12v-6q0 -12 -5 -12h-62q27 -18 27 -60q0 -95 -83 -130.5t-215 -35.5q-109 0 -161.5 39z
M214 -384l29 38l37 -28l-29 -38zM337 -346l37 -28l-29 -38l-37 28z" />
    <glyph glyph-name="uni064A.init" unicode="&#x64a;" horiz-adv-x="309" arabic-form="initial" 
d="M-5 12v6q0 12 5 12q146 0 208 45l-13 240l24 5q10 -184 10 -235q0 -16 -12 -29.5t-31 -22.5q-40 -17 -89.5 -25t-96.5 -8q-5 0 -5 12zM19 -158l29 38l37 -28l-29 -38zM142 -120l37 -28l-29 -38l-37 28z" />
    <glyph glyph-name="uni064A.medi" unicode="&#x64a;" horiz-adv-x="312" arabic-form="medial" 
d="M-5 12v6q0 12 5 12q54 0 84.5 8t64.5 29l-17 215l23 3l16 -218q37 -37 141 -37q5 0 5 -12v-6q0 -12 -5 -12q-64 0 -102 13.5t-50 35.5q-16 -22 -61 -35.5t-99 -13.5q-5 0 -5 12zM60 -158l29 38l37 -28l-29 -38zM183 -120l37 -28l-29 -38l-37 28z" />
    <glyph glyph-name=".notdef" horiz-adv-x="785" 
d="M644 -500h-498v1570h498v-1570zM523 -392v52h-160l110 74h50v52h-261v-52h110l-110 -74v-52h261zM523 -178v177h-261v-177h261zM523 93v178h-157v-88h53v36h52v-74h-157v126h-52v-178h261zM523 305v157h-52v-103h-209v-54h261zM419 395v110h104v52h-261v-52h104v-58h-104
v-52h157zM523 599v53h-104v110h-157v-163h261zM523 803v52h-104v58h104v52h-259v-52h102v-58h-104v-52h261zM314 -53h157v-73h-157v73zM314 709h52v-57h-52v57z" />
    <glyph glyph-name=".null" horiz-adv-x="0" 
 />
    <glyph glyph-name="nonmarkingreturn" horiz-adv-x="333" 
 />
    <glyph glyph-name="space" unicode=" " horiz-adv-x="240" 
 />
    <glyph glyph-name="exclam" unicode="!" horiz-adv-x="202" 
d="M111 131l-25 -5l-16 519l27 19zM80.5 54q8.5 9 20.5 9q14 0 22.5 -8.5t8.5 -22.5q0 -12 -8.5 -21t-22.5 -9q-12 0 -20.5 9t-8.5 21q0 13 8.5 22z" />
    <glyph glyph-name="quotedbl" unicode="&#x22;" horiz-adv-x="387" 
d="M110 526l-9 148l-2 64h36l-2 -64l-9 -148h-14zM286 738l-2 -64l-9 -148h-14l-9 148l-2 64h36z" />
    <glyph glyph-name="numbersign" unicode="#" horiz-adv-x="517" 
d="M134 237h-91v26h94l25 194h-97v30h99l27 208h26l-28 -208h173l29 208h26l-29 -208h90v-30h-91l-23 -194h93v-26h-97l-28 -232h-26l27 232h-172l-28 -232h-27zM336 263l24 194h-171l-24 -194h171z" />
    <glyph glyph-name="dollar" unicode="$" horiz-adv-x="516" 
d="M249 -114v106q-46 3 -92.5 23.5t-85.5 55.5l19 26q35 -33 79 -54.5t94 -21.5q68 0 106 37t38 102q0 93 -81 148q-30 20 -76 41q-46 22 -77.5 45t-52.5 54q-23 30 -23 86q0 67 42 111t110 50v107h30v-105q45 -3 80 -20.5t67 -52.5l-21 -22q-34 33 -64 48.5t-76 15.5
q-57 0 -93.5 -36.5t-36.5 -93.5q0 -41 20 -72.5t62 -55.5q40 -25 66 -33q87 -38 125 -87.5t38 -124.5q0 -74 -45.5 -120t-121.5 -50v-107h-30z" />
    <glyph glyph-name="percent" unicode="%" horiz-adv-x="867" 
d="M87.5 373.5q-38.5 57.5 -38.5 163.5q0 104 38.5 160.5t109.5 56.5q69 0 107.5 -57.5t38.5 -159.5q0 -103 -39 -162t-107 -59q-71 0 -109.5 57.5zM110.5 392.5q30.5 -51.5 86.5 -51.5q54 0 84 52t30 144q0 91 -30 141.5t-84 50.5q-57 0 -87 -49.5t-30 -142.5t30.5 -144.5z
M612 717h30l-391 -725h-31zM563.5 373q38.5 57 109.5 57q68 0 107 -57.5t39 -160.5t-39 -161.5t-107 -58.5q-71 0 -109.5 57t-38.5 163q0 104 38.5 161zM586.5 68q30.5 -51 86.5 -51q54 0 84 51.5t30 143.5q0 91 -30 142t-84 51q-57 0 -87 -50t-30 -143t30.5 -144z" />
    <glyph glyph-name="ampersand" unicode="&#x26;" horiz-adv-x="619" 
d="M142 18q-45 24 -70.5 66.5t-25.5 96.5q0 40 16.5 72t42.5 57.5t74 65.5q1 1 17 14q-27 58 -40 99t-13 77q0 42 18.5 76t50.5 53.5t71 19.5q52 0 82.5 -32.5t30.5 -87.5q0 -38 -19 -70t-49 -58.5t-84 -67.5l-18 -14q35 -65 91 -134.5t119 -123.5q84 117 117 238h30
q-52 -163 -125 -258q79 -60 137 -84l-10 -27q-54 19 -145 88q-45 -44 -95.5 -67t-100.5 -23q-57 0 -102 24zM101.5 100q21.5 -37 60 -58t85.5 -21q90 0 171 82q-62 56 -117 123.5t-95 134.5q-126 -81 -126 -178q0 -46 21.5 -83zM184 492.5q11 -41.5 32 -84.5q53 39 82 64
t49 55t20 65q0 46 -22.5 72.5t-62.5 26.5q-49 0 -79 -34.5t-30 -89.5q0 -33 11 -74.5z" />
    <glyph glyph-name="quotesingle" unicode="'" horiz-adv-x="236" 
d="M110 526l-9 148l-2 64h36l-2 -64l-9 -148h-14z" />
    <glyph glyph-name="parenleft" unicode="(" horiz-adv-x="287" 
d="M128.5 38.5q-35.5 120.5 -35.5 261.5q0 140 35.5 259t103.5 234l24 -6q-65 -110 -101 -234t-36 -253t36 -253t101 -234l-24 -6q-68 111 -103.5 231.5z" />
    <glyph glyph-name="parenright" unicode=")" horiz-adv-x="287" 
d="M130.5 47q36.5 124 36.5 253t-36.5 253t-101.5 234l25 6q68 -115 103.5 -234t35.5 -259q0 -141 -35.5 -261.5t-103.5 -231.5l-25 6q65 110 101.5 234z" />
    <glyph glyph-name="asterisk" unicode="*" horiz-adv-x="425" 
d="M122 461l65 101l-111 44l5 17l116 -32l7 119h18l6 -119l115 30l6 -17l-112 -43l64 -100l-14 -11l-75 93l-76 -92z" />
    <glyph glyph-name="plus" unicode="+" horiz-adv-x="454" 
d="M215 219h-165v25h165v164h25v-164h164v-25h-165v-165l-24 1v164z" />
    <glyph glyph-name="comma" unicode="," horiz-adv-x="235" 
d="M112.5 -39.5q16.5 25.5 15.5 57.5q-1 -1 -8 -1q-16 0 -25 8t-9 25q0 15 10.5 24.5t23.5 9.5q17 0 28.5 -16t11.5 -42q0 -42 -22 -75t-60 -55l-11 23q29 16 45.5 41.5z" />
    <glyph glyph-name="hyphen" unicode="-" horiz-adv-x="322" 
d="M43 248v30h237v-30h-237z" />
    <glyph glyph-name="period" unicode="." horiz-adv-x="218" 
d="M83 10q-7 8 -7 20t7.5 20t18.5 8q12 0 20 -7.5t8 -20.5q0 -12 -8 -20t-20 -8t-19 8z" />
    <glyph glyph-name="slash" unicode="/" horiz-adv-x="384" 
d="M15 -168l328 928h31l-328 -928h-31z" />
    <glyph glyph-name="zero" unicode="0" horiz-adv-x="515" 
d="M112.5 75.5q-52.5 88.5 -52.5 270.5q0 175 53 261.5t146 86.5q91 0 143 -87t52 -261q0 -180 -52 -269.5t-143 -89.5q-94 0 -146.5 88.5zM135.5 93q45.5 -83 123.5 -83q77 0 121 82t44 254q0 165 -44 245t-121 80q-78 0 -123.5 -80.5t-45.5 -244.5q0 -170 45.5 -253z" />
    <glyph glyph-name="one" unicode="1" horiz-adv-x="515" 
d="M99 22h164v601h-124v17q42 9 71.5 18t52.5 23h28v-659h150v-22h-342v22z" />
    <glyph glyph-name="two" unicode="2" horiz-adv-x="515" 
d="M307 306q47 64 66.5 110.5t19.5 91.5q0 75 -42.5 118.5t-116.5 43.5q-88 0 -162 -86l-18 18q46 49 89.5 70.5t94.5 21.5q86 0 135 -49.5t49 -135.5q0 -45 -20 -95.5t-64 -111.5q-88 -119 -238 -277h39h91h227v-25h-404v15q162 167 254 291z" />
    <glyph glyph-name="three" unicode="3" horiz-adv-x="513" 
d="M143 34.5q43 -22.5 107 -22.5q76 0 122.5 45.5t46.5 122.5q0 88 -65 128t-176 42v24q218 2 218 158q0 63 -41.5 100.5t-108.5 37.5q-85 0 -158 -70l-16 17q37 36 79 56.5t95 20.5q79 0 129 -42t50 -117q0 -57 -34.5 -102t-97.5 -68v-4q68 -13 112.5 -63t44.5 -117
q0 -89 -55.5 -141.5t-145.5 -52.5q-57 0 -112 23t-94 65l16 22q41 -40 84 -62.5z" />
    <glyph glyph-name="four" unicode="4" horiz-adv-x="515" 
d="M342 214h-317v15l319 452h26v-443h103v-24h-103v-214h-28v214zM342 238v262v128h-8q-8 -17 -34 -53q-11 -14 -25 -36l-213 -301h280z" />
    <glyph glyph-name="five" unicode="5" horiz-adv-x="515" 
d="M132 8.5q-56 21.5 -94 61.5l18 19q71 -78 187 -78q52 0 93.5 26.5t65 73t23.5 104.5q0 83 -48.5 134t-130.5 51q-36 0 -64.5 -10t-63.5 -33l-23 16l24 308h299v-25h-274l-26 -272q40 21 69 31t65 10q98 0 150 -55t52 -155q0 -67 -28 -119t-76 -80.5t-107 -28.5
q-55 0 -111 21.5z" />
    <glyph glyph-name="six" unicode="6" horiz-adv-x="515" 
d="M130 596q65 98 179 98q38 0 71 -13t63 -46l-17 -19q-53 54 -118 54t-113 -38.5t-74 -112.5t-26 -177q0 -24 1 -36q35 47 84 74t97 27q90 0 136.5 -52.5t46.5 -151.5q0 -61 -23.5 -110t-64.5 -77.5t-92 -28.5q-63 0 -111.5 38t-76 111t-27.5 177q0 185 65 283zM152 75
q48 -65 129 -65q43 0 77.5 25.5t53.5 69.5t19 98q0 85 -40.5 132t-118.5 47q-48 0 -94.5 -29t-81.5 -79q8 -134 56 -199z" />
    <glyph glyph-name="seven" unicode="7" horiz-adv-x="515" 
d="M239 249q22 108 66.5 205t118.5 202h-368v25h405v-18q-80 -106 -125.5 -203t-67 -205.5t-27.5 -254.5h-30q6 141 28 249z" />
    <glyph glyph-name="eight" unicode="8" horiz-adv-x="513" 
d="M153.5 11q-47.5 24 -74.5 65t-27 91q0 62 36.5 118t100.5 85v6q-51 34 -74.5 74.5t-23.5 82.5q0 44 22 81t61.5 58.5t88.5 21.5q81 0 129 -46.5t48 -125.5q0 -43 -27.5 -93.5t-72.5 -84.5v-6q67 -36 94.5 -79t27.5 -101q0 -46 -25.5 -85.5t-71.5 -62.5t-104 -23
q-60 0 -107.5 24zM104 90q24 -37 65.5 -59t92.5 -22q76 0 123 42t47 108q0 52 -23.5 86t-59.5 54.5t-104 48.5l-35 15q-67 -41 -98.5 -87t-31.5 -106q0 -43 24 -80zM168 427q48 -40 145 -77q49 39 74 82.5t25 88.5q0 68 -41.5 109.5t-109.5 41.5q-63 0 -102 -39.5t-39 -99.5
q0 -66 48 -106z" />
    <glyph glyph-name="nine" unicode="9" horiz-adv-x="515" 
d="M79 591.5q24 47.5 65 75t90 27.5q101 0 158.5 -80.5t57.5 -236.5q0 -191 -65 -290.5t-180 -99.5q-83 0 -134 57l17 20q55 -55 118 -55q68 0 118 44t75.5 129t21.5 203q-22 -45 -76.5 -74t-107.5 -29q-88 0 -135 51.5t-47 153.5q0 57 24 104.5zM123 354q40 -47 119 -47
q51 0 100.5 30t77.5 81q-8 120 -55 185.5t-132 65.5q-44 0 -78 -24.5t-53 -66t-19 -91.5q0 -86 40 -133z" />
    <glyph glyph-name="colon" unicode=":" horiz-adv-x="180" 
d="M68.5 11q-8.5 9 -8.5 21q0 13 8.5 22t20.5 9q14 0 22.5 -8.5t8.5 -22.5q0 -12 -8.5 -21t-22.5 -9q-12 0 -20.5 9zM68.5 212.5q8.5 8.5 20.5 8.5q14 0 22.5 -8.5t8.5 -22.5q0 -12 -8.5 -21t-22.5 -9q-12 0 -20.5 9t-8.5 21q0 14 8.5 22.5z" />
    <glyph glyph-name="semicolon" unicode=";" horiz-adv-x="223" 
d="M112.5 -48.5q15.5 23.5 14.5 53.5h-7q-15 0 -23.5 7.5t-8.5 22.5q0 14 9.5 23t22.5 9q16 0 26.5 -15t10.5 -39q0 -74 -76 -121l-11 22q27 14 42.5 37.5zM98.5 212.5q8.5 8.5 20.5 8.5q14 0 22.5 -8.5t8.5 -22.5q0 -12 -8.5 -21t-22.5 -9q-12 0 -20.5 9t-8.5 21
q0 14 8.5 22.5z" />
    <glyph glyph-name="less" unicode="&#x3c;" horiz-adv-x="516" 
d="M474 166l-432 172v41l432 171v-34l-395 -152v-11l147 -58l248 -95v-34z" />
    <glyph glyph-name="equal" unicode="=" horiz-adv-x="483" 
d="M50 298v25h360v-25h-360zM50 167h360v-25h-360v25z" />
    <glyph glyph-name="greater" unicode="&#x3e;" horiz-adv-x="516" 
d="M42 166v34l248 95l146 58v11l-394 152v34l432 -171v-41z" />
    <glyph glyph-name="question" unicode="?" horiz-adv-x="434" 
d="M179 218q0 88 71 176q46 56 66.5 93.5t20.5 80.5q0 59 -36 96t-94 37q-39 0 -75.5 -18t-64.5 -51l-20 19q75 79 167 79q71 0 114.5 -44t43.5 -116q0 -39 -20.5 -81.5t-65.5 -97.5q-39 -52 -57.5 -91.5t-18.5 -88.5q0 -16 1 -24h-30q-2 20 -2 31zM178.5 54q8.5 9 20.5 9
q14 0 22.5 -8.5t8.5 -22.5q0 -12 -8.5 -21t-22.5 -9q-12 0 -20.5 9t-8.5 21q0 13 8.5 22z" />
    <glyph glyph-name="at" unicode="@" horiz-adv-x="877" 
d="M275.5 -124.5q-64.5 24.5 -110.5 71.5q-50 47 -76 116t-26 153q0 99 33 184.5t95 148.5q58 60 134 92.5t158 32.5q76 0 137 -23.5t105 -68.5q43 -43 65.5 -104.5t22.5 -137.5q0 -62 -16 -114.5t-47 -89.5q-27 -33 -61 -51.5t-67 -18.5q-44 0 -68.5 20.5t-26.5 61.5h-12
q-71 -74 -130 -74q-53 0 -84 37.5t-31 101.5q0 38 14 81t37 76q28 38 64.5 57.5t78.5 19.5q28 0 48 -12.5t37 -38.5h11l10 42h23l-37 -193q-11 -42 -11 -71q0 -84 81 -84q30 0 59 17.5t51 48.5q51 70 51 181q0 71 -21 130t-61 97q-42 43 -99.5 65t-126.5 22
q-76 0 -146.5 -31.5t-123.5 -87.5q-59 -60 -90 -140t-31 -173q0 -76 23.5 -141t68.5 -111q43 -45 105 -69t136 -24q97 0 178 48l10 -19q-84 -52 -191 -52q-78 0 -142.5 24.5zM323 127.5q25 -31.5 69 -31.5q54 0 124 77l33 191q-19 33 -38.5 46.5t-48.5 13.5q-72 0 -122 -70
q-19 -28 -30.5 -66t-11.5 -73q0 -56 25 -87.5z" />
    <glyph glyph-name="A" unicode="A" horiz-adv-x="556" 
d="M267 710h33l245 -710h-28l-85 253h-297l-84 -253h-30zM424 277l-96 278q-23 68 -44 128h-3q-22 -70 -42 -128l-95 -278h280z" />
    <glyph glyph-name="B" unicode="B" horiz-adv-x="622" 
d="M114 710h184q102 0 162.5 -40.5t60.5 -130.5q0 -60 -31 -100.5t-89 -55.5v-5q81 -10 123 -55t42 -116q0 -106 -70.5 -156.5t-186.5 -50.5h-195v710zM296 25q118 0 179 45t61 135q0 79 -60.5 119.5t-179.5 40.5h-152v-340h152zM275 390q216 0 216 144q0 80 -50 115.5
t-159 35.5h-138v-295h131z" />
    <glyph glyph-name="C" unicode="C" horiz-adv-x="607" 
d="M202 35q-65 48 -99 130t-34 184q0 111 34.5 195.5t101 131.5t157.5 47q48 0 92 -18.5t79 -57.5l-14 -20q-66 70 -157 70q-128 0 -194.5 -94t-66.5 -253q0 -94 28.5 -171t86.5 -122t143 -45q51 0 93 19.5t87 65.5l15 -17q-41 -47 -89 -70t-108 -23q-90 0 -155 48z" />
    <glyph glyph-name="D" unicode="D" horiz-adv-x="650" 
d="M114 0v710h155q153 0 233.5 -90t80.5 -262q0 -171 -80.5 -264.5t-232.5 -93.5h-156zM265 22q135 0 210.5 86t75.5 250q0 160 -74 243.5t-212 83.5h-121v-663h121z" />
    <glyph glyph-name="E" unicode="E" horiz-adv-x="554" 
d="M114 710h371v-25h-341v-296h286v-25h-286v-339h350v-25h-380v710z" />
    <glyph glyph-name="F" unicode="F" horiz-adv-x="512" 
d="M114 710h368v-25h-338v-310h285v-25h-285v-341h-30v701z" />
    <glyph glyph-name="G" unicode="G" horiz-adv-x="651" 
d="M204.5 34.5q-66.5 47.5 -101 131.5t-34.5 191q0 108 36 191t104.5 129t163.5 46q53 0 96.5 -17t84.5 -59l-17 -20q-36 37 -75.5 53.5t-87.5 16.5q-90 0 -151 -44t-91.5 -121t-30.5 -174q0 -99 30 -177.5t90 -123.5t147 -45q48 0 93 16.5t74 42.5v245h-170v25h200v-279
q-36 -38 -89 -56.5t-112 -18.5q-93 0 -159.5 47.5z" />
    <glyph glyph-name="H" unicode="H" horiz-adv-x="689" 
d="M114 710h30v-321h399v321h30v-710h-30v364h-399v-364h-30v710z" />
    <glyph glyph-name="I" unicode="I" horiz-adv-x="259" 
d="M114 0v710h30v-710h-30z" />
    <glyph glyph-name="J" unicode="J" horiz-adv-x="498" 
d="M122.5 10.5q-42.5 23.5 -68.5 68.5l26 15q23 -41 56.5 -61.5t81.5 -20.5q70 0 104.5 44t34.5 134v520h30v-527q0 -42 -9.5 -78.5t-28.5 -61.5q-42 -56 -130 -56q-54 0 -96.5 23.5z" />
    <glyph glyph-name="K" unicode="K" 
d="M114 0v710h30v-416h6l363 416h34l-226 -262l259 -448h-37l-243 425l-156 -176v-249h-30z" />
    <glyph glyph-name="L" unicode="L" horiz-adv-x="503" 
d="M114 0v710h30v-685h329v-25h-359z" />
    <glyph glyph-name="M" unicode="M" horiz-adv-x="760" 
d="M114 710h52l182 -507l15 -39q10 -26 14 -39h7q17 41 31 80l177 505h54v-710h-30v479v198h-6l-213 -592h-32l-218 592h-8v-198v-479h-25v710z" />
    <glyph glyph-name="N" unicode="N" horiz-adv-x="685" 
d="M114 0v710h36l258 -446l132 -216h5q0 42 -1 77l-1 139v446h28v-710h-38l-227 393l-162 268h-5q3 -81 3 -209v-452h-28z" />
    <glyph glyph-name="O" unicode="O" horiz-adv-x="701" 
d="M198.5 35.5q-63.5 48.5 -96.5 133t-33 189.5q0 104 32 187t95.5 130.5t154.5 47.5q89 0 153.5 -46.5t97.5 -129.5t33 -189q0 -108 -33.5 -192t-97.5 -131.5t-153 -47.5t-152.5 48.5zM129.5 184.5q28.5 -78.5 85 -125.5t136.5 -47q82 0 139 47.5t85 126.5t28 172
q0 95 -29 172t-86 122.5t-137 45.5q-82 0 -138 -46.5t-84 -123.5t-28 -170q0 -95 28.5 -173.5z" />
    <glyph glyph-name="P" unicode="P" horiz-adv-x="590" 
d="M114 710h169q124 0 186 -44.5t62 -146.5q0 -103 -65 -151t-179 -48h-143v-320h-30v710zM276 345q114 0 168.5 42t54.5 132q0 87 -53.5 126.5t-174.5 39.5h-127v-340h132z" />
    <glyph glyph-name="Q" unicode="Q" horiz-adv-x="701" 
d="M420 -121q-58 39 -84 108q-84 4 -144.5 54t-91.5 132.5t-31 184.5q0 104 32 187t95.5 130.5t154.5 47.5q89 0 153.5 -46.5t97.5 -129.5t33 -189q0 -104 -31.5 -186.5t-91.5 -131t-144 -53.5q23 -57 72.5 -88t122.5 -31q29 0 65 6l7 -25q-40 -9 -77 -9q-80 0 -138 39z
M129.5 184.5q28.5 -78.5 85 -125.5t136.5 -47q82 0 139 47.5t85 126.5t28 172q0 95 -29 172t-86 122.5t-137 45.5q-82 0 -138 -46.5t-84 -123.5t-28 -170q0 -95 28.5 -173.5z" />
    <glyph glyph-name="R" unicode="R" horiz-adv-x="583" 
d="M114 710h192q110 0 168 -43.5t58 -142.5q0 -81 -46.5 -129.5t-140.5 -60.5l192 -334h-35l-191 334h-167v-334h-30v710zM294 359q101 0 153.5 42t52.5 123q0 84 -49 122.5t-157 38.5h-150v-326h150z" />
    <glyph glyph-name="S" unicode="S" horiz-adv-x="561" 
d="M162.5 12q-58.5 25 -101.5 72l20 23q42 -46 96.5 -70.5t112.5 -24.5q84 0 135 42t51 113q0 50 -18 81t-47 49t-84 42q-80 34 -90 41q-70 29 -105 70.5t-35 106.5q0 50 26 87.5t71 58t99 20.5t101.5 -20t84.5 -56l-16 -21q-70 71 -170 71q-75 0 -120.5 -37t-45.5 -99
q0 -61 36.5 -97.5t108.5 -66.5l71 -31l20 -9q73 -30 108.5 -73t35.5 -113q0 -56 -28.5 -97.5t-77.5 -64t-110 -22.5q-70 0 -128.5 25z" />
    <glyph glyph-name="T" unicode="T" horiz-adv-x="564" 
d="M267 0v685h-227v25h483v-25h-226v-685h-30z" />
    <glyph glyph-name="U" unicode="U" horiz-adv-x="682" 
d="M165.5 63.5q-54.5 76.5 -54.5 199.5v447h30v-441q0 -115 49.5 -186t150.5 -71q106 0 154 71.5t48 185.5v441h28v-447q0 -127 -55 -201.5t-175 -74.5q-121 0 -175.5 76.5z" />
    <glyph glyph-name="V" unicode="V" horiz-adv-x="527" 
d="M48 710l116 -365q69 -218 100 -307h3q25 73 94 290l121 382h28l-226 -710h-37l-231 710h32z" />
    <glyph glyph-name="W" unicode="W" horiz-adv-x="829" 
d="M41 710h30l84 -383l62 -287h5l27 99q37 140 48 182l99 389h36l98 -383l43 -160q24 -84 35 -127h7l36 172q1 6 26 118l81 380h28l-157 -710h-38l-87 332l-49 190q-16 69 -37 146h-6l-30 -118l-57 -219l-88 -331h-38z" />
    <glyph glyph-name="X" unicode="X" horiz-adv-x="517" 
d="M240 368l-193 342h32l122 -215q20 -35 30 -51l28 -49h6q35 58 58 100l116 215h31l-193 -345l208 -365h-35l-123 223q-17 32 -32.5 58t-19.5 33q-14 25 -15 27h-6q-7 -14 -16 -28q-8 -14 -20.5 -35.5t-30.5 -54.5l-124 -223h-31z" />
    <glyph glyph-name="Y" unicode="Y" horiz-adv-x="479" 
d="M225 288l-210 422h31l111 -226q59 -122 80 -158h9q28 52 58 115q4 8 9 19t12 24l110 226h30l-210 -422v-288h-30v288z" />
    <glyph glyph-name="Z" unicode="Z" horiz-adv-x="579" 
d="M63 18l415 667h-379v25h418v-17l-417 -668h419v-25h-456v18z" />
    <glyph glyph-name="bracketleft" unicode="[" horiz-adv-x="300" 
d="M111 -159v917h162v-21h-136v-876h136v-20h-162z" />
    <glyph glyph-name="backslash" unicode="\" horiz-adv-x="384" 
d="M-5 760h31l328 -928h-31z" />
    <glyph glyph-name="bracketright" unicode="]" horiz-adv-x="300" 
d="M28 -159v20h135v876h-135v21h161v-917h-161z" />
    <glyph glyph-name="asciicircum" unicode="^" horiz-adv-x="516" 
d="M79 319l157 399h43l158 -399h-35l-80 218l-58 145h-10l-60 -145l-80 -218h-35z" />
    <glyph glyph-name="underscore" unicode="_" horiz-adv-x="539" 
d="M13 -116v30h513v-30h-513z" />
    <glyph glyph-name="grave" unicode="`" 
 />
    <glyph glyph-name="a" unicode="a" horiz-adv-x="527" 
d="M109.5 21.5q-37.5 34.5 -37.5 97.5q0 60 33.5 99t105.5 62.5t193 37.5q2 89 -31.5 134.5t-99.5 45.5q-83 0 -162 -58l-13 20q35 24 82 42.5t100 18.5q77 0 115.5 -48.5t38.5 -141.5v-331h-21l-5 67l-6 -1q-50 -42 -98.5 -60.5t-91.5 -18.5q-65 0 -102.5 34.5zM131 39.5
q31 -29.5 89 -29.5q46 0 89.5 21.5t94.5 66.5l1 199q-96 -13 -159.5 -29.5t-104.5 -51.5t-41 -94q0 -53 31 -82.5z" />
    <glyph glyph-name="b" unicode="b" horiz-adv-x="572" 
d="M108 766h29v-215l-2 -120q41 41 89 65.5t98 24.5q103 0 150.5 -71t47.5 -193q0 -77 -26.5 -138.5t-76 -96.5t-116.5 -35q-36 0 -80.5 17.5t-80.5 46.5h-5l-4 -51h-23v766zM218 31.5q43 -19.5 82 -19.5q60 0 103 34.5t64.5 91t21.5 120.5q0 112 -41.5 175t-132.5 63
q-39 0 -84.5 -22.5t-93.5 -66.5v-322q38 -34 81 -53.5z" />
    <glyph glyph-name="c" unicode="c" horiz-adv-x="484" 
d="M170 20.5q-51 33.5 -78 93t-27 134.5q0 80 28 142t79.5 96.5t120.5 34.5q38 0 71 -13t67 -44l-17 -18q-30 27 -59.5 40t-62.5 13q-60 0 -104.5 -34t-68.5 -91.5t-24 -125.5q0 -66 24 -120.5t69 -86.5t103 -32q71 0 138 58l14 -19q-71 -61 -152 -61q-70 0 -121 33.5z" />
    <glyph glyph-name="d" unicode="d" horiz-adv-x="586" 
d="M118.5 54.5q-54.5 67.5 -54.5 202.5q0 76 30 136.5t80.5 94t111.5 33.5q46 0 83.5 -16.5t82.5 -54.5l-4 145v171h29v-766h-21l-5 66h-6q-44 -39 -89.5 -59t-84.5 -20q-98 0 -152.5 67.5zM143 76q48 -66 134 -66q85 0 171 92v324q-39 37 -78 54.5t-82 17.5q-55 0 -99 -33
t-69 -88.5t-25 -119.5q0 -115 48 -181z" />
    <glyph glyph-name="e" unicode="e" horiz-adv-x="520" 
d="M175 21.5q-52 34.5 -81 96t-29 139.5q0 72 27.5 132.5t76.5 96t111 35.5q94 0 141.5 -63t47.5 -167q0 -5 1 -14t0 -17h-376q0 -75 25 -131t71.5 -86.5t108.5 -30.5q38 0 70.5 9t67.5 30l10 -20q-39 -21 -71.5 -32.5t-80.5 -11.5q-68 0 -120 34.5zM443 285
q3 103 -39.5 157t-121.5 54q-55 0 -97 -29t-65.5 -77.5t-26.5 -104.5h350z" />
    <glyph glyph-name="f" unicode="f" horiz-adv-x="282" 
d="M116 485h-71v20l71 4v124q0 146 117 146q17 0 31.5 -2.5t33.5 -11.5l-9 -21q-25 11 -55 11q-45 0 -67.5 -32t-22.5 -93v-122h120v-23h-120v-486h-28v486z" />
    <glyph glyph-name="g" unicode="g" horiz-adv-x="521" 
d="M121 -207q-57 36 -57 101q0 31 20.5 66t55.5 60v3q-20 9 -32 33t-12 50q0 30 18 57.5t37 38.5v6q-65 61 -65 139q0 49 22.5 88.5t62.5 62t89 22.5q43 0 67 -13h168v-21h-135q33 -23 52.5 -60t19.5 -80q0 -50 -23.5 -90t-63.5 -62.5t-85 -22.5q-21 0 -45 7t-43 19
q-23 -19 -36.5 -39.5t-13.5 -47.5q0 -38 26 -57.5t83 -19.5h111q85 0 123.5 -26.5t38.5 -83.5q0 -49 -33.5 -87t-88 -58.5t-114.5 -20.5q-90 0 -147 36zM140.5 -187.5q48.5 -30.5 132.5 -30.5q48 0 94.5 17t76.5 48.5t30 72.5q0 43 -31 64.5t-98 21.5h-112q-38 0 -67 9
q-32 -24 -53 -55t-21 -62q0 -55 48.5 -85.5zM135 269.5q19 -34.5 52 -54.5t73 -20q63 0 102.5 43.5t39.5 108.5q0 66 -39.5 107.5t-102.5 41.5q-64 0 -104 -41.5t-40 -107.5q0 -43 19 -77.5z" />
    <glyph glyph-name="h" unicode="h" horiz-adv-x="568" 
d="M108 766h29v-215l-2 -128q51 50 96 74t94 24q75 0 110.5 -44.5t35.5 -144.5v-332h-28v326q0 171 -118 171q-49 0 -90.5 -24.5t-97.5 -79.5v-393h-29v766z" />
    <glyph glyph-name="i" unicode="i" horiz-adv-x="245" 
d="M108 508h29v-508h-29v508zM99 708q9 9 25 9q15 0 25 -9.5t10 -23.5q0 -13 -10.5 -22.5t-24.5 -9.5t-24 9.5t-10 22.5q0 15 9 24z" />
    <glyph glyph-name="j" unicode="j" horiz-adv-x="245" 
d="M-26 -230l8 19q23 -5 48 -5q41 0 59.5 28.5t18.5 92.5v602h28v-605q0 -75 -25.5 -108.5t-78.5 -33.5q-26 0 -58 10zM99.5 708q9.5 9 25.5 9q14 0 23 -9.5t9 -23.5q0 -13 -9.5 -22.5t-22.5 -9.5q-16 0 -25.5 9t-9.5 23q0 15 9.5 24z" />
    <glyph glyph-name="k" unicode="k" horiz-adv-x="498" 
d="M108 767h29v-572l6 -2l265 315h30l-160 -194l193 -314h-31l-177 293l-126 -149v-144h-29v767z" />
    <glyph glyph-name="l" unicode="l" horiz-adv-x="253" 
d="M121 11.5q-13 15.5 -13 57.5v697h29v-704q0 -44 30 -44l13 1l4 -21q-5 -2 -12 -2h-10q-28 0 -41 15.5z" />
    <glyph glyph-name="m" unicode="m" horiz-adv-x="875" 
d="M108 508h22l8 -81h2q48 47 92 70.5t93 23.5t79.5 -24t43.5 -77q50 50 95.5 75.5t96.5 25.5q65 0 98.5 -45t33.5 -144v-332h-28v326q0 84 -27.5 127.5t-76.5 43.5t-90 -24.5t-93 -78.5v-394h-28v326q0 84 -27.5 127.5t-76.5 43.5t-90.5 -24.5t-97.5 -79.5v-393h-29v508z
" />
    <glyph glyph-name="n" unicode="n" horiz-adv-x="573" 
d="M108 508h22l8 -81h2q48 47 92 70.5t93 23.5q75 0 110.5 -44.5t35.5 -144.5v-332h-28v326q0 171 -118 171q-49 0 -90.5 -24.5t-97.5 -79.5v-393h-29v508z" />
    <glyph glyph-name="o" unicode="o" horiz-adv-x="575" 
d="M172.5 20.5q-50.5 33.5 -79 93.5t-28.5 138q0 79 28 140t78.5 95t115.5 34q64 0 115 -34t79.5 -95t28.5 -140q0 -77 -28.5 -137.5t-79.5 -94t-115 -33.5t-114.5 33.5zM118.5 127.5q25.5 -54.5 70 -85t98.5 -30.5q56 0 100.5 30t69.5 84t25 125q0 73 -25 128.5t-69.5 86
t-100.5 30.5q-54 0 -98.5 -31t-70 -87t-25.5 -127q0 -69 25.5 -123.5z" />
    <glyph glyph-name="p" unicode="p" horiz-adv-x="586" 
d="M108 508h23l6 -64l5 -2q48 40 94.5 59.5t86.5 19.5q94 0 145.5 -65.5t51.5 -198.5q0 -81 -28.5 -142t-78 -94.5t-112.5 -33.5q-78 0 -166 70l2 -103v-181h-29v735zM219 31.5q42 -19.5 81 -19.5q56 0 99 31.5t66.5 87.5t23.5 127q0 118 -44 178t-130 60q-38 0 -81.5 -21.5
t-96.5 -67.5v-322q40 -34 82 -53.5z" />
    <glyph glyph-name="q" unicode="q" horiz-adv-x="586" 
d="M448 -34l3 109q-78 -88 -180 -88q-97 0 -152 66.5t-55 195.5q0 80 29.5 142t80.5 96t112 34q43 0 80 -14t76 -47h6l6 48h23v-735h-29v193zM143.5 76q48.5 -64 133.5 -64q86 0 171 93v320q-39 36 -78 53.5t-82 17.5q-55 0 -99 -33.5t-69 -90t-25 -123.5q0 -109 48.5 -173z
" />
    <glyph glyph-name="r" unicode="r" horiz-adv-x="340" 
d="M108 508h22l4 -95h6q27 49 68.5 78.5t84.5 29.5q28 0 41 -7l-7 -27q-12 7 -40 7q-47 0 -86 -38t-64 -102v-354h-29v508z" />
    <glyph glyph-name="s" unicode="s" horiz-adv-x="435" 
d="M46 51l18 20q38 -30 75.5 -46t87.5 -16q59 0 96.5 31t37.5 82q0 36 -13 57.5t-38.5 34.5t-71.5 27l-42 14q-66 24 -96.5 56t-30.5 78q0 58 42 95t113 37q34 0 70.5 -11.5t64.5 -35.5l-14 -19q-31 23 -60 33.5t-61 10.5q-57 0 -92 -29.5t-35 -77.5q0 -43 29.5 -68.5
t80.5 -43.5q7 -2 15.5 -5.5t19.5 -6.5q79 -24 113.5 -55.5t34.5 -88.5q0 -60 -44.5 -98.5t-121.5 -38.5q-101 0 -178 64z" />
    <glyph glyph-name="t" unicode="t" horiz-adv-x="334" 
d="M148 23q-28 36 -28 109v352h-81v21l82 4l6 149h22v-150h150v-24h-150v-354q0 -62 22.5 -90.5t74.5 -28.5q30 0 59 12l7 -18q-17 -8 -38.5 -13t-34.5 -5q-63 0 -91 36z" />
    <glyph glyph-name="u" unicode="u" horiz-adv-x="570" 
d="M136.5 31.5q-35.5 44.5 -35.5 144.5v332h28v-326q0 -170 118 -170q49 0 90.5 24.5t97.5 79.5v392h29v-508h-22l-8 81h-2q-48 -47 -92 -70.5t-93 -23.5q-75 0 -110.5 44.5z" />
    <glyph glyph-name="v" unicode="v" horiz-adv-x="465" 
d="M26 508h32l116 -326l58 -155h5q10 27 29 76.5t29 76.5l118 328h28l-187 -508h-40z" />
    <glyph glyph-name="w" unicode="w" horiz-adv-x="736" 
d="M37 508h30l95 -338l26 -91l16 -54h6l21 73q13 40 21 72l96 338h41l97 -338q21 -75 43 -145h5l20 63q18 50 26 82l90 338h27l-142 -508h-46l-93 324q-15 54 -17 59q-12 47 -28 96h-5l-46 -157l-93 -322h-42z" />
    <glyph glyph-name="x" unicode="x" horiz-adv-x="436" 
d="M201 271l-156 237h30l83 -127q33 -50 61 -90h3q9 14 16 24.5t12 18.5q18 24 32 47l80 127h30l-155 -240l168 -268h-30l-93 148q-15 24 -32 48q-5 7 -14.5 21t-17.5 28h-4q-22 -33 -40 -63l-23 -37l-92 -145h-29z" />
    <glyph glyph-name="y" unicode="y" horiz-adv-x="467" 
d="M35 -221l7 24l17.5 -2.5l17.5 -2.5q45 0 81.5 36.5t60.5 107.5l15 50l-208 516h29l126 -321q10 -26 30.5 -76t31.5 -75h8l21 60q30 85 32 91l111 320h28l-202 -571q-29 -83 -72 -123t-92 -40q-29 0 -42 6z" />
    <glyph glyph-name="z" unicode="z" horiz-adv-x="434" 
d="M38 13l314 472h-282v23h317v-13l-315 -471h325v-24h-359v13z" />
    <glyph glyph-name="braceleft" unicode="{" horiz-adv-x="299" 
d="M153.5 -129.5q-25.5 29.5 -25.5 102.5q0 32 4 100q4 74 4 122q0 44 -23.5 67.5t-68.5 24.5v24q44 0 68 23t24 67q0 52 -4 122q-4 62 -4 102q0 73 25.5 103t87.5 30h32v-21h-29q-49 0 -69 -26t-20 -91q0 -31 4 -101q5 -60 5 -106q0 -49 -13.5 -74.5t-42.5 -33.5v-12
q29 -8 42.5 -34t13.5 -75q0 -44 -5 -104q-4 -72 -4 -102q0 -65 19.5 -91t69.5 -26h29v-20h-32q-62 0 -87.5 29.5z" />
    <glyph glyph-name="bar" unicode="|" horiz-adv-x="242" 
d="M108 -265v1067h28v-1067h-28z" />
    <glyph glyph-name="braceright" unicode="}" horiz-adv-x="299" 
d="M34 -139h29q50 0 69.5 26t19.5 91q0 30 -4 102q-5 60 -5 104q0 49 13.5 75t42.5 34v12q-29 8 -42.5 33.5t-13.5 74.5q0 46 5 106q4 70 4 101q0 65 -20 91t-69 26h-29v21h32q62 0 88 -30t26 -103q0 -38 -4 -102q-5 -57 -5 -122q0 -44 24 -67t69 -23v-24q-45 -1 -69 -24.5
t-24 -67.5q0 -61 5 -123q4 -68 4 -99q0 -73 -26 -102.5t-88 -29.5h-32v20z" />
    <glyph glyph-name="asciitilde" unicode="~" horiz-adv-x="516" 
d="M302.5 306q-23.5 12 -51.5 35q-35 27 -53 38t-38 11q-27 0 -48.5 -16t-40.5 -50l-21 13q20 39 49.5 60.5t62.5 21.5q27 0 49 -11.5t55 -35.5q31 -26 49.5 -37.5t40.5 -11.5q54 0 88 66l22 -15q-20 -38 -49.5 -59t-62.5 -21q-28 0 -51.5 12z" />
    <glyph glyph-name="uni00A0" unicode="&#xa0;" horiz-adv-x="476" 
 />
    <glyph glyph-name="exclamdown" unicode="&#xa1;" horiz-adv-x="202" 
d="M91 473l25 5l16 -519l-27 -19zM78.5 593q8.5 9 22.5 9q12 0 20.5 -9t8.5 -21q0 -13 -8.5 -22t-20.5 -9q-13 0 -22 9t-9 22q0 12 8.5 21z" />
    <glyph glyph-name="cent" unicode="&#xa2;" horiz-adv-x="516" 
d="M149 189q49 -58 130 -69v430q-79 -12 -129 -70.5t-50 -143.5q0 -89 49 -147zM86.5 429.5q15.5 43.5 45.5 75.5q25 30 63.5 49t83.5 24v119h27v-118q45 1 78 -15t66 -44l-19 -23q-29 26 -59.5 39t-65.5 14v-428q74 0 138 57l16 -22q-36 -32 -75.5 -49t-78.5 -18v-116h-27
v119q-47 4 -85.5 22.5t-65.5 49.5q-57 63 -57 171q0 50 15.5 93.5z" />
    <glyph glyph-name="sterling" unicode="&#xa3;" horiz-adv-x="516" 
d="M67 5v19q55 33 85 89t30 126q0 20 -8 62l-4 20h-107v24l67 3h34l-11 34q-15 49 -21.5 77t-6.5 59q0 83 49 130q46 49 129 49q91 0 148 -72l-23 -22q-51 63 -125 63q-63 0 -101.5 -40.5t-38.5 -105.5q0 -32 5.5 -58.5t19.5 -74.5l11 -39h177v-27h-170q9 -43 9 -83
q0 -61 -18.5 -105.5t-59.5 -83.5v-13h317v-31h-387z" />
    <glyph glyph-name="currency" unicode="&#xa4;" horiz-adv-x="516" 
d="M39 153l72 73q-43 55 -43 128q0 81 43 131l-72 74l21 23l72 -76q51 50 127 50q35 0 68 -13.5t55 -36.5l73 76l21 -23l-72 -74q43 -53 43 -131q0 -76 -43 -128l72 -73l-21 -21l-72 72q-25 -25 -57 -38t-67 -13q-74 0 -127 51l-72 -72zM123.5 266.5q20.5 -39.5 56 -62.5
t79.5 -23q46 0 80.5 25.5t53 65.5t18.5 82q0 47 -20 87t-55 63t-77 23q-47 0 -82.5 -25t-54.5 -65t-19 -83q0 -48 20.5 -87.5z" />
    <glyph glyph-name="yen" unicode="&#xa5;" horiz-adv-x="515" 
d="M240 5v178h-182v27h182v86h-182v26h168l-186 362h39l101 -206l21 -42q2 -5 14 -29q21 -49 38 -80h10l41 80l20 43q2 5 5.5 12t7.5 16l101 206h38l-189 -362h169v-26h-181v-86h181v-27h-181v-178h-35z" />
    <glyph glyph-name="brokenbar" unicode="&#xa6;" horiz-adv-x="242" 
d="M108 304v498h28v-498h-28zM108 231h28v-496h-28v496z" />
    <glyph glyph-name="section" unicode="&#xa7;" horiz-adv-x="516" 
d="M89 12l21 19q29 -26 62.5 -40.5t79.5 -14.5q49 0 82 28.5t33 71.5q0 47 -35.5 76.5t-111.5 57.5q-160 57 -160 171q0 42 22.5 74t72.5 66q-34 35 -34 87q0 51 40 84.5t100 33.5q73 0 139 -50l-16 -20q-31 23 -60 33.5t-63 10.5q-51 0 -80 -24t-29 -66q0 -32 14.5 -53
t43.5 -37t85 -38q81 -32 120 -75t39 -101q0 -46 -22 -76t-77 -58q24 -25 33.5 -46t9.5 -49q0 -34 -20 -63t-53.5 -46t-72.5 -17q-96 0 -163 61zM180 262l159 -73q48 21 67.5 47t19.5 67q0 38 -22 68.5t-68 55.5q-39 23 -80 40q-36 15 -78 37q-46 -24 -67 -53t-21 -69
q0 -74 90 -120z" />
    <glyph glyph-name="dieresis" unicode="&#xa8;" 
 />
    <glyph glyph-name="copyright" unicode="&#xa9;" horiz-adv-x="799" 
d="M270 19q-61 25 -108 72q-99 99 -99 256q0 76 25.5 141t73.5 112q47 46 108 70.5t129 24.5q67 0 128.5 -24.5t109.5 -70.5q48 -47 73.5 -112t25.5 -141q0 -155 -99 -256q-49 -47 -110 -72t-128 -25q-68 0 -129 25zM109.5 213.5q24.5 -61.5 70.5 -107.5q43 -45 99.5 -69.5
t119.5 -24.5t120.5 24.5t100.5 69.5q45 46 69 107.5t24 133.5q0 71 -23.5 132t-69.5 108q-43 44 -100 67.5t-121 23.5q-63 0 -119.5 -23.5t-99.5 -67.5q-95 -98 -95 -240q0 -72 24.5 -133.5zM238 425q15 37 43 64q55 53 130 53q37 0 65 -14t54 -40l-14 -16
q-28 25 -52.5 35.5t-54.5 10.5q-44 0 -79.5 -22t-55.5 -61t-20 -88q0 -82 42 -132t112 -50q62 0 122 51l13 -17q-33 -29 -63.5 -44t-74.5 -15q-76 0 -128 55q-54 57 -54 152q0 41 15 78z" />
    <glyph glyph-name="ordfeminine" unicode="&#xaa;" horiz-adv-x="527" 
d="M109.5 30.5q-37.5 34.5 -37.5 97.5q0 55 33.5 92t106 60.5t192.5 37.5q2 89 -31.5 134.5t-99.5 45.5q-83 0 -162 -58l-13 20q35 24 82 42.5t100 18.5q77 0 115.5 -48.5t38.5 -141.5v-322h-21l-5 67l-6 -1q-50 -42 -98.5 -60.5t-91.5 -18.5q-65 0 -102.5 34.5zM131 48.5
q31 -29.5 89 -29.5q46 0 89.5 21.5t94.5 66.5l1 190q-96 -13 -159.5 -29t-104.5 -49t-41 -88q0 -53 31 -82.5z" />
    <glyph glyph-name="guillemotleft" unicode="&#xab;" horiz-adv-x="415" 
d="M102 127.5q-11 42.5 -11 84.5t11 84.5t40 119.5l26 -7q-25 -77 -35.5 -118.5t-10.5 -78.5q0 -39 11.5 -85.5t36.5 -115.5l-29 -3q-28 77 -39 119.5zM245.5 297q10.5 43 38.5 119l27 -7q-26 -78 -37 -119t-11 -78q0 -39 12 -85t37 -116l-29 -3q-27 74 -37.5 117t-10.5 87
q0 42 10.5 85z" />
    <glyph glyph-name="logicalnot" unicode="&#xac;" horiz-adv-x="516" 
d="M440 124v217h-398v30h432v-247h-34z" />
    <glyph glyph-name="uni00AD" unicode="&#xad;" horiz-adv-x="322" 
d="M43 248v30h237v-30h-237z" />
    <glyph glyph-name="registered" unicode="&#xae;" horiz-adv-x="430" 
d="M118.5 384q-43.5 27 -68.5 73.5t-25 102.5t25 102t68 72.5t96 26.5q54 0 97.5 -26t68.5 -72t25 -103q0 -58 -24.5 -104.5t-68 -72.5t-98.5 -26q-52 0 -95.5 27zM68 466q22 -42 60.5 -66.5t85.5 -24.5q48 0 87.5 24.5t62 66.5t22.5 94q0 51 -22.5 93.5t-62 67t-87.5 24.5
q-47 0 -85.5 -24.5t-60.5 -67t-22 -93.5q0 -52 22 -94zM150 667h66q75 0 75 -63q0 -20 -13 -36.5t-32 -18.5l51 -91h-23l-42 82h-63v-82h-19v209zM208 556q32 0 47 11.5t15 36.5q0 47 -59 47h-42v-95h39z" />
    <glyph glyph-name="macron" unicode="&#xaf;" 
 />
    <glyph glyph-name="degree" unicode="&#xb0;" horiz-adv-x="335" 
d="M87 522q-37 32 -37 88q0 55 37 91q33 33 81 33q46 0 82 -33q34 -35 34 -91t-34 -88q-39 -33 -82 -33q-45 0 -81 33zM102 540.5q26 -27.5 66 -27.5q39 0 65 28t26 69q0 44 -25.5 72.5t-65.5 28.5t-66 -28.5t-26 -72.5q0 -42 26 -69.5z" />
    <glyph glyph-name="plusminus" unicode="&#xb1;" horiz-adv-x="518" 
d="M50 89v25h354v-25h-354zM50 409h165v164h25v-164h164v-25h-165v-165l-24 1v164h-165v25z" />
    <glyph glyph-name="uni00B2" unicode="&#xb2;" horiz-adv-x="515" 
d="M209 188q59 65 98 118q47 64 66.5 110.5t19.5 91.5q0 75 -42.5 118.5t-116.5 43.5q-88 0 -162 -86l-18 18q46 49 89.5 70.5t94.5 21.5q86 0 135 -49.5t49 -135.5q0 -45 -20 -95.5t-64 -111.5q-40 -54 -92 -111.5t-146 -156.5h39h91h227v-25h-404v15q97 99 156 164z" />
    <glyph glyph-name="uni00B3" unicode="&#xb3;" horiz-adv-x="513" 
d="M143 40.5q43 -22.5 107 -22.5q50 0 89 21t60.5 57.5t21.5 83.5q0 88 -66 128t-177 42v24q216 2 216 158q0 63 -40.5 100.5t-107.5 37.5q-85 0 -158 -70l-16 17q37 36 79 56.5t95 20.5q79 0 129 -42t50 -117q0 -57 -34.5 -102t-97.5 -68v-4q68 -13 112.5 -63t44.5 -117
q0 -55 -25.5 -97t-71 -65t-104.5 -23q-57 0 -112 23t-94 65l16 19q41 -40 84 -62.5z" />
    <glyph glyph-name="acute" unicode="&#xb4;" 
 />
    <glyph glyph-name="paragraph" unicode="&#xb6;" horiz-adv-x="554" 
d="M408 -79v781h35v-781h-35zM120 653q61 49 177 49h40v-433h-23q-126 0 -189 51q-73 52 -73 166q0 116 68 167z" />
    <glyph glyph-name="periodcentered" unicode="&#xb7;" horiz-adv-x="202" 
d="M62.5 326.5q-9.5 10.5 -9.5 24.5q0 16 10 26t24 10q15 0 25.5 -10t10.5 -26q0 -14 -10.5 -24.5t-25.5 -10.5t-24.5 10.5z" />
    <glyph glyph-name="cedilla" unicode="&#xb8;" 
 />
    <glyph glyph-name="uni00B9" unicode="&#xb9;" horiz-adv-x="515" 
d="M99 31h164v592h-124v17q42 9 71.5 18t52.5 23h28v-650h150v-22h-342v22z" />
    <glyph glyph-name="ordmasculine" unicode="&#xba;" horiz-adv-x="575" 
d="M172.5 29q-50.5 33 -79 92.5t-28.5 135.5q0 77 28 137t78.5 93.5t115.5 33.5q64 0 114.5 -33.5t79.5 -94t29 -136.5q0 -75 -28.5 -134.5t-79.5 -93t-115 -33.5t-114.5 33zM118.5 134.5q25.5 -54.5 70 -85.5t98.5 -31q55 0 99.5 30.5t70 84.5t25.5 123q0 70 -25.5 125.5
t-70 86.5t-99.5 31q-54 0 -98.5 -31.5t-70 -87t-25.5 -124.5q0 -67 25.5 -121.5z" />
    <glyph glyph-name="guillemotright" unicode="&#xbb;" horiz-adv-x="415" 
d="M281.5 126.5q11.5 46.5 11.5 85.5q0 37 -10.5 78.5t-35.5 118.5l26 7q29 -77 40 -119.5t11 -84.5t-11 -84.5t-39 -119.5l-29 3q25 69 36.5 115.5zM140 127q12 46 12 85q0 37 -11 78t-37 119l27 7q28 -76 38.5 -119t10.5 -85q0 -44 -10.5 -87t-37.5 -117l-29 3
q25 70 37 116z" />
    <glyph glyph-name="onequarter" unicode="&#xbc;" horiz-adv-x="515" 
 />
    <glyph glyph-name="onehalf" unicode="&#xbd;" horiz-adv-x="515" 
 />
    <glyph glyph-name="threequarters" unicode="&#xbe;" horiz-adv-x="513" 
 />
    <glyph glyph-name="questiondown" unicode="&#xbf;" horiz-adv-x="429" 
d="M240 316q0 -88 -71 -176q-46 -56 -66.5 -93.5t-20.5 -80.5q0 -59 36 -96t94 -37q39 0 75.5 18t64.5 51l20 -19q-75 -79 -167 -79q-71 0 -114.5 44t-43.5 116q0 39 20.5 81.5t65.5 97.5q39 52 57.5 91.5t18.5 88.5q0 16 -1 24h30q2 -20 2 -31zM197.5 523q8.5 9 22.5 9
q12 0 20.5 -9t8.5 -21q0 -13 -8.5 -22t-20.5 -9q-13 0 -22 9t-9 22q0 12 8.5 21z" />
    <glyph glyph-name="Agrave" unicode="&#xc0;" 
 />
    <glyph glyph-name="Aacute" unicode="&#xc1;" 
 />
    <glyph glyph-name="Acircumflex" unicode="&#xc2;" 
 />
    <glyph glyph-name="Atilde" unicode="&#xc3;" 
 />
    <glyph glyph-name="Adieresis" unicode="&#xc4;" 
 />
    <glyph glyph-name="Aring" unicode="&#xc5;" 
 />
    <glyph glyph-name="AE" unicode="&#xc6;" 
 />
    <glyph glyph-name="Ccedilla" unicode="&#xc7;" 
 />
    <glyph glyph-name="Egrave" unicode="&#xc8;" 
 />
    <glyph glyph-name="Eacute" unicode="&#xc9;" 
 />
    <glyph glyph-name="Ecircumflex" unicode="&#xca;" 
 />
    <glyph glyph-name="Edieresis" unicode="&#xcb;" 
 />
    <glyph glyph-name="Igrave" unicode="&#xcc;" 
 />
    <glyph glyph-name="Iacute" unicode="&#xcd;" 
 />
    <glyph glyph-name="Icircumflex" unicode="&#xce;" 
 />
    <glyph glyph-name="Idieresis" unicode="&#xcf;" 
 />
    <glyph glyph-name="Eth" unicode="&#xd0;" 
 />
    <glyph glyph-name="Ntilde" unicode="&#xd1;" 
 />
    <glyph glyph-name="Ograve" unicode="&#xd2;" 
 />
    <glyph glyph-name="Oacute" unicode="&#xd3;" 
 />
    <glyph glyph-name="Ocircumflex" unicode="&#xd4;" 
 />
    <glyph glyph-name="Otilde" unicode="&#xd5;" 
 />
    <glyph glyph-name="Odieresis" unicode="&#xd6;" 
 />
    <glyph glyph-name="multiply" unicode="&#xd7;" horiz-adv-x="368" 
d="M50 115l116 117l-116 116l18 17l116 -116l116 116l18 -17l-117 -117l117 -117l-18 -16l-116 116l-117 -117z" />
    <glyph glyph-name="Oslash" unicode="&#xd8;" 
 />
    <glyph glyph-name="Ugrave" unicode="&#xd9;" 
 />
    <glyph glyph-name="Uacute" unicode="&#xda;" 
 />
    <glyph glyph-name="Ucircumflex" unicode="&#xdb;" 
 />
    <glyph glyph-name="Udieresis" unicode="&#xdc;" 
 />
    <glyph glyph-name="Yacute" unicode="&#xdd;" 
 />
    <glyph glyph-name="Thorn" unicode="&#xde;" 
 />
    <glyph glyph-name="germandbls" unicode="&#xdf;" 
 />
    <glyph glyph-name="agrave" unicode="&#xe0;" 
 />
    <glyph glyph-name="aacute" unicode="&#xe1;" 
 />
    <glyph glyph-name="acircumflex" unicode="&#xe2;" 
 />
    <glyph glyph-name="atilde" unicode="&#xe3;" 
 />
    <glyph glyph-name="adieresis" unicode="&#xe4;" 
 />
    <glyph glyph-name="aring" unicode="&#xe5;" 
 />
    <glyph glyph-name="ae" unicode="&#xe6;" 
 />
    <glyph glyph-name="ccedilla" unicode="&#xe7;" 
 />
    <glyph glyph-name="egrave" unicode="&#xe8;" 
 />
    <glyph glyph-name="eacute" unicode="&#xe9;" 
 />
    <glyph glyph-name="ecircumflex" unicode="&#xea;" 
 />
    <glyph glyph-name="edieresis" unicode="&#xeb;" 
 />
    <glyph glyph-name="igrave" unicode="&#xec;" 
 />
    <glyph glyph-name="iacute" unicode="&#xed;" 
 />
    <glyph glyph-name="icircumflex" unicode="&#xee;" 
 />
    <glyph glyph-name="idieresis" unicode="&#xef;" 
 />
    <glyph glyph-name="eth" unicode="&#xf0;" 
 />
    <glyph glyph-name="ntilde" unicode="&#xf1;" 
 />
    <glyph glyph-name="ograve" unicode="&#xf2;" 
 />
    <glyph glyph-name="oacute" unicode="&#xf3;" 
 />
    <glyph glyph-name="ocircumflex" unicode="&#xf4;" 
 />
    <glyph glyph-name="otilde" unicode="&#xf5;" 
 />
    <glyph glyph-name="odieresis" unicode="&#xf6;" 
 />
    <glyph glyph-name="divide" unicode="&#xf7;" horiz-adv-x="454" 
d="M50 219v25h354v-25h-354zM214 81q6 6 15 6t15.5 -6t6.5 -16q0 -9 -6 -15.5t-16 -6.5q-9 0 -15 6.5t-6 15.5q0 10 6 16zM214 407q6 6 15 6t15.5 -6t6.5 -16q0 -9 -6 -15.5t-16 -6.5q-9 0 -15 6.5t-6 15.5q0 10 6 16z" />
    <glyph glyph-name="oslash" unicode="&#xf8;" 
 />
    <glyph glyph-name="ugrave" unicode="&#xf9;" 
 />
    <glyph glyph-name="uacute" unicode="&#xfa;" 
 />
    <glyph glyph-name="ucircumflex" unicode="&#xfb;" 
 />
    <glyph glyph-name="udieresis" unicode="&#xfc;" 
 />
    <glyph glyph-name="yacute" unicode="&#xfd;" 
 />
    <glyph glyph-name="thorn" unicode="&#xfe;" 
 />
    <glyph glyph-name="ydieresis" unicode="&#xff;" 
 />
    <glyph glyph-name="OE" unicode="&#x152;" 
 />
    <glyph glyph-name="oe" unicode="&#x153;" 
 />
    <glyph glyph-name="Scaron" unicode="&#x160;" 
 />
    <glyph glyph-name="scaron" unicode="&#x161;" 
 />
    <glyph glyph-name="Ydieresis" unicode="&#x178;" 
 />
    <glyph glyph-name="Zcaron" unicode="&#x17d;" 
 />
    <glyph glyph-name="zcaron" unicode="&#x17e;" 
 />
    <glyph glyph-name="florin" unicode="&#x192;" 
 />
    <glyph glyph-name="circumflex" unicode="&#x2c6;" 
 />
    <glyph glyph-name="tilde" unicode="&#x2dc;" 
 />
    <glyph glyph-name="uni03BC" unicode="&#x3bc;" 
 />
    <glyph glyph-name="uni060C" unicode="&#x60c;" horiz-adv-x="204" 
d="M74.5 16q-14.5 14 -14.5 43q0 34 19 78.5t42 78.5l16 -19q-23 -36 -39 -68.5t-17 -62.5q19 8 26 8q16 0 26.5 -9.5t10.5 -25.5t-10.5 -26.5t-26.5 -10.5q-18 0 -32.5 14z" />
    <glyph glyph-name="uni0615" unicode="&#x615;" horiz-adv-x="0" 
d="M-100 18h20l11 20q8 15 11 32.5t3 54.5l-2 97l15 4v-97v-38q0 -16 -1 -21q25 32 45.5 50t40.5 18q27 0 42 -19.5t15 -57.5q0 -29 -30 -45t-82 -16h-85zM-10 18q44 0 66 10.5t29 24.5q0 33 -13.5 50t-32.5 17q-18 0 -41 -24.5t-63 -77.5h55z" />
    <glyph glyph-name="uni061B" unicode="&#x61b;" horiz-adv-x="204" 
d="M76.5 165q-14.5 14 -14.5 43q0 34 19 78.5t42 78.5l16 -19q-23 -36 -39 -68.5t-17 -62.5q19 8 26 8q16 0 26.5 -9.5t10.5 -25.5t-10.5 -26.5t-26.5 -10.5q-18 0 -32.5 14zM87.5 50q7.5 8 18.5 8q12 0 20 -7.5t8 -20.5q0 -12 -8 -20t-20 -8t-19 8t-7 20t7.5 20z" />
    <glyph glyph-name="uni061F" unicode="&#x61f;" horiz-adv-x="478" 
d="M392 464q0 67 -38 101t-113 34q-66 0 -107.5 -37t-41.5 -94q0 -30 8.5 -50.5t25 -37.5t53.5 -50l52 -46q35 -33 45.5 -64.5t10.5 -85.5l-18 -3q-1 36 -3.5 53t-16 38t-44.5 51q-4 4 -47 41q-47 38 -68 66t-21 72q0 83 45 129t127 46q80 0 124.5 -40t44.5 -112
q0 -12 -4 -42l-16 1q2 22 2 30zM258.5 54q8.5 9 20.5 9q14 0 22.5 -8.5t8.5 -22.5q0 -12 -8.5 -21t-22.5 -9q-12 0 -20.5 9t-8.5 21q0 13 8.5 22z" />
    <glyph glyph-name="uni0621" unicode="&#x621;" horiz-adv-x="472" 
d="M56 20l118 50q-40 58 -51.5 85t-11.5 62q0 41 37.5 65t86.5 24q40 0 60 -4l-1 -24q-20 4 -57 4q-30 0 -58.5 -10.5t-46.5 -29.5q0 -47 16.5 -81.5t51.5 -75.5l213 84l2 -23l-352 -149z" />
    <glyph glyph-name="uni0622" unicode="&#x622;" horiz-adv-x="182" 
d="M95 565l12 -565l-22 -5l-15 565zM76 681q-40 4 -51 4q-19 0 -27.5 -3t-12 -10t-10.5 -27l-20 5q10 36 24 48t46 12q16 0 58 -4q52 -6 78 -6h34l-5 -25h-25q-35 0 -89 6z" />
    <glyph glyph-name="uni0623" unicode="&#x623;" horiz-adv-x="182" 
d="M95 565l12 -565l-22 -5l-15 565zM-22 642l79 24q-30 45 -30 75q0 21 23.5 31.5t53.5 10.5q16 0 31 -3v-17q-18 2 -30 2q-40 0 -63 -16q0 -30 32 -78l101 30v-20l-197 -58v19z" />
    <glyph glyph-name="uni0624" unicode="&#x624;" horiz-adv-x="404" 
d="M224.5 -119.5q68.5 58.5 82.5 132.5q-51 -13 -127 -13q-26 0 -57.5 6.5t-43.5 20.5q-6 7 -10 17t-4 30q0 34 13 84t45 89.5t83 39.5q128 0 128 -239q0 -109 -84 -181.5t-185 -109.5l-15 23q106 42 174.5 100.5zM123 35.5q23 -5.5 54 -5.5q87 0 131 14q0 109 -26.5 162
t-81.5 53q-33 0 -58 -28.5t-39 -76t-14 -104.5q11 -9 34 -14.5zM109 404l79 24q-30 45 -30 75q0 21 23.5 31.5t53.5 10.5q16 0 31 -3v-17q-18 2 -30 2q-40 0 -63 -16q0 -30 32 -78l101 30v-20l-197 -58v19z" />
    <glyph glyph-name="uni0625" unicode="&#x625;" horiz-adv-x="175" 
d="M95 710l12 -710l-22 -5l-15 710zM-2 -244l79 24q-30 45 -30 75q0 21 23.5 31.5t53.5 10.5q16 0 31 -3v-17q-18 2 -30 2q-40 0 -63 -16q0 -30 32 -78l101 30v-20l-197 -58v19z" />
    <glyph glyph-name="uni0626" unicode="&#x626;" horiz-adv-x="671" 
d="M132.5 -168q-52.5 39 -52.5 121q0 35 38 273l22 -3q-35 -210 -35 -273q0 -65 46 -96t143 -31q89 0 151 14t104 58q18 44 18 77q0 39 -18.5 60t-55.5 27q-24 4 -68 6q-41 2 -57 8t-16 28q0 72 22.5 138t62.5 107t90 41q47 0 99 -52l-14 -19q-22 22 -44.5 33.5t-41.5 11.5
q-40 0 -74.5 -38t-55 -99t-20.5 -126q83 -4 127 -13t66.5 -32.5t22.5 -71.5q0 -110 -82 -149t-216 -39q-109 0 -161.5 39zM160 356l79 24q-30 45 -30 75q0 21 23.5 31.5t53.5 10.5q16 0 31 -3v-17q-18 2 -30 2q-40 0 -63 -16q0 -30 32 -78l101 30v-20l-197 -58v19z" />
    <glyph glyph-name="uni0627" unicode="&#x627;" horiz-adv-x="175" 
d="M95 710l12 -710l-22 -5l-15 710z" />
    <glyph glyph-name="uni0628" unicode="&#x628;" horiz-adv-x="808" 
d="M217.5 6.5q-64.5 11.5 -101 44t-36.5 92.5q0 18 5.5 61t17.5 116l22 -3q-13 -88 -16.5 -120t-3.5 -52q0 -43 27.5 -69.5t87.5 -38.5t160 -12q110 0 197.5 11.5t127.5 35.5l-12 243l25 5q10 -180 10 -240q0 -14 -12 -28t-42 -24q-46 -15 -122 -24t-173 -9t-161.5 11.5z
M346 -157l29 38l37 -28l-29 -38z" />
    <glyph glyph-name="uni0629" unicode="&#x629;" horiz-adv-x="423" 
d="M80 94q0 44 39.5 106t82.5 103l-39 30l13 20q86 -55 136.5 -128t50.5 -146q0 -34 -5 -47q-7 -16 -19 -22q-18 -10 -49.5 -12.5t-85.5 -2.5q-124 0 -124 99zM124 44q21 -19 79 -19t86 1.5t49 8.5q2 20 2 36q0 123 -120 217q-31 -27 -58 -65.5t-43 -74t-16 -53.5
q0 -32 21 -51zM135 485l29 38l37 -28l-29 -38zM258 523l37 -28l-29 -38l-37 28z" />
    <glyph glyph-name="uni062A" unicode="&#x62a;" horiz-adv-x="808" 
d="M217.5 6.5q-64.5 11.5 -101 44t-36.5 92.5q0 18 5.5 61t17.5 116l22 -3q-13 -88 -16.5 -120t-3.5 -52q0 -43 27.5 -69.5t87.5 -38.5t160 -12q110 0 197.5 11.5t127.5 35.5l-12 243l25 5q10 -180 10 -240q0 -14 -12 -28t-42 -24q-46 -15 -122 -24t-173 -9t-161.5 11.5z
M329 371l29 38l37 -28l-29 -38zM452 409l37 -28l-29 -38l-37 28z" />
    <glyph glyph-name="uni062B" unicode="&#x62b;" horiz-adv-x="808" 
d="M217.5 6.5q-64.5 11.5 -101 44t-36.5 92.5q0 18 5.5 61t17.5 116l22 -3q-13 -88 -16.5 -120t-3.5 -52q0 -43 27.5 -69.5t87.5 -38.5t160 -12q110 0 197.5 11.5t127.5 35.5l-12 243l25 5q10 -180 10 -240q0 -14 -12 -28t-42 -24q-46 -15 -122 -24t-173 -9t-161.5 11.5z
M329 371l29 38l37 -28l-29 -38zM405 496l37 -28l-29 -38l-37 28zM452 409l37 -28l-29 -38l-37 28z" />
    <glyph glyph-name="uni062C" unicode="&#x62c;" horiz-adv-x="605" 
d="M158 -299q-78 61 -78 170q0 118 84 221t283 152q-25 5 -61 19t-90 37q-55 24 -84.5 35t-44.5 11q-25 0 -38.5 -19.5t-21.5 -63.5l-22 4q13 55 31.5 80.5t57.5 25.5q17 0 45 -10.5t83 -34.5q84 -36 141 -55.5t105 -19.5l-1 -25q-90 0 -194 -41.5t-176 -121t-72 -189.5
q0 -64 33.5 -111t93 -72t136.5 -25q56 0 95.5 7t75.5 22l-1 -28q-37 -15 -76 -22t-94 -7q-132 0 -210 61zM334 -33l37 -28l-29 -38l-37 28z" />
    <glyph glyph-name="uni062D" unicode="&#x62d;" horiz-adv-x="605" 
d="M158 -299q-78 61 -78 170q0 118 84 221t283 152q-25 5 -61 19t-90 37q-55 24 -84.5 35t-44.5 11q-25 0 -38.5 -19.5t-21.5 -63.5l-22 4q13 55 31.5 80.5t57.5 25.5q17 0 45 -10.5t83 -34.5q84 -36 141 -55.5t105 -19.5l-1 -25q-90 0 -194 -41.5t-176 -121t-72 -189.5
q0 -64 33.5 -111t93 -72t136.5 -25q56 0 95.5 7t75.5 22l-1 -28q-37 -15 -76 -22t-94 -7q-132 0 -210 61z" />
    <glyph glyph-name="uni062E" unicode="&#x62e;" horiz-adv-x="605" 
d="M158 -299q-78 61 -78 170q0 118 84 221t283 152q-25 5 -61 19t-90 37q-55 24 -84.5 35t-44.5 11q-25 0 -38.5 -19.5t-21.5 -63.5l-22 4q13 55 31.5 80.5t57.5 25.5q17 0 45 -10.5t83 -34.5q84 -36 141 -55.5t105 -19.5l-1 -25q-90 0 -194 -41.5t-176 -121t-72 -189.5
q0 -64 33.5 -111t93 -72t136.5 -25q56 0 95.5 7t75.5 22l-1 -28q-37 -15 -76 -22t-94 -7q-132 0 -210 61zM201 471l29 38l37 -28l-29 -38z" />
    <glyph glyph-name="uni062F" unicode="&#x62f;" horiz-adv-x="483" 
d="M80 110q0 -44 6 -59.5t30 -20.5t89 -5q68 0 124 12.5t73 30.5q-5 93 -48 173t-125 155l17 20q111 -108 144 -191t33 -156q0 -35 -69 -54.5t-149 -19.5q-67 0 -97.5 10t-39 33t-8.5 73v12h20v-13z" />
    <glyph glyph-name="uni0630" unicode="&#x630;" horiz-adv-x="483" 
d="M80 110q0 -44 6 -59.5t30 -20.5t89 -5q68 0 124 12.5t73 30.5q-5 93 -48 173t-125 155l17 20q111 -108 144 -191t33 -156q0 -35 -69 -54.5t-149 -19.5q-67 0 -97.5 10t-39 33t-8.5 73v12h20v-13zM196 544l29 38l37 -28l-29 -38z" />
    <glyph glyph-name="uni0631" unicode="&#x631;" horiz-adv-x="257" 
d="M77.5 -113q69.5 63 79.5 118l-22 250l23 5q19 -208 19 -251q0 -41 -33.5 -88.5t-93.5 -91t-135 -72.5l-15 23q108 44 177.5 107z" />
    <glyph glyph-name="uni0632" unicode="&#x632;" horiz-adv-x="257" 
d="M77.5 -113q69.5 63 79.5 118l-22 250l23 5q19 -208 19 -251q0 -41 -33.5 -88.5t-93.5 -91t-135 -72.5l-15 23q108 44 177.5 107zM102 403l29 38l37 -28l-29 -38z" />
    <glyph glyph-name="uni0633" unicode="&#x633;" horiz-adv-x="1092" 
d="M132.5 -168q-52.5 39 -52.5 121q0 35 38 273l22 -3q-35 -210 -35 -273q0 -65 46 -96t143 -31q202 0 266 69l-28 388l24 5l12 -172q3 -45 31 -64t80 -19q41 0 69 4.5t45 16.5l-5 224h24l4 -217q19 -28 69 -28q34 0 60 4.5t46 21.5l-12 259l23 5l10 -251q0 -39 -39.5 -54
t-90.5 -15q-29 0 -51 11.5t-27 27.5q-6 -21 -44 -30t-85 -9q-36 0 -61.5 9t-39.5 33q6 -98 6 -142q0 -29 -34 -53.5t-99 -39t-153 -14.5q-109 0 -161.5 39z" />
    <glyph glyph-name="uni0634" unicode="&#x634;" horiz-adv-x="1092" 
d="M132.5 -168q-52.5 39 -52.5 121q0 35 38 273l22 -3q-35 -210 -35 -273q0 -65 46 -96t143 -31q202 0 266 69l-28 388l24 5l12 -172q3 -45 31 -64t80 -19q41 0 69 4.5t45 16.5l-5 224h24l4 -217q19 -28 69 -28q34 0 60 4.5t46 21.5l-12 259l23 5l10 -251q0 -39 -39.5 -54
t-90.5 -15q-29 0 -51 11.5t-27 27.5q-6 -21 -44 -30t-85 -9q-36 0 -61.5 9t-39.5 33q6 -98 6 -142q0 -29 -34 -53.5t-99 -39t-153 -14.5q-109 0 -161.5 39zM708 423l29 38l37 -28l-29 -38zM784 548l37 -28l-29 -38l-37 28zM831 461l37 -28l-29 -38l-37 28z" />
    <glyph glyph-name="uni0635" unicode="&#x635;" horiz-adv-x="1207" 
d="M574 27q6 -86 6 -127q0 -29 -34 -53.5t-99 -39t-153 -14.5q-214 0 -214 150q0 45 38 283l22 -3q-36 -216 -36 -273q0 -66 45.5 -96.5t144.5 -30.5q112 0 175 19.5t91 49.5l-28 388l24 5q7 -90 16 -226q16 -10 36 -14q76 93 180 188t192 95q147 0 147 -192q0 -57 -18 -71
q-35 -26 -118.5 -45.5t-198.5 -19.5q-157 0 -218 27zM800 30q193 0 302 58q2 17 2 52q0 73 -27.5 117t-97.5 44q-62 0 -154.5 -73t-187.5 -187q65 -11 163 -11z" />
    <glyph glyph-name="uni0636" unicode="&#x636;" horiz-adv-x="1207" 
d="M574 27q6 -86 6 -127q0 -29 -34 -53.5t-99 -39t-153 -14.5q-214 0 -214 150q0 45 38 283l22 -3q-36 -216 -36 -273q0 -66 45.5 -96.5t144.5 -30.5q112 0 175 19.5t91 49.5l-28 388l24 5q7 -90 16 -226q16 -10 36 -14q76 93 180 188t192 95q147 0 147 -192q0 -57 -18 -71
q-35 -26 -118.5 -45.5t-198.5 -19.5q-157 0 -218 27zM800 30q193 0 302 58q2 17 2 52q0 73 -27.5 117t-97.5 44q-62 0 -154.5 -73t-187.5 -187q65 -11 163 -11zM859 485l29 38l37 -28l-29 -38z" />
    <glyph glyph-name="uni0637" unicode="&#x637;" horiz-adv-x="773" 
d="M80 30h88q25 23 47 56q14 22 19.5 53t4.5 110l-9 456l25 5l7 -450v-37q0 -72 -9 -91q75 83 151.5 139.5t140.5 56.5q148 0 148 -192q0 -23 -4.5 -43t-14.5 -28q-35 -26 -118.5 -45.5t-198.5 -19.5h-267zM365 30q193 0 302 58q2 17 2 52q0 73 -27.5 117t-97.5 44
q-62 0 -153.5 -74.5t-190.5 -196.5h165z" />
    <glyph glyph-name="uni0638" unicode="&#x638;" horiz-adv-x="773" 
d="M80 30h88q25 23 47 56q14 22 19.5 53t4.5 110l-9 456l25 5l7 -450v-37q0 -72 -9 -91q75 83 151.5 139.5t140.5 56.5q148 0 148 -192q0 -23 -4.5 -43t-14.5 -28q-35 -26 -118.5 -45.5t-198.5 -19.5h-267zM365 30q193 0 302 58q2 17 2 52q0 73 -27.5 117t-97.5 44
q-62 0 -153.5 -74.5t-190.5 -196.5h165zM512 476l29 38l37 -28l-29 -38z" />
    <glyph glyph-name="uni0639" unicode="&#x639;" horiz-adv-x="502" 
d="M154.5 -306q-74.5 54 -74.5 159q0 73 26.5 127t88.5 102q-33 29 -58.5 83t-25.5 89q0 47 36.5 75.5t96.5 28.5q61 0 110 -14l-8 -23q-50 10 -101 10q-33 0 -62 -12.5t-48 -38.5q0 -46 20.5 -93t62.5 -90l206 80v-29l-148 -58q-67 -26 -103.5 -61.5t-50 -74.5t-17.5 -88
q0 -99 68.5 -148.5t173.5 -49.5q80 0 162 28l-1 -28q-84 -28 -165 -28q-114 0 -188.5 54z" />
    <glyph glyph-name="uni063A" unicode="&#x63a;" horiz-adv-x="502" 
d="M154.5 -306q-74.5 54 -74.5 159q0 73 26.5 127t88.5 102q-33 29 -58.5 83t-25.5 89q0 47 36.5 75.5t96.5 28.5q61 0 110 -14l-8 -23q-50 10 -101 10q-33 0 -62 -12.5t-48 -38.5q0 -46 20.5 -93t62.5 -90l206 80v-29l-148 -58q-67 -26 -103.5 -61.5t-50 -74.5t-17.5 -88
q0 -99 68.5 -148.5t173.5 -49.5q80 0 162 28l-1 -28q-84 -28 -165 -28q-114 0 -188.5 54zM181 506l29 38l37 -28l-29 -38z" />
    <glyph glyph-name="uni0640" unicode="&#x640;" horiz-adv-x="170" 
d="M-5 12v6q0 12 5 12h170q5 0 5 -12v-6q0 -12 -5 -12h-170q-5 0 -5 12z" />
    <glyph glyph-name="uni0641" unicode="&#x641;" horiz-adv-x="817" 
d="M217.5 6.5q-64.5 11.5 -101 44t-36.5 92.5q0 18 5.5 61t17.5 116l22 -3q-13 -88 -16.5 -120t-3.5 -52q0 -43 27.5 -69.5t87.5 -38.5t160 -12q133 0 207.5 9t118.5 29q4 23 6 80q-52 -13 -128 -13q-26 0 -57.5 6.5t-43.5 20.5q-6 7 -10 17t-4 30q0 34 13 84t45 89.5
t83 39.5q128 0 128 -239q-1 -64 -5 -93.5t-14.5 -42t-32.5 -18.5q-33 -10 -60 -15.5t-86.5 -9.5t-160.5 -4q-97 0 -161.5 11.5zM527 165.5q23 -5.5 54 -5.5q87 0 131 14q0 109 -26.5 162t-81.5 53q-33 0 -58 -28.5t-39 -76t-14 -104.5q11 -9 34 -14.5zM577 565l29 38l37 -28
l-29 -38z" />
    <glyph glyph-name="uni0642" unicode="&#x642;" horiz-adv-x="691" 
d="M132.5 -168q-52.5 39 -52.5 121q0 35 38 273l22 -3q-35 -210 -35 -273q0 -65 46 -96t143 -31q108 0 173 14.5t108 39.5q10 56 10 132q-52 -13 -128 -13q-26 0 -57.5 6.5t-43.5 20.5q-7 8 -10.5 17.5t-3.5 29.5q0 34 13 84t45 89.5t83 39.5q128 0 128 -239
q0 -89 -4.5 -128t-15 -52.5t-36.5 -26.5q-88 -44 -261 -44q-109 0 -161.5 39zM400 31.5q23 -5.5 54 -5.5q87 0 131 14q0 109 -26.5 162t-81.5 53q-33 0 -58 -28.5t-39 -76t-14 -104.5q11 -9 34 -14.5zM403 432l29 38l37 -28l-29 -38zM526 470l37 -28l-29 -38l-37 28z" />
    <glyph glyph-name="uni0643" unicode="&#x643;" horiz-adv-x="759" 
d="M85.5 204q5.5 43 17.5 116l22 -3q-13 -88 -16.5 -120t-3.5 -52q0 -43 27.5 -69.5t87.5 -38.5t160 -12q90 0 165 11t113 35l-28 631l23 8q4 -59 15 -324t11 -307q0 -14 -11.5 -28t-40.5 -23q-106 -33 -248 -33q-97 0 -161.5 11.5t-101 44t-36.5 92.5q0 18 5.5 61zM290 313
q64 0 113.5 14t59.5 38q0 40 -26.5 52.5t-72.5 16.5q-25 2 -36.5 5.5t-11.5 12.5q0 14 12.5 51.5t37 68.5t58.5 31q38 0 68 -42l-17 -12q-11 14 -25 21.5t-26 7.5q-32 0 -56 -38.5t-29 -79.5q56 -3 87 -12.5t44 -28t13 -49.5q0 -37 -53.5 -58t-139.5 -21v22z" />
    <glyph glyph-name="uni0644" unicode="&#x644;" horiz-adv-x="610" 
d="M80 -47q0 35 38 273l22 -3q-36 -216 -36 -273q0 -64 43.5 -95.5t126.5 -31.5q172 0 236 69l-24 813l25 5l19 -810q1 -27 -32 -52t-92 -40t-132 -15q-194 0 -194 160z" />
    <glyph glyph-name="uni0645" unicode="&#x645;" horiz-adv-x="450" 
d="M80 -62q0 94 25 152q81 189 160 189q52 0 83.5 -44t31.5 -118q0 -24 -4 -51.5t-11 -46.5q-9 -22 -22 -31q-7 -6 -21 -6q-17 0 -37 9l-165 72q-16 -35 -16 -127q0 -82 14 -224l-25 -4q-13 153 -13 230zM331 3q11 16 17.5 46t6.5 62q0 63 -24.5 101.5t-63.5 38.5
q-36 0 -66.5 -37.5t-69.5 -124.5z" />
    <glyph glyph-name="uni0646" unicode="&#x646;" horiz-adv-x="660" 
d="M80 -57q0 45 38 283l22 -3q-36 -216 -36 -273q0 -66 45.5 -96.5t144.5 -30.5q112 0 175 19.5t91 49.5l-28 388l24 5q24 -314 24 -385q0 -29 -34 -53.5t-99 -39t-153 -14.5q-214 0 -214 150zM302 372l29 38l37 -28l-29 -38z" />
    <glyph glyph-name="uni0647" unicode="&#x647;" horiz-adv-x="423" 
d="M80 94q0 44 39.5 106t82.5 103l-39 30l13 20q86 -55 136.5 -128t50.5 -146q0 -34 -5 -47q-7 -16 -19 -22q-18 -10 -49.5 -12.5t-85.5 -2.5q-124 0 -124 99zM124 44q21 -19 79 -19t86 1.5t49 8.5q2 20 2 36q0 123 -120 217q-31 -27 -58 -65.5t-43 -74t-16 -53.5
q0 -32 21 -51z" />
    <glyph glyph-name="uni0648" unicode="&#x648;" horiz-adv-x="404" 
d="M224.5 -119.5q68.5 58.5 82.5 132.5q-51 -13 -127 -13q-26 0 -57.5 6.5t-43.5 20.5q-6 7 -10 17t-4 30q0 34 13 84t45 89.5t83 39.5q128 0 128 -239q0 -109 -84 -181.5t-185 -109.5l-15 23q106 42 174.5 100.5zM123 35.5q23 -5.5 54 -5.5q87 0 131 14q0 109 -26.5 162
t-81.5 53q-33 0 -58 -28.5t-39 -76t-14 -104.5q11 -9 34 -14.5z" />
    <glyph glyph-name="uni0649" unicode="&#x649;" horiz-adv-x="671" 
d="M132.5 -168q-52.5 39 -52.5 121q0 35 38 273l22 -3q-35 -210 -35 -273q0 -65 46 -96t143 -31q89 0 151 14t104 58q18 44 18 77q0 39 -18.5 60t-55.5 27q-24 4 -68 6q-41 2 -57 8t-16 28q0 72 22.5 138t62.5 107t90 41q47 0 99 -52l-14 -19q-22 22 -44.5 33.5t-41.5 11.5
q-40 0 -74.5 -38t-55 -99t-20.5 -126q83 -4 127 -13t66.5 -32.5t22.5 -71.5q0 -110 -82 -149t-216 -39q-109 0 -161.5 39z" />
    <glyph glyph-name="uni064A" unicode="&#x64a;" horiz-adv-x="671" 
d="M132.5 -168q-52.5 39 -52.5 121q0 35 38 273l22 -3q-35 -210 -35 -273q0 -65 46 -96t143 -31q89 0 151 14t104 58q18 44 18 77q0 39 -18.5 60t-55.5 27q-24 4 -68 6q-41 2 -57 8t-16 28q0 72 22.5 138t62.5 107t90 41q47 0 99 -52l-14 -19q-22 22 -44.5 33.5t-41.5 11.5
q-40 0 -74.5 -38t-55 -99t-20.5 -126q83 -4 127 -13t66.5 -32.5t22.5 -71.5q0 -110 -82 -149t-216 -39q-109 0 -161.5 39zM214 -365l29 38l37 -28l-29 -38zM337 -327l37 -28l-29 -38l-37 28z" />
    <glyph glyph-name="uni064B" unicode="&#x64b;" horiz-adv-x="0" 
d="M-97 19l197 59v-20l-197 -58v19zM-97 97l197 59v-20l-197 -58v19z" />
    <glyph glyph-name="uni064C" unicode="&#x64c;" horiz-adv-x="0" 
d="M-97 19l21 6q-13 21 -17.5 32.5t-4.5 27.5q0 26 15 87l14 -3q-15 -63 -15 -84q0 -11 4 -19.5t10.5 -18.5t10.5 -17l65 19q-19 2 -25.5 10t-6.5 25q0 13 7 35.5t21.5 40t36.5 17.5q29 0 45 -29t16 -60q0 -21 -9.5 -28.5t-42.5 -17.5l-145 -42v19zM35 66q26 0 50 8
q0 42 -12.5 63t-35.5 21q-22 0 -35 -25t-12 -61q12 -6 45 -6z" />
    <glyph glyph-name="uni064D" unicode="&#x64d;" horiz-adv-x="0" 
d="M-97 -61l197 59v-20l-197 -58v19zM-97 -138l197 59v-20l-197 -58v19z" />
    <glyph glyph-name="uni064E" unicode="&#x64e;" horiz-adv-x="0" 
d="M-97 19l197 59v-20l-197 -58v19z" />
    <glyph glyph-name="uni064F" unicode="&#x64f;" horiz-adv-x="0" 
d="M-97 19l103 30q-19 2 -25.5 10t-6.5 25q0 13 7 35.5t21.5 40t36.5 17.5q29 0 45 -29t16 -60q0 -21 -9.5 -28.5t-42.5 -17.5l-145 -42v19zM35 66q26 0 50 8q0 42 -12.5 63t-35.5 21q-22 0 -35 -25t-12 -61q12 -6 45 -6z" />
    <glyph glyph-name="uni0650" unicode="&#x650;" horiz-adv-x="0" 
d="M-97 -61l197 59v-20l-197 -58v19z" />
    <glyph glyph-name="uni0651" unicode="&#x651;" horiz-adv-x="0" 
d="M-84 30q0 -22 27 -22q14 0 28 6.5t21 18.5v56l16 3v-39q0 -16 6.5 -22.5t21.5 -6.5q12 0 27 7t21 14q2 21 -7 80l15 5q7 -35 7 -73q0 -23 -20.5 -37t-44.5 -14q-25 0 -32 17q-9 -15 -27 -24t-35 -9q-19 0 -29.5 9.5t-10.5 26.5q0 14 5 48l16 3q-5 -30 -5 -47z" />
    <glyph glyph-name="uni0652" unicode="&#x652;" horiz-adv-x="0" 
d="M-64 78q0 18 10.5 32.5t27.5 22.5q17 7 31 7q36 0 52 -34q6 -13 6 -28q0 -17 -9.5 -31.5t-28.5 -23.5l-32 -13q-14 -7 -24 -7q-13 0 -19 9l64 27q31 14 31 36q0 9 -5 22q-9 24 -33 24q-8 0 -25 -5q-29 -9 -29 -33q0 -9 5 -22l-16 -9q-6 14 -6 26z" />
    <glyph glyph-name="uni0653" unicode="&#x653;" horiz-adv-x="0" 
d="M1 36q-40 4 -51 4q-19 0 -27.5 -3t-12 -10t-10.5 -27l-20 5q10 36 24 48t46 12q16 0 58 -4q52 -6 78 -6h34l-5 -25h-25q-35 0 -89 6z" />
    <glyph glyph-name="uni0654" unicode="&#x654;" horiz-adv-x="0" 
d="M-97 19l79 24q-30 45 -30 75q0 21 23.5 31.5t53.5 10.5q16 0 31 -3v-17q-18 2 -30 2q-40 0 -63 -16q0 -30 32 -78l101 30v-20l-197 -58v19z" />
    <glyph glyph-name="uni0655" unicode="&#x655;" horiz-adv-x="0" 
d="M-97 -154l79 24q-30 45 -30 75q0 21 23.5 31.5t53.5 10.5q16 0 31 -3v-17q-18 2 -30 2q-40 0 -63 -16q0 -30 32 -78l101 30v-20l-197 -58v19z" />
    <glyph glyph-name="uni0656" unicode="&#x656;" horiz-adv-x="0" 
d="M-10 -24l24 3l-4 -111h-18z" />
    <glyph glyph-name="uni0658" unicode="&#x658;" horiz-adv-x="0" 
d="M-71.5 28.5q-21.5 13.5 -21.5 39.5q0 19 15 97h15q-14 -74 -14 -95q0 -37 69 -37q24 0 42 4.5t36 16.5l-7 128l18 2l4 -117q1 -24 -26 -38t-70 -14q-39 0 -60.5 13.5z" />
    <glyph glyph-name="uni065A" unicode="&#x65a;" horiz-adv-x="0" 
d="M-84 151l14 6q47 -80 70 -137q32 79 68 137l16 -8q-42 -68 -70 -145l-24 -4q-29 78 -74 151z" />
    <glyph glyph-name="uni0660" unicode="&#x660;" horiz-adv-x="218" 
d="M66 166l38 50l48 -37l-38 -49z" />
    <glyph glyph-name="uni0661" unicode="&#x661;" horiz-adv-x="206" 
d="M138 0l-24 -4q0 430 -63 677l24 7q63 -229 63 -680z" />
    <glyph glyph-name="uni0662" unicode="&#x662;" horiz-adv-x="431" 
d="M161.5 414.5q-27.5 7.5 -43.5 22.5q20 -180 20 -437l-24 -4q0 430 -63 677l24 7q10 -39 11 -45q5 -21 13 -65q12 -61 17 -89q4 -24 31.5 -34t75.5 -10q31 0 67 7t55 30l-14 197l24 9l10 -194q4 -79 -144 -79q-32 0 -59.5 7.5z" />
    <glyph glyph-name="uni0663" unicode="&#x663;" horiz-adv-x="564" 
d="M160 413q-25 6 -41 18q19 -180 19 -431l-24 -4q0 430 -63 677l24 7q13 -41 41 -199q8 -44 100 -44q28 0 45.5 4t39.5 14l-4 213l24 4l4 -215q13 -12 26 -16t31 -4q76 0 96 37l-14 197l24 9l10 -194q3 -48 -35.5 -63.5t-82.5 -15.5q-50 0 -71 29q-14 -16 -40.5 -22.5
t-55.5 -6.5q-28 0 -53 6z" />
    <glyph glyph-name="uni0664" unicode="&#x664;" horiz-adv-x="425" 
d="M101 40.5q-45 40.5 -45 113.5q0 79 41 138t124 89q-43 5 -78.5 29t-56 64t-20.5 91q0 62 56 88.5t129 26.5q34 0 59 -5l1 -27q-32 5 -65 5q-115 0 -157 -62q-4 -82 37 -134.5t138 -59.5v-24q-99 -29 -139 -84.5t-44 -120.5q0 -70 37.5 -104t114.5 -34q51 0 120 15l-4 -30
q-64 -15 -116 -15q-87 0 -132 40.5z" />
    <glyph glyph-name="uni0665" unicode="&#x665;" horiz-adv-x="579" 
d="M126.5 33.5q-50.5 32.5 -50.5 101.5q0 67 34.5 152t85 144.5t92.5 59.5q52 0 102 -63t82 -158.5t32 -185.5q0 -83 -216 -83q-111 0 -161.5 32.5zM147 54.5q48 -23.5 140 -23.5q72 0 116.5 9.5t78.5 32.5q0 82 -30.5 174t-77 154.5t-87.5 62.5q-31 0 -76 -56.5
t-78.5 -135.5t-33.5 -142q0 -52 48 -75.5z" />
    <glyph glyph-name="uni0666" unicode="&#x666;" horiz-adv-x="456" 
d="M347.5 185q-4.5 92 -4.5 226v183q-30 -5 -133 -5q-93 0 -149 15l-4 30q53 -15 147 -15q116 0 164 5q0 -51 -1 -84l-1 -147q0 -262 24 -395l-24 -12q-14 107 -18.5 199z" />
    <glyph glyph-name="uni0667" unicode="&#x667;" horiz-adv-x="481" 
d="M212 242.5q-19 110.5 -61.5 224.5t-109.5 197l21 16q168 -240 181 -518q0 -9 1 -12q0 8 1 12q19 175 57 291t122 227l16 -21q-67 -81 -108 -200.5t-58 -231.5t-17 -181v-46l-26 -4v55q0 81 -19 191.5z" />
    <glyph glyph-name="uni0668" unicode="&#x668;" horiz-adv-x="481" 
d="M269 433.5q19 -110.5 61.5 -224.5t109.5 -197l-21 -16q-168 240 -181 518q0 9 -1 12q0 -8 -1 -12q-19 -175 -57 -291t-122 -227l-16 21q67 81 108 200.5t58 231.5t17 181v46l26 4v-55q0 -81 19 -191.5z" />
    <glyph glyph-name="uni0669" unicode="&#x669;" horiz-adv-x="462" 
d="M354.5 192.5q-5.5 105.5 -5.5 181.5q-80 -18 -144 -18q-110 0 -131 32q-5 9 -6.5 20.5t-1.5 31.5q0 40 10 94t43 100t96 46q92 0 125 -77t33 -212q0 -91 5.5 -202.5t17.5 -190.5l-24 -12q-12 101 -17.5 206.5zM136 390q32 -4 68 -4q42 0 82 4t62 12q0 131 -31 191
t-102 60q-65 0 -95.5 -67.5t-30.5 -183.5q15 -8 47 -12zM348 395v1v-1z" />
    <glyph glyph-name="uni066A" unicode="&#x66a;" horiz-adv-x="572" 
d="M67 0l414 710h28l-414 -710h-28zM110 694q30 30 76 30t76 -30t30 -76t-30 -76t-76 -30t-76 30t-30 76t30 76zM124 560.5q25 -23.5 62 -23.5t62 23.5t25 57.5q0 33 -26.5 57.5t-60.5 24.5t-60.5 -24.5t-26.5 -57.5q0 -34 25 -57.5zM310 165q30 30 76 30t76 -30t30 -76
t-30 -76t-76 -30t-76 30t-30 76t30 76zM324 31.5q25 -23.5 62 -23.5t62 23.5t25 57.5q0 33 -26.5 57.5t-60.5 24.5t-60.5 -24.5t-26.5 -57.5q0 -34 25 -57.5z" />
    <glyph glyph-name="uni066B" unicode="&#x66b;" horiz-adv-x="216" 
d="M0 -191l189 319l27 -16l-189 -319z" />
    <glyph glyph-name="uni066C" unicode="&#x66c;" horiz-adv-x="225" 
d="M129.5 92q14.5 -14 14.5 -43q0 -34 -19 -78.5t-42 -78.5l-16 19q23 36 39 68.5t17 62.5q-19 -8 -26 -8q-16 0 -26.5 9.5t-10.5 25.5t10.5 26.5t26.5 10.5q18 0 32.5 -14z" />
    <glyph glyph-name="uni066D" unicode="&#x66d;" horiz-adv-x="563" 
d="M111 364l154 -48l5 5l1 160h20l1 -162l7 -3l153 48l6 -17l-155 -54v-7l92 -129l-14 -10l-96 129h-9l-94 -129l-15 10l90 128v8l-152 54z" />
    <glyph glyph-name="uni066E" unicode="&#x66e;" horiz-adv-x="808" 
d="M217.5 6.5q-64.5 11.5 -101 44t-36.5 92.5q0 18 5.5 61t17.5 116l22 -3q-13 -88 -16.5 -120t-3.5 -52q0 -43 27.5 -69.5t87.5 -38.5t160 -12q110 0 197.5 11.5t127.5 35.5l-12 243l25 5q10 -180 10 -240q0 -14 -12 -28t-42 -24q-46 -15 -122 -24t-173 -9t-161.5 11.5z
" />
    <glyph glyph-name="uni066F" unicode="&#x66f;" horiz-adv-x="691" 
d="M132.5 -168q-52.5 39 -52.5 121q0 35 38 273l22 -3q-35 -210 -35 -273q0 -65 46 -96t143 -31q108 0 173 14.5t108 39.5q10 56 10 132q-52 -13 -128 -13q-26 0 -57.5 6.5t-43.5 20.5q-7 8 -10.5 17.5t-3.5 29.5q0 34 13 84t45 89.5t83 39.5q128 0 128 -239
q0 -89 -4.5 -128t-15 -52.5t-36.5 -26.5q-88 -44 -261 -44q-109 0 -161.5 39zM400 31.5q23 -5.5 54 -5.5q87 0 131 14q0 109 -26.5 162t-81.5 53q-33 0 -58 -28.5t-39 -76t-14 -104.5q11 -9 34 -14.5z" />
    <glyph glyph-name="uni0670" unicode="&#x670;" horiz-adv-x="0" 
d="M-10 108l24 3l-4 -111h-18z" />
    <glyph glyph-name="uni0671" unicode="&#x671;" horiz-adv-x="182" 
d="M95 565l12 -565l-22 -5l-15 565zM30.5 648.5q-21.5 7.5 -21.5 34.5v33q-20 -2 -33.5 -17.5t-33.5 -46.5l-16 11q3 5 17.5 28t35.5 36.5t47 11.5v-59q0 -9 7.5 -13.5t13.5 -4.5q30 45 57.5 75t61.5 30q28 0 40.5 -17t12.5 -51v-8q0 -14 -6 -20q-13 -13 -46 -21.5t-73 -8.5
q-42 0 -63.5 7.5zM141.5 663q27.5 4 62.5 17q1 35 -7.5 51t-34.5 16q-21 0 -40.5 -19t-58.5 -69q51 0 78.5 4z" />
    <glyph glyph-name="uni0679" unicode="&#x679;" horiz-adv-x="808" 
d="M217.5 6.5q-64.5 11.5 -101 44t-36.5 92.5q0 18 5.5 61t17.5 116l22 -3q-13 -88 -16.5 -120t-3.5 -52q0 -43 27.5 -69.5t87.5 -38.5t160 -12q110 0 197.5 11.5t127.5 35.5l-12 243l25 5q10 -180 10 -240q0 -14 -12 -28t-42 -24q-46 -15 -122 -24t-173 -9t-161.5 11.5z
M309 357h20l11 20q8 15 11 32.5t3 54.5l-2 97l15 4v-97v-38q0 -16 -1 -21q25 32 45.5 50t40.5 18q27 0 42 -19.5t15 -57.5q0 -29 -30 -45t-82 -16h-85zM399 357q44 0 66 10.5t29 24.5q0 33 -13.5 50t-32.5 17q-18 0 -41 -24.5t-63 -77.5h55z" />
    <glyph glyph-name="uni067E" unicode="&#x67e;" horiz-adv-x="808" 
d="M217.5 6.5q-64.5 11.5 -101 44t-36.5 92.5q0 18 5.5 61t17.5 116l22 -3q-13 -88 -16.5 -120t-3.5 -52q0 -43 27.5 -69.5t87.5 -38.5t160 -12q110 0 197.5 11.5t127.5 35.5l-12 243l25 5q10 -180 10 -240q0 -14 -12 -28t-42 -24q-46 -15 -122 -24t-173 -9t-161.5 11.5z
M299 -157l29 38l37 -28l-29 -38zM375 -191l37 -28l-29 -38l-37 28zM422 -119l37 -28l-29 -38l-37 28z" />
    <glyph glyph-name="uni0686" unicode="&#x686;" horiz-adv-x="605" 
d="M158 -299q-78 61 -78 170q0 118 84 221t283 152q-25 5 -61 19t-90 37q-55 24 -84.5 35t-44.5 11q-25 0 -38.5 -19.5t-21.5 -63.5l-22 4q13 55 31.5 80.5t57.5 25.5q17 0 45 -10.5t83 -34.5q84 -36 141 -55.5t105 -19.5l-1 -25q-90 0 -194 -41.5t-176 -121t-72 -189.5
q0 -64 33.5 -111t93 -72t136.5 -25q56 0 95.5 7t75.5 22l-1 -28q-37 -15 -76 -22t-94 -7q-132 0 -210 61zM297 -18l37 -28l-29 -38l-37 28zM344 -90l37 -28l-29 -38l-37 28zM391 -18l37 -28l-29 -38l-37 28z" />
    <glyph glyph-name="uni0688" unicode="&#x688;" horiz-adv-x="483" 
d="M80 110q0 -44 6 -59.5t30 -20.5t89 -5q68 0 124 12.5t73 30.5q-5 93 -48 173t-125 155l17 20q111 -108 144 -191t33 -156q0 -35 -69 -54.5t-149 -19.5q-67 0 -97.5 10t-39 33t-8.5 73v12h20v-13zM129 530h20l11 20q8 15 11 32.5t3 54.5l-2 97l15 4v-97v-38q0 -16 -1 -21
q25 32 45.5 50t40.5 18q27 0 42 -19.5t15 -57.5q0 -29 -30 -45t-82 -16h-85zM219 530q44 0 66 10.5t29 24.5q0 33 -13.5 50t-32.5 17q-18 0 -41 -24.5t-63 -77.5h55z" />
    <glyph glyph-name="uni0691" unicode="&#x691;" horiz-adv-x="257" 
d="M77.5 -113q69.5 63 79.5 118l-22 250l23 5q19 -208 19 -251q0 -41 -33.5 -88.5t-93.5 -91t-135 -72.5l-15 23q108 44 177.5 107zM35 389h20l11 20q8 15 11 32.5t3 54.5l-2 97l15 4v-97v-38q0 -16 -1 -21q25 32 45.5 50t40.5 18q27 0 42 -19.5t15 -57.5q0 -29 -30 -45
t-82 -16h-85zM125 389q44 0 66 10.5t29 24.5q0 33 -13.5 50t-32.5 17q-18 0 -41 -24.5t-63 -77.5h55z" />
    <glyph glyph-name="uni0695" unicode="&#x695;" horiz-adv-x="257" 
d="M77.5 -113q69.5 63 79.5 118l-22 250l23 5q19 -208 19 -251q0 -41 -33.5 -88.5t-93.5 -91t-135 -72.5l-15 23q108 44 177.5 107zM-69 -315l14 6q47 -80 70 -137q32 79 68 137l16 -8q-42 -68 -70 -145l-24 -4q-29 78 -74 151z" />
    <glyph glyph-name="uni0698" unicode="&#x698;" horiz-adv-x="257" 
d="M77.5 -113q69.5 63 79.5 118l-22 250l23 5q19 -208 19 -251q0 -41 -33.5 -88.5t-93.5 -91t-135 -72.5l-15 23q108 44 177.5 107zM55 403l29 38l37 -28l-29 -38zM131 528l37 -28l-29 -38l-37 28zM178 441l37 -28l-29 -38l-37 28z" />
    <glyph glyph-name="uni06A1" unicode="&#x6a1;" horiz-adv-x="817" 
d="M217.5 6.5q-64.5 11.5 -101 44t-36.5 92.5q0 18 5.5 61t17.5 116l22 -3q-13 -88 -16.5 -120t-3.5 -52q0 -43 27.5 -69.5t87.5 -38.5t160 -12q133 0 207.5 9t118.5 29q4 23 6 80q-52 -13 -128 -13q-26 0 -57.5 6.5t-43.5 20.5q-6 7 -10 17t-4 30q0 34 13 84t45 89.5
t83 39.5q128 0 128 -239q-1 -64 -5 -93.5t-14.5 -42t-32.5 -18.5q-33 -10 -60 -15.5t-86.5 -9.5t-160.5 -4q-97 0 -161.5 11.5zM527 165.5q23 -5.5 54 -5.5q87 0 131 14q0 109 -26.5 162t-81.5 53q-33 0 -58 -28.5t-39 -76t-14 -104.5q11 -9 34 -14.5z" />
    <glyph glyph-name="uni06A4" unicode="&#x6a4;" horiz-adv-x="817" 
d="M217.5 6.5q-64.5 11.5 -101 44t-36.5 92.5q0 18 5.5 61t17.5 116l22 -3q-13 -88 -16.5 -120t-3.5 -52q0 -43 27.5 -69.5t87.5 -38.5t160 -12q133 0 207.5 9t118.5 29q4 23 6 80q-52 -13 -128 -13q-26 0 -57.5 6.5t-43.5 20.5q-6 7 -10 17t-4 30q0 34 13 84t45 89.5
t83 39.5q128 0 128 -239q-1 -64 -5 -93.5t-14.5 -42t-32.5 -18.5q-33 -10 -60 -15.5t-86.5 -9.5t-160.5 -4q-97 0 -161.5 11.5zM527 165.5q23 -5.5 54 -5.5q87 0 131 14q0 109 -26.5 162t-81.5 53q-33 0 -58 -28.5t-39 -76t-14 -104.5q11 -9 34 -14.5zM530 565l29 38l37 -28
l-29 -38zM606 690l37 -28l-29 -38l-37 28zM653 603l37 -28l-29 -38l-37 28z" />
    <glyph glyph-name="uni06A9" unicode="&#x6a9;" horiz-adv-x="821" 
d="M217.5 6.5q-64.5 11.5 -101 44t-36.5 92.5q0 18 5.5 61t17.5 116l22 -3q-13 -88 -16.5 -120t-3.5 -52q0 -43 27.5 -69.5t87.5 -38.5t160 -12q135 0 212.5 12t113.5 35q0 103 -21 182t-75 150t-151 140l5 30q87 46 155.5 77t147.5 59l4 -28q-136 -45 -286 -125
q130 -91 187 -202.5t57 -273.5q0 -43 -91 -64.5t-259 -21.5q-97 0 -161.5 11.5z" />
    <glyph glyph-name="uni06AA" unicode="&#x6aa;" horiz-adv-x="914" 
d="M132 4l-36 1l-16 30q106 -6 187 -8t206 -2q100 0 175 13.5t116 33.5t47 41q0 49 -33 74.5t-90.5 34t-148.5 8.5q-186 0 -245.5 2t-74.5 9t-15 29q0 40 36.5 88.5t94 85t117.5 44.5l4 -24q-47 -6 -99.5 -37t-90 -73.5t-43.5 -81.5q20 -11 72.5 -13.5t202.5 -2.5
q115 0 184.5 -8.5t110.5 -39t41 -91.5q0 -36 -47.5 -63.5t-134 -43t-199.5 -15.5q-116 0 -321 9z" />
    <glyph glyph-name="uni06AF" unicode="&#x6af;" horiz-adv-x="821" 
d="M217.5 6.5q-64.5 11.5 -101 44t-36.5 92.5q0 18 5.5 61t17.5 116l22 -3q-13 -88 -16.5 -120t-3.5 -52q0 -43 27.5 -69.5t87.5 -38.5t160 -12q135 0 212.5 12t113.5 35q0 103 -21 182t-75 150t-151 140l5 30q87 46 155.5 77t147.5 59l4 -28q-136 -45 -286 -125
q130 -91 187 -202.5t57 -273.5q0 -43 -91 -64.5t-259 -21.5q-97 0 -161.5 11.5zM473 656l152 82l4 -22l-160 -87z" />
    <glyph glyph-name="uni06B5" unicode="&#x6b5;" horiz-adv-x="610" 
d="M80 -47q0 35 38 273l22 -3q-36 -216 -36 -273q0 -64 43.5 -95.5t126.5 -31.5q172 0 236 69l-24 813l25 5l19 -810q1 -27 -32 -52t-92 -40t-132 -15q-194 0 -194 160zM133 490l14 6q47 -80 70 -137q32 79 68 137l16 -8q-42 -68 -70 -145l-24 -4q-29 78 -74 151z" />
    <glyph glyph-name="uni06BA" unicode="&#x6ba;" horiz-adv-x="660" 
d="M80 -57q0 45 38 283l22 -3q-36 -216 -36 -273q0 -66 45.5 -96.5t144.5 -30.5q112 0 175 19.5t91 49.5l-28 388l24 5q24 -314 24 -385q0 -29 -34 -53.5t-99 -39t-153 -14.5q-214 0 -214 150z" />
    <glyph glyph-name="uni06BE" unicode="&#x6be;" horiz-adv-x="630" 
d="M207.5 7.5q60.5 26.5 86.5 49.5q-62 6 -99.5 28t-37.5 64q0 49 25 91t61 83l-56 26l10 24l220 -96q73 -32 104 -66.5t31 -88.5q0 -45 -19 -90q-6 -15 -23 -29q-11 -10 -22 -10q-5 0 -13 3l-153 56q-29 -37 -101.5 -71t-135.5 -44l-3 30q65 14 125.5 40.5zM197.5 119
q15.5 -14 40.5 -21t69 -14l74 180l-115 49q-36 -43 -60 -81.5t-24 -72.5q0 -26 15.5 -40zM497 18q30 52 30 101q0 43 -25 74t-98 60l-71 -175z" />
    <glyph glyph-name="uni06C0" unicode="&#x6c0;" horiz-adv-x="423" 
d="M80 94q0 44 39.5 106t82.5 103l-39 30l13 20q86 -55 136.5 -128t50.5 -146q0 -34 -5 -47q-7 -16 -19 -22q-18 -10 -49.5 -12.5t-85.5 -2.5q-124 0 -124 99zM124 44q21 -19 79 -19t86 1.5t49 8.5q2 20 2 36q0 123 -120 217q-31 -27 -58 -65.5t-43 -74t-16 -53.5
q0 -32 21 -51zM224.5 487q49.5 14 59.5 38q0 40 -26.5 52.5t-72.5 16.5q-25 2 -36.5 5.5t-11.5 12.5q0 14 12.5 51.5t37 68.5t58.5 31q38 0 68 -42l-17 -12q-11 14 -25 21.5t-26 7.5q-32 0 -56 -38.5t-29 -79.5q56 -3 87 -12.5t44 -28t13 -49.5q0 -37 -53.5 -58t-139.5 -21
v22q64 0 113.5 14z" />
    <glyph glyph-name="uni06C1" unicode="&#x6c1;" horiz-adv-x="423" 
d="M80 94q0 44 39.5 106t82.5 103l-39 30l13 20q86 -55 136.5 -128t50.5 -146q0 -34 -5 -47q-7 -16 -19 -22q-18 -10 -49.5 -12.5t-85.5 -2.5q-124 0 -124 99zM124 44q21 -19 79 -19t86 1.5t49 8.5q2 20 2 36q0 123 -120 217q-31 -27 -58 -65.5t-43 -74t-16 -53.5
q0 -32 21 -51z" />
    <glyph glyph-name="uni06C2" unicode="&#x6c2;" horiz-adv-x="423" 
d="M80 94q0 44 39.5 106t82.5 103l-39 30l13 20q86 -55 136.5 -128t50.5 -146q0 -34 -5 -47q-7 -16 -19 -22q-18 -10 -49.5 -12.5t-85.5 -2.5q-124 0 -124 99zM124 44q21 -19 79 -19t86 1.5t49 8.5q2 20 2 36q0 123 -120 217q-31 -27 -58 -65.5t-43 -74t-16 -53.5
q0 -32 21 -51zM118 454l79 24q-30 45 -30 75q0 21 23.5 31.5t53.5 10.5q16 0 31 -3v-17q-18 2 -30 2q-40 0 -63 -16q0 -30 32 -78l101 30v-20l-197 -58v19z" />
    <glyph glyph-name="uni06C3" unicode="&#x6c3;" horiz-adv-x="423" 
d="M80 94q0 44 39.5 106t82.5 103l-39 30l13 20q86 -55 136.5 -128t50.5 -146q0 -34 -5 -47q-7 -16 -19 -22q-18 -10 -49.5 -12.5t-85.5 -2.5q-124 0 -124 99zM124 44q21 -19 79 -19t86 1.5t49 8.5q2 20 2 36q0 123 -120 217q-31 -27 -58 -65.5t-43 -74t-16 -53.5
q0 -32 21 -51zM135 485l29 38l37 -28l-29 -38zM258 523l37 -28l-29 -38l-37 28z" />
    <glyph glyph-name="uni06C6" unicode="&#x6c6;" horiz-adv-x="404" 
d="M224.5 -119.5q68.5 58.5 82.5 132.5q-51 -13 -127 -13q-26 0 -57.5 6.5t-43.5 20.5q-6 7 -10 17t-4 30q0 34 13 84t45 89.5t83 39.5q128 0 128 -239q0 -109 -84 -181.5t-185 -109.5l-15 23q106 42 174.5 100.5zM123 35.5q23 -5.5 54 -5.5q87 0 131 14q0 109 -26.5 162
t-81.5 53q-33 0 -58 -28.5t-39 -76t-14 -104.5q11 -9 34 -14.5zM122 554l14 6q47 -80 70 -137q32 79 68 137l16 -8q-42 -68 -70 -145l-24 -4q-29 78 -74 151z" />
    <glyph glyph-name="uni06C7" unicode="&#x6c7;" horiz-adv-x="404" 
d="M224.5 -119.5q68.5 58.5 82.5 132.5q-51 -13 -127 -13q-26 0 -57.5 6.5t-43.5 20.5q-6 7 -10 17t-4 30q0 34 13 84t45 89.5t83 39.5q128 0 128 -239q0 -109 -84 -181.5t-185 -109.5l-15 23q106 42 174.5 100.5zM123 35.5q23 -5.5 54 -5.5q87 0 131 14q0 109 -26.5 162
t-81.5 53q-33 0 -58 -28.5t-39 -76t-14 -104.5q11 -9 34 -14.5zM109 404l103 30q-19 2 -25.5 10t-6.5 25q0 13 7 35.5t21.5 40t36.5 17.5q29 0 45 -29t16 -60q0 -21 -9.5 -28.5t-42.5 -17.5l-145 -42v19zM241 451q26 0 50 8q0 42 -12.5 63t-35.5 21q-22 0 -35 -25t-12 -61
q12 -6 45 -6z" />
    <glyph glyph-name="uni06CC" unicode="&#x6cc;" horiz-adv-x="671" 
d="M132.5 -168q-52.5 39 -52.5 121q0 35 38 273l22 -3q-35 -210 -35 -273q0 -65 46 -96t143 -31q89 0 151 14t104 58q18 44 18 77q0 39 -18.5 60t-55.5 27q-24 4 -68 6q-41 2 -57 8t-16 28q0 72 22.5 138t62.5 107t90 41q47 0 99 -52l-14 -19q-22 22 -44.5 33.5t-41.5 11.5
q-40 0 -74.5 -38t-55 -99t-20.5 -126q83 -4 127 -13t66.5 -32.5t22.5 -71.5q0 -110 -82 -149t-216 -39q-109 0 -161.5 39z" />
    <glyph glyph-name="uni06CE" unicode="&#x6ce;" horiz-adv-x="671" 
d="M132.5 -168q-52.5 39 -52.5 121q0 35 38 273l22 -3q-35 -210 -35 -273q0 -65 46 -96t143 -31q89 0 151 14t104 58q18 44 18 77q0 39 -18.5 60t-55.5 27q-24 4 -68 6q-41 2 -57 8t-16 28q0 72 22.5 138t62.5 107t90 41q47 0 99 -52l-14 -19q-22 22 -44.5 33.5t-41.5 11.5
q-40 0 -74.5 -38t-55 -99t-20.5 -126q83 -4 127 -13t66.5 -32.5t22.5 -71.5q0 -110 -82 -149t-216 -39q-109 0 -161.5 39zM173 506l14 6q47 -80 70 -137q32 79 68 137l16 -8q-42 -68 -70 -145l-24 -4q-29 78 -74 151z" />
    <glyph glyph-name="uni06D2" unicode="&#x6d2;" horiz-adv-x="613" 
d="M133 23.5q-53 23.5 -53 79.5q0 39 33 96.5t77.5 100.5t74.5 43q28 0 54 -17t45 -36l-14 -19q-45 45 -85 45q-20 0 -60.5 -40.5t-72.5 -93.5t-32 -89q21 -38 66.5 -50.5t144.5 -12.5q54 0 137 5l95 5l-9 -30l-52 -3q-119 -7 -196 -7q-100 0 -153 23.5z" />
    <glyph glyph-name="uni06D3" unicode="&#x6d3;" horiz-adv-x="613" 
d="M133 23.5q-53 23.5 -53 79.5q0 39 33 96.5t77.5 100.5t74.5 43q28 0 54 -17t45 -36l-14 -19q-45 45 -85 45q-20 0 -60.5 -40.5t-72.5 -93.5t-32 -89q21 -38 66.5 -50.5t144.5 -12.5q54 0 137 5l95 5l-9 -30l-52 -3q-119 -7 -196 -7q-100 0 -153 23.5zM168 419l79 24
q-30 45 -30 75q0 21 23.5 31.5t53.5 10.5q16 0 31 -3v-17q-18 2 -30 2q-40 0 -63 -16q0 -30 32 -78l101 30v-20l-197 -58v19z" />
    <glyph glyph-name="uni06D4" unicode="&#x6d4;" horiz-adv-x="273" 
d="M193 69l-2 -30h-110l1 30h111z" />
    <glyph glyph-name="uni06D5" unicode="&#x6d5;" horiz-adv-x="423" 
d="M80 94q0 44 39.5 106t82.5 103l-39 30l13 20q86 -55 136.5 -128t50.5 -146q0 -34 -5 -47q-7 -16 -19 -22q-18 -10 -49.5 -12.5t-85.5 -2.5q-124 0 -124 99zM124 44q21 -19 79 -19t86 1.5t49 8.5q2 20 2 36q0 123 -120 217q-31 -27 -58 -65.5t-43 -74t-16 -53.5
q0 -32 21 -51z" />
    <glyph glyph-name="uni06F0" unicode="&#x6f0;" horiz-adv-x="397" 
d="M104 104q-38 38 -38 95t38 94.5t95 37.5t94.5 -37.5t37.5 -94.5t-37.5 -95t-94.5 -38t-95 38zM121.5 126.5q31.5 -29.5 77.5 -29.5t77 29.5t31 72.5q0 41 -32.5 71.5t-75.5 30.5t-76 -30t-33 -72q0 -43 31.5 -72.5z" />
    <glyph glyph-name="uni06F1" unicode="&#x6f1;" horiz-adv-x="206" 
d="M138 0l-24 -4q0 430 -63 677l24 7q63 -229 63 -680z" />
    <glyph glyph-name="uni06F2" unicode="&#x6f2;" horiz-adv-x="431" 
d="M161.5 414.5q-27.5 7.5 -43.5 22.5q20 -180 20 -437l-24 -4q0 430 -63 677l24 7q10 -39 11 -45q5 -21 13 -65q12 -61 17 -89q4 -24 31.5 -34t75.5 -10q31 0 67 7t55 30l-14 197l24 9l10 -194q4 -79 -144 -79q-32 0 -59.5 7.5z" />
    <glyph glyph-name="uni06F3" unicode="&#x6f3;" horiz-adv-x="564" 
d="M160 413q-25 6 -41 18q19 -180 19 -431l-24 -4q0 430 -63 677l24 7q13 -41 41 -199q8 -44 100 -44q28 0 45.5 4t39.5 14l-4 213l24 4l4 -215q13 -12 26 -16t31 -4q76 0 96 37l-14 197l24 9l10 -194q3 -48 -35.5 -63.5t-82.5 -15.5q-50 0 -71 29q-14 -16 -40.5 -22.5
t-55.5 -6.5q-28 0 -53 6z" />
    <glyph glyph-name="uni06F4" unicode="&#x6f4;" horiz-adv-x="524" 
d="M160.5 393.5q-28.5 6.5 -43.5 25.5q21 -177 21 -419l-24 -4q0 440 -63 649l21 7q25 -76 39 -187q14 -31 42.5 -42t79.5 -11q-45 77 -45 177q0 48 35.5 69.5t80.5 21.5q50 0 98 -14l-7 -23q-62 10 -90 10q-20 0 -47.5 -9t-47.5 -24q0 -59 12 -112t35 -91q62 3 99 11.5
t97 28.5l5 -26q-68 -21 -127 -32.5t-93 -11.5q-49 0 -77.5 6.5z" />
    <glyph glyph-name="uni06F5" unicode="&#x6f5;" horiz-adv-x="535" 
d="M71.5 25.5q-30.5 30.5 -30.5 91.5q0 112 63.5 235t157.5 258q-3 4 -25 23q1 -1 -25 22l18 20q135 -121 199.5 -271.5t64.5 -335.5q0 -42 -42 -57.5t-90 -15.5q-37 0 -61 9.5t-36 34.5q-13 -20 -42 -32t-66 -12q-55 0 -85.5 30.5zM93.5 46q28.5 -21 72.5 -21q69 0 87 41
l-5 73l27 5l6 -92q11 -14 35 -20.5t54 -6.5q32 0 60.5 8t42.5 27q-7 180 -55 306t-139 226q-72 -108 -115 -180t-71 -150t-28 -155q0 -40 28.5 -61z" />
    <glyph glyph-name="uni06F6" unicode="&#x6f6;" horiz-adv-x="502" 
d="M177.5 244q61.5 93 111.5 141q-84 0 -136.5 47t-52.5 127q0 53 37.5 87t94.5 34q42 0 86 -13l-2 -25q-44 10 -78 10q-87 0 -117 -72q1 -86 50.5 -126.5t150.5 -41.5l4 3l108 71l12 -27q-80 -42 -138 -97t-112.5 -141.5t-127.5 -234.5l-17 18q65 147 126.5 240z" />
    <glyph glyph-name="uni06F7" unicode="&#x6f7;" horiz-adv-x="481" 
d="M212 242.5q-19 110.5 -61.5 224.5t-109.5 197l21 16q168 -240 181 -518q0 -9 1 -12q0 8 1 12q19 175 57 291t122 227l16 -21q-67 -81 -108 -200.5t-58 -231.5t-17 -181v-46l-26 -4v55q0 81 -19 191.5z" />
    <glyph glyph-name="uni06F8" unicode="&#x6f8;" horiz-adv-x="481" 
d="M269 433.5q19 -110.5 61.5 -224.5t109.5 -197l-21 -16q-168 240 -181 518q0 9 -1 12q0 -8 -1 -12q-19 -175 -57 -291t-122 -227l-16 21q67 81 108 200.5t58 231.5t17 181v46l26 4v-55q0 -81 19 -191.5z" />
    <glyph glyph-name="uni06F9" unicode="&#x6f9;" horiz-adv-x="462" 
d="M354.5 192.5q-5.5 105.5 -5.5 181.5q-80 -18 -144 -18q-110 0 -131 32q-5 9 -6.5 20.5t-1.5 31.5q0 40 10 94t43 100t96 46q92 0 125 -77t33 -212q0 -91 5.5 -202.5t17.5 -190.5l-24 -12q-12 101 -17.5 206.5zM136 390q32 -4 68 -4q42 0 82 4t62 12q0 131 -31 191
t-102 60q-65 0 -95.5 -67.5t-30.5 -183.5q15 -8 47 -12zM348 395v1v-1z" />
    <glyph glyph-name="uni0756" unicode="&#x756;" horiz-adv-x="808" 
d="M217.5 6.5q-64.5 11.5 -101 44t-36.5 92.5q0 18 5.5 61t17.5 116l22 -3q-13 -88 -16.5 -120t-3.5 -52q0 -43 27.5 -69.5t87.5 -38.5t160 -12q110 0 197.5 11.5t127.5 35.5l-12 243l25 5q10 -180 10 -240q0 -14 -12 -28t-42 -24q-46 -15 -122 -24t-173 -9t-161.5 11.5z
M325 490l14 6q47 -80 70 -137q32 79 68 137l16 -8q-42 -68 -70 -145l-24 -4q-29 78 -74 151z" />
    <glyph glyph-name="uni0769" unicode="&#x769;" horiz-adv-x="660" 
d="M80 -57q0 45 38 283l22 -3q-36 -216 -36 -273q0 -66 45.5 -96.5t144.5 -30.5q112 0 175 19.5t91 49.5l-28 388l24 5q24 -314 24 -385q0 -29 -34 -53.5t-99 -39t-153 -14.5q-214 0 -214 150zM302 372l29 38l37 -28l-29 -38zM251 647l14 6q47 -80 70 -137q32 79 68 137
l16 -8q-42 -68 -70 -145l-24 -4q-29 78 -74 151z" />
    <glyph glyph-name="uni08A0" unicode="&#x8a0;" horiz-adv-x="808" 
d="M217.5 6.5q-64.5 11.5 -101 44t-36.5 92.5q0 18 5.5 61t17.5 116l22 -3q-13 -88 -16.5 -120t-3.5 -52q0 -43 27.5 -69.5t87.5 -38.5t160 -12q110 0 197.5 11.5t127.5 35.5l-12 243l25 5q10 -180 10 -240q0 -14 -12 -28t-42 -24q-46 -15 -122 -24t-173 -9t-161.5 11.5z
M295 -121l14 6q47 -80 70 -137q32 79 68 137l16 -8q-42 -68 -70 -145l-24 -4q-29 78 -74 151z" />
    <glyph glyph-name="uni200B" unicode="&#x200b;" horiz-adv-x="0" 
 />
    <glyph glyph-name="uni200C" unicode="&#x200c;" horiz-adv-x="0" 
d="M5 639h28v-652h-28v652z" />
    <glyph glyph-name="uni200D" unicode="&#x200d;" horiz-adv-x="0" 
d="M-13 583l-78 -78l-18 19l88 88l-77 78l20 19l77 -77l81 82l19 -20l-81 -81l93 -93l-19 -20l-77 77v-590h-28v596z" />
    <glyph glyph-name="uni200E" unicode="&#x200e;" horiz-adv-x="0" 
d="M-15 619h179l-74 71l17 18l105 -103l-105 -103l-17 18l74 71h-151v-604h-28v632z" />
    <glyph glyph-name="uni200F" unicode="&#x200f;" horiz-adv-x="0" 
d="M-15 591h-151l74 -71l-17 -18l-105 103l105 103l17 -18l-74 -71h179v-632h-28v604z" />
    <glyph glyph-name="endash" unicode="&#x2013;" horiz-adv-x="517" 
d="M43 252v30h432v-30h-432z" />
    <glyph glyph-name="emdash" unicode="&#x2014;" horiz-adv-x="863" 
d="M43 252v30h777v-30h-777z" />
    <glyph glyph-name="quoteleft" unicode="&#x2018;" horiz-adv-x="235" 
d="M73 620q0 89 75 140l17 -22q-32 -23 -46.5 -48.5t-14.5 -61.5q3 1 8 1q13 0 23.5 -8.5t10.5 -24.5q0 -17 -9 -25.5t-25 -8.5q-39 0 -39 58z" />
    <glyph glyph-name="quoteright" unicode="&#x2019;" horiz-adv-x="235" 
d="M117 627q14 25 14 62q-1 -1 -6 -1q-14 0 -24.5 8.5t-10.5 23.5q0 17 10 26.5t25 9.5q17 0 28 -15.5t11 -44.5q0 -87 -76 -139l-16 21q31 24 45 49z" />
    <glyph glyph-name="quotesinglbase" unicode="&#x201a;" horiz-adv-x="234" 
d="M112 -54.5q19 28.5 18 64.5q-1 -1 -9 -1q-17 0 -27.5 9.5t-10.5 27.5q0 17 11 27.5t27 10.5q19 0 32 -18t13 -47q0 -46 -25 -82.5t-67 -62.5l-13 26q32 17 51 45.5z" />
    <glyph glyph-name="quotedblleft" unicode="&#x201c;" horiz-adv-x="384" 
d="M95.5 576.5q-10.5 14.5 -10.5 43.5q0 89 76 140l16 -22q-31 -23 -46 -49t-15 -61q3 1 9 1q13 0 23 -8.5t10 -24.5q0 -17 -9 -25.5t-24 -8.5q-19 0 -29.5 14.5zM287 760l16 -22q-32 -23 -46.5 -48.5t-14.5 -61.5q3 1 9 1q13 0 23 -8.5t10 -24.5q0 -17 -9 -25.5t-24 -8.5
q-19 0 -29.5 14.5t-10.5 43.5q0 89 76 140z" />
    <glyph glyph-name="quotedblright" unicode="&#x201d;" horiz-adv-x="386" 
d="M130 627q14 25 14 62q-2 -1 -6 -1q-14 0 -24.5 8.5t-10.5 23.5q0 17 9.5 26.5t25.5 9.5q17 0 28 -15.5t11 -44.5q0 -86 -76 -139l-16 21q31 24 45 49zM256 627q14 25 14 62q-2 -1 -7 -1q-13 0 -23.5 8.5t-10.5 23.5q0 17 9.5 26.5t24.5 9.5q18 0 29 -15.5t11 -44.5
q0 -86 -76 -139l-16 21q31 24 45 49z" />
    <glyph glyph-name="quotedblbase" unicode="&#x201e;" horiz-adv-x="234" 
d="M112 -54.5q19 28.5 18 64.5q-1 -1 -9 -1q-17 0 -27.5 9.5t-10.5 27.5q0 17 11 27.5t27 10.5q19 0 32 -18t13 -47q0 -46 -25 -82.5t-67 -62.5l-13 26q32 17 51 45.5z" />
    <glyph glyph-name="dagger" unicode="&#x2020;" horiz-adv-x="452" 
d="M209 -81l3 650l-142 -3v35l142 -3l-3 164h34l-3 -164l143 3v-35l-143 3l3 -650h-34z" />
    <glyph glyph-name="daggerdbl" unicode="&#x2021;" horiz-adv-x="452" 
d="M209 -81l3 163l-142 -2v35l142 -4l-3 229l3 230l-142 -4v35l142 -3l-3 164h34l-3 -164l143 3v-35l-143 4l3 -230l-3 -229l143 4v-35l-143 2l3 -163h-34z" />
    <glyph glyph-name="bullet" unicode="&#x2022;" horiz-adv-x="301" 
d="M89 213q-28 30 -28 71q0 43 28 74q28 25 61 25q35 0 63 -25q26 -29 26 -74q0 -43 -26 -71q-25 -25 -63 -25q-36 0 -61 25z" />
    <glyph glyph-name="ellipsis" unicode="&#x2026;" horiz-adv-x="372" 
d="M262 12q-8 9 -8 21q0 13 8.5 21t19.5 8q13 0 21.5 -8t8.5 -21t-8 -21.5t-22 -8.5q-12 0 -20 9zM63 53q8 8 20 8q13 0 21.5 -8t8.5 -21q0 -12 -8.5 -21t-21.5 -9q-12 0 -20 9t-8 21q0 13 8 21zM159.5 53q8.5 8 20.5 8t21 -8t9 -21q0 -12 -8.5 -21t-21.5 -9t-21 9t-8 21
q0 13 8.5 21z" />
    <glyph glyph-name="perthousand" unicode="&#x2030;" horiz-adv-x="1255" 
d="M612 717h30l-391 -725h-31zM87.5 663.5q38.5 56.5 109.5 56.5q68 0 107 -57.5t39 -160.5t-39 -161.5t-107 -58.5q-71 0 -109.5 57t-38.5 163q0 105 38.5 161.5zM111 358.5q31 -51.5 86 -51.5q54 0 84 51.5t30 143.5q0 91 -30 142t-84 51q-57 0 -87 -50t-30 -143
q0 -92 31 -143.5zM562 373.5q38 56.5 109 56.5q70 0 108.5 -57.5t38.5 -160.5q0 -104 -38.5 -162t-108.5 -58q-71 0 -109 57t-38 163q0 105 38 161.5zM585 68.5q31 -51.5 86 -51.5t85 51.5t30 143.5q0 91 -30 142t-85 51q-56 0 -86.5 -50.5t-30.5 -142.5t31 -143.5z
M951.5 373q38.5 57 108.5 57t108.5 -57.5t38.5 -160.5q0 -104 -38.5 -162t-108.5 -58t-108.5 57.5t-38.5 162.5q0 104 38.5 161zM974.5 68q30.5 -51 85.5 -51t85.5 51t30.5 144q0 92 -30.5 142.5t-85.5 50.5t-85.5 -50.5t-30.5 -142.5q0 -93 30.5 -144z" />
    <glyph glyph-name="guilsinglleft" unicode="&#x2039;" horiz-adv-x="279" 
d="M194 85l-143 169v36l143 168l19 -16l-131 -170l131 -173z" />
    <glyph glyph-name="guilsinglright" unicode="&#x203a;" horiz-adv-x="279" 
d="M83 85l-18 14l131 173l-131 170l18 16l145 -168v-36z" />
    <glyph glyph-name="fraction" unicode="&#x2044;" horiz-adv-x="66" 
d="M-188 -13l397 735h41l-397 -735h-41z" />
    <glyph glyph-name="Euro" unicode="&#x20ac;" horiz-adv-x="516" 
d="M171.5 72q-58.5 80 -70.5 199h-70v19l68 5q-2 12 -2 51q0 18 0.5 28t3.5 15h-70v22l71 5q13 132 78.5 206.5t168.5 74.5q39 0 77.5 -21t67.5 -57l-24 -23q-54 72 -123 72q-86 0 -140 -65.5t-68 -187.5h301v-26h-299q-4 -4 -4 -39q0 -18 -1 -34.5t-5 -20.5h266v-24h-258
q13 -120 64 -185t131 -65q43 0 77 20.5t69 65.5l24 -20q-35 -49 -77 -72t-95 -23q-102 0 -160.5 80z" />
    <glyph glyph-name="trademark" unicode="&#x2122;" horiz-adv-x="657" 
d="M125 405v296h-115v22h258v-22h-117v-296h-26zM337 723h44l53 -132l37 -96h14l36 96l52 132h42v-318h-23v168l4 113h-16l-90 -228h-26l-90 228h-17l5 -113v-168h-25v318z" />
    <glyph glyph-name="arrowleft" unicode="&#x2190;" horiz-adv-x="669" 
d="M32 269v3l285 279l20 -23l-257 -243h536v-31h-536l257 -242l-20 -21z" />
    <glyph glyph-name="arrowup" unicode="&#x2191;" horiz-adv-x="669" 
d="M318 -22v535l-242 -256l-21 20l279 284l281 -284l-22 -20l-244 255v-534h-31z" />
    <glyph glyph-name="arrowright" unicode="&#x2192;" horiz-adv-x="671" 
d="M45 289h536l-257 242l20 21l284 -279l-284 -281l-20 22l257 244h-536v31z" />
    <glyph glyph-name="arrowdown" unicode="&#x2193;" horiz-adv-x="669" 
d="M349 29l244 257l22 -20l-281 -285l-279 285l21 20l242 -257v536h31v-536z" />
    <glyph glyph-name="partialdiff" unicode="&#x2202;" horiz-adv-x="538" 
d="M135.5 22.5q-40.5 25.5 -64 70t-23.5 98.5q0 106 60.5 166.5t165.5 60.5q48 0 95 -23.5t81 -65.5q7 8 8.5 16.5t1.5 46.5q0 145 -46.5 222.5t-134.5 77.5q-72 0 -127 -52l-11 14q55 58 141 58q99 0 152.5 -82.5t53.5 -236.5q0 -110 -30 -200t-89.5 -143t-143.5 -53
q-49 0 -89.5 25.5zM94.5 104.5q20.5 -40.5 55.5 -64t78 -23.5q90 0 149.5 74.5t75.5 209.5q-84 99 -179 99q-92 0 -146 -56t-54 -150q0 -49 20.5 -89.5z" />
    <glyph glyph-name="product" unicode="&#x220f;" horiz-adv-x="702" 
d="M113 -120v799h478v-799h-31v776h-421v-776h-26z" />
    <glyph glyph-name="summation" unicode="&#x2211;" horiz-adv-x="524" 
d="M31 -120v21l279 379l-267 379v20h438v-22h-396v-18l255 -358l-268 -361v-18h443v-22h-484z" />
    <glyph glyph-name="minus" unicode="&#x2212;" horiz-adv-x="454" 
d="M50 219v25h354v-25h-354z" />
    <glyph glyph-name="radical" unicode="&#x221a;" horiz-adv-x="580" 
d="M313 -103l-164 477l-76 -35l-6 15l97 45l132 -397q7 -17 12 -40l6 -24h20q8 33 13 66l204 870h20l-231 -977h-27z" />
    <glyph glyph-name="infinity" unicode="&#x221e;" horiz-adv-x="822" 
d="M496.5 220q-48.5 34 -102.5 101h-8q-55 -61 -96.5 -90t-93.5 -29q-39 0 -72.5 20.5t-53 55.5t-19.5 76q0 68 43 112t109 44q39 0 69 -14.5t55 -39t61 -67.5h8q54 72 104 105t105 33q74 0 120.5 -46.5t46.5 -120.5q0 -50 -21 -89.5t-58.5 -62t-84.5 -22.5q-63 0 -111.5 34
zM116 267.5q35 -36.5 85 -36.5t96.5 34.5t82.5 86.5q-48 61 -92 96t-88 35q-53 0 -86 -36t-33 -90q0 -53 35 -89.5zM507 248.5q50 -36.5 103 -36.5q58 0 94 41t36 104q0 64 -38 102t-101 38q-51 0 -102 -34.5t-98 -102.5q56 -75 106 -111.5z" />
    <glyph glyph-name="integral" unicode="&#x222b;" horiz-adv-x="320" 
d="M75 -158l4 19l28 -1q38 0 56.5 28t23 68.5t4.5 103.5q0 94 -24 280q-23 180 -23 275q0 110 21 166.5t86 56.5q17 0 32 -3l-5 -17q-18 2 -30 2q-37 0 -54.5 -29.5t-22 -71.5t-4.5 -103q0 -38 5.5 -96.5t12.5 -117.5l7 -65q11 -105 16.5 -165t5.5 -108q0 -111 -21 -168
t-85 -57q-22 0 -33 3z" />
    <glyph glyph-name="approxequal" unicode="&#x2248;" horiz-adv-x="507" 
d="M302 416.5q-24 12.5 -51 34.5q-33 25 -51.5 36.5t-39.5 11.5q-28 0 -49.5 -15.5t-39.5 -49.5l-21 13q20 39 49.5 60.5t62.5 21.5q26 0 47 -11t57 -36q33 -27 50.5 -38.5t39.5 -11.5q52 0 88 67l22 -16q-19 -37 -49 -58t-63 -21q-28 0 -52 12.5zM99.5 289q29.5 21 62.5 21
q27 0 48.5 -11t55.5 -35q30 -26 49 -38t41 -12q52 0 88 67l22 -16q-19 -37 -49 -58t-63 -21q-28 0 -52 12t-51 34q-31 25 -50.5 37t-40.5 12q-27 0 -48.5 -16t-40.5 -49l-21 13q20 39 49.5 60z" />
    <glyph glyph-name="notequal" unicode="&#x2260;" horiz-adv-x="462" 
d="M327 323h83v-25h-104l-111 -131h215v-25h-236l-85 -101h-29l85 101h-95v25h116l111 131h-227v25h248l85 101h29z" />
    <glyph glyph-name="lessequal" unicode="&#x2264;" horiz-adv-x="516" 
d="M474 172l-432 167v42l432 169v-34l-395 -150v-10l395 -152v-32zM42 34h432v-29h-432v29z" />
    <glyph glyph-name="greaterequal" unicode="&#x2265;" horiz-adv-x="516" 
d="M42 172v32l394 152v10l-394 150v34l432 -169v-42zM42 34h432v-29h-432v29z" />
    <glyph glyph-name="uniFBB2" unicode="&#xfbb2;" horiz-adv-x="0" 
d="M-33 28l29 38l37 -28l-29 -38z" />
    <glyph glyph-name="uniFBB3" unicode="&#xfbb3;" horiz-adv-x="0" 
d="M-33 -22l29 38l37 -28l-29 -38z" />
    <glyph glyph-name="uniFBB4" unicode="&#xfbb4;" horiz-adv-x="0" 
d="M-80 28l29 38l37 -28l-29 -38zM43 66l37 -28l-29 -38l-37 28z" />
    <glyph glyph-name="uniFBB5" unicode="&#xfbb5;" horiz-adv-x="0" 
d="M-80 -37l29 38l37 -28l-29 -38zM43 1l37 -28l-29 -38l-37 28z" />
    <glyph glyph-name="uniFBB6" unicode="&#xfbb6;" horiz-adv-x="0" 
d="M-80 28l29 38l37 -28l-29 -38zM-4 153l37 -28l-29 -38l-37 28zM43 66l37 -28l-29 -38l-37 28z" />
    <glyph glyph-name="uniFBB9" unicode="&#xfbb9;" horiz-adv-x="0" 
d="M-80 -37l29 38l37 -28l-29 -38zM-4 -71l37 -28l-29 -38l-37 28zM43 1l37 -28l-29 -38l-37 28z" />
    <glyph glyph-name="uniFD3E" unicode="&#xfd3e;" horiz-adv-x="320" 
d="M119 -42q-24 99 -24 214q0 113 24 211.5t83 203.5l24 -10q-46 -75 -75.5 -185.5t-29.5 -219.5q0 -111 29 -222t76 -185l-24 -10q-59 104 -83 203z" />
    <glyph glyph-name="uniFD3F" unicode="&#xfd3f;" horiz-adv-x="320" 
d="M176 -50q29 111 29 222q0 109 -29.5 219.5t-75.5 185.5l24 10q59 -105 83 -203.5t24 -211.5q0 -115 -24 -214t-83 -203l-24 10q47 74 76 185z" />
    <glyph glyph-name="uni0627.short" horiz-adv-x="182" 
d="M95 565l12 -565l-22 -5l-15 565z" />
    <glyph glyph-name="uni0627.fina.short" horiz-adv-x="260" 
d="M124 38q-42 38 -44 107l-10 415l25 5l9 -420q1 -66 41 -90.5t107 -24.5h8q5 0 5 -12v-6q0 -12 -5 -12h-8q-86 0 -128 38z" />
    <glyph glyph-name="uni0769.fina" horiz-adv-x="760" 
d="M628 10.5q-40 10.5 -55 38.5q7 -97 7 -149q0 -29 -34 -53.5t-99 -39t-153 -14.5q-214 0 -214 150q0 45 38 283l22 -3q-36 -216 -36 -273q0 -66 45.5 -96.5t144.5 -30.5q112 0 175 19.5t91 49.5l-28 388l24 5l14 -175q4 -49 45 -64.5t109 -15.5h36q5 0 5 -12v-6
q0 -12 -5 -12h-31q-61 0 -101 10.5zM302 372l29 38l37 -28l-29 -38zM251 647l14 6q47 -80 70 -137q32 79 68 137l16 -8q-42 -68 -70 -145l-24 -4q-29 78 -74 151z" />
    <glyph glyph-name="uni06440627.fina.alt" horiz-adv-x="514" 
d="M397 6.5q-37 6.5 -56.5 22t-27.5 43.5q-24 -46 -100.5 -84.5t-175.5 -60.5l-3 28q127 31 193.5 70.5t70.5 73.5l-14 606l25 5l14 -600q1 -36 23 -53.5t57 -22t93 -4.5h18q5 0 5 -12v-6q0 -12 -5 -12h-17q-63 0 -100 6.5zM96 477q30 -99 45.5 -210.5t15.5 -203.5l-23 -8
q0 79 -15 196t-44 217z" />
    <glyph glyph-name="uni06440627.alt" horiz-adv-x="404" 
d="M227.5 25.5q66.5 39.5 70.5 73.5l-14 606l25 5l13 -600q1 -57 -82 -106.5t-203 -76.5l-3 28q127 31 193.5 70.5zM96 477q30 -99 45.5 -210.5t15.5 -203.5l-23 -8q0 79 -15 196t-44 217z" />
    <glyph glyph-name="uni06280698.fina" horiz-adv-x="606" 
d="M65 403l29 38l37 -28l-29 -38zM77.5 -113q69.5 63 79.5 118l-22 250l23 5l5 -45q3 -32 38.5 -40.5t90.5 -8.5q40 0 71.5 8t60.5 25l-2 81l24 4l3 -117q2 -52 17 -81.5t48.5 -42.5t91.5 -13q5 0 5 -12v-6q0 -12 -5 -12q-67 0 -105 16t-56 53.5t-20 102.5
q-26 -17 -61.5 -26.5t-71.5 -9.5q-98 0 -125 27q10 -112 10 -154q0 -41 -33.5 -88.5t-93.5 -91t-135 -72.5l-15 23q108 44 177.5 107zM141 528l37 -28l-29 -38l-37 28zM188 441l37 -28l-29 -38l-37 28zM348 -53l37 -28l-29 -38l-37 28z" />
    <glyph glyph-name="uni067E0631.fina" horiz-adv-x="596" 
d="M157 163q10 -112 10 -154q0 -41 -33.5 -88.5t-93.5 -91t-135 -72.5l-15 23q108 44 177.5 107t79.5 118l-22 250l23 5l5 -45q3 -32 38.5 -40.5t90.5 -8.5q40 0 71.5 8t60.5 25l-2 81l24 4l3 -117q2 -52 17 -81.5t48.5 -42.5t91.5 -13q5 0 5 -12v-6q0 -12 -5 -12
q-67 0 -105 16t-56 53.5t-20 102.5q-26 -17 -61.5 -26.5t-71.5 -9.5q-98 0 -125 27zM252 -107l29 38l37 -28l-29 -38zM328 -141l37 -28l-29 -38l-37 28zM375 -69l37 -28l-29 -38l-37 28z" />
    <glyph glyph-name="uni067E0632.fina" horiz-adv-x="596" 
d="M92 403l29 38l37 -28l-29 -38zM67.5 -113q69.5 63 79.5 118l-22 250l23 5l5 -45q3 -32 38.5 -40.5t90.5 -8.5q40 0 71.5 8t60.5 25l-2 81l24 4l3 -117q2 -52 17 -81.5t48.5 -42.5t91.5 -13q5 0 5 -12v-6q0 -12 -5 -12q-67 0 -105 16t-56 53.5t-20 102.5
q-26 -17 -61.5 -26.5t-71.5 -9.5q-98 0 -125 27q10 -112 10 -154q0 -41 -33.5 -88.5t-93.5 -91t-135 -72.5l-15 23q108 44 177.5 107zM281 -68l37 -28l-29 -38l-37 28zM328 -140l37 -28l-29 -38l-37 28zM375 -68l37 -28l-29 -38l-37 28z" />
    <glyph glyph-name="uni067E0698.fina" horiz-adv-x="596" 
d="M252 -106l29 38l37 -28l-29 -38zM67.5 -113q69.5 63 79.5 118l-22 250l23 5l5 -45q3 -32 38.5 -40.5t90.5 -8.5q40 0 71.5 8t60.5 25l-2 81l24 4l3 -117q2 -52 17 -81.5t48.5 -42.5t91.5 -13q5 0 5 -12v-6q0 -12 -5 -12q-67 0 -105 16t-56 53.5t-20 102.5
q-26 -17 -61.5 -26.5t-71.5 -9.5q-98 0 -125 27q10 -112 10 -154q0 -41 -33.5 -88.5t-93.5 -91t-135 -72.5l-15 23q108 44 177.5 107zM74 441l37 -28l-29 -38l-37 28zM121 528l37 -28l-29 -38l-37 28zM168 441l37 -28l-29 -38l-37 28zM328 -140l37 -28l-29 -38l-37 28z
M375 -68l37 -28l-29 -38l-37 28z" />
    <glyph glyph-name="uni067E0646.fina" horiz-adv-x="1005" 
d="M900 16q-38 16 -56 53.5t-20 102.5q-26 -17 -61.5 -26.5t-71.5 -9.5q-99 0 -126 27q15 -194 15 -263q0 -29 -34 -53.5t-99 -39t-153 -14.5q-214 0 -214 150q0 45 38 283l22 -3q-36 -216 -36 -273q0 -66 45.5 -96.5t144.5 -30.5q112 0 175 19.5t91 49.5l-28 388l24 5
l4 -51l2 -19q3 -32 38.5 -40.5t90.5 -8.5q40 0 71.5 8t60.5 25l-2 81l24 4l3 -117q2 -52 17 -81.5t48.5 -42.5t91.5 -13q5 0 5 -12v-6q0 -12 -5 -12q-67 0 -105 16zM331 410l37 -28l-29 -38l-37 28zM689 -68l37 -28l-29 -38l-37 28zM736 -140l37 -28l-29 -38l-37 28z
M783 -68l37 -28l-29 -38l-37 28z" />
    <glyph glyph-name="uni067E0649.fina" horiz-adv-x="850" 
d="M132.5 -186q-52.5 39 -52.5 121q0 35 38 273l22 -3q-35 -210 -35 -273q0 -65 46 -96t143 -31q89 0 151 14t104 58q18 44 18 77q0 39 -18.5 60t-55.5 27q-24 4 -68 6q-41 2 -57 8t-16 28q0 51 35 106.5t88.5 93t103.5 37.5q35 0 59 -19.5t39 -47.5t34 -76q20 -49 36 -78
t41 -49t62 -20q5 0 5 -12v-6q0 -12 -5 -12q-43 0 -72 22.5t-46.5 54.5t-39.5 85q-18 45 -31.5 70.5t-33.5 43t-48 17.5q-41 0 -89.5 -33t-81.5 -83t-32 -97q83 -4 127 -13t66.5 -32.5t22.5 -71.5q0 -110 -82 -149t-216 -39q-109 0 -161.5 39zM690 -158l29 38l37 -28l-29 -38
zM766 -192l37 -28l-29 -38l-37 28zM813 -120l37 -28l-29 -38l-37 28z" />
    <glyph glyph-name="uni062A0632.fina" horiz-adv-x="606" 
d="M102 403l29 38l37 -28l-29 -38zM77.5 -113q69.5 63 79.5 118l-22 250l23 5l5 -45q3 -32 38.5 -40.5t90.5 -8.5q40 0 71.5 8t60.5 25l-2 81l24 4l3 -117q2 -52 17 -81.5t48.5 -42.5t91.5 -13q5 0 5 -12v-6q0 -12 -5 -12q-67 0 -105 16t-56 53.5t-20 102.5
q-26 -17 -61.5 -26.5t-71.5 -9.5q-98 0 -125 27q10 -112 10 -154q0 -41 -33.5 -88.5t-93.5 -91t-135 -72.5l-15 23q108 44 177.5 107zM368 465l37 -28l-29 -38l-37 28zM462 465l37 -28l-29 -38l-37 28z" />
    <glyph glyph-name="uni062A0698.fina" horiz-adv-x="606" 
d="M167 163q10 -112 10 -154q0 -41 -33.5 -88.5t-93.5 -91t-135 -72.5l-15 23q108 44 177.5 107t79.5 118l-22 250l23 5l5 -45q3 -32 38.5 -40.5t90.5 -8.5q40 0 71.5 8t60.5 25l-2 81l24 4l3 -117q2 -52 17 -81.5t48.5 -42.5t91.5 -13q5 0 5 -12v-6q0 -12 -5 -12
q-67 0 -105 16t-56 53.5t-20 102.5q-26 -17 -61.5 -26.5t-71.5 -9.5q-98 0 -125 27zM84 441l37 -28l-29 -38l-37 28zM131 528l37 -28l-29 -38l-37 28zM178 441l37 -28l-29 -38l-37 28zM368 465l37 -28l-29 -38l-37 28zM462 465l37 -28l-29 -38l-37 28z" />
    <glyph glyph-name="uni062A0646.fina" horiz-adv-x="1005" 
d="M900 16q-38 16 -56 53.5t-20 102.5q-26 -17 -61.5 -26.5t-71.5 -9.5q-99 0 -126 27q15 -194 15 -263q0 -29 -34 -53.5t-99 -39t-153 -14.5q-214 0 -214 150q0 45 38 283l22 -3q-36 -216 -36 -273q0 -66 45.5 -96.5t144.5 -30.5q112 0 175 19.5t91 49.5l-28 388l24 5
l4 -51l2 -19q3 -32 38.5 -40.5t90.5 -8.5q40 0 71.5 8t60.5 25l-2 81l24 4l3 -117q2 -52 17 -81.5t48.5 -42.5t91.5 -13q5 0 5 -12v-6q0 -12 -5 -12q-67 0 -105 16zM331 410l37 -28l-29 -38l-37 28zM777 465l37 -28l-29 -38l-37 28zM871 465l37 -28l-29 -38l-37 28z" />
    <glyph glyph-name="uni062A0649.fina" horiz-adv-x="850" 
d="M132.5 -186q-52.5 39 -52.5 121q0 35 38 273l22 -3q-35 -210 -35 -273q0 -65 46 -96t143 -31q89 0 151 14t104 58q18 44 18 77q0 39 -18.5 60t-55.5 27q-24 4 -68 6q-41 2 -57 8t-16 28q0 51 35 106.5t88.5 93t103.5 37.5q35 0 59 -19.5t39 -47.5t34 -76q20 -49 36 -78
t41 -49t62 -20q5 0 5 -12v-6q0 -12 -5 -12q-43 0 -72 22.5t-46.5 54.5t-39.5 85q-18 45 -31.5 70.5t-33.5 43t-48 17.5q-41 0 -89.5 -33t-81.5 -83t-32 -97q83 -4 127 -13t66.5 -32.5t22.5 -71.5q0 -110 -82 -149t-216 -39q-109 0 -161.5 39zM499 455l29 38l37 -28l-29 -38z
M622 493l37 -28l-29 -38l-37 28z" />
    <glyph glyph-name="uni062B0632.fina" horiz-adv-x="606" 
d="M102 403l29 38l37 -28l-29 -38zM77.5 -113q69.5 63 79.5 118l-22 250l23 5l5 -45q3 -32 38.5 -40.5t90.5 -8.5q40 0 71.5 8t60.5 25l-2 81l24 4l3 -117q2 -52 17 -81.5t48.5 -42.5t91.5 -13q5 0 5 -12v-6q0 -12 -5 -12q-67 0 -105 16t-56 53.5t-20 102.5
q-26 -17 -61.5 -26.5t-71.5 -9.5q-98 0 -125 27q10 -112 10 -154q0 -41 -33.5 -88.5t-93.5 -91t-135 -72.5l-15 23q108 44 177.5 107zM368 465l37 -28l-29 -38l-37 28zM415 552l37 -28l-29 -38l-37 28zM462 465l37 -28l-29 -38l-37 28z" />
    <glyph glyph-name="uni062B0698.fina" horiz-adv-x="606" 
d="M167 163q10 -112 10 -154q0 -41 -33.5 -88.5t-93.5 -91t-135 -72.5l-15 23q108 44 177.5 107t79.5 118l-22 250l23 5l5 -45q3 -32 38.5 -40.5t90.5 -8.5q40 0 71.5 8t60.5 25l-2 81l24 4l3 -117q2 -52 17 -81.5t48.5 -42.5t91.5 -13q5 0 5 -12v-6q0 -12 -5 -12
q-67 0 -105 16t-56 53.5t-20 102.5q-26 -17 -61.5 -26.5t-71.5 -9.5q-98 0 -125 27zM84 441l37 -28l-29 -38l-37 28zM131 528l37 -28l-29 -38l-37 28zM178 441l37 -28l-29 -38l-37 28zM368 465l37 -28l-29 -38l-37 28zM415 552l37 -28l-29 -38l-37 28zM462 465l37 -28
l-29 -38l-37 28z" />
    <glyph glyph-name="uni062B0646.fina" horiz-adv-x="1005" 
d="M900 16q-38 16 -56 53.5t-20 102.5q-26 -17 -61.5 -26.5t-71.5 -9.5q-99 0 -126 27q15 -194 15 -263q0 -29 -34 -53.5t-99 -39t-153 -14.5q-214 0 -214 150q0 45 38 283l22 -3q-36 -216 -36 -273q0 -66 45.5 -96.5t144.5 -30.5q112 0 175 19.5t91 49.5l-28 388l24 5
l4 -51l2 -19q3 -32 38.5 -40.5t90.5 -8.5q40 0 71.5 8t60.5 25l-2 81l24 4l3 -117q2 -52 17 -81.5t48.5 -42.5t91.5 -13q5 0 5 -12v-6q0 -12 -5 -12q-67 0 -105 16zM331 410l37 -28l-29 -38l-37 28zM777 465l37 -28l-29 -38l-37 28zM824 552l37 -28l-29 -38l-37 28zM871 465
l37 -28l-29 -38l-37 28z" />
    <glyph glyph-name="uni06B50627.fina.alt" horiz-adv-x="514" 
d="M397 6.5q-37 6.5 -56.5 22t-27.5 43.5q-24 -46 -100.5 -84.5t-175.5 -60.5l-3 28q127 31 193.5 70.5t70.5 73.5l-14 606l25 5l14 -600q1 -36 23 -53.5t57 -22t93 -4.5h18q5 0 5 -12v-6q0 -12 -5 -12h-17q-63 0 -100 6.5zM41 615q56 -114 86 -269t30 -283l-23 -8
q0 66 -12.5 167t-38 203.5t-62.5 172.5zM214 926l14 6q47 -80 70 -137q32 79 68 137l16 -8q-42 -68 -70 -145l-24 -4q-29 78 -74 151z" />
    <glyph glyph-name="uni06B50627.alt" horiz-adv-x="404" 
d="M227.5 25.5q66.5 39.5 70.5 73.5l-14 606l25 5l13 -600q1 -57 -82 -106.5t-203 -76.5l-3 28q127 31 193.5 70.5zM41 615q56 -114 86 -269t30 -283l-23 -8q0 66 -12.5 167t-38 203.5t-62.5 172.5zM214 922l14 6q47 -80 70 -137q32 79 68 137l16 -8q-42 -68 -70 -145
l-24 -4q-29 78 -74 151z" />
    <glyph glyph-name="uni06460632.fina" horiz-adv-x="606" 
d="M102 403l29 38l37 -28l-29 -38zM77.5 -113q69.5 63 79.5 118l-22 250l23 5l5 -45q3 -32 38.5 -40.5t90.5 -8.5q40 0 71.5 8t60.5 25l-2 81l24 4l3 -117q2 -52 17 -81.5t48.5 -42.5t91.5 -13q5 0 5 -12v-6q0 -12 -5 -12q-67 0 -105 16t-56 53.5t-20 102.5
q-26 -17 -61.5 -26.5t-71.5 -9.5q-98 0 -125 27q10 -112 10 -154q0 -41 -33.5 -88.5t-93.5 -91t-135 -72.5l-15 23q108 44 177.5 107zM415 465l37 -28l-29 -38l-37 28z" />
    <glyph glyph-name="uni06460698.fina" horiz-adv-x="606" 
d="M167 163q10 -112 10 -154q0 -41 -33.5 -88.5t-93.5 -91t-135 -72.5l-15 23q108 44 177.5 107t79.5 118l-22 250l23 5l5 -45q3 -32 38.5 -40.5t90.5 -8.5q40 0 71.5 8t60.5 25l-2 81l24 4l3 -117q2 -52 17 -81.5t48.5 -42.5t91.5 -13q5 0 5 -12v-6q0 -12 -5 -12
q-67 0 -105 16t-56 53.5t-20 102.5q-26 -17 -61.5 -26.5t-71.5 -9.5q-98 0 -125 27zM84 441l37 -28l-29 -38l-37 28zM131 528l37 -28l-29 -38l-37 28zM178 441l37 -28l-29 -38l-37 28zM415 465l37 -28l-29 -38l-37 28z" />
    <glyph glyph-name="uni06460646.fina" horiz-adv-x="1005" 
d="M900 16q-38 16 -56 53.5t-20 102.5q-26 -17 -61.5 -26.5t-71.5 -9.5q-99 0 -126 27q15 -194 15 -263q0 -29 -34 -53.5t-99 -39t-153 -14.5q-214 0 -214 150q0 45 38 283l22 -3q-36 -216 -36 -273q0 -66 45.5 -96.5t144.5 -30.5q112 0 175 19.5t91 49.5l-28 388l24 5
l4 -51l2 -19q3 -32 38.5 -40.5t90.5 -8.5q40 0 71.5 8t60.5 25l-2 81l24 4l3 -117q2 -52 17 -81.5t48.5 -42.5t91.5 -13q5 0 5 -12v-6q0 -12 -5 -12q-67 0 -105 16zM331 410l37 -28l-29 -38l-37 28zM824 465l37 -28l-29 -38l-37 28z" />
    <glyph glyph-name="uni06460649.fina" horiz-adv-x="850" 
d="M132.5 -186q-52.5 39 -52.5 121q0 35 38 273l22 -3q-35 -210 -35 -273q0 -65 46 -96t143 -31q89 0 151 14t104 58q18 44 18 77q0 39 -18.5 60t-55.5 27q-24 4 -68 6q-41 2 -57 8t-16 28q0 51 35 106.5t88.5 93t103.5 37.5q35 0 59 -19.5t39 -47.5t34 -76q20 -49 36 -78
t41 -49t62 -20q5 0 5 -12v-6q0 -12 -5 -12q-43 0 -72 22.5t-46.5 54.5t-39.5 85q-18 45 -31.5 70.5t-33.5 43t-48 17.5q-41 0 -89.5 -33t-81.5 -83t-32 -97q83 -4 127 -13t66.5 -32.5t22.5 -71.5q0 -110 -82 -149t-216 -39q-109 0 -161.5 39zM546 455l29 38l37 -28l-29 -38z
" />
    <glyph glyph-name="uni064A0632.fina" horiz-adv-x="606" 
d="M102 403l29 38l37 -28l-29 -38zM77.5 -113q69.5 63 79.5 118l-22 250l23 5l5 -45q3 -32 38.5 -40.5t90.5 -8.5q40 0 71.5 8t60.5 25l-2 81l24 4l3 -117q2 -52 17 -81.5t48.5 -42.5t91.5 -13q5 0 5 -12v-6q0 -12 -5 -12q-67 0 -105 16t-56 53.5t-20 102.5
q-26 -17 -61.5 -26.5t-71.5 -9.5q-98 0 -125 27q10 -112 10 -154q0 -41 -33.5 -88.5t-93.5 -91t-135 -72.5l-15 23q108 44 177.5 107zM281 -68l37 -28l-29 -38l-37 28zM375 -68l37 -28l-29 -38l-37 28z" />
    <glyph glyph-name="uni064A0646.fina" horiz-adv-x="1005" 
d="M900 16q-38 16 -56 53.5t-20 102.5q-26 -17 -61.5 -26.5t-71.5 -9.5q-99 0 -126 27q15 -194 15 -263q0 -29 -34 -53.5t-99 -39t-153 -14.5q-214 0 -214 150q0 45 38 283l22 -3q-36 -216 -36 -273q0 -66 45.5 -96.5t144.5 -30.5q112 0 175 19.5t91 49.5l-28 388l24 5
l4 -51l2 -19q3 -32 38.5 -40.5t90.5 -8.5q40 0 71.5 8t60.5 25l-2 81l24 4l3 -117q2 -52 17 -81.5t48.5 -42.5t91.5 -13q5 0 5 -12v-6q0 -12 -5 -12q-67 0 -105 16zM331 410l37 -28l-29 -38l-37 28zM689 -68l37 -28l-29 -38l-37 28zM783 -68l37 -28l-29 -38l-37 28z" />
    <glyph glyph-name="uni064A0698.fina" horiz-adv-x="606" 
d="M167 163q10 -112 10 -154q0 -41 -33.5 -88.5t-93.5 -91t-135 -72.5l-15 23q108 44 177.5 107t79.5 118l-22 250l23 5l5 -45q3 -32 38.5 -40.5t90.5 -8.5q40 0 71.5 8t60.5 25l-2 81l24 4l3 -117q2 -52 17 -81.5t48.5 -42.5t91.5 -13q5 0 5 -12v-6q0 -12 -5 -12
q-67 0 -105 16t-56 53.5t-20 102.5q-26 -17 -61.5 -26.5t-71.5 -9.5q-98 0 -125 27zM84 441l37 -28l-29 -38l-37 28zM131 528l37 -28l-29 -38l-37 28zM178 441l37 -28l-29 -38l-37 28zM281 -68l37 -28l-29 -38l-37 28zM375 -68l37 -28l-29 -38l-37 28z" />
    <glyph glyph-name="uni06260632.fina" horiz-adv-x="606" 
d="M102 403l29 38l37 -28l-29 -38zM77.5 -113q69.5 63 79.5 118l-22 250l23 5l5 -45q3 -32 38.5 -40.5t90.5 -8.5q40 0 71.5 8t60.5 25l-2 81l24 4l3 -117q2 -52 17 -81.5t48.5 -42.5t91.5 -13q5 0 5 -12v-6q0 -12 -5 -12q-67 0 -105 16t-56 53.5t-20 102.5
q-26 -17 -61.5 -26.5t-71.5 -9.5q-98 0 -125 27q10 -112 10 -154q0 -41 -33.5 -88.5t-93.5 -91t-135 -72.5l-15 23q108 44 177.5 107zM322 396l79 24q-30 45 -30 75q0 21 23.5 31.5t53.5 10.5q16 0 31 -3v-17q-18 2 -30 2q-40 0 -63 -16q0 -30 32 -78l101 30v-20l-197 -58
v19z" />
    <glyph glyph-name="uni06260646.fina" horiz-adv-x="1005" 
d="M900 16q-38 16 -56 53.5t-20 102.5q-26 -17 -61.5 -26.5t-71.5 -9.5q-99 0 -126 27q15 -194 15 -263q0 -29 -34 -53.5t-99 -39t-153 -14.5q-214 0 -214 150q0 45 38 283l22 -3q-36 -216 -36 -273q0 -66 45.5 -96.5t144.5 -30.5q112 0 175 19.5t91 49.5l-28 388l24 5
l4 -51l2 -19q3 -32 38.5 -40.5t90.5 -8.5q40 0 71.5 8t60.5 25l-2 81l24 4l3 -117q2 -52 17 -81.5t48.5 -42.5t91.5 -13q5 0 5 -12v-6q0 -12 -5 -12q-67 0 -105 16zM331 410l37 -28l-29 -38l-37 28zM731 396l79 24q-30 45 -30 75q0 21 23.5 31.5t53.5 10.5q16 0 31 -3v-17
q-18 2 -30 2q-40 0 -63 -16q0 -30 32 -78l101 30v-20l-197 -58v19z" />
    <glyph glyph-name="uni06F0.ss05" horiz-adv-x="564" 
d="M188 104q-38 38 -38 95t38 94.5t95 37.5t94.5 -37.5t37.5 -94.5t-37.5 -95t-94.5 -38t-95 38zM205.5 126.5q31.5 -29.5 77.5 -29.5t77 29.5t31 72.5q0 41 -32.5 71.5t-75.5 30.5t-76 -30t-33 -72q0 -43 31.5 -72.5z" />
    <glyph glyph-name="uni06F1.ss05" horiz-adv-x="564" 
d="M326 0l-24 -4q0 430 -63 677l24 7q63 -229 63 -680z" />
    <glyph glyph-name="uni06F2.ss05" horiz-adv-x="564" 
d="M235.5 414.5q-27.5 7.5 -43.5 22.5q20 -180 20 -437l-24 -4q0 430 -63 677l24 7q10 -39 11 -45q5 -21 13 -65q12 -61 17 -89q4 -24 31.5 -34t75.5 -10q31 0 67 7t55 30l-14 197l24 9l10 -194q4 -79 -144 -79q-32 0 -59.5 7.5z" />
    <glyph glyph-name="uni06F3.ss05" horiz-adv-x="564" 
d="M168 413q-25 6 -41 18q19 -180 19 -431l-24 -4q0 430 -63 677l24 7q13 -41 41 -199q8 -44 100 -44q28 0 45.5 4t39.5 14l-4 213l24 4l4 -215q13 -12 26 -16t31 -4q76 0 96 37l-14 197l24 9l10 -194q3 -48 -35.5 -63.5t-82.5 -15.5q-50 0 -71 29q-14 -16 -40.5 -22.5
t-55.5 -6.5q-28 0 -53 6z" />
    <glyph glyph-name="uni06F4.ss05" horiz-adv-x="564" 
d="M188.5 393.5q-28.5 6.5 -43.5 25.5q21 -177 21 -419l-24 -4q0 440 -63 649l21 7q25 -76 39 -187q14 -31 42.5 -42t79.5 -11q-45 77 -45 177q0 48 35.5 69.5t80.5 21.5q50 0 98 -14l-7 -23q-62 10 -90 10q-20 0 -47.5 -9t-47.5 -24q0 -59 12 -112t35 -91q62 3 99 11.5
t97 28.5l5 -26q-68 -21 -127 -32.5t-93 -11.5q-49 0 -77.5 6.5z" />
    <glyph glyph-name="uni06F5.ss05" horiz-adv-x="564" 
d="M86.5 25.5q-30.5 30.5 -30.5 91.5q0 112 63.5 235t157.5 258q-3 4 -25 23q1 -1 -25 22l18 20q135 -121 199.5 -271.5t64.5 -335.5q0 -42 -42 -57.5t-90 -15.5q-37 0 -61 9.5t-36 34.5q-13 -20 -42 -32t-66 -12q-55 0 -85.5 30.5zM108.5 46q28.5 -21 72.5 -21q69 0 87 41
l-5 73l27 5l6 -92q11 -14 35 -20.5t54 -6.5q32 0 60.5 8t42.5 27q-7 180 -55 306t-139 226q-72 -108 -115 -180t-71 -150t-28 -155q0 -40 28.5 -61z" />
    <glyph glyph-name="uni06F6.ss05" horiz-adv-x="564" 
d="M211.5 244q61.5 93 111.5 141q-84 0 -136.5 47t-52.5 127q0 53 37.5 87t94.5 34q42 0 86 -13l-2 -25q-44 10 -78 10q-87 0 -117 -72q1 -86 50.5 -126.5t150.5 -41.5l4 3l108 71l12 -27q-80 -42 -138 -97t-112.5 -141.5t-127.5 -234.5l-17 18q65 147 126.5 240z" />
    <glyph glyph-name="uni06F7.ss05" horiz-adv-x="564" 
d="M254 242.5q-19 110.5 -61.5 224.5t-109.5 197l21 16q168 -240 181 -518q0 -9 1 -12q0 8 1 12q19 175 57 291t122 227l16 -21q-67 -81 -108 -200.5t-58 -231.5t-17 -181v-46l-26 -4v55q0 81 -19 191.5z" />
    <glyph glyph-name="uni06F8.ss05" horiz-adv-x="564" 
d="M311 433.5q19 -110.5 61.5 -224.5t109.5 -197l-21 -16q-168 240 -181 518q0 9 -1 12q0 -8 -1 -12q-19 -175 -57 -291t-122 -227l-16 21q67 81 108 200.5t58 231.5t17 181v46l26 4v-55q0 -81 19 -191.5z" />
    <glyph glyph-name="uni06F9.ss05" horiz-adv-x="564" 
d="M405.5 192.5q-5.5 105.5 -5.5 181.5q-80 -18 -144 -18q-110 0 -131 32q-5 9 -6.5 20.5t-1.5 31.5q0 40 10 94t43 100t96 46q92 0 125 -77t33 -212q0 -91 5.5 -202.5t17.5 -190.5l-24 -12q-12 101 -17.5 206.5zM187 390q32 -4 68 -4q42 0 82 4t62 12q0 131 -31 191
t-102 60q-65 0 -95.5 -67.5t-30.5 -183.5q15 -8 47 -12zM399 395v1v-1z" />
    <glyph glyph-name="uni06F4.urdu" horiz-adv-x="521" 
d="M250.5 87.5q-24.5 54.5 -75.5 156.5q-60 119 -91.5 193.5t-31.5 120.5q0 61 32 91.5t88 30.5q46 0 75 -13t37 -38q12 26 42.5 38.5t67.5 12.5q30 0 46 -5l-7 -29q-27 5 -53 5q-50 -2 -69 -27.5t-19 -90.5v-76l-24 5v140q-10 28 -34 38t-63 10q-45 0 -70.5 -23t-25.5 -69
q0 -39 25 -98t80 -172q48 -96 75.5 -156.5t43.5 -116.5l-18 -20q-6 38 -30.5 92.5z" />
    <glyph glyph-name="uni06F7.urdu" horiz-adv-x="474" 
d="M177.5 230q49.5 128 57.5 297l26 4q-10 -131 -33 -219t-57 -149t-91 -137q194 31 353 32l-9 -28q-157 -3 -367 -35l-16 21q87 86 136.5 214z" />
    <glyph glyph-name="zero.dnom" horiz-adv-x="391" 
d="M85.5 43.5q-41.5 56.5 -41.5 168.5q0 110 41 166.5t112 56.5q67 0 109 -56.5t42 -166.5q0 -111 -42 -168t-109 -57q-70 0 -111.5 56.5zM116 68.5q31 -46.5 81 -46.5q47 0 78 46t31 144q0 96 -31 142t-78 46q-50 0 -81 -45t-31 -143q0 -97 31 -143.5z" />
    <glyph glyph-name="dotmaster" horiz-adv-x="0" 
 />
    <glyph glyph-name="wasla-ar" horiz-adv-x="0" 
d="M-44.5 7.5q-21.5 7.5 -21.5 34.5v33q-20 -2 -33.5 -17.5t-33.5 -46.5l-16 11q3 5 17.5 28t35.5 36.5t47 11.5v-59q0 -9 7.5 -13.5t13.5 -4.5q30 45 57.5 75t61.5 30q28 0 40.5 -17t12.5 -51v-8q0 -14 -6 -20q-13 -13 -46 -21.5t-73 -8.5q-42 0 -63.5 7.5zM66.5 22
q27.5 4 62.5 17q1 35 -7.5 51t-34.5 16q-21 0 -40.5 -19t-58.5 -69q51 0 78.5 4z" />
    <glyph glyph-name="gafsarkashabove-ar" horiz-adv-x="0" 
d="M-80 475l152 82l4 -22l-160 -87z" />
    <glyph glyph-name="hamzacenter-ar" horiz-adv-x="0" 
d="M-97 34l79 24q-30 45 -30 75q0 21 23.5 31.5t53.5 10.5q16 0 31 -3v-17q-18 2 -30 2q-40 0 -63 -16q0 -30 32 -78l101 30v-20l-197 -58v19z" />
    <glyph glyph-name="uni0654064F" horiz-adv-x="0" 
d="M-100 68l101 30q-15 3 -21 11.5t-6 24.5q0 13 7 35t21.5 39.5t36.5 17.5q29 0 45 -28.5t16 -59.5q0 -21 -9.5 -28.5t-42.5 -17.5l-145 -42zM-97 -117l79 24q-30 45 -30 75q0 21 23.5 31.5t53.5 10.5q16 0 31 -3v-17q-18 2 -30 2q-40 0 -63 -16q0 -30 32 -78l101 30v-20
l-197 -58v19zM35 116q26 0 50 8q0 42 -12.5 63t-35.5 21q-22 0 -35 -24.5t-12 -59.5q16 -8 45 -8z" />
    <glyph glyph-name="uni0654064C" horiz-adv-x="0" 
d="M-97 34l-3 18l19 6q-9 15 -13 26t-4 25q0 23 15 90l14 -6q-6 -27 -10.5 -49t-4.5 -35t4 -21t16 -25l65 19q-15 3 -21 11.5t-6 24.5q0 13 7 35t21.5 39.5t36.5 17.5q29 0 45 -28.5t16 -59.5q0 -21 -9.5 -28.5t-42.5 -17.5l-117 -34l-2 -1zM-97 -133l79 24q-30 45 -30 75
q0 21 23.5 31.5t53.5 10.5q16 0 31 -3v-17q-18 2 -30 2q-40 0 -63 -16q0 -30 32 -78l101 30v-20l-197 -58v19zM35 100q26 0 50 8q0 42 -12.5 63t-35.5 21q-22 0 -35 -24.5t-12 -59.5q16 -8 45 -8z" />
    <glyph glyph-name="uni0654064E" horiz-adv-x="0" 
d="M-97 19l79 24q-30 45 -30 75q0 21 23.5 31.5t53.5 10.5q16 0 31 -3v-17q-18 2 -30 2q-40 0 -63 -16q0 -30 32 -78l101 30v-20l-197 -58v19zM-97 206l197 59v-20l-197 -58v19z" />
    <glyph glyph-name="uni0654064B" horiz-adv-x="0" 
d="M-97 -61l79 24q-30 45 -30 75q0 21 23.5 31.5t53.5 10.5q16 0 31 -3v-17q-18 2 -30 2q-40 0 -63 -16q0 -30 32 -78l101 30v-20l-197 -58v19zM-97 126l197 59v-20l-197 -58v19zM-97 204l197 59v-20l-197 -58v19z" />
    <glyph glyph-name="uni06540652" horiz-adv-x="0" 
d="M-97 -131l79 24q-30 45 -30 75q0 21 23.5 31.5t53.5 10.5q16 0 31 -3v-17q-18 2 -30 2q-40 0 -63 -16q0 -30 32 -78l101 30v-20l-197 -58v19zM-64 128q0 18 10.5 32.5t27.5 22.5q17 7 31 7q36 0 52 -34q6 -13 6 -28q0 -17 -9.5 -31.5t-28.5 -23.5l-32 -13q-14 -7 -24 -7
q-13 0 -19 9l64 27q31 14 31 36q0 9 -5 22q-9 24 -33 24q-8 0 -25 -5q-29 -9 -29 -33q0 -9 5 -22l-16 -9q-6 14 -6 26z" />
    <glyph glyph-name="uni06550650" horiz-adv-x="0" 
d="M-97 6l79 24q-30 45 -30 75q0 21 23.5 31.5t53.5 10.5q16 0 31 -3v-17q-18 2 -30 2q-40 0 -63 -16q0 -30 32 -78l101 30v-20l-197 -58v19zM-97 -68l197 59v-20l-197 -58v19z" />
    <glyph glyph-name="uni0655064D" horiz-adv-x="0" 
d="M-97 23l79 24q-30 45 -30 75q0 21 23.5 31.5t53.5 10.5q16 0 31 -3v-17q-18 2 -30 2q-40 0 -63 -16q0 -30 32 -78l101 30v-20l-197 -58v19zM-97 -51l197 59v-20l-197 -58v19zM-97 -128l197 59v-20l-197 -58v19z" />
    <glyph glyph-name="uni0651064B" horiz-adv-x="0" 
d="M-84 44q0 -22 27 -22q14 0 28 6.5t21 18.5v56l16 3v-39q0 -16 6.5 -22.5t21.5 -6.5q12 0 27 7t21 14q2 21 -7 80l15 5q7 -35 7 -73q0 -23 -20.5 -37t-44.5 -14q-25 0 -32 17q-9 -15 -27 -24t-35 -9q-19 0 -29.5 9.5t-10.5 26.5q0 14 5 48l16 3q-5 -30 -5 -47zM-97 165
l197 59v-20l-197 -58v19zM-97 243l197 59v-20l-197 -58v19z" />
    <glyph glyph-name="uni0651064C" horiz-adv-x="0" 
d="M-99 -112q0 -22 27 -22q14 0 28 6.5t21 18.5v56l16 3v-39q0 -16 6.5 -22.5t21.5 -6.5q12 0 27 7t21 14q2 21 -7 80l15 5q7 -35 7 -73q0 -23 -20.5 -37t-44.5 -14q-25 0 -32 17q-9 -15 -27 -24t-35 -9q-19 0 -29.5 9.5t-10.5 26.5q0 14 5 48l16 3q-5 -30 -5 -47zM-112 7
l21 6q-13 21 -17.5 32.5t-4.5 27.5q0 26 15 87l14 -3q-15 -63 -15 -84q0 -11 4 -19.5t10.5 -18.5t10.5 -17l65 19q-19 2 -25.5 10t-6.5 25q0 13 7 35.5t21.5 40t36.5 17.5q29 0 45 -29t16 -60q0 -21 -9.5 -28.5t-42.5 -17.5l-145 -42v19zM20 54q26 0 50 8q0 42 -12.5 63
t-35.5 21q-22 0 -35 -25t-12 -61q12 -6 45 -6z" />
    <glyph glyph-name="uni0651064D" horiz-adv-x="0" 
d="M-84 30q0 -22 27 -22q14 0 28 6.5t21 18.5v56l16 3v-39q0 -16 6.5 -22.5t21.5 -6.5q12 0 27 7t21 14q2 21 -7 80l15 5q7 -35 7 -73q0 -23 -20.5 -37t-44.5 -14q-25 0 -32 17q-9 -15 -27 -24t-35 -9q-19 0 -29.5 9.5t-10.5 26.5q0 14 5 48l16 3q-5 -30 -5 -47zM-99 -80
l197 59v-20l-197 -58v19zM-99 -157l197 59v-20l-197 -58v19z" />
    <glyph glyph-name="uni0651064E" horiz-adv-x="0" 
d="M-84 30q0 -22 27 -22q14 0 28 6.5t21 18.5v56l16 3v-39q0 -16 6.5 -22.5t21.5 -6.5q12 0 27 7t21 14q2 21 -7 80l15 5q7 -35 7 -73q0 -23 -20.5 -37t-44.5 -14q-25 0 -32 17q-9 -15 -27 -24t-35 -9q-19 0 -29.5 9.5t-10.5 26.5q0 14 5 48l16 3q-5 -30 -5 -47zM-97 151
l197 59v-20l-197 -58v19z" />
    <glyph glyph-name="uni0651064F" horiz-adv-x="0" 
d="M-84 -17q0 -22 27 -22q14 0 28 6.5t21 18.5v56l16 3v-39q0 -16 6.5 -22.5t21.5 -6.5q12 0 27 7t21 14q2 21 -7 80l15 5q7 -35 7 -73q0 -23 -20.5 -37t-44.5 -14q-25 0 -32 17q-9 -15 -27 -24t-35 -9q-19 0 -29.5 9.5t-10.5 26.5q0 14 5 48l16 3q-5 -30 -5 -47zM-97 102
l103 30q-19 2 -25.5 10t-6.5 25q0 13 7 35.5t21.5 40t36.5 17.5q29 0 45 -29t16 -60q0 -21 -9.5 -28.5t-42.5 -17.5l-145 -42v19zM35 149q26 0 50 8q0 42 -12.5 63t-35.5 21q-22 0 -35 -25t-12 -61q12 -6 45 -6z" />
    <glyph glyph-name="uni06510650" horiz-adv-x="0" 
d="M-84 30q0 -22 27 -22q14 0 28 6.5t21 18.5v56l16 3v-39q0 -16 6.5 -22.5t21.5 -6.5q12 0 27 7t21 14q2 21 -7 80l15 5q7 -35 7 -73q0 -23 -20.5 -37t-44.5 -14q-25 0 -32 17q-9 -15 -27 -24t-35 -9q-19 0 -29.5 9.5t-10.5 26.5q0 14 5 48l16 3q-5 -30 -5 -47zM-97 -77
l197 59v-20l-197 -58v19z" />
    <glyph glyph-name="uni06510670" horiz-adv-x="0" 
d="M-84 30q0 -22 27 -22q14 0 28 6.5t21 18.5v56l16 3v-39q0 -16 6.5 -22.5t21.5 -6.5q12 0 27 7t21 14q2 21 -7 80l15 5q7 -35 7 -73q0 -23 -20.5 -37t-44.5 -14q-25 0 -32 17q-9 -15 -27 -24t-35 -9q-19 0 -29.5 9.5t-10.5 26.5q0 14 5 48l16 3q-5 -30 -5 -47zM-12 256
l24 3l-4 -111h-18z" />
    <glyph glyph-name="vbelow-ar" horiz-adv-x="0" 
d="M-84 151l14 6q47 -80 70 -137q32 79 68 137l16 -8q-42 -68 -70 -145l-24 -4q-29 78 -74 151z" />
    <glyph glyph-name="dad-yeh2-ar" horiz-adv-x="960" 
d="M131 -136q-51 21 -51 73q0 40 35.5 105.5t89.5 114.5t106 49q30 0 45 -17t32 -54q3 -6 7 -15t11 -21q88 95 171.5 162t154.5 67q148 0 148 -192q0 -57 -18 -71q-36 -27 -123 -46t-217 -19q-48 0 -78 17t-44.5 40t-30.5 59q-14 33 -25.5 48t-31.5 15q-44 0 -94 -46
t-84.5 -106.5t-32.5 -95.5q13 -35 59.5 -46.5t143.5 -11.5q56 0 149 5q15 1 35 2t48 2l-9 -30l-22 -1q-131 -8 -226 -8q-97 0 -148 21zM528 30q102 0 183.5 12.5t143.5 45.5q0 73 -6 115t-33 70t-84 28t-139.5 -61.5t-171.5 -162.5q37 -47 107 -47zM613 485l29 38l37 -28
l-29 -38z" />
    <glyph glyph-name="gafswash-ar" horiz-adv-x="918" 
d="M283.5 498q32.5 29 61.5 43l4 -26q-32 -16 -64.5 -45.5t-53.5 -61.5l-5 29q25 32 57.5 61zM267 27q81 -2 206 -2q100 0 175 13.5t116 33.5t47 41q0 49 -33 74.5t-90.5 34t-148.5 8.5q-186 0 -245.5 2t-74.5 9t-15 29q0 40 36.5 88.5t94 85t117.5 44.5l4 -24
q-47 -6 -99.5 -37t-90 -73.5t-43.5 -81.5q20 -11 72.5 -13.5t202.5 -2.5q115 0 184.5 -8.5t110.5 -39t41 -91.5q0 -36 -47.5 -63.5t-134 -43t-199.5 -15.5q-116 0 -321 9l-36 1l-16 30q106 -6 187 -8z" />
    <glyph glyph-name="kafcheh" horiz-adv-x="0" 
d="M9.5 30q49.5 14 59.5 38q0 40 -26.5 52.5t-72.5 16.5q-25 2 -36.5 5.5t-11.5 12.5q0 14 12.5 51.5t37 68.5t58.5 31q38 0 68 -42l-17 -12q-11 14 -25 21.5t-26 7.5q-32 0 -56 -38.5t-29 -79.5q56 -3 87 -12.5t44 -28t13 -49.5q0 -37 -53.5 -58t-139.5 -21v22
q64 0 113.5 14z" />
    <glyph glyph-name="sad-yeh2-ar" horiz-adv-x="960" 
d="M131 -136q-51 21 -51 73q0 40 35.5 105.5t89.5 114.5t106 49q30 0 45 -17t32 -54q3 -6 7 -15t11 -21q88 95 171.5 162t154.5 67q148 0 148 -192q0 -57 -18 -71q-36 -27 -123 -46t-217 -19q-48 0 -78 17t-44.5 40t-30.5 59q-14 33 -25.5 48t-31.5 15q-44 0 -94 -46
t-84.5 -106.5t-32.5 -95.5q13 -35 59.5 -46.5t143.5 -11.5q56 0 149 5q15 1 35 2t48 2l-9 -30l-22 -1q-131 -8 -226 -8q-97 0 -148 21zM528 30q102 0 183.5 12.5t143.5 45.5q0 73 -6 115t-33 70t-84 28t-139.5 -61.5t-171.5 -162.5q37 -47 107 -47z" />
    <glyph glyph-name="seen-yeh2-ar" horiz-adv-x="894" 
d="M131 -136q-51 21 -51 73q0 40 35.5 105.5t89.5 114.5t106 49q32 0 47.5 -20t30.5 -61q11 -31 21.5 -50t30 -32t51.5 -13q73 0 103 21l-1 224h24v-217q19 -28 69 -28q34 0 60 4.5t46 21.5l-12 259l23 5l4 -92q6 -106 6 -159q0 -39 -39.5 -54t-90.5 -15q-29 0 -51 11.5
t-27 27.5q-6 -21 -42 -30t-72 -9q-39 0 -62.5 16t-36 38t-24.5 57q-14 36 -25 52t-32 16q-44 0 -94 -46t-84.5 -106.5t-32.5 -95.5q13 -35 59.5 -46.5t143.5 -11.5q56 0 149 5q15 1 35 2t48 2l-9 -30l-22 -1q-131 -8 -226 -8q-97 0 -148 21z" />
    <glyph glyph-name="sheen-yeh2-ar" horiz-adv-x="894" 
d="M131 -136q-51 21 -51 73q0 40 35.5 105.5t89.5 114.5t106 49q32 0 47.5 -20t30.5 -61q11 -31 21.5 -50t30 -32t51.5 -13q73 0 103 21l-1 224h24v-217q19 -28 69 -28q34 0 60 4.5t46 21.5l-12 259l23 5l4 -92q6 -106 6 -159q0 -39 -39.5 -54t-90.5 -15q-29 0 -51 11.5
t-27 27.5q-6 -21 -42 -30t-72 -9q-39 0 -62.5 16t-36 38t-24.5 57q-14 36 -25 52t-32 16q-44 0 -94 -46t-84.5 -106.5t-32.5 -95.5q13 -35 59.5 -46.5t143.5 -11.5q56 0 149 5q15 1 35 2t48 2l-9 -30l-22 -1q-131 -8 -226 -8q-97 0 -148 21zM510 423l29 38l37 -28l-29 -38z
M586 548l37 -28l-29 -38l-37 28zM633 461l37 -28l-29 -38l-37 28z" />
    <glyph glyph-name="ain-ar-k.fina" horiz-adv-x="570" 
d="M389.5 17q-35.5 17 -52 37.5t-28.5 45.5q-192 -80 -204 -234q0 -99 68.5 -148.5t173.5 -49.5q80 0 162 28l-1 -28q-84 -28 -165 -28q-114 0 -188.5 54t-74.5 159q0 79 50 151.5t155 113.5q-72 103 -100.5 141.5t-39 46.5t-22.5 6l-25 -5l5 28q75 19 241 19q56 0 98 -9.5
t42 -32.5v-13q0 -23 -25 -62t-61 -76.5t-65 -54.5q18 -33 46 -54.5t88 -21.5h103q5 0 5 -12v-6q0 -12 -5 -12h-89q-56 0 -91.5 17zM213 268q30 -41 102 -145q46 34 94.5 88t55.5 92q-6 24 -124 24q-48 0 -98 -3t-74 -6q14 -9 44 -50z" />
    <glyph glyph-name="beh-yeh2-ar.fina" horiz-adv-x="506" 
d="M131 -136q-51 21 -51 73q0 40 35.5 105.5t89.5 114.5t106 49q31 0 46.5 -19t31.5 -58q13 -32 24.5 -51.5t34 -33.5t58.5 -14q5 0 5 -12v-6q0 -12 -5 -12q-43 0 -70 16.5t-40.5 39.5t-26.5 58q-13 34 -24.5 49.5t-32.5 15.5q-44 0 -94 -46t-84.5 -106.5t-32.5 -95.5
q13 -35 59.5 -46.5t143.5 -11.5q56 0 149 5q15 1 35 2t48 2l-9 -30l-22 -1q-131 -8 -226 -8q-97 0 -148 21zM245 -304l29 38l37 -28l-29 -38z" />
    <glyph glyph-name="behdotless-yeh2-ar.fina" horiz-adv-x="506" 
d="M131 -136q-51 21 -51 73q0 40 35.5 105.5t89.5 114.5t106 49q31 0 46.5 -19t31.5 -58q13 -32 24.5 -51.5t34 -33.5t58.5 -14q5 0 5 -12v-6q0 -12 -5 -12q-43 0 -70 16.5t-40.5 39.5t-26.5 58q-13 34 -24.5 49.5t-32.5 15.5q-44 0 -94 -46t-84.5 -106.5t-32.5 -95.5
q13 -35 59.5 -46.5t143.5 -11.5q56 0 149 5q15 1 35 2t48 2l-9 -30l-22 -1q-131 -8 -226 -8q-97 0 -148 21z" />
    <glyph glyph-name="behdotless_alefMaksura-ar.fina" horiz-adv-x="850" 
d="M132.5 -186q-52.5 39 -52.5 121q0 35 38 273l22 -3q-35 -210 -35 -273q0 -65 46 -96t143 -31q89 0 151 14t104 58q18 44 18 77q0 39 -18.5 60t-55.5 27q-24 4 -68 6q-41 2 -57 8t-16 28q0 51 35 106.5t88.5 93t103.5 37.5q35 0 59 -19.5t39 -47.5t34 -76q20 -49 36 -78
t41 -49t62 -20q5 0 5 -12v-6q0 -12 -5 -12q-43 0 -72 22.5t-46.5 54.5t-39.5 85q-18 45 -31.5 70.5t-33.5 43t-48 17.5q-41 0 -89.5 -33t-81.5 -83t-32 -97q83 -4 127 -13t66.5 -32.5t22.5 -71.5q0 -110 -82 -149t-216 -39q-109 0 -161.5 39z" />
    <glyph glyph-name="behdotless_noon-ar.fina" horiz-adv-x="1005" 
d="M900 16q-38 16 -56 53.5t-20 102.5q-26 -17 -61.5 -26.5t-71.5 -9.5q-99 0 -126 27q15 -194 15 -263q0 -29 -34 -53.5t-99 -39t-153 -14.5q-214 0 -214 150q0 45 38 283l22 -3q-36 -216 -36 -273q0 -66 45.5 -96.5t144.5 -30.5q112 0 175 19.5t91 49.5l-28 388l24 5
l4 -51l2 -19q3 -32 38.5 -40.5t90.5 -8.5q40 0 71.5 8t60.5 25l-2 81l24 4l3 -117q2 -52 17 -81.5t48.5 -42.5t91.5 -13q5 0 5 -12v-6q0 -12 -5 -12q-67 0 -105 16z" />
    <glyph glyph-name="behdotless_reh-ar.fina" horiz-adv-x="596" 
d="M157 163q10 -112 10 -154q0 -41 -33.5 -88.5t-93.5 -91t-135 -72.5l-15 23q108 44 177.5 107t79.5 118l-22 250l23 5l5 -45q3 -32 38.5 -40.5t90.5 -8.5q40 0 71.5 8t60.5 25l-2 81l24 4l3 -117q2 -52 17 -81.5t48.5 -42.5t91.5 -13q5 0 5 -12v-6q0 -12 -5 -12
q-67 0 -105 16t-56 53.5t-20 102.5q-26 -17 -61.5 -26.5t-71.5 -9.5q-98 0 -125 27z" />
    <glyph glyph-name="behdotless_zain-ar.fina" horiz-adv-x="596" 
d="M157 163q10 -112 10 -154q0 -41 -33.5 -88.5t-93.5 -91t-135 -72.5l-15 23q108 44 177.5 107t79.5 118l-22 250l23 5l5 -45q3 -32 38.5 -40.5t90.5 -8.5q40 0 71.5 8t60.5 25l-2 81l24 4l6 -140q3 -61 39.5 -87.5t114.5 -26.5q5 0 5 -12v-6q0 -12 -5 -12
q-91 0 -134.5 35.5t-45.5 110.5l-1 26q-26 -17 -61.5 -26.5t-71.5 -9.5q-98 0 -125 27zM121 441l37 -28l-29 -38l-37 28z" />
    <glyph glyph-name="dad-yeh2-ar.fina" horiz-adv-x="976" 
d="M861 64q-38 -26 -124 -45t-215 -19q-48 0 -78 17t-44.5 40t-30.5 59q-14 33 -25.5 48t-31.5 15q-44 0 -94 -46t-84.5 -106.5t-32.5 -95.5q13 -35 59.5 -46.5t143.5 -11.5q56 0 149 5q15 1 35 2t48 2l-9 -30l-22 -1q-131 -8 -226 -8q-97 0 -148 21t-51 73q0 40 35.5 105.5
t89.5 114.5t106 49q30 0 45 -17t32 -54q3 -6 7 -15t11 -21q88 95 171.5 162t154.5 67q148 0 148 -192q0 -32 -6 -50q12 -31 41 -43.5t61 -12.5q5 0 5 -12v-6q0 -12 -5 -12q-82 0 -115 64zM528 30q102 0 183.5 12.5t143.5 45.5q0 73 -6 115t-33 70t-84 28t-139.5 -61.5
t-171.5 -162.5q37 -47 107 -47zM613 485l29 38l37 -28l-29 -38z" />
    </font>
</defs>
</svg>
